<?xml version="1.0" encoding="UTF-8" standalone="no"?>
<!-- Created with Inkscape (http://www.inkscape.org/) -->

<svg
   xmlns:dc="http://purl.org/dc/elements/1.1/"
   xmlns:cc="http://creativecommons.org/ns#"
   xmlns:rdf="http://www.w3.org/1999/02/22-rdf-syntax-ns#"
   xmlns:svg="http://www.w3.org/2000/svg"
   xmlns="http://www.w3.org/2000/svg"
   version="1.1"
   width="317.28125"
   height="85.178703"
   id="svg5357">
  <defs
     id="defs5359">
    <clipPath
       id="clipPath3616">
      <path
         d="m 446.457,989.732 217.052,0 0,42.52 -217.052,0 0,-42.52 z"
         id="path3618" />
    </clipPath>
  </defs>
  <metadata
     id="metadata5362">
    <rdf:RDF>
      <cc:Work
         rdf:about="">
        <dc:format>image/svg+xml</dc:format>
        <dc:type
           rdf:resource="http://purl.org/dc/dcmitype/StillImage" />
        <dc:title></dc:title>
      </cc:Work>
    </rdf:RDF>
  </metadata>
  <g
     transform="translate(-84.21652,-404.05855)"
     id="layer1">
    <g
       transform="matrix(1.25,0,0,-1.25,-473.85473,1694.3723)"
       id="g3612">
      <g
         clip-path="url(#clipPath3616)"
         id="g3614">
        <path
           d="m 619.729,997.716 -1.163,0 0,-1.008 1.163,0 0,1.008 z m -1.775,0 -1.163,0 0,-1.008 1.163,0 0,1.008 z m 39.014,-1.55 c -0.471,0 -0.895,-0.083 -1.271,-0.25 -0.377,-0.167 -0.693,-0.397 -0.951,-0.689 -0.259,-0.293 -0.457,-0.636 -0.595,-1.029 -0.138,-0.394 -0.207,-0.82 -0.207,-1.28 0,-0.448 0.069,-0.865 0.207,-1.253 0.138,-0.387 0.336,-0.725 0.595,-1.012 0.258,-0.287 0.574,-0.512 0.951,-0.676 0.376,-0.164 0.8,-0.245 1.271,-0.245 0.298,0 0.594,0.061 0.886,0.185 0.294,0.123 0.56,0.34 0.802,0.65 l 0.138,-0.698 0.861,0 0,3.325 -2.584,0 0,-1.008 1.361,0 c -0.04,-0.43 -0.183,-0.76 -0.426,-0.986 -0.245,-0.226 -0.59,-0.34 -1.038,-0.34 -0.305,0 -0.563,0.058 -0.776,0.176 -0.213,0.117 -0.385,0.275 -0.516,0.47 -0.133,0.195 -0.229,0.415 -0.289,0.659 -0.06,0.244 -0.09,0.495 -0.09,0.753 0,0.27 0.03,0.531 0.09,0.785 0.06,0.252 0.156,0.477 0.289,0.675 0.131,0.199 0.303,0.356 0.516,0.474 0.213,0.118 0.471,0.177 0.776,0.177 0.327,0 0.605,-0.087 0.835,-0.259 0.23,-0.172 0.385,-0.43 0.465,-0.775 l 1.292,0 c -0.034,0.35 -0.129,0.66 -0.284,0.931 -0.155,0.269 -0.352,0.496 -0.59,0.68 -0.238,0.183 -0.505,0.323 -0.801,0.417 -0.296,0.095 -0.602,0.143 -0.917,0.143 m -68.905,0 c -0.471,0 -0.894,-0.083 -1.27,-0.25 -0.376,-0.167 -0.694,-0.397 -0.952,-0.689 -0.259,-0.293 -0.456,-0.636 -0.594,-1.029 -0.138,-0.394 -0.207,-0.82 -0.207,-1.28 0,-0.448 0.069,-0.865 0.207,-1.253 0.138,-0.387 0.335,-0.725 0.594,-1.012 0.258,-0.287 0.576,-0.512 0.952,-0.676 0.376,-0.164 0.799,-0.245 1.27,-0.245 0.299,0 0.595,0.061 0.888,0.185 0.292,0.123 0.559,0.34 0.801,0.65 l 0.137,-0.698 0.862,0 0,3.325 -2.584,0 0,-1.008 1.36,0 c -0.04,-0.43 -0.181,-0.76 -0.425,-0.986 -0.245,-0.226 -0.591,-0.34 -1.039,-0.34 -0.304,0 -0.563,0.058 -0.775,0.176 -0.213,0.117 -0.384,0.275 -0.517,0.47 -0.132,0.195 -0.228,0.415 -0.288,0.659 -0.06,0.244 -0.091,0.495 -0.091,0.753 0,0.27 0.031,0.531 0.091,0.785 0.06,0.252 0.156,0.477 0.288,0.675 0.133,0.199 0.304,0.356 0.517,0.474 0.212,0.118 0.471,0.177 0.775,0.177 0.328,0 0.606,-0.087 0.836,-0.259 0.23,-0.172 0.385,-0.43 0.465,-0.775 l 1.292,0 c -0.034,0.35 -0.129,0.66 -0.284,0.931 -0.156,0.269 -0.352,0.496 -0.59,0.68 -0.238,0.183 -0.505,0.323 -0.801,0.417 -0.296,0.095 -0.602,0.143 -0.918,0.143 m 63.071,-0.147 -3.317,0 0,-6.15 1.353,0 0,2.403 1.352,0 c 0.339,0 0.583,-0.075 0.733,-0.223 0.149,-0.15 0.246,-0.386 0.292,-0.707 0.035,-0.247 0.06,-0.505 0.078,-0.775 0.017,-0.27 0.063,-0.503 0.137,-0.698 l 1.353,0 c -0.064,0.086 -0.111,0.191 -0.142,0.314 -0.032,0.124 -0.055,0.254 -0.07,0.393 -0.014,0.137 -0.024,0.272 -0.029,0.404 -0.007,0.133 -0.012,0.247 -0.018,0.345 -0.011,0.155 -0.032,0.31 -0.064,0.465 -0.032,0.155 -0.082,0.298 -0.151,0.426 -0.069,0.13 -0.158,0.242 -0.267,0.337 -0.109,0.094 -0.247,0.164 -0.413,0.211 l 0,0.016 c 0.344,0.138 0.592,0.339 0.745,0.604 0.151,0.264 0.228,0.576 0.228,0.938 0,0.236 -0.042,0.455 -0.125,0.659 -0.084,0.204 -0.204,0.384 -0.362,0.538 -0.158,0.156 -0.347,0.278 -0.568,0.367 -0.221,0.089 -0.47,0.133 -0.745,0.133 m -1.964,-2.782 0,1.732 1.481,0 c 0.31,0 0.543,-0.068 0.698,-0.203 0.155,-0.135 0.233,-0.351 0.233,-0.651 0,-0.31 -0.078,-0.533 -0.233,-0.671 -0.155,-0.138 -0.388,-0.207 -0.698,-0.207 l -1.481,0 m -2.764,2.782 -4.599,0 0,-6.15 4.668,0 0,1.137 -3.316,0 0,1.507 2.981,0 0,1.051 -2.981,0 0,1.319 3.247,0 0,1.136 m -7.983,0 -2.894,0 0,-6.15 2.98,0 c 0.275,0 0.544,0.035 0.805,0.103 0.261,0.069 0.494,0.176 0.698,0.319 0.203,0.144 0.366,0.329 0.487,0.556 0.12,0.226 0.181,0.495 0.181,0.804 0,0.386 -0.094,0.715 -0.281,0.988 -0.186,0.272 -0.469,0.463 -0.848,0.572 0.275,0.132 0.484,0.302 0.624,0.509 0.141,0.206 0.212,0.465 0.212,0.775 0,0.286 -0.048,0.528 -0.143,0.723 -0.094,0.195 -0.228,0.352 -0.4,0.47 -0.172,0.117 -0.379,0.202 -0.62,0.254 -0.242,0.052 -0.509,0.077 -0.801,0.077 m -1.542,-2.489 0,1.439 1.266,0 c 0.12,0 0.237,-0.01 0.349,-0.031 0.112,-0.02 0.211,-0.055 0.297,-0.107 0.086,-0.052 0.155,-0.124 0.206,-0.215 0.052,-0.093 0.078,-0.21 0.078,-0.354 0,-0.258 -0.078,-0.445 -0.232,-0.559 -0.156,-0.116 -0.353,-0.173 -0.595,-0.173 l -1.369,0 m 0,-2.61 0,1.688 1.473,0 c 0.293,0 0.528,-0.068 0.706,-0.202 0.178,-0.135 0.267,-0.36 0.267,-0.677 0,-0.16 -0.027,-0.292 -0.082,-0.396 -0.054,-0.103 -0.128,-0.184 -0.219,-0.245 -0.092,-0.061 -0.198,-0.103 -0.319,-0.129 -0.121,-0.026 -0.247,-0.039 -0.379,-0.039 l -1.447,0 m -2.904,5.099 -1.267,0 0,-4.125 -0.017,0 -2.567,4.125 -1.343,0 0,-6.15 1.266,0 0,4.118 0.018,0 2.558,-4.118 1.352,0 0,6.15 m -8.388,0 -3.317,0 0,-6.15 1.352,0 0,2.403 1.353,0 c 0.339,0 0.583,-0.075 0.732,-0.223 0.149,-0.15 0.247,-0.386 0.293,-0.707 0.035,-0.247 0.06,-0.505 0.077,-0.775 0.017,-0.27 0.064,-0.503 0.138,-0.698 l 1.353,0 c -0.063,0.086 -0.111,0.191 -0.143,0.314 -0.031,0.124 -0.054,0.254 -0.068,0.393 -0.015,0.137 -0.025,0.272 -0.03,0.404 -0.007,0.133 -0.012,0.247 -0.018,0.345 -0.012,0.155 -0.033,0.31 -0.065,0.465 -0.031,0.155 -0.081,0.298 -0.151,0.426 -0.069,0.13 -0.157,0.242 -0.266,0.337 -0.109,0.094 -0.247,0.164 -0.413,0.211 l 0,0.016 c 0.344,0.138 0.593,0.339 0.744,0.604 0.152,0.264 0.228,0.576 0.228,0.938 0,0.236 -0.041,0.455 -0.125,0.659 -0.082,0.204 -0.203,0.384 -0.361,0.538 -0.158,0.156 -0.347,0.278 -0.569,0.367 -0.22,0.089 -0.469,0.133 -0.744,0.133 m -1.965,-2.782 0,1.732 1.482,0 c 0.31,0 0.542,-0.068 0.697,-0.203 0.156,-0.135 0.234,-0.351 0.234,-0.651 0,-0.31 -0.078,-0.533 -0.234,-0.671 -0.155,-0.138 -0.387,-0.207 -0.697,-0.207 l -1.482,0 m -2.741,2.782 -1.352,0 0,-3.825 c 0,-0.459 -0.092,-0.796 -0.276,-1.011 -0.184,-0.216 -0.517,-0.323 -0.999,-0.323 -0.276,0 -0.496,0.039 -0.659,0.116 -0.164,0.078 -0.291,0.177 -0.384,0.302 -0.091,0.123 -0.152,0.265 -0.18,0.426 -0.029,0.161 -0.044,0.325 -0.044,0.49 l 0,3.825 -1.352,0 0,-3.825 c 0,-0.838 0.229,-1.457 0.685,-1.86 0.456,-0.401 1.101,-0.602 1.934,-0.602 0.821,0 1.464,0.202 1.929,0.607 0.465,0.404 0.698,1.023 0.698,1.855 l 0,3.825 m -6.726,0 -1.266,0 0,-4.125 -0.017,0 -2.567,4.125 -1.344,0 0,-6.15 1.266,0 0,4.118 0.017,0 2.559,-4.118 1.352,0 0,6.15 m -10.875,0 -1.266,0 0,-4.125 -0.018,0 -2.566,4.125 -1.344,0 0,-6.15 1.266,0 0,4.118 0.017,0 2.559,-4.118 1.352,0 0,6.15 m -6.605,0 -4.6,0 0,-6.15 4.669,0 0,1.137 -3.316,0 0,1.507 2.98,0 0,1.051 -2.98,0 0,1.319 3.247,0 0,1.136 m -12.766,0 -1.266,0 0,-4.125 -0.017,0 -2.567,4.125 -1.344,0 0,-6.15 1.267,0 0,4.118 0.017,0 2.559,-4.118 1.351,0 0,6.15 m -8.26,0 -1.387,0 -2.325,-6.15 1.361,0 0.482,1.369 2.3,0 0.465,-1.369 1.404,0 -2.3,6.15 m -1.516,-3.772 0.801,2.256 0.017,0 0.776,-2.256 -1.594,0 m -5.754,3.772 -1.352,0 0,-6.15 4.35,0 0,1.137 -2.998,0 0,5.013 m -4.374,0 -3.316,0 0,-6.15 1.352,0 0,2.403 1.352,0 c 0.339,0 0.583,-0.075 0.733,-0.223 0.148,-0.15 0.246,-0.386 0.292,-0.707 0.035,-0.247 0.061,-0.505 0.078,-0.775 0.017,-0.27 0.062,-0.503 0.137,-0.698 l 1.353,0 c -0.063,0.086 -0.111,0.191 -0.142,0.314 -0.032,0.124 -0.055,0.254 -0.069,0.393 -0.014,0.137 -0.025,0.272 -0.03,0.404 -0.006,0.133 -0.012,0.247 -0.017,0.345 -0.012,0.155 -0.034,0.31 -0.065,0.465 -0.031,0.155 -0.082,0.298 -0.151,0.426 -0.069,0.13 -0.158,0.242 -0.267,0.337 -0.109,0.094 -0.247,0.164 -0.414,0.211 l 0,0.016 c 0.345,0.138 0.594,0.339 0.746,0.604 0.152,0.264 0.228,0.576 0.228,0.938 0,0.236 -0.042,0.455 -0.125,0.659 -0.083,0.204 -0.203,0.384 -0.362,0.538 -0.158,0.156 -0.348,0.278 -0.568,0.367 -0.221,0.089 -0.47,0.133 -0.745,0.133 m -1.964,-2.782 0,1.732 1.481,0 c 0.31,0 0.543,-0.068 0.698,-0.203 0.155,-0.135 0.233,-0.351 0.233,-0.651 0,-0.31 -0.078,-0.533 -0.233,-0.671 -0.155,-0.138 -0.388,-0.207 -0.698,-0.207 l -1.481,0 m -2.677,2.782 -4.6,0 0,-6.15 4.669,0 0,1.137 -3.316,0 0,1.507 2.98,0 0,1.051 -2.98,0 0,1.319 3.247,0 0,1.136 m 48.043,-3.273 -2.593,0 0,-1.051 2.593,0 0,1.051 z"
           id="path3620"
           style="fill:#a7a5a6;fill-opacity:1;fill-rule:nonzero;stroke:none" />
        <path
           d="m 607.353,1007.019 -1.163,0 0,-1.008 1.163,0 0,1.008 z m -1.775,0 -1.163,0 0,-1.008 1.163,0 0,1.008 z m -13.928,-1.55 c -0.275,0 -0.551,-0.038 -0.827,-0.112 -0.275,-0.075 -0.522,-0.19 -0.74,-0.345 -0.218,-0.155 -0.395,-0.35 -0.53,-0.581 -0.135,-0.233 -0.202,-0.507 -0.202,-0.823 0,-0.282 0.052,-0.521 0.159,-0.72 0.106,-0.197 0.245,-0.362 0.417,-0.495 0.173,-0.131 0.368,-0.24 0.587,-0.323 0.218,-0.083 0.441,-0.153 0.671,-0.211 0.224,-0.063 0.446,-0.12 0.664,-0.172 0.218,-0.051 0.413,-0.112 0.585,-0.181 0.173,-0.069 0.311,-0.155 0.418,-0.258 0.107,-0.103 0.16,-0.239 0.16,-0.405 0,-0.155 -0.041,-0.283 -0.121,-0.383 -0.08,-0.1 -0.181,-0.18 -0.302,-0.237 -0.12,-0.058 -0.25,-0.097 -0.387,-0.116 -0.138,-0.021 -0.267,-0.031 -0.388,-0.031 -0.178,0 -0.35,0.022 -0.517,0.065 -0.166,0.043 -0.311,0.109 -0.434,0.197 -0.124,0.09 -0.223,0.206 -0.298,0.35 -0.075,0.143 -0.112,0.318 -0.112,0.526 l -1.309,0 c -0.006,-0.38 0.063,-0.707 0.207,-0.982 0.144,-0.276 0.337,-0.503 0.581,-0.681 0.244,-0.178 0.525,-0.308 0.844,-0.392 0.318,-0.083 0.648,-0.125 0.986,-0.125 0.42,0 0.789,0.049 1.107,0.146 0.319,0.098 0.586,0.234 0.802,0.409 0.215,0.175 0.377,0.384 0.486,0.625 0.11,0.241 0.164,0.503 0.164,0.784 0,0.345 -0.073,0.627 -0.22,0.849 -0.146,0.22 -0.32,0.397 -0.521,0.529 -0.201,0.132 -0.404,0.228 -0.607,0.289 -0.204,0.06 -0.364,0.102 -0.479,0.125 -0.384,0.098 -0.696,0.177 -0.934,0.241 -0.238,0.063 -0.425,0.126 -0.56,0.189 -0.135,0.064 -0.225,0.133 -0.271,0.207 -0.046,0.075 -0.069,0.172 -0.069,0.293 0,0.132 0.029,0.241 0.086,0.327 l 0.22,0.215 c 0.089,0.058 0.188,0.098 0.297,0.121 0.109,0.023 0.218,0.034 0.327,0.034 0.167,0 0.32,-0.014 0.461,-0.042 0.141,-0.029 0.265,-0.078 0.374,-0.147 0.11,-0.069 0.197,-0.164 0.264,-0.284 0.065,-0.12 0.104,-0.273 0.115,-0.457 l 1.31,0 c 0,0.356 -0.068,0.66 -0.202,0.909 -0.135,0.249 -0.318,0.455 -0.548,0.616 -0.229,0.161 -0.491,0.277 -0.787,0.349 -0.297,0.072 -0.606,0.108 -0.927,0.108 m 22.155,-0.147 -5.04,0 0,-1.137 1.844,0 0,-5.013 1.353,0 0,5.013 1.843,0 0,1.137 m -7.21,0 -1.386,0 -2.327,-6.15 1.362,0 0.482,1.369 2.299,0 0.465,-1.369 1.405,0 -2.3,6.15 m -1.516,-3.773 0.801,2.257 0.017,0 0.775,-2.257 -1.593,0 m -2.102,3.773 -5.039,0 0,-1.137 1.844,0 0,-5.013 1.352,0 0,5.013 1.843,0 0,1.137 m -6.125,0 -1.352,0 0,-6.15 1.352,0 0,6.15 z m -10.472,0 -3.317,0 0,-6.15 1.352,0 0,2.403 1.352,0 c 0.34,0 0.583,-0.075 0.733,-0.224 0.149,-0.15 0.247,-0.384 0.293,-0.706 0.034,-0.247 0.06,-0.505 0.077,-0.775 0.017,-0.27 0.063,-0.503 0.138,-0.698 l 1.352,0 c -0.063,0.086 -0.111,0.191 -0.142,0.314 -0.031,0.123 -0.054,0.254 -0.069,0.392 -0.014,0.138 -0.024,0.273 -0.029,0.405 -0.007,0.132 -0.012,0.247 -0.018,0.344 -0.012,0.156 -0.033,0.311 -0.065,0.466 -0.031,0.155 -0.081,0.297 -0.151,0.426 -0.069,0.129 -0.158,0.241 -0.266,0.336 -0.109,0.095 -0.247,0.165 -0.414,0.211 l 0,0.018 c 0.345,0.137 0.593,0.338 0.745,0.602 0.152,0.264 0.228,0.578 0.228,0.939 0,0.235 -0.042,0.455 -0.125,0.659 -0.083,0.203 -0.204,0.384 -0.361,0.539 -0.158,0.154 -0.348,0.276 -0.569,0.365 -0.221,0.089 -0.469,0.134 -0.744,0.134 m -1.965,-2.782 0,1.731 1.482,0 c 0.31,0 0.542,-0.068 0.697,-0.202 0.156,-0.136 0.233,-0.352 0.233,-0.651 0,-0.31 -0.077,-0.533 -0.233,-0.672 -0.155,-0.137 -0.387,-0.206 -0.697,-0.206 l -1.482,0 m -2.677,2.782 -4.6,0 0,-6.15 4.669,0 0,1.137 -3.316,0 0,1.507 2.98,0 0,1.051 -2.98,0 0,1.318 3.247,0 0,1.137 m -5.598,0 -1.396,0 -1.387,-4.324 -0.017,0 -1.37,4.324 -1.386,0 1.99,-6.15 1.524,0 2.042,6.15 m -6.532,0 -1.353,0 0,-6.15 1.353,0 0,6.15 z m -2.86,0 -1.266,0 0,-4.126 -0.018,0 -2.566,4.126 -1.344,0 0,-6.15 1.266,0 0,4.117 0.017,0 2.559,-4.117 1.352,0 0,6.15 m -6.719,0 -1.352,0 0,-3.824 c 0,-0.46 -0.092,-0.797 -0.275,-1.013 -0.184,-0.214 -0.517,-0.323 -1,-0.323 -0.275,0 -0.495,0.039 -0.659,0.117 -0.164,0.077 -0.291,0.178 -0.383,0.301 -0.092,0.124 -0.152,0.265 -0.181,0.426 -0.029,0.161 -0.043,0.326 -0.043,0.492 l 0,3.824 -1.352,0 0,-3.824 c 0,-0.839 0.228,-1.459 0.684,-1.861 0.457,-0.402 1.102,-0.603 1.934,-0.603 0.822,0 1.465,0.203 1.93,0.608 0.465,0.404 0.697,1.023 0.697,1.856 l 0,3.824"
           id="path3622"
           style="fill:#a7a5a6;fill-opacity:1;fill-rule:nonzero;stroke:none" />
        <g
           transform="translate(594.2094,1014.8859)"
           id="g3624">
          <path
             d="m 0,0 c -0.471,0 -0.895,-0.083 -1.271,-0.249 -0.376,-0.167 -0.693,-0.397 -0.952,-0.69 -0.258,-0.292 -0.456,-0.636 -0.594,-1.029 -0.138,-0.393 -0.207,-0.82 -0.207,-1.279 0,-0.448 0.069,-0.866 0.207,-1.253 0.138,-0.388 0.336,-0.726 0.594,-1.013 0.259,-0.287 0.576,-0.512 0.952,-0.676 0.376,-0.163 0.8,-0.245 1.271,-0.245 0.379,0 0.726,0.057 1.042,0.172 0.316,0.115 0.591,0.281 0.827,0.5 0.235,0.218 0.425,0.482 0.568,0.792 0.144,0.31 0.233,0.657 0.268,1.042 l -1.31,0 C 1.344,-4.341 1.202,-4.674 0.968,-4.927 0.737,-5.18 0.414,-5.306 0,-5.306 c -0.304,0 -0.563,0.059 -0.775,0.177 -0.213,0.117 -0.385,0.274 -0.517,0.469 -0.132,0.196 -0.229,0.415 -0.289,0.659 -0.06,0.244 -0.09,0.495 -0.09,0.754 0,0.27 0.03,0.531 0.09,0.783 0.06,0.253 0.157,0.478 0.289,0.677 0.132,0.198 0.304,0.356 0.517,0.474 0.212,0.118 0.471,0.176 0.775,0.176 0.166,0 0.326,-0.027 0.478,-0.082 0.152,-0.054 0.289,-0.131 0.409,-0.228 0.12,-0.098 0.221,-0.211 0.301,-0.34 0.081,-0.129 0.132,-0.271 0.156,-0.427 l 1.309,0 C 2.612,-1.858 2.515,-1.542 2.36,-1.266 2.205,-0.991 2.009,-0.759 1.77,-0.573 1.531,-0.386 1.261,-0.244 0.96,-0.146 0.659,-0.049 0.339,0 0,0 m 67.318,-0.146 -3.316,0 0,-6.15 1.353,0 0,2.403 1.352,0 c 0.339,0 0.583,-0.075 0.732,-0.224 0.149,-0.15 0.247,-0.385 0.293,-0.706 0.034,-0.248 0.06,-0.506 0.077,-0.776 0.017,-0.27 0.064,-0.502 0.138,-0.697 l 1.353,0 c -0.064,0.086 -0.111,0.19 -0.143,0.314 -0.032,0.123 -0.054,0.254 -0.068,0.392 -0.015,0.138 -0.025,0.272 -0.031,0.405 -0.005,0.131 -0.011,0.246 -0.017,0.344 -0.011,0.155 -0.033,0.311 -0.064,0.465 -0.032,0.155 -0.082,0.298 -0.151,0.427 -0.069,0.129 -0.159,0.241 -0.268,0.336 -0.109,0.094 -0.246,0.165 -0.413,0.211 l 0,0.017 c 0.345,0.138 0.593,0.339 0.745,0.603 0.152,0.264 0.228,0.577 0.228,0.939 0,0.235 -0.041,0.455 -0.124,0.659 -0.083,0.203 -0.204,0.383 -0.362,0.538 -0.158,0.155 -0.347,0.278 -0.568,0.366 -0.222,0.09 -0.47,0.134 -0.746,0.134 m -1.963,-2.783 0,1.732 1.481,0 c 0.31,0 0.542,-0.068 0.698,-0.203 0.155,-0.134 0.232,-0.352 0.232,-0.65 0,-0.31 -0.077,-0.534 -0.232,-0.672 -0.156,-0.138 -0.388,-0.207 -0.698,-0.207 l -1.481,0 m -2.635,2.783 -4.599,0 0,-6.15 4.668,0 0,1.137 -3.316,0 0,1.507 2.981,0 0,1.051 -2.981,0 0,1.318 3.247,0 0,1.137 m -8.501,0 -2.654,0 0,-6.15 2.654,0 c 0.47,0 0.88,0.078 1.228,0.237 0.346,0.157 0.636,0.374 0.869,0.65 0.233,0.276 0.406,0.602 0.522,0.982 0.114,0.378 0.171,0.792 0.171,1.24 0,0.511 -0.07,0.956 -0.211,1.335 -0.14,0.379 -0.335,0.695 -0.585,0.948 -0.25,0.252 -0.546,0.442 -0.887,0.568 -0.342,0.127 -0.711,0.19 -1.107,0.19 m -1.301,-5.013 0,3.876 0.965,0 c 0.333,0 0.613,-0.048 0.84,-0.142 0.226,-0.095 0.409,-0.232 0.546,-0.41 0.138,-0.178 0.237,-0.392 0.298,-0.641 0.06,-0.25 0.091,-0.53 0.091,-0.84 0,-0.339 -0.044,-0.626 -0.13,-0.861 -0.087,-0.236 -0.201,-0.427 -0.344,-0.573 -0.144,-0.147 -0.308,-0.252 -0.491,-0.315 -0.184,-0.063 -0.374,-0.094 -0.569,-0.094 l -1.206,0 m -2.8,5.013 -1.265,0 0,-4.126 -0.018,0 -2.566,4.126 -1.344,0 0,-6.15 1.266,0 0,4.117 0.017,0 2.559,-4.117 1.351,0 0,6.15 m -8.297,0 -1.386,0 -2.326,-6.15 1.361,0 0.482,1.369 2.3,0 0.465,-1.369 1.404,0 -2.3,6.15 m -1.516,-3.773 0.801,2.257 0.017,0 0.776,-2.257 -1.594,0 m -2.868,3.773 -1.482,0 -1.249,-1.964 -1.205,1.964 -1.568,0 1.981,-2.929 -2.145,-3.221 1.516,0 1.369,2.127 1.344,-2.127 1.611,0 -2.145,3.212 1.973,2.938 m -6.547,0 -4.599,0 0,-6.15 4.669,0 0,1.137 -3.317,0 0,1.507 2.98,0 0,1.051 -2.98,0 0,1.318 3.247,0 0,1.137 m -8.678,0 -1.353,0 0,-6.15 4.35,0 0,1.137 -2.997,0 0,5.013 m -4.585,0 -1.387,0 -2.326,-6.15 1.361,0 0.482,1.369 2.3,0 0.465,-1.369 1.405,0 -2.3,6.15 m -1.516,-3.773 0.801,2.257 0.017,0 0.775,-2.257 -1.593,0 m -6.973,3.773 -1.353,0 0,-2.36 -2.489,0 0,2.36 -1.352,0 0,-6.15 1.352,0 0,2.652 2.489,0 0,-2.652 1.353,0 0,6.15 m -13.348,0 -1.353,0 0,-6.15 1.353,0 0,6.15 z m -4.516,0 -3.317,0 0,-6.15 1.352,0 0,2.403 1.353,0 c 0.339,0 0.582,-0.075 0.732,-0.224 0.149,-0.15 0.247,-0.385 0.293,-0.706 0.034,-0.248 0.06,-0.506 0.077,-0.776 0.018,-0.27 0.064,-0.502 0.139,-0.697 l 1.351,0 c -0.062,0.086 -0.11,0.19 -0.142,0.314 -0.031,0.123 -0.055,0.254 -0.069,0.392 -0.014,0.138 -0.024,0.272 -0.029,0.405 -0.006,0.131 -0.012,0.246 -0.018,0.344 -0.012,0.155 -0.033,0.311 -0.064,0.465 -0.032,0.155 -0.082,0.298 -0.151,0.427 -0.069,0.129 -0.158,0.241 -0.268,0.336 -0.108,0.094 -0.246,0.165 -0.413,0.211 l 0,0.017 c 0.345,0.138 0.594,0.339 0.746,0.603 0.152,0.264 0.228,0.577 0.228,0.939 0,0.235 -0.042,0.455 -0.125,0.659 -0.084,0.203 -0.204,0.383 -0.362,0.538 -0.158,0.155 -0.347,0.278 -0.569,0.366 -0.22,0.09 -0.469,0.134 -0.744,0.134 m -1.965,-2.783 0,1.732 1.482,0 c 0.31,0 0.543,-0.068 0.698,-0.203 0.155,-0.134 0.232,-0.352 0.232,-0.65 0,-0.31 -0.077,-0.534 -0.232,-0.672 -0.155,-0.138 -0.388,-0.207 -0.698,-0.207 l -1.482,0 m -5.24,2.783 -2.653,0 0,-6.15 2.653,0 c 0.471,0 0.88,0.078 1.227,0.237 0.348,0.157 0.638,0.374 0.871,0.65 0.232,0.276 0.406,0.602 0.52,0.982 0.115,0.378 0.173,0.792 0.173,1.24 0,0.511 -0.071,0.956 -0.211,1.335 -0.141,0.379 -0.336,0.695 -0.586,0.948 -0.25,0.252 -0.545,0.442 -0.887,0.568 -0.342,0.127 -0.711,0.19 -1.107,0.19 m -1.301,-5.013 0,3.876 0.965,0 c 0.333,0 0.613,-0.048 0.84,-0.142 0.227,-0.095 0.409,-0.232 0.547,-0.41 0.137,-0.178 0.237,-0.392 0.297,-0.641 0.06,-0.25 0.09,-0.53 0.09,-0.84 0,-0.339 -0.043,-0.626 -0.129,-0.861 -0.086,-0.236 -0.201,-0.427 -0.345,-0.573 -0.143,-0.147 -0.306,-0.252 -0.49,-0.315 -0.184,-0.063 -0.373,-0.094 -0.568,-0.094 l -1.207,0 m -2.677,5.013 -4.599,0 0,-6.15 4.668,0 0,1.137 -3.316,0 0,1.507 2.981,0 0,1.051 -2.981,0 0,1.318 3.247,0 0,1.137 m -6.15,0 -1.352,0 0,-6.15 1.352,0 0,6.15 z m -4.645,0 -3.316,0 0,-6.15 1.352,0 0,2.403 1.352,0 c 0.339,0 0.583,-0.075 0.733,-0.224 0.149,-0.15 0.246,-0.385 0.293,-0.706 0.034,-0.248 0.06,-0.506 0.077,-0.776 0.018,-0.27 0.063,-0.502 0.138,-0.697 l 1.352,0 c -0.063,0.086 -0.111,0.19 -0.142,0.314 -0.032,0.123 -0.055,0.254 -0.069,0.392 -0.014,0.138 -0.024,0.272 -0.03,0.405 -0.006,0.131 -0.012,0.246 -0.017,0.344 -0.012,0.155 -0.033,0.311 -0.065,0.465 -0.032,0.155 -0.082,0.298 -0.15,0.427 -0.069,0.129 -0.158,0.241 -0.268,0.336 -0.109,0.094 -0.247,0.165 -0.413,0.211 l 0,0.017 c 0.345,0.138 0.593,0.339 0.745,0.603 0.153,0.264 0.228,0.577 0.228,0.939 0,0.235 -0.041,0.455 -0.125,0.659 -0.083,0.203 -0.203,0.383 -0.362,0.538 -0.157,0.155 -0.347,0.278 -0.568,0.366 -0.221,0.09 -0.47,0.134 -0.745,0.134 m -1.964,-2.783 0,1.732 1.482,0 c 0.309,0 0.543,-0.068 0.698,-0.203 0.154,-0.134 0.232,-0.352 0.232,-0.65 0,-0.31 -0.078,-0.534 -0.232,-0.672 -0.155,-0.138 -0.389,-0.207 -0.698,-0.207 l -1.482,0 m -2.451,2.783 -4.324,0 0,-6.15 1.352,0 0,2.54 2.576,0 0,1.051 -2.576,0 0,1.422 2.972,0 0,1.137 m 48.384,-3.273 -2.592,0 0,-1.051 2.592,0 0,1.051 z"
             id="path3626"
             style="fill:#a7a5a6;fill-opacity:1;fill-rule:nonzero;stroke:none" />
        </g>
        <g
           transform="translate(541.2911,992.7938)"
           id="g3628">
          <path
             d="m 0,0 -25.646,0 c 1.576,-1.286 3.4,-2.251 5.331,-2.921 l 14.97,0 C -3.408,-2.251 -1.579,-1.286 0,0"
             id="path3630"
             style="fill:#a7a5a6;fill-opacity:1;fill-rule:nonzero;stroke:none" />
        </g>
        <g
           transform="translate(481.9468,997.1795)"
           id="g3632">
          <path
             d="m 0,0 -10.916,0 -1.106,-2.921 11.115,0 0.017,0.053 -0.03,0 L 0,0 z"
             id="path3634"
             style="fill:#a7a5a6;fill-opacity:1;fill-rule:nonzero;stroke:none" />
        </g>
        <g
           transform="translate(480.5973,992.7938)"
           id="g3636">
          <path
             d="m 0,0 -11.182,0 -1.107,-2.921 11.324,0 L 0,0 z"
             id="path3638"
             style="fill:#a7a5a6;fill-opacity:1;fill-rule:nonzero;stroke:none" />
        </g>
        <path
           d="m 457.07,992.794 -10.613,0 0,-2.921 10.613,0 0,2.921 z"
           id="path3640"
           style="fill:#a7a5a6;fill-opacity:1;fill-rule:nonzero;stroke:none" />
        <path
           d="m 457.07,997.18 -10.613,0 0,-2.921 10.613,0 0,2.921 z"
           id="path3642"
           style="fill:#a7a5a6;fill-opacity:1;fill-rule:nonzero;stroke:none" />
        <path
           d="m 457.07,1001.562 -10.613,0 0,-2.921 10.613,0 0,2.921 z"
           id="path3644"
           style="fill:#a7a5a6;fill-opacity:1;fill-rule:nonzero;stroke:none" />
        <path
           d="m 457.07,1005.943 -10.613,0 0,-2.921 10.613,0 0,2.921 z"
           id="path3646"
           style="fill:#a7a5a6;fill-opacity:1;fill-rule:nonzero;stroke:none" />
        <path
           d="m 457.07,1019.097 -10.613,0 0,-2.921 10.613,0 0,2.921 z"
           id="path3648"
           style="fill:#a7a5a6;fill-opacity:1;fill-rule:nonzero;stroke:none" />
        <path
           d="m 457.07,1023.487 -10.613,0 0,-2.921 10.613,0 0,2.921 z"
           id="path3650"
           style="fill:#a7a5a6;fill-opacity:1;fill-rule:nonzero;stroke:none" />
        <path
           d="m 478.893,1032.001 -32.436,0 0,-2.672 32.436,0 0,2.672 z"
           id="path3652"
           style="fill:#a7a5a6;fill-opacity:1;fill-rule:nonzero;stroke:none" />
        <path
           d="m 478.893,1032.251 -32.436,0 0,-0.25 32.436,0 0,0.25 z"
           id="path3654"
           style="fill:#656262;fill-opacity:1;fill-rule:nonzero;stroke:none" />
        <path
           d="m 478.893,1027.869 -32.436,0 0,-2.921 32.436,0 0,2.921 z"
           id="path3656"
           style="fill:#a7a5a6;fill-opacity:1;fill-rule:nonzero;stroke:none" />
        <g
           transform="translate(488.6837,1019.0969)"
           id="g3658">
          <path
             d="m 0,0 -9.572,0 -1.107,-2.921 9.78,0 L 0,0 z"
             id="path3660"
             style="fill:#a7a5a6;fill-opacity:1;fill-rule:nonzero;stroke:none" />
        </g>
        <g
           transform="translate(495.0291,1032.001)"
           id="g3662">
          <path
             d="m 0,0 -1.092,0 0,-2.672 2.128,0 L 0,0 z"
             id="path3664"
             style="fill:#a7a5a6;fill-opacity:1;fill-rule:nonzero;stroke:none" />
        </g>
        <g
           transform="translate(494.9322,1032.251)"
           id="g3666">
          <path
             d="m 0,0 -0.995,0 0,-0.25 1.092,0 L 0,0 z"
             id="path3668"
             style="fill:#656262;fill-opacity:1;fill-rule:nonzero;stroke:none" />
        </g>
        <g
           transform="translate(493.687,1032.001)"
           id="g3670">
          <path
             d="M 0,0 -9.821,0 -10.834,-2.672 0,-2.672 0,0 z"
             id="path3672"
             style="fill:#a7a5a6;fill-opacity:1;fill-rule:nonzero;stroke:none" />
        </g>
        <g
           transform="translate(493.687,1032.251)"
           id="g3674">
          <path
             d="M 0,0 -9.726,0 -9.821,-0.25 0,-0.25 0,0 z"
             id="path3676"
             style="fill:#656262;fill-opacity:1;fill-rule:nonzero;stroke:none" />
        </g>
        <g
           transform="translate(493.937,1032.251)"
           id="g3678">
          <path
             d="m 0,0 -0.25,0 0,-0.25 0,-2.672 0.25,0 L 0,-0.25 0,0 z"
             id="path3680"
             style="fill:#656262;fill-opacity:1;fill-rule:nonzero;stroke:none" />
        </g>
        <g
           transform="translate(496.5845,1027.8689)"
           id="g3682">
          <path
             d="m 0,0 -2.648,0 0,-2.921 3.781,0 L 0,0 m -2.898,0 -11.342,0 -1.107,-2.921 12.449,0 0,2.921 z"
             id="path3684"
             style="fill:#a7a5a6;fill-opacity:1;fill-rule:nonzero;stroke:none" />
        </g>
        <path
           d="m 493.937,1027.869 -0.25,0 0,-2.921 0.25,0 0,2.921 z"
           id="path3686"
           style="fill:#656262;fill-opacity:1;fill-rule:nonzero;stroke:none" />
        <g
           transform="translate(498.2383,1023.479)"
           id="g3688">
          <path
             d="m 0,0 -4.301,0 0,-2.921 5.434,0 L 0,0 m -4.551,0 -12.959,0 -1.107,-2.921 9.474,0 0.411,1.339 0.119,0 0.411,-1.339 3.651,0 0,2.921 z"
             id="path3690"
             style="fill:#a7a5a6;fill-opacity:1;fill-rule:nonzero;stroke:none" />
        </g>
        <path
           d="m 493.937,1023.479 -0.25,0 0,-2.921 0.25,0 0,2.921 z"
           id="path3692"
           style="fill:#656262;fill-opacity:1;fill-rule:nonzero;stroke:none" />
        <g
           transform="translate(499.8913,1019.0966)"
           id="g3694">
          <path
             d="m 0,0 -5.954,0 0,-2.921 7.087,0 L 0,0 m -6.204,0 -3.238,0 0.897,-2.921 2.341,0 0,2.921 z"
             id="path3696"
             style="fill:#a7a5a6;fill-opacity:1;fill-rule:nonzero;stroke:none" />
        </g>
        <path
           d="m 493.937,1019.097 -0.25,0 0,-2.921 0.25,0 0,2.921 z"
           id="path3698"
           style="fill:#656262;fill-opacity:1;fill-rule:nonzero;stroke:none" />
        <g
           transform="translate(501.5445,1014.7198)"
           id="g3700">
          <path
             d="m 0,0 -7.608,0 0,-2.921 8.74,0 L 0,0 m -7.858,0 -1.928,0 0.898,-2.921 1.03,0 0,2.921 z"
             id="path3702"
             style="fill:#a7a5a6;fill-opacity:1;fill-rule:nonzero;stroke:none" />
        </g>
        <path
           d="m 493.937,1014.72 -0.25,0 0,-2.921 0.25,0 0,2.921 z"
           id="path3704"
           style="fill:#656262;fill-opacity:1;fill-rule:nonzero;stroke:none" />
        <g
           transform="translate(503.1975,1010.3384)"
           id="g3706">
          <path
             d="m 0,0 -9.26,0 0,-2.827 0.028,-0.094 10.365,0 L 0,0 m -9.511,0 -0.618,0 0.618,-2.013 0,2.013 z"
             id="path3708"
             style="fill:#a7a5a6;fill-opacity:1;fill-rule:nonzero;stroke:none" />
        </g>
        <g
           transform="translate(493.937,1010.3384)"
           id="g3710">
          <path
             d="m 0,0 -0.25,0 0,-2.013 L 0,-2.827 0,0 z"
             id="path3712"
             style="fill:#656262;fill-opacity:1;fill-rule:nonzero;stroke:none" />
        </g>
        <g
           transform="translate(504.8504,1005.9431)"
           id="g3714">
          <path
             d="m 0,0 -10.913,0 0,-2.921 12.046,0 L 0,0 m -11.163,0 -19.423,0 -1.108,-2.921 20.531,0 0,2.921 z"
             id="path3716"
             style="fill:#a7a5a6;fill-opacity:1;fill-rule:nonzero;stroke:none" />
        </g>
        <path
           d="m 493.937,1005.943 -0.25,0 0,-2.921 0.25,0 0,2.921 z"
           id="path3718"
           style="fill:#656262;fill-opacity:1;fill-rule:nonzero;stroke:none" />
        <g
           transform="translate(506.5037,1001.5616)"
           id="g3720">
          <path
             d="m 0,0 -12.567,0 0,-2.921 13.7,0 L 0,0 m -12.817,0 -21.039,0 -1.108,-2.921 22.147,0 0,2.921 z"
             id="path3722"
             style="fill:#a7a5a6;fill-opacity:1;fill-rule:nonzero;stroke:none" />
        </g>
        <path
           d="m 493.937,1001.562 -0.25,0 0,-2.921 0.25,0 0,2.921 z"
           id="path3724"
           style="fill:#656262;fill-opacity:1;fill-rule:nonzero;stroke:none" />
        <g
           transform="translate(508.1575,997.1795)"
           id="g3726">
          <path
             d="m 0,0 -10.952,0 0.978,-2.921 11.107,0 L 0,0 z"
             id="path3728"
             style="fill:#a7a5a6;fill-opacity:1;fill-rule:nonzero;stroke:none" />
        </g>
        <g
           transform="translate(509.8098,992.7938)"
           id="g3730">
          <path
             d="m 0,0 -11.216,0 0.965,-2.921 11.383,0 L 0,0 z"
             id="path3732"
             style="fill:#a7a5a6;fill-opacity:1;fill-rule:nonzero;stroke:none" />
        </g>
        <path
           d="m 521.107,1032.001 -10.612,0 0,-2.672 10.612,0 0,2.672 z"
           id="path3734"
           style="fill:#a7a5a6;fill-opacity:1;fill-rule:nonzero;stroke:none" />
        <path
           d="m 521.107,1032.251 -10.612,0 0,-0.25 10.612,0 0,0.25 z"
           id="path3736"
           style="fill:#656262;fill-opacity:1;fill-rule:nonzero;stroke:none" />
        <path
           d="m 521.107,1027.869 -10.612,0 0,-2.921 10.612,0 0,2.921 z"
           id="path3738"
           style="fill:#a7a5a6;fill-opacity:1;fill-rule:nonzero;stroke:none" />
        <path
           d="m 521.107,1023.479 -10.612,0 0,-2.921 10.612,0 0,2.921 z"
           id="path3740"
           style="fill:#a7a5a6;fill-opacity:1;fill-rule:nonzero;stroke:none" />
        <path
           d="m 521.107,1019.097 -10.612,0 0,-2.921 10.612,0 0,2.921 z"
           id="path3742"
           style="fill:#a7a5a6;fill-opacity:1;fill-rule:nonzero;stroke:none" />
        <path
           d="m 521.107,1014.72 -10.612,0 0,-2.921 10.612,0 0,2.921 z"
           id="path3744"
           style="fill:#a7a5a6;fill-opacity:1;fill-rule:nonzero;stroke:none" />
        <path
           d="m 521.107,1010.338 -10.612,0 0,-2.921 10.612,0 0,2.921 z"
           id="path3746"
           style="fill:#a7a5a6;fill-opacity:1;fill-rule:nonzero;stroke:none" />
        <g
           transform="translate(521.1065,1005.9431)"
           id="g3748">
          <path
             d="m 0,0 -10.612,0 0,-1.377 c 0,-0.536 0.041,-1.04 0.084,-1.544 l 10.727,0 C 0.065,-2.165 0,-1.356 0,-0.506 L 0,0"
             id="path3750"
             style="fill:#a7a5a6;fill-opacity:1;fill-rule:nonzero;stroke:none" />
        </g>
        <g
           transform="translate(521.6484,1001.5616)"
           id="g3752">
          <path
             d="m 0,0 -10.896,0 c 0.175,-1.042 0.426,-2.023 0.775,-2.921 l 12.105,0 C 1.041,-2.186 0.401,-1.188 0,0"
             id="path3754"
             style="fill:#a7a5a6;fill-opacity:1;fill-rule:nonzero;stroke:none" />
        </g>
        <g
           transform="translate(544.8119,997.1795)"
           id="g3756">
          <path
             d="m 0,0 -32.683,0 c 0.57,-1.092 1.273,-2.06 2.072,-2.921 l 28.538,0 C -1.273,-2.06 -0.568,-1.092 0,0"
             id="path3758"
             style="fill:#a7a5a6;fill-opacity:1;fill-rule:nonzero;stroke:none" />
        </g>
        <g
           transform="translate(546.1901,1001.5616)"
           id="g3760">
          <path
             d="m 0,0 -10.897,0 c -0.402,-1.188 -1.048,-2.186 -1.995,-2.921 l 12.115,0 C -0.427,-2.023 -0.176,-1.042 0,0"
             id="path3762"
             style="fill:#a7a5a6;fill-opacity:1;fill-rule:nonzero;stroke:none" />
        </g>
        <path
           d="m 546.448,1032.001 -10.613,0 0,-2.672 10.613,0 0,2.672 z"
           id="path3764"
           style="fill:#a7a5a6;fill-opacity:1;fill-rule:nonzero;stroke:none" />
        <path
           d="m 546.448,1032.251 -10.613,0 0,-0.25 10.613,0 0,0.25 z"
           id="path3766"
           style="fill:#656262;fill-opacity:1;fill-rule:nonzero;stroke:none" />
        <path
           d="m 546.448,1027.869 -10.613,0 0,-2.921 10.613,0 0,2.921 z"
           id="path3768"
           style="fill:#a7a5a6;fill-opacity:1;fill-rule:nonzero;stroke:none" />
        <path
           d="m 546.448,1023.479 -10.613,0 0,-2.921 10.613,0 0,2.921 z"
           id="path3770"
           style="fill:#a7a5a6;fill-opacity:1;fill-rule:nonzero;stroke:none" />
        <path
           d="m 546.448,1019.097 -10.613,0 0,-2.921 10.613,0 0,2.921 z"
           id="path3772"
           style="fill:#a7a5a6;fill-opacity:1;fill-rule:nonzero;stroke:none" />
        <path
           d="m 546.448,1014.72 -10.613,0 0,-2.921 10.613,0 0,2.921 z"
           id="path3774"
           style="fill:#a7a5a6;fill-opacity:1;fill-rule:nonzero;stroke:none" />
        <path
           d="m 546.448,1010.338 -10.613,0 0,-2.921 10.613,0 0,2.921 z"
           id="path3776"
           style="fill:#a7a5a6;fill-opacity:1;fill-rule:nonzero;stroke:none" />
        <g
           transform="translate(546.4481,1005.9431)"
           id="g3778">
          <path
             d="m 0,0 -10.613,0 0,-0.506 c 0,-0.851 -0.064,-1.659 -0.199,-2.415 l 10.727,0 C -0.043,-2.417 0,-1.913 0,-1.377 L 0,0"
             id="path3780"
             style="fill:#a7a5a6;fill-opacity:1;fill-rule:nonzero;stroke:none" />
        </g>
        <g
           transform="translate(486.0636,1010.3389)"
           id="g3782">
          <path
             d="m 0,0 -39.607,0 0,-2.921 38.71,0 L 0,0 z"
             id="path3784"
             style="fill:#a7a5a6;fill-opacity:1;fill-rule:nonzero;stroke:none" />
        </g>
        <g
           transform="translate(487.3729,1014.7202)"
           id="g3786">
          <path
             d="m 0,0 -40.916,0 0,-2.921 40.019,0 L 0,0 z"
             id="path3788"
             style="fill:#a7a5a6;fill-opacity:1;fill-rule:nonzero;stroke:none" />
        </g>
      </g>
    </g>
    <path
       d="m 219.13027,489.23725 182.3675,0 0,-8.1825 -182.3675,0 0,8.1825 z"
       id="path4156"
       style="fill:#d3d2d2;fill-opacity:1;fill-rule:nonzero;stroke:none" />
    <path
       d="m 219.13027,477.67725 182.3675,0 0,-8.1825 -182.3675,0 0,8.1825 z"
       id="path4158"
       style="fill:#d3d2d2;fill-opacity:1;fill-rule:nonzero;stroke:none" />
  </g>
</svg>
