<?xml version="1.0" encoding="UTF-8" standalone="no"?>
<!-- Created with Inkscape (http://www.inkscape.org/) -->

<svg
   xmlns:dc="http://purl.org/dc/elements/1.1/"
   xmlns:cc="http://creativecommons.org/ns#"
   xmlns:rdf="http://www.w3.org/1999/02/22-rdf-syntax-ns#"
   xmlns:svg="http://www.w3.org/2000/svg"
   xmlns="http://www.w3.org/2000/svg"
   version="1.1"
   width="271.31851"
   height="53.150124"
   id="svg2"
   xml:space="preserve"><metadata
     id="metadata8"><rdf:RDF><cc:Work
         rdf:about=""><dc:format>image/svg+xml</dc:format><dc:type
           rdf:resource="http://purl.org/dc/dcmitype/StillImage" /><dc:title></dc:title></cc:Work></rdf:RDF></metadata><defs
     id="defs6"><clipPath
       id="clipPath16"><path
         d="m 0,595.28 841.89,0 L 841.89,0 0,0 0,595.28 z"
         id="path18" /></clipPath></defs><g
     transform="matrix(1.25,0,0,-1.25,-390.63963,399.48688)"
     id="g10"><g
       id="g12"><g
         clip-path="url(#clipPath16)"
         id="g14"><g
           transform="translate(425.4219,283.3574)"
           id="g20"><path
             d="m 0,0 0,-1.136 -3.247,0 0,-1.318 2.98,0 0,-1.052 -2.98,0 0,-1.507 3.316,0 0,-1.136 -4.669,0 L -4.6,0 0,0 z m 4.158,-2.782 c 0.311,0 0.543,0.07 0.697,0.207 0.157,0.137 0.235,0.361 0.235,0.672 0,0.299 -0.078,0.515 -0.235,0.65 -0.154,0.135 -0.386,0.203 -0.697,0.203 l -1.48,0 0,-1.732 1.48,0 z M 4.642,0 c 0.274,0 0.523,-0.044 0.745,-0.133 0.22,-0.089 0.41,-0.211 0.568,-0.366 0.158,-0.155 0.278,-0.334 0.361,-0.539 0.083,-0.203 0.125,-0.423 0.125,-0.658 0,-0.363 -0.076,-0.675 -0.228,-0.94 -0.151,-0.263 -0.4,-0.465 -0.745,-0.602 l 0,-0.017 C 5.635,-3.302 5.771,-3.372 5.881,-3.466 5.99,-3.562 6.079,-3.673 6.148,-3.803 6.217,-3.932 6.268,-4.074 6.299,-4.229 6.33,-4.384 6.352,-4.538 6.364,-4.694 6.369,-4.792 6.375,-4.906 6.381,-5.038 6.387,-5.171 6.396,-5.306 6.411,-5.443 6.426,-5.581 6.449,-5.712 6.48,-5.836 6.512,-5.958 6.56,-6.063 6.622,-6.149 l -1.352,0 C 5.195,-5.954 5.149,-5.722 5.132,-5.452 5.115,-5.183 5.09,-4.925 5.055,-4.677 5.009,-4.355 4.91,-4.12 4.762,-3.97 4.612,-3.821 4.367,-3.747 4.029,-3.747 l -1.351,0 0,-2.402 -1.354,0 0,6.149 3.318,0 z m 4.374,0 0,-5.013 2.998,0 0,-1.136 -4.35,0 0,6.149 1.352,0 z m 7.347,-3.772 -0.775,2.256 -0.018,0 -0.8,-2.256 1.593,0 z M 16.285,0 l 2.301,-6.149 -1.404,0 -0.465,1.369 -2.301,0 -0.482,-1.369 -1.361,0 2.325,6.149 1.387,0 z m 4.41,0 2.568,-4.125 0.016,0 0,4.125 1.267,0 0,-6.149 -1.353,0 -2.558,4.117 -0.017,0 0,-4.117 -1.266,0 0,6.149 1.343,0 z m 8.891,-6.103 c -0.294,-0.123 -0.59,-0.185 -0.889,-0.185 -0.47,0 -0.893,0.082 -1.269,0.246 -0.377,0.164 -0.695,0.389 -0.952,0.676 -0.259,0.287 -0.456,0.625 -0.595,1.012 -0.137,0.388 -0.206,0.806 -0.206,1.253 0,0.46 0.069,0.886 0.206,1.28 0.139,0.392 0.336,0.736 0.595,1.029 0.257,0.293 0.575,0.521 0.952,0.689 0.376,0.166 0.799,0.249 1.269,0.249 0.317,0 0.622,-0.046 0.918,-0.141 0.296,-0.095 0.563,-0.234 0.801,-0.418 0.238,-0.184 0.436,-0.41 0.59,-0.68 0.156,-0.271 0.25,-0.581 0.285,-0.931 l -1.292,0 c -0.081,0.345 -0.235,0.603 -0.466,0.775 -0.23,0.172 -0.508,0.26 -0.836,0.26 -0.303,0 -0.562,-0.06 -0.775,-0.178 -0.212,-0.117 -0.384,-0.275 -0.516,-0.474 -0.133,-0.198 -0.228,-0.423 -0.289,-0.675 -0.06,-0.253 -0.091,-0.515 -0.091,-0.785 0,-0.257 0.031,-0.509 0.091,-0.753 0.061,-0.245 0.156,-0.463 0.289,-0.659 0.132,-0.195 0.304,-0.352 0.516,-0.47 0.213,-0.118 0.472,-0.176 0.775,-0.176 0.449,0 0.795,0.113 1.039,0.34 0.244,0.226 0.386,0.556 0.426,0.986 l -1.361,0 0,1.008 2.584,0 0,-3.324 -0.862,0 -0.136,0.697 c -0.242,-0.31 -0.51,-0.527 -0.801,-0.651 M 37.312,0 l 0,-1.136 -3.248,0 0,-1.318 2.981,0 0,-1.052 -2.981,0 0,-1.507 3.317,0 0,-1.136 -4.67,0 0,6.149 4.601,0 z m 2.754,0 2.567,-4.125 0.017,0 0,4.125 1.267,0 0,-6.149 -1.353,0 -2.558,4.117 -0.018,0 0,-4.117 -1.265,0 0,6.149 1.343,0 z m 7.977,-4.323 -2.592,0 0,1.051 2.592,0 0,-1.051 z M 50.941,0 l 2.567,-4.125 0.017,0 0,4.125 1.266,0 0,-6.149 -1.352,0 -2.558,4.117 -0.018,0 0,-4.117 -1.265,0 0,6.149 1.343,0 z m 7.647,0.689 -1.162,0 0,1.008 1.162,0 0,-1.008 z m 1.775,0 -1.163,0 0,1.008 1.163,0 0,-1.008 z m 0.457,-6.37 c -0.466,-0.404 -1.109,-0.607 -1.929,-0.607 -0.833,0 -1.478,0.201 -1.934,0.603 -0.457,0.403 -0.686,1.022 -0.686,1.86 l 0,3.825 1.353,0 0,-3.825 c 0,-0.165 0.015,-0.329 0.044,-0.49 0.027,-0.161 0.088,-0.303 0.18,-0.426 0.092,-0.124 0.22,-0.225 0.384,-0.303 0.163,-0.076 0.383,-0.115 0.659,-0.115 0.482,0 0.814,0.107 0.999,0.323 0.183,0.216 0.276,0.552 0.276,1.011 l 0,3.825 1.352,0 0,-3.825 c 0,-0.832 -0.233,-1.451 -0.698,-1.856 m 4.921,2.899 c 0.31,0 0.542,0.07 0.697,0.207 0.156,0.137 0.234,0.361 0.234,0.672 0,0.299 -0.078,0.515 -0.234,0.65 -0.155,0.135 -0.387,0.203 -0.697,0.203 l -1.481,0 0,-1.732 1.481,0 z M 66.224,0 c 0.274,0 0.524,-0.044 0.745,-0.133 0.22,-0.089 0.41,-0.211 0.568,-0.366 0.158,-0.155 0.278,-0.334 0.361,-0.539 0.083,-0.203 0.125,-0.423 0.125,-0.658 0,-0.363 -0.076,-0.675 -0.228,-0.94 -0.151,-0.263 -0.4,-0.465 -0.744,-0.602 l 0,-0.017 c 0.166,-0.047 0.303,-0.117 0.413,-0.211 0.109,-0.096 0.197,-0.207 0.266,-0.337 0.07,-0.129 0.12,-0.271 0.151,-0.426 0.031,-0.155 0.053,-0.309 0.065,-0.465 0.005,-0.098 0.011,-0.212 0.017,-0.344 0.006,-0.133 0.016,-0.268 0.03,-0.405 0.015,-0.138 0.038,-0.269 0.07,-0.393 0.031,-0.122 0.078,-0.227 0.141,-0.313 l -1.352,0 c -0.075,0.195 -0.122,0.427 -0.138,0.697 -0.017,0.269 -0.042,0.527 -0.077,0.775 -0.046,0.322 -0.144,0.557 -0.293,0.707 -0.15,0.149 -0.393,0.223 -0.733,0.223 l -1.351,0 0,-2.402 -1.354,0 0,6.149 3.318,0 z m 4.538,0 2.566,-4.125 0.018,0 0,4.125 1.266,0 0,-6.149 -1.352,0 -2.559,4.117 -0.016,0 0,-4.117 -1.267,0 0,6.149 1.344,0 z m 8.123,-2.489 c 0.242,0 0.439,0.057 0.594,0.173 0.156,0.114 0.234,0.301 0.234,0.559 0,0.144 -0.027,0.261 -0.078,0.354 -0.052,0.091 -0.121,0.163 -0.207,0.215 -0.086,0.052 -0.186,0.087 -0.297,0.107 -0.112,0.021 -0.229,0.031 -0.349,0.031 l -1.266,0 0,-1.439 1.369,0 z M 79.059,0 c 0.292,0 0.558,-0.025 0.8,-0.077 0.241,-0.051 0.448,-0.137 0.62,-0.254 0.171,-0.118 0.306,-0.274 0.4,-0.47 0.096,-0.195 0.142,-0.436 0.142,-0.723 0,-0.31 -0.07,-0.569 -0.21,-0.776 -0.141,-0.207 -0.35,-0.376 -0.625,-0.508 0.378,-0.109 0.662,-0.3 0.848,-0.572 0.187,-0.273 0.28,-0.602 0.28,-0.987 0,-0.31 -0.06,-0.578 -0.18,-0.805 -0.121,-0.227 -0.284,-0.413 -0.488,-0.556 -0.203,-0.144 -0.435,-0.25 -0.697,-0.319 -0.261,-0.068 -0.53,-0.102 -0.804,-0.102 l -2.981,0 0,6.149 2.895,0 z m -0.096,-5.099 c 0.132,0 0.258,0.013 0.379,0.038 0.121,0.027 0.226,0.07 0.318,0.13 0.092,0.061 0.166,0.142 0.22,0.244 0.056,0.105 0.082,0.237 0.082,0.397 0,0.316 -0.089,0.542 -0.267,0.678 -0.178,0.133 -0.414,0.201 -0.707,0.201 l -1.472,0 0,-1.688 1.447,0 z M 87.041,0 l 0,-1.136 -3.247,0 0,-1.318 2.98,0 0,-1.052 -2.98,0 0,-1.507 3.316,0 0,-1.136 -4.668,0 0,6.149 4.599,0 z m 4.245,-2.782 c 0.311,0 0.543,0.07 0.698,0.207 0.155,0.137 0.233,0.361 0.233,0.672 0,0.299 -0.078,0.515 -0.233,0.65 -0.155,0.135 -0.387,0.203 -0.698,0.203 l -1.481,0 0,-1.732 1.481,0 z M 91.769,0 c 0.276,0 0.524,-0.044 0.745,-0.133 0.22,-0.089 0.41,-0.211 0.568,-0.366 0.158,-0.155 0.278,-0.334 0.362,-0.539 0.083,-0.203 0.124,-0.423 0.124,-0.658 0,-0.363 -0.076,-0.675 -0.227,-0.94 -0.153,-0.263 -0.402,-0.465 -0.745,-0.602 l 0,-0.017 c 0.166,-0.047 0.304,-0.117 0.413,-0.211 0.109,-0.096 0.198,-0.207 0.266,-0.337 0.07,-0.129 0.12,-0.271 0.152,-0.426 0.032,-0.155 0.053,-0.309 0.064,-0.465 0.006,-0.098 0.011,-0.212 0.019,-0.344 0.004,-0.133 0.013,-0.268 0.028,-0.405 0.015,-0.138 0.038,-0.269 0.069,-0.393 0.032,-0.122 0.08,-0.227 0.143,-0.313 l -1.353,0 c -0.075,0.195 -0.12,0.427 -0.137,0.697 -0.018,0.269 -0.043,0.527 -0.078,0.775 -0.046,0.322 -0.143,0.557 -0.292,0.707 -0.15,0.149 -0.394,0.223 -0.734,0.223 l -1.351,0 0,-2.402 -1.353,0 0,6.149 3.317,0 z m 6.721,-6.103 c -0.293,-0.123 -0.589,-0.185 -0.886,-0.185 -0.472,0 -0.896,0.082 -1.272,0.246 -0.377,0.164 -0.693,0.389 -0.951,0.676 -0.259,0.287 -0.457,0.625 -0.595,1.012 -0.138,0.388 -0.207,0.806 -0.207,1.253 0,0.46 0.069,0.886 0.207,1.28 0.138,0.392 0.336,0.736 0.595,1.029 0.258,0.293 0.574,0.521 0.951,0.689 0.376,0.166 0.8,0.249 1.272,0.249 0.314,0 0.621,-0.046 0.917,-0.141 0.294,-0.095 0.561,-0.234 0.8,-0.418 0.239,-0.184 0.435,-0.41 0.59,-0.68 0.155,-0.271 0.249,-0.581 0.284,-0.931 l -1.292,0 c -0.08,0.345 -0.235,0.603 -0.465,0.775 -0.229,0.172 -0.508,0.26 -0.834,0.26 -0.306,0 -0.564,-0.06 -0.776,-0.178 -0.214,-0.117 -0.386,-0.275 -0.517,-0.474 -0.132,-0.198 -0.229,-0.423 -0.289,-0.675 -0.061,-0.253 -0.09,-0.515 -0.09,-0.785 0,-0.257 0.029,-0.509 0.09,-0.753 0.06,-0.245 0.157,-0.463 0.289,-0.659 0.131,-0.195 0.303,-0.352 0.517,-0.47 0.212,-0.118 0.47,-0.176 0.776,-0.176 0.447,0 0.792,0.113 1.037,0.34 0.244,0.226 0.385,0.556 0.425,0.986 l -1.36,0 0,1.008 2.584,0 0,-3.324 -0.861,0 -0.138,0.697 C 99.05,-5.762 98.783,-5.979 98.49,-6.103"
             id="path22"
             style="fill:#002855;fill-opacity:1;fill-rule:nonzero;stroke:none" /></g><g
           transform="translate(425.3877,286.9795)"
           id="g24"><path
             d="m 0,0 c -0.465,-0.404 -1.108,-0.606 -1.93,-0.606 -0.832,0 -1.476,0.2 -1.933,0.602 -0.457,0.402 -0.685,1.023 -0.685,1.86 l 0,3.826 1.352,0 0,-3.826 c 0,-0.166 0.014,-0.331 0.044,-0.491 0.028,-0.16 0.089,-0.302 0.18,-0.426 0.092,-0.123 0.22,-0.224 0.383,-0.301 0.164,-0.077 0.384,-0.117 0.659,-0.117 0.484,0 0.816,0.108 0.999,0.323 0.185,0.217 0.276,0.553 0.276,1.012 l 0,3.826 1.353,0 0,-3.826 C 0.698,1.024 0.466,0.405 0,0 m 3.565,5.682 2.568,-4.127 0.017,0 0,4.127 1.266,0 0,-6.151 -1.353,0 -2.558,4.117 -0.017,0 0,-4.117 -1.266,0 0,6.151 1.343,0 z m 6.711,-6.151 -1.354,0 0,6.15 1.354,0 0,-6.15 z m 2.966,0 -1.989,6.151 1.386,0 1.37,-4.325 0.017,0 1.386,4.325 1.396,0 -2.041,-6.151 -1.525,0 z m 9.165,6.151 0,-1.138 -3.248,0 0,-1.317 2.981,0 0,-1.051 -2.981,0 0,-1.508 3.317,0 0,-1.137 -4.668,0 0,6.151 4.599,0 z m 4.158,-2.784 c 0.311,0 0.543,0.07 0.698,0.207 0.155,0.139 0.233,0.362 0.233,0.672 0,0.299 -0.078,0.516 -0.233,0.651 -0.155,0.135 -0.387,0.203 -0.698,0.203 l -1.481,0 0,-1.733 1.481,0 z m 0.483,2.784 c 0.275,0 0.523,-0.045 0.745,-0.135 0.22,-0.088 0.41,-0.211 0.568,-0.365 C 28.519,5.027 28.64,4.847 28.724,4.644 28.806,4.439 28.848,4.22 28.848,3.984 28.848,3.623 28.771,3.31 28.62,3.045 28.468,2.781 28.219,2.58 27.875,2.443 l 0,-0.017 c 0.166,-0.047 0.304,-0.117 0.413,-0.212 0.109,-0.095 0.197,-0.207 0.267,-0.335 0.069,-0.13 0.12,-0.272 0.151,-0.427 0.031,-0.155 0.053,-0.31 0.065,-0.466 0.005,-0.097 0.011,-0.213 0.017,-0.343 0.006,-0.133 0.016,-0.268 0.029,-0.407 0.015,-0.136 0.038,-0.267 0.07,-0.39 0.031,-0.124 0.079,-0.229 0.141,-0.315 l -1.351,0 c -0.075,0.196 -0.121,0.428 -0.139,0.698 -0.017,0.269 -0.042,0.528 -0.076,0.775 -0.047,0.322 -0.145,0.557 -0.293,0.706 -0.15,0.149 -0.394,0.224 -0.733,0.224 l -1.352,0 0,-2.403 -1.353,0 0,6.151 3.317,0 z m 4.185,-4.635 c 0.076,-0.144 0.174,-0.26 0.298,-0.35 0.124,-0.088 0.269,-0.154 0.435,-0.197 0.167,-0.043 0.339,-0.064 0.516,-0.064 0.122,0 0.25,0.009 0.388,0.03 0.139,0.019 0.268,0.057 0.388,0.116 0.121,0.057 0.221,0.137 0.302,0.236 0.08,0.101 0.121,0.229 0.121,0.384 0,0.166 -0.053,0.302 -0.16,0.405 C 33.414,1.71 33.274,1.796 33.103,1.865 32.931,1.934 32.735,1.995 32.518,2.047 32.3,2.098 32.078,2.156 31.854,2.219 31.624,2.275 31.4,2.346 31.183,2.43 30.964,2.512 30.769,2.621 30.597,2.752 30.424,2.885 30.285,3.05 30.179,3.248 30.071,3.446 30.02,3.686 30.02,3.967 c 0,0.316 0.067,0.59 0.202,0.823 0.134,0.231 0.311,0.427 0.529,0.581 0.219,0.155 0.466,0.27 0.74,0.345 0.277,0.075 0.553,0.112 0.828,0.112 0.321,0 0.63,-0.036 0.926,-0.107 0.296,-0.073 0.559,-0.19 0.788,-0.35 0.23,-0.16 0.412,-0.366 0.548,-0.615 0.135,-0.25 0.201,-0.554 0.201,-0.91 l -1.308,0 C 33.462,4.03 33.423,4.184 33.357,4.303 33.291,4.424 33.203,4.519 33.095,4.588 32.985,4.656 32.86,4.705 32.72,4.734 32.579,4.762 32.426,4.776 32.259,4.776 32.149,4.776 32.04,4.766 31.932,4.742 31.822,4.719 31.724,4.68 31.635,4.621 31.546,4.564 31.472,4.492 31.415,4.406 31.357,4.32 31.329,4.211 31.329,4.079 c 0,-0.12 0.024,-0.218 0.068,-0.292 0.046,-0.075 0.137,-0.144 0.272,-0.207 0.135,-0.063 0.321,-0.127 0.56,-0.189 0.238,-0.065 0.549,-0.145 0.934,-0.243 0.115,-0.022 0.275,-0.064 0.479,-0.125 0.203,-0.06 0.406,-0.156 0.607,-0.288 0.201,-0.131 0.374,-0.309 0.521,-0.53 0.147,-0.221 0.219,-0.504 0.219,-0.848 0,-0.281 -0.054,-0.543 -0.164,-0.785 -0.108,-0.24 -0.271,-0.449 -0.486,-0.624 -0.215,-0.175 -0.483,-0.311 -0.801,-0.409 -0.318,-0.097 -0.687,-0.145 -1.107,-0.145 -0.338,0 -0.668,0.041 -0.987,0.124 -0.318,0.084 -0.599,0.214 -0.843,0.392 -0.245,0.178 -0.438,0.404 -0.581,0.681 -0.144,0.274 -0.212,0.602 -0.207,0.981 l 1.309,0 c 0,-0.207 0.037,-0.382 0.111,-0.525 m 6.288,-1.516 -1.353,0 0,6.15 1.353,0 0,-6.15 z m 1.085,5.013 0,1.138 5.04,0 0,-1.138 -1.843,0 0,-5.013 -1.353,0 0,5.013 -1.844,0 z m 7.641,1.827 -1.163,0 0,1.008 1.163,0 0,-1.008 z m 1.774,0 -1.163,0 0,1.008 1.163,0 0,-1.008 z m -0.68,-4.463 -0.776,2.258 -0.017,0 -0.801,-2.258 1.594,0 z m -0.078,3.774 2.3,-6.151 -1.404,0 -0.465,1.369 -2.298,0 -0.483,-1.369 -1.362,0 2.326,6.151 1.386,0 z m 2.172,-1.138 0,1.138 5.039,0 0,-1.138 -1.844,0 0,-5.013 -1.352,0 0,5.013 -1.843,0 z"
             id="path26"
             style="fill:#002855;fill-opacity:1;fill-rule:nonzero;stroke:none" /></g><g
           transform="translate(425.1465,302.0781)"
           id="g28"><path
             d="m 0,0 0,-1.137 -2.972,0 0,-1.421 2.576,0 0,-1.051 -2.576,0 0,-2.54 -1.352,0 0,6.149 L 0,0 z m 3.933,-2.782 c 0.309,0 0.543,0.069 0.698,0.207 0.154,0.137 0.232,0.361 0.232,0.672 0,0.298 -0.078,0.515 -0.232,0.65 -0.155,0.135 -0.389,0.203 -0.698,0.203 l -1.482,0 0,-1.732 1.482,0 z M 4.415,0 C 4.69,0 4.939,-0.044 5.16,-0.133 5.381,-0.222 5.571,-0.345 5.729,-0.5 5.887,-0.654 6.007,-0.834 6.09,-1.038 6.174,-1.242 6.216,-1.461 6.216,-1.697 6.216,-2.059 6.139,-2.372 5.986,-2.636 5.835,-2.899 5.587,-3.101 5.242,-3.238 l 0,-0.018 c 0.166,-0.046 0.305,-0.116 0.414,-0.211 0.109,-0.095 0.198,-0.206 0.266,-0.336 0.069,-0.129 0.119,-0.271 0.15,-0.426 0.033,-0.155 0.054,-0.31 0.066,-0.465 0.005,-0.098 0.01,-0.213 0.017,-0.345 0.006,-0.132 0.016,-0.267 0.031,-0.404 0.013,-0.139 0.037,-0.269 0.068,-0.393 0.031,-0.123 0.079,-0.227 0.142,-0.313 l -1.352,0 c -0.075,0.195 -0.12,0.427 -0.138,0.697 -0.017,0.27 -0.043,0.528 -0.078,0.775 -0.046,0.322 -0.142,0.557 -0.293,0.706 -0.149,0.15 -0.392,0.224 -0.731,0.224 l -1.353,0 0,-2.402 -1.351,0 0,6.149 3.315,0 z m 4.646,-6.149 -1.353,0 0,6.149 1.353,0 0,-6.149 z m 6.15,6.149 0,-1.137 -3.248,0 0,-1.318 2.98,0 0,-1.051 -2.98,0 0,-1.507 3.316,0 0,-1.136 -4.668,0 0,6.149 4.6,0 z m 3.883,-5.013 c 0.195,0 0.385,0.032 0.568,0.095 0.184,0.063 0.347,0.168 0.49,0.314 0.144,0.146 0.259,0.338 0.345,0.573 0.086,0.236 0.13,0.523 0.13,0.862 0,0.31 -0.03,0.589 -0.09,0.839 -0.06,0.25 -0.16,0.464 -0.298,0.642 -0.138,0.178 -0.32,0.314 -0.547,0.409 -0.227,0.095 -0.506,0.142 -0.84,0.142 l -0.964,0 0,-3.876 1.206,0 z M 19.188,0 c 0.396,0 0.765,-0.063 1.107,-0.189 0.342,-0.126 0.637,-0.316 0.887,-0.569 0.251,-0.252 0.445,-0.568 0.586,-0.948 0.14,-0.378 0.211,-0.823 0.211,-1.335 0,-0.448 -0.057,-0.861 -0.172,-1.24 -0.116,-0.379 -0.288,-0.706 -0.521,-0.982 -0.233,-0.275 -0.522,-0.492 -0.87,-0.65 -0.348,-0.158 -0.758,-0.236 -1.228,-0.236 l -2.653,0 0,6.149 2.653,0 z m 6.722,-2.782 c 0.311,0 0.543,0.069 0.697,0.207 0.156,0.137 0.234,0.361 0.234,0.672 0,0.298 -0.078,0.515 -0.234,0.65 -0.154,0.135 -0.386,0.203 -0.697,0.203 l -1.481,0 0,-1.732 1.481,0 z M 26.393,0 c 0.275,0 0.524,-0.044 0.745,-0.133 0.221,-0.089 0.41,-0.212 0.569,-0.367 0.157,-0.154 0.277,-0.334 0.361,-0.538 0.083,-0.204 0.125,-0.423 0.125,-0.659 0,-0.362 -0.076,-0.675 -0.228,-0.939 -0.152,-0.263 -0.402,-0.465 -0.745,-0.602 l 0,-0.018 c 0.166,-0.046 0.303,-0.116 0.413,-0.211 0.109,-0.095 0.199,-0.206 0.267,-0.336 0.069,-0.129 0.12,-0.271 0.151,-0.426 0.031,-0.155 0.053,-0.31 0.064,-0.465 0.006,-0.098 0.012,-0.213 0.018,-0.345 0.005,-0.132 0.015,-0.267 0.029,-0.404 0.015,-0.139 0.038,-0.269 0.069,-0.393 0.032,-0.123 0.08,-0.227 0.142,-0.313 l -1.352,0 c -0.074,0.195 -0.12,0.427 -0.138,0.697 -0.017,0.27 -0.042,0.528 -0.076,0.775 -0.047,0.322 -0.145,0.557 -0.293,0.706 -0.151,0.15 -0.394,0.224 -0.733,0.224 l -1.352,0 0,-2.402 -1.353,0 0,6.149 3.317,0 z m 4.516,-6.149 -1.353,0 0,6.149 1.353,0 0,-6.149 z m 5.399,4.509 c -0.08,0.128 -0.181,0.242 -0.302,0.339 -0.12,0.098 -0.257,0.175 -0.408,0.229 -0.153,0.054 -0.313,0.081 -0.479,0.081 -0.305,0 -0.562,-0.058 -0.775,-0.176 -0.212,-0.117 -0.385,-0.275 -0.517,-0.473 -0.132,-0.199 -0.228,-0.424 -0.288,-0.677 -0.06,-0.253 -0.091,-0.514 -0.091,-0.784 0,-0.258 0.031,-0.509 0.091,-0.753 0.06,-0.244 0.156,-0.464 0.288,-0.659 0.132,-0.195 0.305,-0.352 0.517,-0.469 0.213,-0.119 0.47,-0.178 0.775,-0.178 0.414,0 0.736,0.127 0.969,0.379 0.232,0.253 0.375,0.587 0.427,1 l 1.309,0 c -0.035,-0.385 -0.123,-0.732 -0.267,-1.042 -0.143,-0.311 -0.333,-0.574 -0.569,-0.793 -0.236,-0.219 -0.511,-0.385 -0.827,-0.499 -0.315,-0.115 -0.663,-0.173 -1.042,-0.173 -0.471,0 -0.894,0.082 -1.271,0.246 -0.375,0.164 -0.693,0.389 -0.952,0.676 -0.257,0.287 -0.456,0.624 -0.594,1.012 -0.138,0.388 -0.206,0.806 -0.206,1.253 0,0.459 0.068,0.887 0.206,1.279 0.138,0.394 0.337,0.737 0.594,1.03 0.259,0.292 0.577,0.522 0.952,0.689 0.377,0.167 0.8,0.25 1.271,0.25 0.339,0 0.659,-0.049 0.961,-0.147 0.301,-0.097 0.57,-0.239 0.809,-0.426 0.239,-0.187 0.435,-0.418 0.59,-0.694 0.155,-0.275 0.253,-0.591 0.293,-0.947 l -1.309,0 c -0.024,0.155 -0.074,0.297 -0.155,0.427 m 4.108,1.64 0,-2.359 2.488,0 0,2.359 1.354,0 0,-6.149 -1.354,0 0,2.652 -2.488,0 0,-2.652 -1.353,0 0,6.149 1.353,0 z m 7.968,-4.324 -2.593,0 0,1.051 2.593,0 0,-1.051 z m 4.44,0.552 -0.775,2.256 -0.018,0 -0.801,-2.256 1.594,0 z M 52.746,0 l 2.3,-6.149 -1.404,0 -0.465,1.368 -2.3,0 -0.482,-1.368 -1.362,0 2.326,6.149 1.387,0 z m 4.585,0 0,-5.013 2.997,0 0,-1.136 -4.349,0 0,6.149 1.352,0 z m 8.679,0 0,-1.137 -3.247,0 0,-1.318 2.979,0 0,-1.051 -2.979,0 0,-1.507 3.316,0 0,-1.136 -4.669,0 0,6.149 4.6,0 z m 1.043,0 1.567,0 1.206,-1.964 1.248,1.964 1.483,0 -1.973,-2.937 2.145,-3.212 -1.611,0 -1.345,2.127 -1.369,-2.127 -1.515,0 2.144,3.22 L 67.053,0 z m 9.966,-3.772 -0.776,2.256 -0.016,0 -0.801,-2.256 1.593,0 z M 76.941,0 l 2.299,-6.149 -1.404,0 -0.465,1.368 -2.3,0 -0.482,-1.368 -1.36,0 2.326,6.149 1.386,0 z m 4.448,0 2.566,-4.125 0.018,0 0,4.125 1.265,0 0,-6.149 -1.351,0 -2.559,4.116 -0.017,0 0,-4.116 -1.266,0 0,6.149 1.344,0 z m 7.855,-5.013 c 0.195,0 0.385,0.032 0.569,0.095 0.183,0.063 0.347,0.168 0.49,0.314 0.144,0.146 0.258,0.338 0.345,0.573 0.086,0.236 0.129,0.523 0.129,0.862 0,0.31 -0.031,0.589 -0.09,0.839 -0.061,0.25 -0.16,0.464 -0.298,0.642 -0.137,0.178 -0.32,0.314 -0.546,0.409 -0.228,0.095 -0.507,0.142 -0.84,0.142 l -0.966,0 0,-3.876 1.207,0 z M 89.338,0 c 0.396,0 0.766,-0.063 1.107,-0.189 0.342,-0.126 0.638,-0.316 0.888,-0.569 0.249,-0.252 0.444,-0.568 0.585,-0.948 0.141,-0.378 0.211,-0.823 0.211,-1.335 0,-0.448 -0.058,-0.861 -0.172,-1.24 -0.115,-0.379 -0.289,-0.706 -0.521,-0.982 -0.233,-0.275 -0.523,-0.492 -0.87,-0.65 -0.347,-0.158 -0.757,-0.236 -1.228,-0.236 l -2.652,0 0,6.149 2.652,0 z m 8.502,0 0,-1.137 -3.247,0 0,-1.318 2.98,0 0,-1.051 -2.98,0 0,-1.507 3.316,0 0,-1.136 -4.669,0 0,6.149 4.6,0 z m 4.115,-2.782 c 0.311,0 0.543,0.069 0.699,0.207 0.155,0.137 0.232,0.361 0.232,0.672 0,0.298 -0.077,0.515 -0.232,0.65 -0.156,0.135 -0.388,0.203 -0.699,0.203 l -1.48,0 0,-1.732 1.48,0 z M 102.438,0 c 0.276,0 0.524,-0.044 0.746,-0.133 0.22,-0.089 0.41,-0.212 0.568,-0.367 0.157,-0.154 0.278,-0.334 0.361,-0.538 0.083,-0.204 0.125,-0.423 0.125,-0.659 0,-0.362 -0.076,-0.675 -0.228,-0.939 -0.153,-0.263 -0.401,-0.465 -0.745,-0.602 l 0,-0.018 c 0.167,-0.046 0.304,-0.116 0.413,-0.211 0.109,-0.095 0.199,-0.206 0.267,-0.336 0.07,-0.129 0.119,-0.271 0.151,-0.426 0.032,-0.155 0.053,-0.31 0.064,-0.465 0.006,-0.098 0.012,-0.213 0.018,-0.345 0.006,-0.132 0.015,-0.267 0.031,-0.404 0.014,-0.139 0.036,-0.269 0.068,-0.393 0.032,-0.123 0.078,-0.227 0.143,-0.313 l -1.354,0 c -0.074,0.195 -0.12,0.427 -0.136,0.697 -0.018,0.27 -0.044,0.528 -0.078,0.775 -0.046,0.322 -0.144,0.557 -0.293,0.706 -0.149,0.15 -0.393,0.224 -0.732,0.224 l -1.352,0 0,-2.402 -1.354,0 0,6.149 3.317,0 z"
             id="path30"
             style="fill:#002855;fill-opacity:1;fill-rule:nonzero;stroke:none" /></g><g
           transform="translate(407.3467,280.1328)"
           id="g32"><path
             d="m 0,0 -25.646,0 c 1.577,-1.286 3.4,-2.251 5.331,-2.921 l 14.971,0 C -3.407,-2.251 -1.579,-1.286 0,0"
             id="path34"
             style="fill:#002855;fill-opacity:1;fill-rule:nonzero;stroke:none" /></g><g
           transform="translate(336.7451,281.5967)"
           id="g36"><path
             d="m 0,0 11.115,0 0.018,0.054 -0.031,0 0.92,2.868 -10.916,0 L 0,0 z"
             id="path38"
             style="fill:#002855;fill-opacity:1;fill-rule:nonzero;stroke:none" /></g><g
           transform="translate(336.2358,280.1328)"
           id="g40"><path
             d="m 0,0 -1.107,-2.921 11.324,0 L 11.182,0 0,0 z"
             id="path42"
             style="fill:#002855;fill-opacity:1;fill-rule:nonzero;stroke:none" /></g><path
           d="m 312.512,277.212 10.613,0 0,2.921 -10.613,0 0,-2.921 z"
           id="path44"
           style="fill:#002855;fill-opacity:1;fill-rule:nonzero;stroke:none" /><path
           d="m 323.125,284.519 -10.613,0 0,-2.922 10.613,0 0,2.922 z"
           id="path46"
           style="fill:#002855;fill-opacity:1;fill-rule:nonzero;stroke:none" /><path
           d="m 323.125,288.9 -10.613,0 0,-2.921 10.613,0 0,2.921 z"
           id="path48"
           style="fill:#002855;fill-opacity:1;fill-rule:nonzero;stroke:none" /><path
           d="m 323.125,293.282 -10.613,0 0,-2.922 10.613,0 0,2.922 z"
           id="path50"
           style="fill:#002855;fill-opacity:1;fill-rule:nonzero;stroke:none" /><path
           d="m 323.125,306.436 -10.613,0 0,-2.921 10.613,0 0,2.921 z"
           id="path52"
           style="fill:#002855;fill-opacity:1;fill-rule:nonzero;stroke:none" /><path
           d="m 323.125,310.826 -10.613,0 0,-2.922 10.613,0 0,2.922 z"
           id="path54"
           style="fill:#002855;fill-opacity:1;fill-rule:nonzero;stroke:none" /><path
           d="m 312.512,316.668 32.437,0 0,2.921 -32.437,0 0,-2.921 z"
           id="path56"
           style="fill:#002855;fill-opacity:1;fill-rule:nonzero;stroke:none" /><path
           d="m 312.512,312.287 32.437,0 0,2.921 -32.437,0 0,-2.921 z"
           id="path58"
           style="fill:#002855;fill-opacity:1;fill-rule:nonzero;stroke:none" /><g
           transform="translate(355.5049,306.436)"
           id="g60"><path
             d="m 0,0 -9.572,0 -1.107,-2.921 9.78,0 L 0,0 z"
             id="path62"
             style="fill:#002855;fill-opacity:1;fill-rule:nonzero;stroke:none" /></g><g
           transform="translate(349.6743,316.6685)"
           id="g64"><path
             d="M 0,0 13.212,0 12.079,2.921 1.108,2.921 0,0 z"
             id="path66"
             style="fill:#002855;fill-opacity:1;fill-rule:nonzero;stroke:none" /></g><g
           transform="translate(348.0586,312.2866)"
           id="g68"><path
             d="m 0,0 16.48,0 -1.133,2.921 -14.24,0 L 0,0 z"
             id="path70"
             style="fill:#002855;fill-opacity:1;fill-rule:nonzero;stroke:none" /></g><g
           transform="translate(356.8574,307.8965)"
           id="g72"><path
             d="m 0,0 9.335,0 -1.133,2.921 -17.51,0 -1.108,-2.921 9.475,0 0.411,1.339 0.119,0 L 0,0 z"
             id="path74"
             style="fill:#002855;fill-opacity:1;fill-rule:nonzero;stroke:none" /></g><g
           transform="translate(358.1675,303.5146)"
           id="g76"><path
             d="m 0,0 9.678,0 -1.133,2.921 -9.441,0 L 0,0 z"
             id="path78"
             style="fill:#002855;fill-opacity:1;fill-rule:nonzero;stroke:none" /></g><g
           transform="translate(359.4771,299.1377)"
           id="g80"><path
             d="m 0,0 10.021,0 -1.132,2.921 -9.786,0 L 0,0 z"
             id="path82"
             style="fill:#002855;fill-opacity:1;fill-rule:nonzero;stroke:none" /></g><g
           transform="translate(360.7871,294.7568)"
           id="g84"><path
             d="M 0,0 10.365,0 9.231,2.92 -0.898,2.92 0,0 z"
             id="path86"
             style="fill:#002855;fill-opacity:1;fill-rule:nonzero;stroke:none" /></g><g
           transform="translate(339.9771,290.3604)"
           id="g88"><path
             d="M 0,0 32.828,0 31.695,2.922 1.108,2.922 0,0 z"
             id="path90"
             style="fill:#002855;fill-opacity:1;fill-rule:nonzero;stroke:none" /></g><g
           transform="translate(338.3608,285.9795)"
           id="g92"><path
             d="M 0,0 36.097,0 34.964,2.921 1.107,2.921 0,0 z"
             id="path94"
             style="fill:#002855;fill-opacity:1;fill-rule:nonzero;stroke:none" /></g><g
           transform="translate(365.0044,281.5967)"
           id="g96"><path
             d="M 0,0 11.108,0 9.974,2.922 -0.979,2.922 0,0 z"
             id="path98"
             style="fill:#002855;fill-opacity:1;fill-rule:nonzero;stroke:none" /></g><g
           transform="translate(365.4155,280.1328)"
           id="g100"><path
             d="m 0,0 0.964,-2.921 11.384,0 L 11.215,0 0,0 z"
             id="path102"
             style="fill:#002855;fill-opacity:1;fill-rule:nonzero;stroke:none" /></g><path
           d="m 376.55,316.668 10.612,0 0,2.921 -10.612,0 0,-2.921 z"
           id="path104"
           style="fill:#002855;fill-opacity:1;fill-rule:nonzero;stroke:none" /><path
           d="m 376.55,312.287 10.612,0 0,2.921 -10.612,0 0,-2.921 z"
           id="path106"
           style="fill:#002855;fill-opacity:1;fill-rule:nonzero;stroke:none" /><path
           d="m 376.55,307.896 10.612,0 0,2.921 -10.612,0 0,-2.921 z"
           id="path108"
           style="fill:#002855;fill-opacity:1;fill-rule:nonzero;stroke:none" /><path
           d="m 376.55,303.515 10.612,0 0,2.921 -10.612,0 0,-2.921 z"
           id="path110"
           style="fill:#002855;fill-opacity:1;fill-rule:nonzero;stroke:none" /><path
           d="m 376.55,299.138 10.612,0 0,2.921 -10.612,0 0,-2.921 z"
           id="path112"
           style="fill:#002855;fill-opacity:1;fill-rule:nonzero;stroke:none" /><path
           d="m 376.55,294.757 10.612,0 0,2.92 -10.612,0 0,-2.92 z"
           id="path114"
           style="fill:#002855;fill-opacity:1;fill-rule:nonzero;stroke:none" /><g
           transform="translate(376.6343,290.3604)"
           id="g116"><path
             d="m 0,0 10.727,0 c -0.134,0.757 -0.199,1.564 -0.199,2.415 l 0,0.507 -10.612,0 0,-1.377 C -0.084,1.008 -0.043,0.504 0,0"
             id="path118"
             style="fill:#002855;fill-opacity:1;fill-rule:nonzero;stroke:none" /></g><g
           transform="translate(377.5835,285.9795)"
           id="g120"><path
             d="m 0,0 12.104,0 c -0.942,0.734 -1.583,1.732 -1.983,2.921 l -10.896,0 C -0.601,1.879 -0.349,0.897 0,0"
             id="path122"
             style="fill:#002855;fill-opacity:1;fill-rule:nonzero;stroke:none" /></g><g
           transform="translate(410.8682,284.5186)"
           id="g124"><path
             d="m 0,0 -32.683,0 c 0.569,-1.092 1.273,-2.061 2.072,-2.922 l 28.538,0 C -1.274,-2.061 -0.569,-1.092 0,0"
             id="path126"
             style="fill:#002855;fill-opacity:1;fill-rule:nonzero;stroke:none" /></g><g
           transform="translate(412.2461,288.9004)"
           id="g128"><path
             d="m 0,0 -10.898,0 c -0.402,-1.188 -1.047,-2.187 -1.995,-2.921 l 12.117,0 C -0.427,-2.023 -0.176,-1.042 0,0"
             id="path130"
             style="fill:#002855;fill-opacity:1;fill-rule:nonzero;stroke:none" /></g><path
           d="m 401.891,316.668 10.614,0 0,2.921 -10.614,0 0,-2.921 z"
           id="path132"
           style="fill:#002855;fill-opacity:1;fill-rule:nonzero;stroke:none" /><path
           d="m 401.891,312.287 10.614,0 0,2.921 -10.614,0 0,-2.921 z"
           id="path134"
           style="fill:#002855;fill-opacity:1;fill-rule:nonzero;stroke:none" /><path
           d="m 401.891,307.896 10.614,0 0,2.921 -10.614,0 0,-2.921 z"
           id="path136"
           style="fill:#002855;fill-opacity:1;fill-rule:nonzero;stroke:none" /><path
           d="m 401.891,303.515 10.614,0 0,2.921 -10.614,0 0,-2.921 z"
           id="path138"
           style="fill:#002855;fill-opacity:1;fill-rule:nonzero;stroke:none" /><path
           d="m 401.891,299.138 10.614,0 0,2.921 -10.614,0 0,-2.921 z"
           id="path140"
           style="fill:#002855;fill-opacity:1;fill-rule:nonzero;stroke:none" /><path
           d="m 401.891,294.757 10.614,0 0,2.92 -10.614,0 0,-2.92 z"
           id="path142"
           style="fill:#002855;fill-opacity:1;fill-rule:nonzero;stroke:none" /><g
           transform="translate(412.5044,291.9053)"
           id="g144"><path
             d="m 0,0 0,1.377 -10.613,0 0,-0.507 c 0,-0.85 -0.064,-1.658 -0.2,-2.415 l 10.728,0 C -0.043,-1.041 0,-0.537 0,0"
             id="path146"
             style="fill:#002855;fill-opacity:1;fill-rule:nonzero;stroke:none" /></g><g
           transform="translate(312.5117,297.6777)"
           id="g148"><path
             d="m 0,0 0,-2.921 39.476,0 L 40.373,0 0,0 z"
             id="path150"
             style="fill:#002855;fill-opacity:1;fill-rule:nonzero;stroke:none" /></g><g
           transform="translate(312.5117,302.0591)"
           id="g152"><path
             d="m 0,0 0,-2.921 40.785,0 L 41.682,0 0,0 z"
             id="path154"
             style="fill:#002855;fill-opacity:1;fill-rule:nonzero;stroke:none" /></g></g></g></g></svg>