<?xml version="1.0" encoding="UTF-8" standalone="no"?>
<!-- Created with Inkscape (http://www.inkscape.org/) -->

<svg
   xmlns:dc="http://purl.org/dc/elements/1.1/"
   xmlns:cc="http://creativecommons.org/ns#"
   xmlns:rdf="http://www.w3.org/1999/02/22-rdf-syntax-ns#"
   xmlns:svg="http://www.w3.org/2000/svg"
   xmlns="http://www.w3.org/2000/svg"
   version="1.1"
   width="319.08688"
   height="85.040627"
   id="svg2"
   xml:space="preserve"><metadata
     id="metadata8"><rdf:RDF><cc:Work
         rdf:about=""><dc:format>image/svg+xml</dc:format><dc:type
           rdf:resource="http://purl.org/dc/dcmitype/StillImage" /><dc:title></dc:title></cc:Work></rdf:RDF></metadata><defs
     id="defs6"><clipPath
       id="clipPath16"><path
         d="m 0,595.28 841.89,0 L 841.89,0 0,0 0,595.28 z"
         id="path18" /></clipPath></defs><g
     transform="matrix(1.25,0,0,-1.25,-366.25,414.00875)"
     id="g10"><g
       id="g12"><g
         clip-path="url(#clipPath16)"
         id="g14"><g
           transform="translate(405.8545,263.3125)"
           id="g20"><path
             d="m 0,0 -1.041,4.179 -0.017,0 L -2.081,0 l -1.367,0 -1.626,6.14 1.35,0 0.972,-4.18 0.017,0 1.067,4.18 1.264,0 1.049,-4.231 0.018,0 1.005,4.231 1.325,0 L 1.341,0 0,0 z m 5.316,0 -1.35,0 0,6.14 1.35,0 0,-6.14 z M 7.85,1.513 C 7.923,1.37 8.023,1.253 8.146,1.165 8.269,1.075 8.414,1.011 8.581,0.967 8.747,0.925 8.918,0.903 9.096,0.903 c 0.121,0 0.25,0.01 0.387,0.03 0.138,0.019 0.267,0.058 0.387,0.116 0.121,0.057 0.221,0.136 0.301,0.236 0.08,0.101 0.121,0.228 0.121,0.383 0,0.167 -0.053,0.301 -0.16,0.404 C 10.027,2.175 9.888,2.261 9.715,2.33 9.543,2.398 9.349,2.459 9.13,2.511 8.913,2.563 8.692,2.62 8.469,2.683 8.239,2.74 8.016,2.81 7.798,2.894 7.58,2.977 7.385,3.084 7.213,3.216 7.041,3.348 6.902,3.513 6.796,3.71 6.69,3.908 6.637,4.147 6.637,4.429 c 0,0.314 0.067,0.589 0.202,0.82 C 6.974,5.481 7.15,5.675 7.368,5.83 7.586,5.985 7.833,6.1 8.107,6.174 8.383,6.249 8.658,6.286 8.933,6.286 9.254,6.286 9.562,6.25 9.857,6.179 10.152,6.106 10.415,5.991 10.644,5.83 10.874,5.67 11.055,5.465 11.19,5.215 11.325,4.966 11.393,4.663 11.393,4.308 l -1.308,0 C 10.073,4.491 10.035,4.644 9.969,4.764 9.903,4.884 9.815,4.979 9.707,5.048 9.598,5.116 9.473,5.165 9.333,5.194 9.192,5.223 9.039,5.236 8.873,5.236 8.764,5.236 8.655,5.226 8.546,5.202 8.437,5.179 8.338,5.14 8.25,5.082 8.16,5.024 8.087,4.953 8.03,4.866 7.973,4.781 7.944,4.672 7.944,4.54 7.944,4.42 7.967,4.322 8.013,4.247 8.059,4.173 8.149,4.104 8.284,4.041 8.418,3.978 8.604,3.915 8.842,3.853 9.081,3.789 9.392,3.709 9.776,3.611 9.891,3.589 10.049,3.547 10.253,3.487 10.457,3.427 10.658,3.331 10.859,3.198 11.06,3.067 11.233,2.891 11.38,2.669 11.526,2.449 11.599,2.167 11.599,1.823 11.599,1.542 11.544,1.28 11.436,1.04 11.326,0.8 11.165,0.592 10.95,0.417 10.734,0.242 10.468,0.105 10.149,0.008 9.832,-0.089 9.463,-0.138 9.045,-0.138 8.707,-0.138 8.378,-0.097 8.06,-0.013 7.742,0.069 7.461,0.2 7.217,0.378 6.974,0.556 6.78,0.782 6.637,1.058 6.494,1.333 6.425,1.659 6.431,2.038 l 1.307,0 c 0,-0.207 0.036,-0.381 0.112,-0.525 m 6.04,0 c 0.074,-0.143 0.173,-0.26 0.297,-0.348 0.122,-0.09 0.268,-0.154 0.434,-0.198 0.166,-0.042 0.338,-0.064 0.515,-0.064 0.121,0 0.25,0.01 0.387,0.03 0.138,0.019 0.267,0.058 0.388,0.116 0.12,0.057 0.22,0.136 0.301,0.236 0.08,0.101 0.119,0.228 0.119,0.383 0,0.167 -0.053,0.301 -0.158,0.404 -0.107,0.103 -0.245,0.189 -0.417,0.258 -0.172,0.068 -0.367,0.129 -0.585,0.181 -0.218,0.052 -0.439,0.109 -0.662,0.172 -0.23,0.057 -0.453,0.127 -0.671,0.211 -0.218,0.083 -0.413,0.19 -0.585,0.322 -0.172,0.132 -0.311,0.297 -0.417,0.494 -0.107,0.198 -0.159,0.437 -0.159,0.719 0,0.314 0.067,0.589 0.202,0.82 0.135,0.232 0.311,0.426 0.529,0.581 0.218,0.155 0.464,0.27 0.739,0.344 0.276,0.075 0.551,0.112 0.826,0.112 0.321,0 0.629,-0.036 0.924,-0.107 0.295,-0.073 0.558,-0.188 0.788,-0.349 0.228,-0.16 0.411,-0.365 0.545,-0.615 0.135,-0.249 0.203,-0.552 0.203,-0.907 l -1.308,0 c -0.011,0.183 -0.05,0.336 -0.116,0.456 -0.066,0.12 -0.153,0.215 -0.262,0.284 -0.109,0.068 -0.234,0.117 -0.374,0.146 -0.141,0.029 -0.294,0.042 -0.46,0.042 -0.109,0 -0.218,-0.01 -0.327,-0.034 C 14.477,5.179 14.378,5.14 14.29,5.082 14.201,5.024 14.127,4.953 14.07,4.866 14.013,4.781 13.984,4.672 13.984,4.54 13.984,4.42 14.007,4.322 14.053,4.247 14.099,4.173 14.189,4.104 14.324,4.041 14.458,3.978 14.645,3.915 14.883,3.853 15.12,3.789 15.432,3.709 15.816,3.611 15.93,3.589 16.089,3.547 16.293,3.487 16.497,3.427 16.698,3.331 16.899,3.198 17.101,3.067 17.273,2.891 17.42,2.669 17.565,2.449 17.64,2.167 17.64,1.823 17.64,1.542 17.585,1.28 17.476,1.04 17.366,0.8 17.204,0.592 16.989,0.417 16.774,0.242 16.509,0.105 16.19,0.008 c -0.318,-0.097 -0.687,-0.146 -1.105,-0.146 -0.338,0 -0.667,0.041 -0.985,0.125 -0.318,0.082 -0.599,0.213 -0.843,0.391 -0.243,0.178 -0.437,0.404 -0.58,0.68 -0.143,0.275 -0.212,0.601 -0.206,0.98 l 1.307,0 c 0,-0.207 0.037,-0.381 0.112,-0.525 m 9.423,4.627 0,-1.135 -3.242,0 0,-1.317 2.976,0 0,-1.048 -2.976,0 0,-1.505 3.311,0 0,-1.135 -4.66,0 0,6.14 4.591,0 z m 2.75,0 2.563,-4.119 0.018,0 0,4.119 1.263,0 0,-6.14 -1.349,0 -2.554,4.11 -0.018,0 0,-4.11 -1.264,0 0,6.14 1.341,0 z m 6.323,-4.627 c 0.074,-0.143 0.172,-0.26 0.296,-0.348 0.123,-0.09 0.268,-0.154 0.434,-0.198 0.166,-0.042 0.338,-0.064 0.516,-0.064 0.12,0 0.25,0.01 0.387,0.03 0.138,0.019 0.267,0.058 0.386,0.116 0.121,0.057 0.222,0.136 0.302,0.236 0.08,0.101 0.12,0.228 0.12,0.383 0,0.167 -0.053,0.301 -0.158,0.404 -0.107,0.103 -0.246,0.189 -0.418,0.258 -0.172,0.068 -0.367,0.129 -0.584,0.181 -0.219,0.052 -0.439,0.109 -0.662,0.172 -0.231,0.057 -0.453,0.127 -0.672,0.211 -0.217,0.083 -0.412,0.19 -0.584,0.322 -0.172,0.132 -0.311,0.297 -0.418,0.494 -0.105,0.198 -0.158,0.437 -0.158,0.719 0,0.314 0.066,0.589 0.201,0.82 0.135,0.232 0.313,0.426 0.529,0.581 0.219,0.155 0.465,0.27 0.741,0.344 0.275,0.075 0.549,0.112 0.825,0.112 0.321,0 0.629,-0.036 0.925,-0.107 C 34.688,6.106 34.95,5.991 35.18,5.83 35.409,5.67 35.591,5.465 35.726,5.215 35.86,4.966 35.929,4.663 35.929,4.308 l -1.308,0 c -0.012,0.183 -0.05,0.336 -0.116,0.456 -0.067,0.12 -0.153,0.215 -0.262,0.284 -0.109,0.068 -0.234,0.117 -0.375,0.146 -0.14,0.029 -0.293,0.042 -0.46,0.042 C 33.3,5.236 33.19,5.226 33.081,5.202 32.973,5.179 32.874,5.14 32.785,5.082 32.696,5.024 32.622,4.953 32.565,4.866 32.509,4.781 32.479,4.672 32.479,4.54 c 0,-0.12 0.024,-0.218 0.069,-0.293 0.047,-0.074 0.137,-0.143 0.271,-0.206 0.135,-0.063 0.322,-0.126 0.559,-0.188 0.238,-0.064 0.549,-0.144 0.934,-0.242 0.115,-0.022 0.273,-0.064 0.476,-0.124 0.204,-0.06 0.406,-0.156 0.608,-0.289 0.2,-0.131 0.373,-0.307 0.519,-0.529 0.147,-0.22 0.22,-0.502 0.22,-0.846 C 36.135,1.542 36.08,1.28 35.972,1.04 35.862,0.8 35.7,0.592 35.485,0.417 35.271,0.242 35.004,0.105 34.686,0.008 c -0.319,-0.097 -0.687,-0.146 -1.105,-0.146 -0.339,0 -0.667,0.041 -0.985,0.125 -0.318,0.082 -0.599,0.213 -0.843,0.391 -0.244,0.178 -0.438,0.404 -0.58,0.68 -0.144,0.275 -0.213,0.601 -0.207,0.98 l 1.306,0 c 0,-0.207 0.039,-0.381 0.114,-0.525 m 8.885,2.988 C 41.189,4.63 41.089,4.743 40.97,4.841 40.849,4.938 40.712,5.015 40.561,5.069 40.409,5.123 40.249,5.15 40.083,5.15 39.779,5.15 39.521,5.092 39.31,4.974 39.097,4.856 38.925,4.699 38.794,4.501 38.661,4.304 38.565,4.079 38.505,3.826 38.444,3.573 38.415,3.313 38.415,3.044 c 0,-0.258 0.029,-0.509 0.09,-0.752 0.06,-0.244 0.156,-0.464 0.289,-0.658 0.131,-0.196 0.303,-0.352 0.516,-0.469 0.211,-0.118 0.469,-0.177 0.773,-0.177 0.413,0 0.735,0.126 0.968,0.378 0.231,0.253 0.374,0.586 0.426,0.998 l 1.307,0 C 42.749,1.979 42.66,1.634 42.517,1.324 42.374,1.015 42.185,0.751 41.949,0.532 41.714,0.315 41.438,0.149 41.124,0.034 c -0.315,-0.115 -0.662,-0.172 -1.041,-0.172 -0.471,0 -0.893,0.082 -1.268,0.244 -0.376,0.165 -0.692,0.389 -0.951,0.676 -0.258,0.287 -0.455,0.623 -0.593,1.01 -0.137,0.388 -0.206,0.805 -0.206,1.252 0,0.459 0.069,0.885 0.206,1.277 0.138,0.393 0.335,0.735 0.593,1.028 0.259,0.293 0.575,0.521 0.951,0.687 0.375,0.166 0.797,0.25 1.268,0.25 0.338,0 0.658,-0.049 0.959,-0.146 0.301,-0.098 0.57,-0.24 0.809,-0.426 0.238,-0.186 0.433,-0.417 0.589,-0.692 0.155,-0.275 0.252,-0.591 0.291,-0.946 l -1.306,0 C 41.401,4.23 41.351,4.372 41.271,4.501 m 4.143,1.639 0,-2.357 2.485,0 0,2.357 1.35,0 0,-6.14 -1.35,0 0,2.648 -2.485,0 0,-2.648 -1.351,0 0,6.14 1.351,0 z m 8.426,-3.767 -0.775,2.253 -0.016,0 -0.8,-2.253 1.591,0 z M 53.763,6.14 56.059,0 54.657,0 54.192,1.366 51.896,1.366 51.415,0 l -1.359,0 2.322,6.14 1.385,0 z m 7.63,0 0,-1.135 -2.966,0 0,-1.42 2.57,0 0,-1.049 -2.57,0 0,-2.536 -1.352,0 0,6.14 4.318,0 z m 0.817,-1.135 0,1.135 5.031,0 0,-1.135 -1.84,0 0,-5.005 -1.35,0 0,5.005 -1.841,0 z m 7.312,1.135 0,-5.005 2.993,0 0,-1.135 -4.343,0 0,6.14 1.35,0 z M 74.901,0 l -1.35,0 0,6.14 1.35,0 0,-6.14 z m 5.391,4.501 C 80.212,4.63 80.11,4.743 79.99,4.841 79.87,4.938 79.733,5.015 79.582,5.069 79.431,5.123 79.271,5.15 79.104,5.15 78.801,5.15 78.543,5.092 78.331,4.974 78.118,4.856 77.947,4.699 77.815,4.501 77.683,4.304 77.587,4.079 77.526,3.826 77.467,3.573 77.437,3.313 77.437,3.044 c 0,-0.258 0.03,-0.509 0.089,-0.752 0.061,-0.244 0.157,-0.464 0.289,-0.658 0.132,-0.196 0.303,-0.352 0.516,-0.469 0.212,-0.118 0.47,-0.177 0.773,-0.177 0.414,0 0.736,0.126 0.968,0.378 0.233,0.253 0.374,0.586 0.426,0.998 l 1.308,0 C 81.771,1.979 81.682,1.634 81.538,1.324 81.396,1.015 81.206,0.751 80.971,0.532 80.735,0.315 80.46,0.149 80.146,0.034 79.83,-0.081 79.483,-0.138 79.104,-0.138 c -0.469,0 -0.892,0.082 -1.267,0.244 -0.377,0.165 -0.693,0.389 -0.951,0.676 -0.258,0.287 -0.455,0.623 -0.593,1.01 -0.138,0.388 -0.206,0.805 -0.206,1.252 0,0.459 0.068,0.885 0.206,1.277 0.138,0.393 0.335,0.735 0.593,1.028 0.258,0.293 0.574,0.521 0.951,0.687 0.375,0.166 0.798,0.25 1.267,0.25 0.339,0 0.659,-0.049 0.959,-0.146 0.301,-0.098 0.571,-0.24 0.809,-0.426 0.238,-0.186 0.435,-0.417 0.589,-0.692 0.155,-0.275 0.253,-0.591 0.293,-0.946 l -1.308,0 C 80.423,4.23 80.372,4.372 80.292,4.501 m 4.101,1.639 0,-2.357 2.485,0 0,2.357 1.35,0 0,-6.14 -1.35,0 0,2.648 -2.485,0 0,-2.648 -1.351,0 0,6.14 1.351,0 z m 10.018,0 0,-1.135 -3.241,0 0,-1.317 2.976,0 0,-1.048 -2.976,0 0,-1.505 3.311,0 0,-1.135 -4.662,0 0,6.14 4.592,0 z m 8.068,0 0,-1.135 -2.968,0 0,-1.42 2.572,0 0,-1.049 -2.572,0 0,-2.536 -1.35,0 0,6.14 4.318,0 z m 3.774,-3.767 -0.774,2.253 -0.017,0 -0.801,-2.253 1.592,0 z m -0.078,3.767 2.297,-6.14 -1.403,0 -0.465,1.366 -2.294,0 -0.483,-1.366 -1.358,0 2.321,6.14 1.385,0 z m 4.578,0 0,-2.545 2.398,2.545 1.686,0 -2.399,-2.425 2.631,-3.715 -1.694,0 -1.849,2.761 -0.773,-0.783 0,-1.978 -1.351,0 0,6.14 1.351,0 z m 9.662,-5.672 c -0.465,-0.404 -1.107,-0.606 -1.927,-0.606 -0.831,0 -1.474,0.201 -1.93,0.602 -0.455,0.401 -0.684,1.02 -0.684,1.857 l 0,3.819 1.35,0 0,-3.819 c 0,-0.166 0.014,-0.33 0.043,-0.49 0.029,-0.16 0.089,-0.303 0.181,-0.426 0.092,-0.123 0.219,-0.222 0.383,-0.301 0.163,-0.077 0.382,-0.116 0.657,-0.116 0.482,0 0.814,0.109 0.997,0.324 0.184,0.214 0.276,0.55 0.276,1.009 l 0,3.819 1.35,0 0,-3.819 c 0,-0.831 -0.232,-1.449 -0.696,-1.853 m 3.52,5.672 0,-5.005 2.992,0 0,-1.135 -4.342,0 0,6.14 1.35,0 z m 2.77,-1.135 0,1.135 5.03,0 0,-1.135 -1.839,0 0,-5.005 -1.35,0 0,5.005 -1.841,0 z m 7.566,1.822 -1.161,0 0,1.007 1.161,0 0,-1.007 z m 1.772,0 -1.161,0 0,1.007 1.161,0 0,-1.007 z m -0.679,-4.454 -0.774,2.253 -0.017,0 -0.801,-2.253 1.592,0 z m -0.078,3.767 2.297,-6.14 -1.402,0 -0.465,1.366 -2.295,0 -0.483,-1.366 -1.358,0 2.321,6.14 1.385,0 z m 2.098,-1.135 0,1.135 5.031,0 0,-1.135 -1.841,0 0,-5.005 -1.35,0 0,5.005 -1.84,0 z"
             id="path22"
             style="fill:#76232f;fill-opacity:1;fill-rule:nonzero;stroke:none" /></g><g
           transform="translate(403.9609,276.001)"
           id="g24"><path
             d="M 0,0 C 0.31,0 0.542,0.068 0.696,0.205 0.852,0.344 0.929,0.566 0.929,0.877 0.929,1.175 0.852,1.391 0.696,1.525 0.542,1.66 0.31,1.728 0,1.728 l -1.479,0 L -1.479,0 0,0 z M 0.481,2.777 C 0.757,2.777 1.005,2.732 1.226,2.644 1.446,2.555 1.635,2.434 1.793,2.278 1.951,2.123 2.071,1.944 2.154,1.74 2.237,1.537 2.279,1.318 2.279,1.083 2.279,0.722 2.203,0.409 2.051,0.146 1.899,-0.119 1.651,-0.319 1.307,-0.457 l 0,-0.018 C 1.473,-0.52 1.611,-0.59 1.72,-0.685 1.829,-0.779 1.918,-0.891 1.986,-1.02 2.056,-1.148 2.105,-1.291 2.137,-1.445 2.168,-1.601 2.19,-1.755 2.202,-1.91 2.207,-2.008 2.213,-2.122 2.219,-2.254 2.224,-2.386 2.234,-2.52 2.249,-2.658 2.263,-2.796 2.286,-2.926 2.317,-3.049 2.349,-3.172 2.396,-3.277 2.459,-3.363 l -1.35,0 c -0.074,0.195 -0.12,0.427 -0.137,0.696 -0.017,0.27 -0.043,0.528 -0.077,0.774 -0.046,0.321 -0.144,0.557 -0.293,0.705 -0.149,0.15 -0.393,0.224 -0.731,0.224 l -1.35,0 0,-2.399 -1.35,0 0,6.14 3.31,0 z m 7.825,0 0,-1.134 -3.242,0 0,-1.317 2.975,0 0,-1.049 -2.975,0 0,-1.506 3.311,0 0,-1.134 -4.661,0 0,6.14 4.592,0 z m 5.227,-1.638 c -0.08,0.129 -0.181,0.242 -0.302,0.34 -0.12,0.097 -0.256,0.173 -0.407,0.227 -0.153,0.055 -0.312,0.082 -0.478,0.082 -0.304,0 -0.562,-0.059 -0.774,-0.177 C 11.36,1.494 11.188,1.336 11.056,1.139 10.924,0.941 10.829,0.716 10.768,0.463 c -0.06,-0.252 -0.09,-0.513 -0.09,-0.782 0,-0.257 0.03,-0.509 0.09,-0.752 0.061,-0.244 0.156,-0.463 0.288,-0.658 0.132,-0.195 0.304,-0.351 0.516,-0.469 0.212,-0.117 0.47,-0.176 0.774,-0.176 0.413,0 0.736,0.126 0.967,0.378 0.233,0.252 0.375,0.585 0.426,0.998 l 1.307,0 c -0.034,-0.385 -0.123,-0.731 -0.266,-1.041 -0.144,-0.31 -0.333,-0.573 -0.568,-0.791 -0.235,-0.218 -0.51,-0.385 -0.826,-0.499 -0.315,-0.114 -0.661,-0.172 -1.04,-0.172 -0.47,0 -0.893,0.081 -1.268,0.245 -0.376,0.164 -0.692,0.389 -0.951,0.676 -0.258,0.286 -0.456,0.623 -0.593,1.01 -0.138,0.386 -0.207,0.804 -0.207,1.251 0,0.459 0.069,0.883 0.207,1.277 0.137,0.393 0.335,0.735 0.593,1.028 0.259,0.292 0.575,0.522 0.951,0.688 0.375,0.166 0.798,0.249 1.268,0.249 0.339,0 0.658,-0.049 0.959,-0.146 0.301,-0.097 0.57,-0.24 0.808,-0.425 0.238,-0.187 0.434,-0.418 0.59,-0.694 0.154,-0.274 0.252,-0.59 0.292,-0.945 l -1.307,0 C 13.665,0.867 13.613,1.01 13.533,1.139 m 4.015,1.638 0,-2.356 2.485,0 0,2.356 1.35,0 0,-6.14 -1.35,0 0,2.648 -2.485,0 0,-2.648 -1.35,0 0,6.14 1.35,0 z m 5.067,-1.134 0,1.134 5.031,0 0,-1.134 -1.841,0 0,-5.006 -1.35,0 0,5.006 -1.84,0 z m 7.101,-3.493 c 0.075,-0.143 0.173,-0.259 0.297,-0.348 0.123,-0.089 0.268,-0.156 0.434,-0.198 0.166,-0.043 0.338,-0.065 0.516,-0.065 0.121,0 0.25,0.011 0.387,0.031 0.137,0.02 0.267,0.059 0.387,0.117 0.12,0.056 0.22,0.135 0.3,0.235 0.08,0.101 0.121,0.228 0.121,0.384 0,0.165 -0.053,0.299 -0.159,0.403 -0.106,0.103 -0.245,0.189 -0.417,0.258 -0.172,0.069 -0.367,0.129 -0.584,0.181 -0.219,0.051 -0.439,0.108 -0.663,0.172 -0.23,0.057 -0.452,0.127 -0.671,0.21 -0.217,0.083 -0.412,0.191 -0.584,0.324 -0.172,0.13 -0.311,0.296 -0.418,0.494 -0.105,0.197 -0.158,0.437 -0.158,0.717 0,0.316 0.066,0.589 0.201,0.822 0.135,0.232 0.312,0.426 0.529,0.581 0.218,0.155 0.465,0.268 0.741,0.343 0.274,0.075 0.548,0.112 0.825,0.112 0.321,0 0.629,-0.036 0.925,-0.107 0.295,-0.072 0.556,-0.189 0.786,-0.348 0.229,-0.161 0.411,-0.366 0.546,-0.615 0.134,-0.249 0.202,-0.552 0.202,-0.908 l -1.308,0 C 31.94,1.129 31.902,1.281 31.836,1.4 31.77,1.521 31.682,1.615 31.573,1.686 31.465,1.754 31.34,1.803 31.199,1.83 31.059,1.859 30.906,1.874 30.739,1.874 30.631,1.874 30.521,1.862 30.412,1.84 30.304,1.816 30.205,1.776 30.116,1.719 30.027,1.662 29.954,1.59 29.896,1.504 29.84,1.418 29.811,1.309 29.811,1.178 c 0,-0.121 0.023,-0.219 0.068,-0.293 0.047,-0.074 0.137,-0.144 0.271,-0.206 0.135,-0.064 0.321,-0.126 0.559,-0.189 0.238,-0.064 0.549,-0.144 0.934,-0.242 0.114,-0.022 0.273,-0.064 0.476,-0.124 0.203,-0.06 0.406,-0.156 0.608,-0.288 0.199,-0.133 0.373,-0.309 0.519,-0.529 0.147,-0.221 0.219,-0.503 0.219,-0.847 0,-0.28 -0.054,-0.542 -0.162,-0.782 -0.11,-0.241 -0.272,-0.449 -0.487,-0.623 -0.214,-0.176 -0.481,-0.313 -0.799,-0.409 -0.319,-0.098 -0.687,-0.147 -1.105,-0.147 -0.339,0 -0.667,0.042 -0.985,0.125 -0.319,0.083 -0.599,0.214 -0.843,0.392 -0.244,0.177 -0.438,0.404 -0.58,0.678 -0.144,0.276 -0.213,0.603 -0.207,0.981 l 1.307,0 c 0,-0.206 0.038,-0.382 0.112,-0.525 m 7.477,0.31 -2.588,0 0,1.05 2.588,0 0,-1.05 z m 8.333,-1.355 c -0.463,-0.404 -1.106,-0.606 -1.925,-0.606 -0.831,0 -1.475,0.2 -1.931,0.603 -0.455,0.4 -0.684,1.019 -0.684,1.857 l 0,3.818 1.35,0 0,-3.818 c 0,-0.167 0.015,-0.33 0.043,-0.49 0.029,-0.16 0.09,-0.303 0.182,-0.426 0.091,-0.123 0.218,-0.224 0.381,-0.301 0.163,-0.078 0.383,-0.116 0.659,-0.116 0.481,0 0.813,0.107 0.997,0.322 0.183,0.215 0.275,0.552 0.275,1.011 l 0,3.818 1.351,0 0,-3.818 c 0,-0.832 -0.233,-1.449 -0.698,-1.854 m 3.598,5.672 2.563,-4.119 0.016,0 0,4.119 1.266,0 0,-6.14 -1.352,0 -2.553,4.111 -0.017,0 0,-4.111 -1.265,0 0,6.14 1.342,0 z m 7.86,-5.006 c 0.196,0 0.385,0.033 0.569,0.096 0.183,0.063 0.346,0.167 0.49,0.314 0.143,0.145 0.258,0.337 0.344,0.571 0.086,0.234 0.129,0.521 0.129,0.861 0,0.309 -0.031,0.588 -0.091,0.838 -0.06,0.249 -0.159,0.463 -0.296,0.64 -0.138,0.179 -0.32,0.314 -0.547,0.409 -0.227,0.095 -0.506,0.143 -0.838,0.143 l -0.963,0 0,-3.872 1.203,0 z m 0.096,5.006 c 0.395,0 0.764,-0.064 1.105,-0.189 0.34,-0.127 0.635,-0.316 0.885,-0.567 0.25,-0.253 0.445,-0.568 0.585,-0.947 0.14,-0.378 0.21,-0.822 0.21,-1.333 0,-0.446 -0.056,-0.86 -0.172,-1.238 -0.114,-0.378 -0.287,-0.705 -0.519,-0.981 -0.233,-0.274 -0.523,-0.491 -0.869,-0.649 -0.347,-0.157 -0.756,-0.236 -1.225,-0.236 l -2.648,0 0,6.14 2.648,0 z m 10.955,-6.14 -1.041,4.179 -0.017,0 -1.023,-4.179 -1.368,0 -1.625,6.14 1.351,0 0.971,-4.179 0.018,0 1.066,4.179 1.264,0 1.049,-4.23 0.017,0 1.006,4.23 1.324,0 -1.65,-6.14 -1.342,0 z m 5.317,0 -1.351,0 0,6.14 1.351,0 0,-6.14 z M 77.771,0 c 0.31,0 0.542,0.068 0.697,0.205 0.155,0.139 0.232,0.361 0.232,0.672 0,0.298 -0.077,0.514 -0.232,0.648 -0.155,0.135 -0.387,0.203 -0.697,0.203 l -1.479,0 0,-1.728 1.479,0 z m 0.482,2.777 c 0.275,0 0.522,-0.045 0.743,-0.133 0.221,-0.089 0.41,-0.21 0.568,-0.366 0.158,-0.155 0.278,-0.334 0.362,-0.538 0.082,-0.203 0.124,-0.422 0.124,-0.657 0,-0.361 -0.075,-0.674 -0.228,-0.937 -0.152,-0.265 -0.4,-0.465 -0.744,-0.603 l 0,-0.018 c 0.167,-0.045 0.305,-0.115 0.413,-0.21 0.109,-0.094 0.198,-0.206 0.267,-0.335 0.068,-0.128 0.119,-0.271 0.15,-0.425 0.031,-0.156 0.053,-0.31 0.065,-0.465 0.006,-0.098 0.011,-0.212 0.017,-0.344 0.006,-0.132 0.016,-0.266 0.03,-0.404 0.014,-0.138 0.038,-0.268 0.07,-0.391 0.031,-0.123 0.078,-0.228 0.14,-0.314 l -1.349,0 c -0.075,0.195 -0.121,0.427 -0.139,0.696 -0.016,0.27 -0.042,0.528 -0.076,0.774 -0.047,0.321 -0.144,0.557 -0.293,0.705 -0.148,0.15 -0.393,0.224 -0.73,0.224 l -1.351,0 0,-2.399 -1.35,0 0,6.14 3.311,0 z m 2.654,-1.134 0,1.134 5.031,0 0,-1.134 -1.84,0 0,-5.006 -1.35,0 0,5.006 -1.841,0 z m 7.188,-3.493 c 0.074,-0.143 0.173,-0.259 0.297,-0.348 0.123,-0.089 0.268,-0.156 0.434,-0.198 0.166,-0.043 0.338,-0.065 0.516,-0.065 0.12,0 0.25,0.011 0.387,0.031 0.138,0.02 0.266,0.059 0.386,0.117 0.121,0.056 0.221,0.135 0.302,0.235 0.079,0.101 0.12,0.228 0.12,0.384 0,0.165 -0.053,0.299 -0.159,0.403 -0.107,0.103 -0.245,0.189 -0.417,0.258 -0.172,0.069 -0.367,0.129 -0.585,0.181 -0.218,0.051 -0.438,0.108 -0.662,0.172 -0.23,0.057 -0.453,0.127 -0.671,0.21 -0.218,0.083 -0.412,0.191 -0.584,0.324 -0.172,0.13 -0.312,0.296 -0.418,0.494 -0.105,0.197 -0.158,0.437 -0.158,0.717 0,0.316 0.066,0.589 0.201,0.822 0.135,0.232 0.312,0.426 0.529,0.581 0.218,0.155 0.465,0.268 0.741,0.343 0.274,0.075 0.549,0.112 0.825,0.112 0.321,0 0.629,-0.036 0.925,-0.107 C 90.398,2.744 90.66,2.627 90.89,2.468 91.119,2.307 91.301,2.102 91.436,1.853 91.57,1.604 91.639,1.301 91.639,0.945 l -1.308,0 C 90.318,1.129 90.28,1.281 90.215,1.4 90.148,1.521 90.061,1.615 89.953,1.686 89.844,1.754 89.719,1.803 89.578,1.83 89.438,1.859 89.284,1.874 89.118,1.874 89.01,1.874 88.9,1.862 88.791,1.84 88.682,1.816 88.584,1.776 88.495,1.719 88.406,1.662 88.332,1.59 88.275,1.504 88.218,1.418 88.189,1.309 88.189,1.178 c 0,-0.121 0.024,-0.219 0.069,-0.293 0.047,-0.074 0.137,-0.144 0.271,-0.206 0.135,-0.064 0.321,-0.126 0.559,-0.189 0.238,-0.064 0.549,-0.144 0.933,-0.242 0.115,-0.022 0.274,-0.064 0.477,-0.124 0.204,-0.06 0.406,-0.156 0.606,-0.288 0.201,-0.133 0.375,-0.309 0.521,-0.529 0.146,-0.221 0.219,-0.503 0.219,-0.847 0,-0.28 -0.054,-0.542 -0.163,-0.782 -0.109,-0.241 -0.271,-0.449 -0.486,-0.623 -0.215,-0.176 -0.482,-0.313 -0.8,-0.409 -0.318,-0.098 -0.686,-0.147 -1.105,-0.147 -0.339,0 -0.667,0.042 -0.984,0.125 -0.319,0.083 -0.6,0.214 -0.843,0.392 -0.244,0.177 -0.438,0.404 -0.58,0.678 -0.145,0.276 -0.213,0.603 -0.207,0.981 l 1.306,0 c 0,-0.206 0.038,-0.382 0.113,-0.525 m 8.884,2.989 c -0.08,0.129 -0.18,0.242 -0.3,0.34 -0.12,0.097 -0.257,0.173 -0.408,0.227 -0.153,0.055 -0.312,0.082 -0.478,0.082 -0.304,0 -0.563,-0.059 -0.774,-0.177 C 94.807,1.494 94.635,1.336 94.503,1.139 94.371,0.941 94.275,0.716 94.215,0.463 c -0.061,-0.252 -0.09,-0.513 -0.09,-0.782 0,-0.257 0.029,-0.509 0.09,-0.752 0.06,-0.244 0.156,-0.463 0.288,-0.658 0.132,-0.195 0.304,-0.351 0.516,-0.469 0.211,-0.117 0.47,-0.176 0.774,-0.176 0.412,0 0.735,0.126 0.967,0.378 0.232,0.252 0.375,0.585 0.426,0.998 l 1.307,0 c -0.034,-0.385 -0.123,-0.731 -0.266,-1.041 -0.143,-0.31 -0.332,-0.573 -0.568,-0.791 -0.235,-0.218 -0.511,-0.385 -0.825,-0.499 -0.316,-0.114 -0.662,-0.172 -1.041,-0.172 -0.471,0 -0.893,0.081 -1.269,0.245 -0.376,0.164 -0.692,0.389 -0.95,0.676 -0.258,0.286 -0.455,0.623 -0.594,1.01 -0.136,0.386 -0.206,0.804 -0.206,1.251 0,0.459 0.07,0.883 0.206,1.277 0.139,0.393 0.336,0.735 0.594,1.028 0.258,0.292 0.574,0.522 0.95,0.688 0.376,0.166 0.798,0.249 1.269,0.249 0.338,0 0.658,-0.049 0.959,-0.146 0.301,-0.097 0.57,-0.24 0.809,-0.425 0.237,-0.187 0.433,-0.418 0.588,-0.694 0.156,-0.274 0.252,-0.59 0.292,-0.945 l -1.306,0 C 97.111,0.867 97.06,1.01 96.979,1.139 m 4.058,1.638 0,-2.356 2.486,0 0,2.356 1.35,0 0,-6.14 -1.35,0 0,2.648 -2.486,0 0,-2.648 -1.349,0 0,6.14 1.349,0 z m 8.555,-3.766 -0.774,2.253 -0.017,0 -0.799,-2.253 1.59,0 z m -0.076,3.766 2.296,-6.14 -1.403,0 -0.464,1.367 -2.297,0 -0.48,-1.367 -1.359,0 2.322,6.14 1.385,0 z m 7.501,0 0,-1.134 -2.967,0 0,-1.42 2.571,0 0,-1.049 -2.571,0 0,-2.537 -1.351,0 0,6.14 4.318,0 z m 0.946,-1.134 0,1.134 5.031,0 0,-1.134 -1.841,0 0,-5.006 -1.349,0 0,5.006 -1.841,0 z m 7.016,-3.493 c 0.074,-0.143 0.173,-0.259 0.296,-0.348 0.123,-0.089 0.268,-0.156 0.434,-0.198 0.167,-0.043 0.339,-0.065 0.517,-0.065 0.12,0 0.249,0.011 0.386,0.031 0.138,0.02 0.267,0.059 0.387,0.117 0.12,0.056 0.221,0.135 0.302,0.235 0.08,0.101 0.12,0.228 0.12,0.384 0,0.165 -0.053,0.299 -0.159,0.403 -0.107,0.103 -0.245,0.189 -0.417,0.258 -0.172,0.069 -0.366,0.129 -0.585,0.181 -0.218,0.051 -0.439,0.108 -0.662,0.172 -0.23,0.057 -0.453,0.127 -0.671,0.21 -0.218,0.083 -0.413,0.191 -0.585,0.324 -0.172,0.13 -0.311,0.296 -0.417,0.494 -0.107,0.197 -0.159,0.437 -0.159,0.717 0,0.316 0.068,0.589 0.203,0.822 0.135,0.232 0.31,0.426 0.527,0.581 0.219,0.155 0.465,0.268 0.74,0.343 0.276,0.075 0.551,0.112 0.827,0.112 0.32,0 0.628,-0.036 0.923,-0.107 0.295,-0.072 0.558,-0.189 0.787,-0.348 0.229,-0.161 0.412,-0.366 0.546,-0.615 0.135,-0.249 0.202,-0.552 0.202,-0.908 l -1.306,0 c -0.012,0.184 -0.051,0.336 -0.116,0.455 -0.067,0.121 -0.154,0.215 -0.263,0.286 -0.109,0.068 -0.233,0.117 -0.374,0.144 -0.141,0.029 -0.294,0.044 -0.46,0.044 -0.109,0 -0.218,-0.012 -0.327,-0.034 -0.109,-0.024 -0.208,-0.064 -0.296,-0.121 -0.09,-0.057 -0.162,-0.129 -0.22,-0.215 -0.057,-0.086 -0.086,-0.195 -0.086,-0.326 0,-0.121 0.023,-0.219 0.07,-0.293 0.045,-0.074 0.134,-0.144 0.27,-0.206 0.134,-0.064 0.32,-0.126 0.559,-0.189 0.237,-0.064 0.549,-0.144 0.932,-0.242 0.116,-0.022 0.275,-0.064 0.479,-0.124 0.203,-0.06 0.404,-0.156 0.605,-0.288 0.201,-0.133 0.374,-0.309 0.521,-0.529 0.145,-0.221 0.219,-0.503 0.219,-0.847 0,-0.28 -0.054,-0.542 -0.164,-0.782 -0.109,-0.241 -0.271,-0.449 -0.486,-0.623 -0.215,-0.176 -0.48,-0.313 -0.799,-0.409 -0.318,-0.098 -0.687,-0.147 -1.105,-0.147 -0.338,0 -0.666,0.042 -0.985,0.125 -0.318,0.083 -0.599,0.214 -0.842,0.392 -0.243,0.177 -0.438,0.404 -0.581,0.678 -0.143,0.276 -0.212,0.603 -0.206,0.981 l 1.307,0 c 0,-0.206 0.037,-0.382 0.112,-0.525 m 7.478,0.31 -2.589,0 0,1.05 2.589,0 0,-1.05 z"
             id="path26"
             style="fill:#76232f;fill-opacity:1;fill-rule:nonzero;stroke:none" /></g><g
           transform="translate(405.7236,295.0439)"
           id="g28"><path
             d="m 0,0 0,-1.136 -3.242,0 0,-1.316 2.975,0 0,-1.049 -2.975,0 0,-1.505 3.311,0 0,-1.135 -4.661,0 0,6.141 L 0,0 z m 4.152,-2.778 c 0.309,0 0.542,0.069 0.696,0.206 0.155,0.137 0.233,0.361 0.233,0.671 0,0.297 -0.078,0.514 -0.233,0.649 -0.154,0.135 -0.387,0.201 -0.696,0.201 l -1.479,0 0,-1.727 1.479,0 z M 4.634,0 c 0.275,0 0.523,-0.045 0.743,-0.135 0.221,-0.088 0.41,-0.21 0.568,-0.364 0.158,-0.155 0.278,-0.335 0.361,-0.538 0.083,-0.203 0.125,-0.423 0.125,-0.658 0,-0.362 -0.077,-0.673 -0.228,-0.937 -0.152,-0.264 -0.4,-0.465 -0.744,-0.602 l 0,-0.018 C 5.625,-3.297 5.763,-3.367 5.872,-3.462 5.98,-3.557 6.069,-3.668 6.138,-3.797 6.207,-3.926 6.258,-4.068 6.289,-4.224 6.32,-4.378 6.342,-4.532 6.354,-4.688 6.359,-4.785 6.365,-4.9 6.371,-5.031 6.376,-5.163 6.386,-5.298 6.401,-5.436 6.415,-5.573 6.438,-5.703 6.47,-5.826 6.501,-5.95 6.548,-6.055 6.611,-6.141 l -1.35,0 C 5.187,-5.945 5.141,-5.714 5.124,-5.445 5.106,-5.176 5.081,-4.917 5.046,-4.67 5,-4.35 4.903,-4.114 4.754,-3.965 4.605,-3.816 4.361,-3.742 4.022,-3.742 l -1.349,0 0,-2.399 -1.35,0 0,6.141 3.311,0 z m 4.367,0 0,-5.006 2.993,0 0,-1.135 -4.343,0 0,6.141 1.35,0 z m 7.336,-3.768 -0.775,2.254 -0.017,0 -0.799,-2.254 1.591,0 z M 16.259,0 l 2.296,-6.141 -1.402,0 -0.465,1.368 -2.295,0 -0.482,-1.368 -1.359,0 2.322,6.141 1.385,0 z m 4.402,0 2.564,-4.12 0.016,0 0,4.12 1.265,0 0,-6.141 -1.351,0 -2.554,4.111 -0.017,0 0,-4.111 -1.264,0 0,6.141 1.341,0 z m 8.875,-6.094 c -0.292,-0.123 -0.588,-0.184 -0.886,-0.184 -0.469,0 -0.892,0.082 -1.268,0.245 -0.375,0.164 -0.692,0.388 -0.949,0.675 -0.259,0.286 -0.456,0.624 -0.594,1.01 -0.138,0.387 -0.207,0.804 -0.207,1.251 0,0.459 0.069,0.884 0.207,1.277 0.138,0.393 0.335,0.736 0.594,1.028 0.257,0.293 0.574,0.522 0.949,0.688 0.376,0.167 0.799,0.249 1.268,0.249 0.316,0 0.621,-0.047 0.916,-0.141 0.296,-0.095 0.562,-0.234 0.8,-0.417 0.238,-0.185 0.434,-0.411 0.59,-0.68 0.154,-0.269 0.248,-0.579 0.283,-0.928 l -1.29,0 c -0.081,0.343 -0.235,0.601 -0.464,0.774 -0.229,0.171 -0.507,0.257 -0.835,0.257 -0.303,0 -0.561,-0.059 -0.774,-0.176 -0.211,-0.117 -0.384,-0.275 -0.516,-0.473 -0.131,-0.198 -0.227,-0.424 -0.287,-0.675 -0.06,-0.252 -0.091,-0.513 -0.091,-0.783 0,-0.257 0.031,-0.508 0.091,-0.753 0.06,-0.243 0.156,-0.463 0.287,-0.657 0.132,-0.194 0.305,-0.35 0.516,-0.469 0.213,-0.118 0.471,-0.176 0.774,-0.176 0.448,0 0.793,0.113 1.037,0.339 0.244,0.227 0.385,0.555 0.425,0.985 l -1.359,0 0,1.007 2.58,0 0,-3.32 -0.859,0 -0.138,0.696 c -0.241,-0.309 -0.507,-0.526 -0.8,-0.649 M 37.25,0 l 0,-1.136 -3.241,0 0,-1.316 2.974,0 0,-1.049 -2.974,0 0,-1.505 3.31,0 0,-1.135 -4.661,0 0,6.141 4.592,0 z m 2.75,0 2.563,-4.12 0.017,0 0,4.12 1.265,0 0,-6.141 -1.352,0 -2.553,4.111 -0.017,0 0,-4.111 -1.265,0 0,6.141 L 40,0 z m 7.964,-4.317 -2.588,0 0,1.049 2.588,0 0,-1.049 z M 50.858,0 l 2.563,-4.12 0.017,0 0,4.12 1.264,0 0,-6.141 -1.35,0 -2.554,4.111 -0.018,0 0,-4.111 -1.263,0 0,6.141 1.341,0 z m 7.634,0.688 -1.161,0 0,1.006 1.161,0 0,-1.006 z m 1.772,0 -1.161,0 0,1.006 1.161,0 0,-1.006 z m 0.456,-6.36 c -0.465,-0.404 -1.107,-0.606 -1.926,-0.606 -0.832,0 -1.476,0.2 -1.932,0.602 -0.455,0.401 -0.683,1.02 -0.683,1.858 l 0,3.818 1.35,0 0,-3.818 c 0,-0.167 0.015,-0.33 0.043,-0.491 0.029,-0.161 0.089,-0.302 0.181,-0.425 0.092,-0.123 0.219,-0.224 0.383,-0.301 0.163,-0.078 0.383,-0.117 0.658,-0.117 0.48,0 0.813,0.108 0.997,0.322 0.184,0.216 0.275,0.553 0.275,1.012 l 0,3.818 1.35,0 0,-3.818 c 0,-0.832 -0.231,-1.45 -0.696,-1.854 m 4.912,2.894 c 0.31,0 0.542,0.069 0.697,0.206 0.154,0.137 0.233,0.361 0.233,0.671 0,0.297 -0.079,0.514 -0.233,0.649 -0.155,0.135 -0.387,0.201 -0.697,0.201 l -1.479,0 0,-1.727 1.479,0 z M 66.114,0 c 0.276,0 0.524,-0.045 0.744,-0.135 0.221,-0.088 0.41,-0.21 0.568,-0.364 0.157,-0.155 0.278,-0.335 0.36,-0.538 0.084,-0.203 0.125,-0.423 0.125,-0.658 0,-0.362 -0.076,-0.673 -0.227,-0.937 -0.152,-0.264 -0.4,-0.465 -0.745,-0.602 l 0,-0.018 c 0.167,-0.045 0.304,-0.115 0.414,-0.21 0.109,-0.095 0.197,-0.206 0.266,-0.335 0.069,-0.129 0.118,-0.271 0.151,-0.427 0.031,-0.154 0.053,-0.308 0.064,-0.464 0.006,-0.097 0.012,-0.212 0.017,-0.343 0.005,-0.132 0.015,-0.267 0.031,-0.405 0.014,-0.137 0.037,-0.267 0.068,-0.39 0.031,-0.124 0.079,-0.229 0.143,-0.315 l -1.352,0 c -0.074,0.196 -0.12,0.427 -0.137,0.696 -0.017,0.269 -0.042,0.528 -0.078,0.775 -0.045,0.32 -0.142,0.556 -0.292,0.705 -0.149,0.149 -0.393,0.223 -0.731,0.223 l -1.35,0 0,-2.399 -1.35,0 0,6.141 3.311,0 z m 4.532,0 2.562,-4.12 0.018,0 0,4.12 1.263,0 0,-6.141 -1.349,0 -2.555,4.111 -0.018,0 0,-4.111 -1.263,0 0,6.141 1.342,0 z m 8.109,-2.486 c 0.241,0 0.439,0.057 0.594,0.172 0.154,0.115 0.232,0.3 0.232,0.559 0,0.144 -0.026,0.261 -0.078,0.353 -0.051,0.091 -0.119,0.164 -0.206,0.214 -0.086,0.052 -0.185,0.088 -0.296,0.108 -0.112,0.02 -0.229,0.029 -0.349,0.029 l -1.264,0 0,-1.435 1.367,0 z M 78.927,0 c 0.293,0 0.559,-0.027 0.801,-0.078 0.24,-0.052 0.446,-0.137 0.619,-0.254 0.172,-0.117 0.304,-0.273 0.398,-0.468 0.096,-0.196 0.143,-0.436 0.143,-0.722 0,-0.31 -0.071,-0.568 -0.211,-0.775 -0.141,-0.207 -0.348,-0.375 -0.623,-0.508 0.378,-0.108 0.66,-0.299 0.847,-0.571 0.186,-0.272 0.28,-0.601 0.28,-0.985 0,-0.309 -0.061,-0.577 -0.182,-0.803 -0.119,-0.227 -0.282,-0.412 -0.484,-0.555 -0.205,-0.144 -0.437,-0.25 -0.698,-0.318 -0.261,-0.069 -0.529,-0.104 -0.804,-0.104 l -2.975,0 0,6.141 2.889,0 z m -0.094,-5.092 c 0.131,0 0.258,0.013 0.378,0.039 0.12,0.026 0.226,0.069 0.318,0.129 0.092,0.061 0.165,0.143 0.22,0.245 0.054,0.103 0.081,0.236 0.081,0.396 0,0.314 -0.089,0.541 -0.267,0.675 -0.177,0.135 -0.412,0.202 -0.705,0.202 l -1.47,0 0,-1.686 1.445,0 z M 86.897,0 l 0,-1.136 -3.242,0 0,-1.316 2.977,0 0,-1.049 -2.977,0 0,-1.505 3.312,0 0,-1.135 -4.661,0 0,6.141 4.591,0 z m 4.239,-2.778 c 0.309,0 0.542,0.069 0.696,0.206 0.155,0.137 0.233,0.361 0.233,0.671 0,0.297 -0.078,0.514 -0.233,0.649 -0.154,0.135 -0.387,0.201 -0.696,0.201 l -1.479,0 0,-1.727 1.479,0 z M 91.618,0 c 0.275,0 0.523,-0.045 0.743,-0.135 0.22,-0.088 0.41,-0.21 0.568,-0.364 0.158,-0.155 0.278,-0.335 0.361,-0.538 0.083,-0.203 0.125,-0.423 0.125,-0.658 0,-0.362 -0.076,-0.673 -0.228,-0.937 -0.153,-0.264 -0.4,-0.465 -0.744,-0.602 l 0,-0.018 c 0.165,-0.045 0.304,-0.115 0.413,-0.21 0.108,-0.095 0.198,-0.206 0.266,-0.335 0.069,-0.129 0.119,-0.271 0.15,-0.427 0.032,-0.154 0.053,-0.308 0.065,-0.464 0.006,-0.097 0.012,-0.212 0.017,-0.343 0.006,-0.132 0.016,-0.267 0.03,-0.405 0.015,-0.137 0.038,-0.267 0.069,-0.39 0.032,-0.124 0.079,-0.229 0.142,-0.315 l -1.35,0 c -0.074,0.196 -0.12,0.427 -0.138,0.696 -0.016,0.269 -0.042,0.528 -0.077,0.775 -0.047,0.32 -0.143,0.556 -0.293,0.705 -0.148,0.149 -0.392,0.223 -0.73,0.223 l -1.35,0 0,-2.399 -1.35,0 0,6.141 3.311,0 z m 6.709,-6.094 c -0.292,-0.123 -0.588,-0.184 -0.886,-0.184 -0.469,0 -0.893,0.082 -1.268,0.245 -0.375,0.164 -0.693,0.388 -0.949,0.675 -0.258,0.286 -0.456,0.624 -0.594,1.01 -0.139,0.387 -0.207,0.804 -0.207,1.251 0,0.459 0.068,0.884 0.207,1.277 0.138,0.393 0.336,0.736 0.594,1.028 0.256,0.293 0.574,0.522 0.949,0.688 0.375,0.167 0.799,0.249 1.268,0.249 0.316,0 0.622,-0.047 0.916,-0.141 0.296,-0.095 0.562,-0.234 0.8,-0.417 0.239,-0.185 0.434,-0.411 0.59,-0.68 0.154,-0.269 0.248,-0.579 0.283,-0.928 l -1.29,0 c -0.081,0.343 -0.235,0.601 -0.464,0.774 -0.229,0.171 -0.507,0.257 -0.835,0.257 -0.303,0 -0.561,-0.059 -0.774,-0.176 -0.211,-0.117 -0.383,-0.275 -0.516,-0.473 -0.131,-0.198 -0.227,-0.424 -0.287,-0.675 -0.06,-0.252 -0.091,-0.513 -0.091,-0.783 0,-0.257 0.031,-0.508 0.091,-0.753 0.06,-0.243 0.156,-0.463 0.287,-0.657 0.133,-0.194 0.305,-0.35 0.516,-0.469 0.213,-0.118 0.471,-0.176 0.774,-0.176 0.449,0 0.792,0.113 1.037,0.339 0.244,0.227 0.385,0.555 0.425,0.985 l -1.358,0 0,1.007 2.58,0 0,-3.32 -0.86,0 -0.138,0.696 c -0.241,-0.309 -0.507,-0.526 -0.8,-0.649"
             id="path30"
             style="fill:#002855;fill-opacity:1;fill-rule:nonzero;stroke:none" /></g><g
           transform="translate(405.6899,298.6592)"
           id="g32"><path
             d="m 0,0 c -0.465,-0.404 -1.107,-0.606 -1.926,-0.606 -0.832,0 -1.475,0.201 -1.931,0.602 -0.456,0.401 -0.684,1.021 -0.684,1.858 l 0,3.817 1.35,0 0,-3.817 c 0,-0.166 0.015,-0.33 0.044,-0.491 0.028,-0.16 0.088,-0.302 0.18,-0.425 0.092,-0.124 0.219,-0.224 0.383,-0.301 0.163,-0.078 0.382,-0.116 0.658,-0.116 0.481,0 0.814,0.107 0.997,0.322 0.183,0.215 0.275,0.552 0.275,1.011 l 0,3.817 1.35,0 0,-3.817 C 0.696,1.022 0.464,0.404 0,0 m 3.56,5.671 2.563,-4.119 0.017,0 0,4.119 1.263,0 0,-6.14 -1.349,0 -2.554,4.111 -0.018,0 0,-4.111 -1.264,0 0,6.14 1.342,0 z m 6.699,-6.14 -1.35,0 0,6.14 1.35,0 0,-6.14 z m 2.961,0 -1.987,6.14 1.385,0 1.367,-4.317 0.017,0 1.385,4.317 1.393,0 -2.038,-6.14 -1.522,0 z m 9.15,6.14 0,-1.134 -3.243,0 0,-1.316 2.976,0 0,-1.049 -2.976,0 0,-1.505 3.312,0 0,-1.136 -4.662,0 0,6.14 4.593,0 z m 4.151,-2.777 c 0.31,0 0.542,0.068 0.697,0.207 0.155,0.137 0.232,0.36 0.232,0.67 0,0.298 -0.077,0.514 -0.232,0.649 -0.155,0.135 -0.387,0.203 -0.697,0.203 l -1.479,0 0,-1.729 1.479,0 z m 0.482,2.777 c 0.275,0 0.523,-0.044 0.744,-0.132 0.22,-0.09 0.41,-0.211 0.567,-0.366 C 28.472,5.018 28.592,4.839 28.675,4.635 28.758,4.432 28.8,4.212 28.8,3.978 28.8,3.616 28.724,3.304 28.572,3.04 28.419,2.776 28.172,2.576 27.829,2.438 l 0,-0.017 c 0.166,-0.046 0.303,-0.116 0.413,-0.211 0.108,-0.094 0.197,-0.206 0.265,-0.335 0.07,-0.129 0.119,-0.271 0.151,-0.426 0.031,-0.155 0.052,-0.31 0.064,-0.464 0.006,-0.098 0.012,-0.212 0.018,-0.344 0.006,-0.132 0.015,-0.267 0.03,-0.404 0.015,-0.138 0.038,-0.269 0.069,-0.392 0.032,-0.123 0.078,-0.227 0.141,-0.314 l -1.35,0 c -0.074,0.196 -0.12,0.427 -0.137,0.697 -0.017,0.27 -0.043,0.528 -0.077,0.774 -0.047,0.321 -0.143,0.556 -0.292,0.705 -0.15,0.149 -0.394,0.224 -0.732,0.224 l -1.35,0 0,-2.4 -1.35,0 0,6.14 3.311,0 z m 4.179,-4.626 c 0.074,-0.143 0.173,-0.259 0.297,-0.348 0.123,-0.089 0.268,-0.155 0.435,-0.198 0.166,-0.043 0.337,-0.065 0.515,-0.065 0.12,0 0.249,0.01 0.387,0.03 0.138,0.021 0.267,0.059 0.387,0.117 0.121,0.057 0.22,0.136 0.3,0.236 0.08,0.1 0.122,0.228 0.122,0.383 0,0.166 -0.053,0.3 -0.16,0.404 -0.106,0.103 -0.245,0.189 -0.417,0.258 -0.172,0.069 -0.367,0.129 -0.585,0.18 -0.217,0.052 -0.438,0.109 -0.662,0.173 -0.229,0.057 -0.453,0.127 -0.671,0.21 -0.217,0.083 -0.412,0.191 -0.585,0.323 -0.171,0.132 -0.31,0.296 -0.417,0.494 -0.105,0.198 -0.158,0.437 -0.158,0.718 0,0.315 0.067,0.589 0.201,0.821 0.135,0.233 0.311,0.427 0.53,0.581 0.216,0.155 0.465,0.27 0.739,0.344 0.274,0.075 0.55,0.111 0.825,0.111 0.321,0 0.629,-0.035 0.925,-0.107 0.296,-0.072 0.558,-0.188 0.787,-0.348 0.23,-0.16 0.411,-0.365 0.546,-0.615 0.135,-0.249 0.201,-0.552 0.201,-0.907 l -1.307,0 C 33.406,4.023 33.368,4.175 33.302,4.295 33.236,4.416 33.148,4.51 33.039,4.579 32.93,4.648 32.806,4.697 32.666,4.726 32.525,4.754 32.372,4.769 32.206,4.769 32.096,4.769 31.988,4.757 31.878,4.734 31.77,4.711 31.67,4.671 31.582,4.613 31.493,4.556 31.419,4.485 31.363,4.399 31.305,4.313 31.277,4.204 31.277,4.072 c 0,-0.12 0.023,-0.218 0.068,-0.292 0.047,-0.075 0.137,-0.144 0.272,-0.206 0.134,-0.064 0.32,-0.127 0.558,-0.19 0.239,-0.063 0.549,-0.143 0.934,-0.24 0.114,-0.023 0.273,-0.065 0.476,-0.125 0.204,-0.061 0.407,-0.157 0.607,-0.288 0.2,-0.132 0.374,-0.309 0.52,-0.529 0.147,-0.222 0.219,-0.504 0.219,-0.848 0,-0.28 -0.055,-0.541 -0.163,-0.782 C 34.66,0.331 34.498,0.124 34.283,-0.051 34.068,-0.227 33.8,-0.363 33.482,-0.46 c -0.317,-0.098 -0.686,-0.146 -1.105,-0.146 -0.338,0 -0.667,0.042 -0.984,0.125 -0.318,0.083 -0.6,0.213 -0.843,0.391 -0.244,0.177 -0.437,0.403 -0.58,0.679 -0.143,0.275 -0.213,0.602 -0.207,0.98 l 1.307,0 c 0,-0.206 0.037,-0.381 0.112,-0.524 m 6.277,-1.514 -1.351,0 0,6.14 1.351,0 0,-6.14 z m 1.083,5.006 0,1.134 5.032,0 0,-1.134 -1.84,0 0,-5.006 -1.351,0 0,5.006 -1.841,0 z m 7.628,1.822 -1.161,0 0,1.006 1.161,0 0,-1.006 z m 1.772,0 -1.161,0 0,1.006 1.161,0 0,-1.006 z m -0.679,-4.454 -0.774,2.253 -0.017,0 -0.801,-2.253 1.592,0 z m -0.078,3.766 2.297,-6.14 -1.402,0 -0.464,1.368 -2.296,0 -0.483,-1.368 -1.358,0 2.322,6.14 1.384,0 z m 2.168,-1.134 0,1.134 5.03,0 0,-1.134 -1.841,0 0,-5.006 -1.349,0 0,5.006 -1.84,0 z"
             id="path34"
             style="fill:#002855;fill-opacity:1;fill-rule:nonzero;stroke:none" /></g><g
           transform="translate(405.4487,313.7329)"
           id="g36"><path
             d="m 0,0 0,-1.135 -2.967,0 0,-1.419 2.571,0 0,-1.049 -2.571,0 0,-2.537 -1.35,0 0,6.14 L 0,0 z m 3.926,-2.778 c 0.309,0 0.542,0.069 0.697,0.207 0.155,0.138 0.232,0.361 0.232,0.67 0,0.298 -0.077,0.515 -0.232,0.65 -0.155,0.134 -0.388,0.202 -0.697,0.202 l -1.479,0 0,-1.729 1.479,0 z M 4.408,0 C 4.683,0 4.931,-0.044 5.151,-0.133 5.373,-0.222 5.562,-0.344 5.719,-0.499 5.877,-0.654 5.997,-0.833 6.08,-1.036 6.164,-1.24 6.205,-1.459 6.205,-1.694 6.205,-2.056 6.129,-2.368 5.977,-2.631 5.825,-2.896 5.577,-3.096 5.233,-3.233 l 0,-0.017 C 5.4,-3.297 5.537,-3.367 5.646,-3.461 5.755,-3.556 5.844,-3.667 5.913,-3.797 5.981,-3.926 6.032,-4.068 6.063,-4.223 6.095,-4.377 6.116,-4.532 6.127,-4.687 6.133,-4.785 6.139,-4.899 6.145,-5.03 6.151,-5.163 6.16,-5.297 6.175,-5.435 6.189,-5.573 6.212,-5.703 6.244,-5.826 6.275,-5.949 6.323,-6.054 6.385,-6.14 l -1.349,0 C 4.961,-5.945 4.915,-5.713 4.898,-5.443 4.881,-5.174 4.855,-4.916 4.82,-4.669 4.774,-4.349 4.677,-4.114 4.528,-3.964 4.379,-3.816 4.136,-3.74 3.797,-3.74 l -1.35,0 0,-2.4 -1.35,0 0,6.14 3.311,0 z m 4.637,-6.14 -1.35,0 0,6.14 1.35,0 0,-6.14 z m 6.141,6.14 0,-1.135 -3.242,0 0,-1.316 2.975,0 0,-1.049 -2.975,0 0,-1.505 3.31,0 0,-1.135 -4.661,0 0,6.14 4.593,0 z m 3.876,-5.005 c 0.194,0 0.384,0.031 0.567,0.094 0.184,0.063 0.347,0.168 0.491,0.314 0.143,0.147 0.257,0.337 0.343,0.572 0.086,0.235 0.129,0.522 0.129,0.86 0,0.31 -0.029,0.589 -0.09,0.839 -0.06,0.249 -0.159,0.463 -0.296,0.64 -0.138,0.178 -0.321,0.314 -0.546,0.409 -0.227,0.094 -0.506,0.142 -0.839,0.142 l -0.963,0 0,-3.87 1.204,0 z M 19.157,0 c 0.394,0 0.763,-0.063 1.105,-0.189 0.34,-0.126 0.636,-0.315 0.885,-0.568 0.25,-0.252 0.444,-0.567 0.585,-0.946 0.141,-0.378 0.21,-0.823 0.21,-1.333 0,-0.447 -0.057,-0.86 -0.171,-1.238 -0.115,-0.379 -0.288,-0.705 -0.521,-0.98 -0.232,-0.275 -0.521,-0.492 -0.869,-0.65 -0.345,-0.157 -0.755,-0.236 -1.224,-0.236 l -2.649,0 0,6.14 2.649,0 z m 6.711,-2.778 c 0.308,0 0.542,0.069 0.697,0.207 0.154,0.138 0.231,0.361 0.231,0.67 0,0.298 -0.077,0.515 -0.231,0.65 -0.155,0.134 -0.389,0.202 -0.697,0.202 l -1.48,0 0,-1.729 1.48,0 z M 26.349,0 c 0.275,0 0.523,-0.044 0.744,-0.133 0.221,-0.089 0.409,-0.211 0.568,-0.366 0.157,-0.155 0.277,-0.334 0.361,-0.537 0.083,-0.204 0.125,-0.423 0.125,-0.658 0,-0.362 -0.076,-0.674 -0.229,-0.937 -0.152,-0.265 -0.4,-0.465 -0.744,-0.602 l 0,-0.017 c 0.166,-0.047 0.305,-0.117 0.413,-0.211 0.109,-0.095 0.199,-0.206 0.267,-0.336 0.068,-0.129 0.119,-0.271 0.15,-0.426 0.032,-0.154 0.053,-0.309 0.065,-0.464 0.006,-0.098 0.012,-0.212 0.017,-0.343 0.006,-0.133 0.016,-0.267 0.03,-0.405 0.014,-0.138 0.038,-0.268 0.069,-0.391 0.031,-0.123 0.079,-0.228 0.142,-0.314 l -1.35,0 c -0.074,0.195 -0.121,0.427 -0.138,0.697 -0.016,0.269 -0.043,0.527 -0.077,0.774 -0.047,0.32 -0.143,0.555 -0.293,0.705 -0.148,0.148 -0.392,0.224 -0.73,0.224 l -1.351,0 0,-2.4 -1.349,0 0,6.14 3.31,0 z m 4.509,-6.14 -1.351,0 0,6.14 1.351,0 0,-6.14 z m 5.391,4.502 c -0.082,0.129 -0.182,0.242 -0.302,0.339 -0.12,0.097 -0.257,0.174 -0.409,0.228 -0.151,0.054 -0.311,0.082 -0.477,0.082 -0.304,0 -0.561,-0.059 -0.773,-0.177 -0.213,-0.117 -0.385,-0.274 -0.516,-0.472 -0.133,-0.198 -0.229,-0.424 -0.289,-0.675 -0.061,-0.253 -0.09,-0.514 -0.09,-0.783 0,-0.258 0.029,-0.508 0.09,-0.753 0.06,-0.243 0.156,-0.463 0.289,-0.657 0.131,-0.195 0.303,-0.351 0.516,-0.469 0.212,-0.117 0.469,-0.176 0.773,-0.176 0.413,0 0.735,0.126 0.968,0.378 0.232,0.252 0.374,0.585 0.426,0.998 l 1.307,0 c -0.035,-0.385 -0.124,-0.731 -0.267,-1.041 -0.143,-0.309 -0.332,-0.573 -0.568,-0.791 -0.235,-0.218 -0.51,-0.384 -0.825,-0.498 -0.315,-0.115 -0.662,-0.173 -1.041,-0.173 -0.47,0 -0.893,0.082 -1.268,0.245 -0.376,0.163 -0.693,0.388 -0.951,0.675 -0.258,0.287 -0.455,0.624 -0.593,1.011 -0.137,0.387 -0.206,0.804 -0.206,1.251 0,0.459 0.069,0.885 0.206,1.277 0.138,0.393 0.335,0.736 0.593,1.028 0.258,0.292 0.575,0.521 0.951,0.687 0.375,0.167 0.798,0.25 1.268,0.25 0.338,0 0.658,-0.049 0.959,-0.146 0.301,-0.098 0.57,-0.239 0.809,-0.426 0.238,-0.186 0.433,-0.417 0.588,-0.692 0.156,-0.276 0.253,-0.59 0.292,-0.946 l -1.306,0 c -0.024,0.155 -0.074,0.296 -0.154,0.426 m 4.1,1.638 0,-2.356 2.485,0 0,2.356 1.35,0 0,-6.14 -1.35,0 0,2.648 -2.485,0 0,-2.648 -1.35,0 0,6.14 1.35,0 z m 7.956,-4.317 -2.589,0 0,1.049 2.589,0 0,-1.049 z m 4.432,0.55 -0.774,2.253 -0.017,0 -0.801,-2.253 1.592,0 z M 52.659,0 l 2.297,-6.14 -1.403,0 -0.464,1.367 -2.296,0 -0.482,-1.367 -1.358,0 2.321,6.14 1.385,0 z m 4.578,0 0,-5.005 2.992,0 0,-1.135 -4.342,0 0,6.14 1.35,0 z m 8.664,0 0,-1.135 -3.242,0 0,-1.316 2.976,0 0,-1.049 -2.976,0 0,-1.505 3.311,0 0,-1.135 -4.661,0 0,6.14 4.592,0 z m 1.041,0 1.564,0 1.205,-1.961 1.247,1.961 1.479,0 -1.97,-2.933 2.142,-3.207 -1.609,0 -1.341,2.124 -1.367,-2.124 -1.514,0 2.141,3.216 L 66.942,0 z m 9.949,-3.767 -0.773,2.253 -0.018,0 -0.8,-2.253 1.591,0 z M 76.814,0 l 2.296,-6.14 -1.402,0 -0.464,1.367 -2.296,0 -0.482,-1.367 -1.358,0 2.322,6.14 1.384,0 z m 4.44,0 2.563,-4.119 0.017,0 0,4.119 1.264,0 0,-6.14 -1.35,0 -2.554,4.111 -0.018,0 0,-4.111 -1.263,0 0,6.14 1.341,0 z m 7.842,-5.005 c 0.196,0 0.385,0.031 0.569,0.094 0.183,0.063 0.346,0.168 0.49,0.314 0.142,0.147 0.258,0.337 0.344,0.572 0.085,0.235 0.128,0.522 0.128,0.86 0,0.31 -0.03,0.589 -0.089,0.839 -0.061,0.249 -0.161,0.463 -0.297,0.64 -0.139,0.178 -0.321,0.314 -0.547,0.409 -0.227,0.094 -0.506,0.142 -0.838,0.142 l -0.963,0 0,-3.87 1.203,0 z M 89.191,0 c 0.395,0 0.765,-0.063 1.105,-0.189 0.341,-0.126 0.637,-0.315 0.886,-0.568 0.25,-0.252 0.443,-0.567 0.584,-0.946 0.141,-0.378 0.211,-0.823 0.211,-1.333 0,-0.447 -0.057,-0.86 -0.172,-1.238 -0.115,-0.379 -0.287,-0.705 -0.519,-0.98 -0.233,-0.275 -0.523,-0.492 -0.869,-0.65 C 90.07,-6.061 89.661,-6.14 89.191,-6.14 l -2.649,0 0,6.14 2.649,0 z m 8.487,0 0,-1.135 -3.241,0 0,-1.316 2.976,0 0,-1.049 -2.976,0 0,-1.505 3.312,0 0,-1.135 -4.663,0 0,6.14 4.592,0 z m 4.11,-2.778 c 0.309,0 0.542,0.069 0.697,0.207 0.154,0.138 0.231,0.361 0.231,0.67 0,0.298 -0.077,0.515 -0.231,0.65 -0.155,0.134 -0.388,0.202 -0.697,0.202 l -1.48,0 0,-1.729 1.48,0 z M 102.269,0 c 0.275,0 0.523,-0.044 0.743,-0.133 0.222,-0.089 0.41,-0.211 0.569,-0.366 0.158,-0.155 0.277,-0.334 0.361,-0.537 0.083,-0.204 0.125,-0.423 0.125,-0.658 0,-0.362 -0.076,-0.674 -0.229,-0.937 -0.152,-0.265 -0.399,-0.465 -0.744,-0.602 l 0,-0.017 c 0.167,-0.047 0.305,-0.117 0.413,-0.211 0.109,-0.095 0.199,-0.206 0.267,-0.336 0.068,-0.129 0.119,-0.271 0.15,-0.426 0.032,-0.154 0.053,-0.309 0.065,-0.464 0.006,-0.098 0.011,-0.212 0.017,-0.343 0.006,-0.133 0.016,-0.267 0.03,-0.405 0.014,-0.138 0.038,-0.268 0.07,-0.391 0.031,-0.123 0.078,-0.228 0.141,-0.314 l -1.35,0 c -0.074,0.195 -0.121,0.427 -0.138,0.697 -0.016,0.269 -0.043,0.527 -0.077,0.774 -0.046,0.32 -0.143,0.555 -0.293,0.705 -0.148,0.148 -0.392,0.224 -0.73,0.224 l -1.351,0 0,-2.4 -1.35,0 0,6.14 3.311,0 z"
             id="path38"
             style="fill:#002855;fill-opacity:1;fill-rule:nonzero;stroke:none" /></g><g
           transform="translate(387.6787,291.8135)"
           id="g40"><path
             d="m 0,0 -25.604,0 c 1.574,-1.283 3.394,-2.247 5.322,-2.916 l 14.946,0 C -3.402,-2.247 -1.577,-1.283 0,0"
             id="path42"
             style="fill:#002855;fill-opacity:1;fill-rule:nonzero;stroke:none" /></g><g
           transform="translate(317.1934,293.2764)"
           id="g44"><path
             d="m 0,0 11.097,0 0.018,0.053 -0.031,0 0.919,2.863 -10.899,0 L 0,0 z"
             id="path46"
             style="fill:#002855;fill-opacity:1;fill-rule:nonzero;stroke:none" /></g><g
           transform="translate(316.6851,291.8135)"
           id="g48"><path
             d="m 0,0 -1.105,-2.916 11.305,0 L 11.164,0 0,0 z"
             id="path50"
             style="fill:#002855;fill-opacity:1;fill-rule:nonzero;stroke:none" /></g><path
           d="m 293,288.897 10.596,0 0,2.916 -10.596,0 0,-2.916 z"
           id="path52"
           style="fill:#002855;fill-opacity:1;fill-rule:nonzero;stroke:none" /><path
           d="m 303.596,296.192 -10.596,0 0,-2.916 10.596,0 0,2.916 z"
           id="path54"
           style="fill:#002855;fill-opacity:1;fill-rule:nonzero;stroke:none" /><path
           d="m 303.596,300.567 -10.596,0 0,-2.917 10.596,0 0,2.917 z"
           id="path56"
           style="fill:#002855;fill-opacity:1;fill-rule:nonzero;stroke:none" /><path
           d="m 303.596,304.941 -10.596,0 0,-2.916 10.596,0 0,2.916 z"
           id="path58"
           style="fill:#002855;fill-opacity:1;fill-rule:nonzero;stroke:none" /><path
           d="m 303.596,318.074 -10.596,0 0,-2.916 10.596,0 0,2.916 z"
           id="path60"
           style="fill:#002855;fill-opacity:1;fill-rule:nonzero;stroke:none" /><path
           d="m 303.596,322.457 -10.596,0 0,-2.917 10.596,0 0,2.917 z"
           id="path62"
           style="fill:#002855;fill-opacity:1;fill-rule:nonzero;stroke:none" /><path
           d="m 293,328.29 32.383,0 0,2.917 -32.383,0 0,-2.917 z"
           id="path64"
           style="fill:#002855;fill-opacity:1;fill-rule:nonzero;stroke:none" /><path
           d="m 293,323.915 32.383,0 0,2.917 -32.383,0 0,-2.917 z"
           id="path66"
           style="fill:#002855;fill-opacity:1;fill-rule:nonzero;stroke:none" /><g
           transform="translate(335.9219,318.0737)"
           id="g68"><path
             d="m 0,0 -9.556,0 -1.105,-2.916 9.764,0 L 0,0 z"
             id="path70"
             style="fill:#002855;fill-opacity:1;fill-rule:nonzero;stroke:none" /></g><g
           transform="translate(330.1016,328.2896)"
           id="g72"><path
             d="M 0,0 13.19,0 12.059,2.917 1.105,2.917 0,0 z"
             id="path74"
             style="fill:#002855;fill-opacity:1;fill-rule:nonzero;stroke:none" /></g><g
           transform="translate(328.4883,323.9146)"
           id="g76"><path
             d="M 0,0 16.453,0 15.322,2.917 1.105,2.917 0,0 z"
             id="path78"
             style="fill:#002855;fill-opacity:1;fill-rule:nonzero;stroke:none" /></g><g
           transform="translate(337.2725,319.5322)"
           id="g80"><path
             d="m 0,0 9.32,0 -1.132,2.917 -17.48,0 -1.106,-2.917 9.459,0 0.41,1.337 0.118,0 L 0,0 z"
             id="path82"
             style="fill:#002855;fill-opacity:1;fill-rule:nonzero;stroke:none" /></g><g
           transform="translate(338.5806,315.1572)"
           id="g84"><path
             d="m 0,0 9.662,0 -1.131,2.917 -9.427,0 L 0,0 z"
             id="path86"
             style="fill:#002855;fill-opacity:1;fill-rule:nonzero;stroke:none" /></g><g
           transform="translate(339.8877,310.7876)"
           id="g88"><path
             d="m 0,0 10.005,0 -1.131,2.916 -9.77,0 L 0,0 z"
             id="path90"
             style="fill:#76232f;fill-opacity:1;fill-rule:nonzero;stroke:none" /></g><g
           transform="translate(341.1953,306.4136)"
           id="g92"><path
             d="M 0,0 10.348,0 9.217,2.916 -0.896,2.916 0,0 z"
             id="path94"
             style="fill:#76232f;fill-opacity:1;fill-rule:nonzero;stroke:none" /></g><g
           transform="translate(320.4199,302.0254)"
           id="g96"><path
             d="M 0,0 32.774,0 31.643,2.916 1.106,2.916 0,0 z"
             id="path98"
             style="fill:#002855;fill-opacity:1;fill-rule:nonzero;stroke:none" /></g><g
           transform="translate(318.8066,297.6504)"
           id="g100"><path
             d="M 0,0 36.037,0 34.906,2.917 1.105,2.917 0,0 z"
             id="path102"
             style="fill:#002855;fill-opacity:1;fill-rule:nonzero;stroke:none" /></g><g
           transform="translate(345.4063,293.2764)"
           id="g104"><path
             d="M 0,0 11.089,0 9.958,2.916 -0.977,2.916 0,0 z"
             id="path106"
             style="fill:#002855;fill-opacity:1;fill-rule:nonzero;stroke:none" /></g><g
           transform="translate(345.8169,291.8135)"
           id="g108"><path
             d="m 0,0 0.962,-2.916 11.365,0 L 11.197,0 0,0 z"
             id="path110"
             style="fill:#002855;fill-opacity:1;fill-rule:nonzero;stroke:none" /></g><path
           d="m 356.933,328.29 10.595,0 0,2.917 -10.595,0 0,-2.917 z"
           id="path112"
           style="fill:#002855;fill-opacity:1;fill-rule:nonzero;stroke:none" /><path
           d="m 356.933,323.915 10.595,0 0,2.917 -10.595,0 0,-2.917 z"
           id="path114"
           style="fill:#002855;fill-opacity:1;fill-rule:nonzero;stroke:none" /><path
           d="m 356.933,319.532 10.595,0 0,2.917 -10.595,0 0,-2.917 z"
           id="path116"
           style="fill:#002855;fill-opacity:1;fill-rule:nonzero;stroke:none" /><path
           d="m 356.933,315.157 10.595,0 0,2.917 -10.595,0 0,-2.917 z"
           id="path118"
           style="fill:#002855;fill-opacity:1;fill-rule:nonzero;stroke:none" /><path
           d="m 356.933,310.788 10.595,0 0,2.916 -10.595,0 0,-2.916 z"
           id="path120"
           style="fill:#76232f;fill-opacity:1;fill-rule:nonzero;stroke:none" /><path
           d="m 356.933,306.414 10.595,0 0,2.916 -10.595,0 0,-2.916 z"
           id="path122"
           style="fill:#76232f;fill-opacity:1;fill-rule:nonzero;stroke:none" /><g
           transform="translate(357.0171,302.0254)"
           id="g124"><path
             d="M 0,0 10.709,0 C 10.575,0.755 10.51,1.562 10.51,2.411 l 0,0.505 -10.594,0 0,-1.374 C -0.084,1.006 -0.043,0.503 0,0"
             id="path126"
             style="fill:#002855;fill-opacity:1;fill-rule:nonzero;stroke:none" /></g><g
           transform="translate(357.9644,297.6504)"
           id="g128"><path
             d="m 0,0 12.084,0 c -0.94,0.734 -1.58,1.731 -1.98,2.917 l -10.877,0 C -0.6,1.877 -0.348,0.896 0,0"
             id="path130"
             style="fill:#002855;fill-opacity:1;fill-rule:nonzero;stroke:none" /></g><g
           transform="translate(391.1938,296.1924)"
           id="g132"><path
             d="m 0,0 -32.629,0 c 0.569,-1.09 1.271,-2.057 2.068,-2.916 l 28.491,0 C -1.271,-2.057 -0.568,-1.09 0,0"
             id="path134"
             style="fill:#002855;fill-opacity:1;fill-rule:nonzero;stroke:none" /></g><g
           transform="translate(392.5698,300.5669)"
           id="g136"><path
             d="m 0,0 -10.88,0 c -0.401,-1.186 -1.046,-2.183 -1.992,-2.917 l 12.097,0 C -0.426,-2.02 -0.176,-1.04 0,0"
             id="path138"
             style="fill:#002855;fill-opacity:1;fill-rule:nonzero;stroke:none" /></g><path
           d="m 382.231,328.29 10.596,0 0,2.917 -10.596,0 0,-2.917 z"
           id="path140"
           style="fill:#002855;fill-opacity:1;fill-rule:nonzero;stroke:none" /><path
           d="m 382.231,323.915 10.596,0 0,2.917 -10.596,0 0,-2.917 z"
           id="path142"
           style="fill:#002855;fill-opacity:1;fill-rule:nonzero;stroke:none" /><path
           d="m 382.231,319.532 10.596,0 0,2.917 -10.596,0 0,-2.917 z"
           id="path144"
           style="fill:#002855;fill-opacity:1;fill-rule:nonzero;stroke:none" /><path
           d="m 382.231,315.157 10.596,0 0,2.917 -10.596,0 0,-2.917 z"
           id="path146"
           style="fill:#002855;fill-opacity:1;fill-rule:nonzero;stroke:none" /><path
           d="m 382.231,310.788 10.596,0 0,2.916 -10.596,0 0,-2.916 z"
           id="path148"
           style="fill:#76232f;fill-opacity:1;fill-rule:nonzero;stroke:none" /><path
           d="m 382.231,306.414 10.596,0 0,2.916 -10.596,0 0,-2.916 z"
           id="path150"
           style="fill:#76232f;fill-opacity:1;fill-rule:nonzero;stroke:none" /><g
           transform="translate(392.8276,303.5674)"
           id="g152"><path
             d="m 0,0 0,1.374 -10.596,0 0,-0.505 c 0,-0.849 -0.064,-1.656 -0.198,-2.411 l 10.709,0 C -0.043,-1.039 0,-0.536 0,0"
             id="path154"
             style="fill:#002855;fill-opacity:1;fill-rule:nonzero;stroke:none" /></g><g
           transform="translate(293,309.3301)"
           id="g156"><path
             d="m 0,0 0,-2.916 39.411,0 L 40.306,0 0,0 z"
             id="path158"
             style="fill:#76232f;fill-opacity:1;fill-rule:nonzero;stroke:none" /></g><g
           transform="translate(293,313.7041)"
           id="g160"><path
             d="m 0,0 0,-2.916 40.718,0 L 41.613,0 0,0 z"
             id="path162"
             style="fill:#76232f;fill-opacity:1;fill-rule:nonzero;stroke:none" /></g></g></g></g></svg>