<?xml version="1.0" encoding="UTF-8" standalone="no"?>
<!-- Created with Inkscape (http://www.inkscape.org/) -->

<svg
   xmlns:dc="http://purl.org/dc/elements/1.1/"
   xmlns:cc="http://creativecommons.org/ns#"
   xmlns:rdf="http://www.w3.org/1999/02/22-rdf-syntax-ns#"
   xmlns:svg="http://www.w3.org/2000/svg"
   xmlns="http://www.w3.org/2000/svg"
   xmlns:sodipodi="http://sodipodi.sourceforge.net/DTD/sodipodi-0.dtd"
   xmlns:inkscape="http://www.inkscape.org/namespaces/inkscape"
   version="1.1"
   width="362.12775"
   height="95.669746"
   id="svg2"
   xml:space="preserve"
   inkscape:version="0.48.0 r9654"
   sodipodi:docname="fau-logo-med.svg"><sodipodi:namedview
     pagecolor="#ffffff"
     bordercolor="#666666"
     borderopacity="1"
     objecttolerance="10"
     gridtolerance="10"
     guidetolerance="10"
     inkscape:pageopacity="0"
     inkscape:pageshadow="2"
     inkscape:window-width="640"
     inkscape:window-height="480"
     id="namedview80"
     showgrid="false"
     fit-margin-top="0"
     fit-margin-left="0"
     fit-margin-right="0"
     fit-margin-bottom="0"
     inkscape:zoom="0.35613494"
     inkscape:cx="179.93127"
     inkscape:cy="46.822262"
     inkscape:window-x="0"
     inkscape:window-y="24"
     inkscape:window-maximized="0"
     inkscape:current-layer="svg2" /><metadata
     id="metadata8"><rdf:RDF><cc:Work
         rdf:about=""><dc:format>image/svg+xml</dc:format><dc:type
           rdf:resource="http://purl.org/dc/dcmitype/StillImage" /><dc:title></dc:title></cc:Work></rdf:RDF></metadata><defs
     id="defs6"><clipPath
       id="clipPath16"><path
         d="m 0,595.28 841.89,0 L 841.89,0 0,0 0,595.28 z"
         id="path18"
         inkscape:connector-curvature="0" /></clipPath></defs><g
     transform="matrix(1.25,0,0,-1.25,-346.25,420.8975)"
     id="g10"><g
       id="g12"><g
         clip-path="url(#clipPath16)"
         id="g14"><g
           transform="translate(420.4492,268.3662)"
           id="g20"><path
             d="m 0,0 1.873,-5.505 0.023,0 1.77,5.505 2.479,0 0,-8.004 -1.649,0 0,5.673 -0.021,0 -1.963,-5.673 -1.357,0 -1.962,5.616 -0.023,0 0,-5.616 -1.648,0 0,8.004 L 0,0 z m 14.207,0 0,-1.479 -4.228,0 0,-1.716 3.879,0 0,-1.368 -3.879,0 0,-1.961 4.317,0 0,-1.48 -6.077,0 0,8.004 5.988,0 z m 5.053,-6.524 c 0.254,0 0.5,0.04 0.74,0.124 0.238,0.081 0.451,0.216 0.639,0.409 0.187,0.19 0.337,0.438 0.449,0.745 0.111,0.306 0.168,0.68 0.168,1.121 0,0.403 -0.039,0.768 -0.118,1.094 -0.078,0.324 -0.208,0.603 -0.387,0.834 -0.18,0.232 -0.417,0.409 -0.712,0.533 -0.295,0.123 -0.66,0.185 -1.093,0.185 l -1.256,0 0,-5.045 1.57,0 z M 19.383,0 c 0.515,0 0.996,-0.082 1.441,-0.246 0.446,-0.165 0.829,-0.411 1.155,-0.74 0.325,-0.328 0.579,-0.74 0.762,-1.233 0.183,-0.494 0.275,-1.072 0.275,-1.738 0,-0.583 -0.075,-1.121 -0.225,-1.615 C 22.643,-6.065 22.416,-6.49 22.113,-6.85 21.811,-7.208 21.434,-7.49 20.98,-7.696 20.529,-7.902 19.996,-8.004 19.383,-8.004 l -3.453,0 0,8.004 3.453,0 z m 6.949,-8.004 -1.76,0 0,8.004 1.76,0 0,-8.004 z m 5.838,6.525 -3.958,0 0,1.479 6.302,0 0,-1.391 -4.295,-5.133 4.406,0 0,-1.48 -6.749,0 0,1.39 4.294,5.135 z m 5.93,-6.525 -1.76,0 0,8.004 1.76,0 0,-8.004 z M 41.867,0 l 3.342,-5.369 0.021,0 0,5.369 1.649,0 0,-8.004 -1.76,0 -3.33,5.358 -0.023,0 0,-5.358 -1.647,0 0,8.004 1.748,0 z m 8.789,-8.004 -1.76,0 0,8.004 1.76,0 0,-8.004 z m 3.36,1.973 c 0.097,-0.187 0.226,-0.338 0.386,-0.453 0.161,-0.118 0.35,-0.204 0.567,-0.26 0.217,-0.055 0.441,-0.083 0.672,-0.083 0.158,0 0.326,0.014 0.505,0.039 0.178,0.026 0.347,0.077 0.504,0.151 0.157,0.075 0.288,0.178 0.393,0.309 0.103,0.131 0.156,0.297 0.156,0.498 0,0.217 -0.068,0.392 -0.207,0.527 -0.138,0.135 -0.319,0.246 -0.544,0.338 -0.223,0.088 -0.477,0.166 -0.762,0.235 -0.284,0.067 -0.572,0.141 -0.864,0.224 -0.299,0.074 -0.59,0.166 -0.874,0.274 -0.284,0.109 -0.538,0.249 -0.762,0.42 -0.225,0.173 -0.405,0.387 -0.543,0.646 -0.139,0.257 -0.207,0.569 -0.207,0.936 0,0.411 0.086,0.768 0.263,1.07 0.175,0.304 0.405,0.556 0.689,0.757 0.284,0.202 0.605,0.351 0.964,0.448 0.359,0.098 0.717,0.145 1.076,0.145 0.419,0 0.82,-0.045 1.205,-0.139 0.386,-0.093 0.727,-0.244 1.027,-0.454 0.299,-0.209 0.535,-0.476 0.711,-0.802 0.176,-0.325 0.264,-0.719 0.264,-1.183 l -1.705,0 c -0.014,0.24 -0.065,0.437 -0.151,0.595 -0.086,0.156 -0.201,0.279 -0.341,0.37 -0.143,0.089 -0.305,0.152 -0.489,0.191 -0.183,0.037 -0.383,0.055 -0.599,0.055 -0.143,0 -0.284,-0.014 -0.426,-0.045 -0.143,-0.03 -0.272,-0.083 -0.387,-0.157 -0.115,-0.074 -0.211,-0.168 -0.286,-0.279 -0.075,-0.113 -0.112,-0.254 -0.112,-0.427 0,-0.157 0.029,-0.284 0.09,-0.382 0.06,-0.096 0.177,-0.186 0.353,-0.267 0.176,-0.084 0.418,-0.165 0.729,-0.246 0.309,-0.084 0.714,-0.188 1.216,-0.315 0.149,-0.031 0.357,-0.086 0.621,-0.163 0.266,-0.079 0.53,-0.204 0.791,-0.376 0.262,-0.172 0.489,-0.402 0.679,-0.689 0.191,-0.288 0.285,-0.656 0.285,-1.104 0,-0.367 -0.071,-0.707 -0.213,-1.019 -0.141,-0.315 -0.352,-0.586 -0.632,-0.815 -0.281,-0.227 -0.628,-0.406 -1.044,-0.532 -0.414,-0.126 -0.895,-0.191 -1.44,-0.191 -0.441,0 -0.869,0.055 -1.283,0.163 -0.416,0.109 -0.781,0.278 -1.1,0.509 -0.317,0.233 -0.57,0.528 -0.755,0.886 -0.188,0.359 -0.278,0.786 -0.27,1.278 l 1.704,0 c 0,-0.269 0.048,-0.496 0.146,-0.683 m 11.527,3.896 c -0.105,0.168 -0.236,0.316 -0.393,0.442 -0.156,0.129 -0.334,0.227 -0.533,0.298 -0.197,0.071 -0.404,0.106 -0.621,0.106 -0.396,0 -0.733,-0.076 -1.01,-0.23 -0.275,-0.153 -0.5,-0.358 -0.672,-0.616 -0.172,-0.259 -0.297,-0.552 -0.376,-0.881 -0.079,-0.328 -0.118,-0.668 -0.118,-1.019 0,-0.337 0.039,-0.664 0.118,-0.981 0.079,-0.318 0.204,-0.605 0.376,-0.859 0.172,-0.254 0.397,-0.457 0.672,-0.609 0.277,-0.155 0.614,-0.231 1.01,-0.231 0.538,0 0.958,0.164 1.261,0.493 0.303,0.329 0.487,0.762 0.556,1.3 l 1.703,0 c -0.045,-0.5 -0.161,-0.953 -0.348,-1.355 -0.186,-0.405 -0.434,-0.748 -0.739,-1.032 -0.307,-0.285 -0.665,-0.502 -1.077,-0.65 -0.411,-0.15 -0.864,-0.225 -1.356,-0.225 -0.613,0 -1.164,0.108 -1.654,0.319 -0.49,0.215 -0.903,0.508 -1.238,0.881 -0.336,0.374 -0.595,0.812 -0.774,1.317 -0.18,0.505 -0.269,1.049 -0.269,1.632 0,0.597 0.089,1.152 0.269,1.664 0.179,0.514 0.438,0.959 0.774,1.34 0.335,0.382 0.748,0.68 1.238,0.897 0.49,0.216 1.041,0.324 1.654,0.324 0.442,0 0.858,-0.063 1.25,-0.19 0.393,-0.127 0.744,-0.312 1.053,-0.555 0.31,-0.242 0.566,-0.543 0.769,-0.902 0.202,-0.358 0.328,-0.77 0.381,-1.233 l -1.705,0 c -0.029,0.202 -0.097,0.386 -0.201,0.555 M 70.665,0 l 0,-3.072 3.24,0 0,3.072 1.761,0 0,-8.004 -1.761,0 0,3.453 -3.24,0 0,-3.453 -1.761,0 0,8.004 1.761,0 z m 13.006,0 0,-1.479 -4.226,0 0,-1.716 3.879,0 0,-1.368 -3.879,0 0,-1.961 4.317,0 0,-1.48 -6.077,0 0,8.004 5.986,0 z m 10.517,0 0,-1.479 -3.869,0 0,-1.851 3.353,0 0,-1.367 -3.353,0 0,-3.307 -1.759,0 0,8.004 5.628,0 z m 4.919,-4.91 -1.008,2.937 -0.023,0 -1.043,-2.937 2.074,0 z M 99.007,0 102,-8.004 l -1.828,0 -0.605,1.782 -2.993,0 -0.628,-1.782 -1.771,0 3.026,8.004 1.806,0 z m 5.968,0 0,-3.318 3.128,3.318 2.198,0 -3.129,-3.161 3.431,-4.843 -2.208,0 -2.412,3.6 -1.008,-1.022 0,-2.578 -1.76,0 0,8.004 1.76,0 z m 12.596,-7.394 c -0.605,-0.526 -1.442,-0.79 -2.51,-0.79 -1.084,0 -1.924,0.262 -2.518,0.786 -0.594,0.522 -0.891,1.33 -0.891,2.421 l 0,4.977 1.76,0 0,-4.977 c 0,-0.217 0.018,-0.43 0.057,-0.64 0.037,-0.209 0.115,-0.394 0.234,-0.555 0.12,-0.16 0.286,-0.291 0.499,-0.391 0.213,-0.101 0.499,-0.152 0.859,-0.152 0.627,0 1.06,0.14 1.3,0.42 0.239,0.28 0.358,0.721 0.358,1.318 l 0,4.977 1.76,0 0,-4.977 c 0,-1.085 -0.302,-1.889 -0.908,-2.417 M 122.16,0 l 0,-6.524 3.902,0 0,-1.48 -5.663,0 0,8.004 1.761,0 z m 3.611,-1.479 0,1.479 6.559,0 0,-1.479 -2.398,0 0,-6.525 -1.76,0 0,6.525 -2.401,0 z m 9.866,2.375 -1.514,0 0,1.313 1.514,0 0,-1.313 z m 2.31,0 -1.515,0 0,1.313 1.515,0 0,-1.313 z m -0.886,-5.806 -1.01,2.937 -0.022,0 -1.043,-2.937 2.075,0 z M 136.96,0 l 2.993,-8.004 -1.828,0 -0.604,1.782 -2.994,0 -0.629,-1.782 -1.771,0 3.027,8.004 1.806,0 z m 2.733,-1.479 0,1.479 6.56,0 0,-1.479 -2.399,0 0,-6.525 -1.761,0 0,6.525 -2.4,0 z"
             id="path22"
             style="fill:#00ace6;fill-opacity:1;fill-rule:nonzero;stroke:none"
             inkscape:connector-curvature="0" /></g><g
           transform="translate(423.959,289.5713)"
           id="g24"><path
             d="m 0,0 0,-1.479 -4.228,0 0,-1.715 3.88,0 0,-1.369 -3.88,0 0,-1.96 4.318,0 0,-1.481 -6.077,0 0,8.004 L 0,0 z m 5.412,-3.621 c 0.404,0 0.707,0.09 0.908,0.269 0.201,0.18 0.303,0.471 0.303,0.875 0,0.388 -0.102,0.671 -0.303,0.846 -0.201,0.176 -0.504,0.264 -0.908,0.264 l -1.928,0 0,-2.254 1.928,0 z M 6.041,0 C 6.398,0 6.723,-0.057 7.01,-0.174 7.297,-0.289 7.544,-0.448 7.75,-0.649 7.955,-0.852 8.113,-1.086 8.221,-1.35 8.328,-1.615 8.383,-1.902 8.383,-2.209 8.383,-2.679 8.284,-3.086 8.086,-3.43 7.889,-3.773 7.564,-4.035 7.117,-4.215 l 0,-0.021 c 0.216,-0.061 0.396,-0.153 0.537,-0.276 0.143,-0.124 0.258,-0.269 0.348,-0.437 0.09,-0.168 0.156,-0.354 0.196,-0.555 0.041,-0.201 0.07,-0.404 0.085,-0.605 0.007,-0.127 0.014,-0.278 0.022,-0.449 0.008,-0.172 0.02,-0.347 0.039,-0.526 0.019,-0.18 0.049,-0.35 0.09,-0.512 0.041,-0.16 0.103,-0.297 0.185,-0.408 l -1.761,0 C 6.761,-7.75 6.701,-7.447 6.68,-7.096 6.656,-6.744 6.623,-6.408 6.578,-6.087 6.519,-5.668 6.392,-5.361 6.197,-5.167 6.003,-4.974 5.686,-4.876 5.244,-4.876 l -1.76,0 0,-3.128 -1.76,0 0,8.004 4.317,0 z m 5.693,0 0,-6.523 3.902,0 0,-1.481 -5.661,0 0,8.004 1.759,0 z m 9.563,-4.91 -1.009,2.937 -0.022,0 -1.043,-2.937 2.074,0 z M 21.196,0 l 2.993,-8.004 -1.827,0 -0.605,1.781 -2.993,0 -0.629,-1.781 -1.771,0 3.027,8.004 1.805,0 z m 5.741,0 3.34,-5.369 0.023,0 0,5.369 1.647,0 0,-8.004 -1.759,0 -3.331,5.358 -0.022,0 0,-5.358 -1.647,0 0,8.004 1.749,0 z m 11.57,-7.943 c -0.382,-0.161 -0.767,-0.241 -1.155,-0.241 -0.614,0 -1.164,0.107 -1.655,0.321 -0.488,0.213 -0.902,0.506 -1.238,0.879 -0.336,0.374 -0.594,0.814 -0.773,1.318 -0.18,0.504 -0.27,1.048 -0.27,1.631 0,0.597 0.09,1.153 0.27,1.665 0.179,0.512 0.437,0.958 0.773,1.339 0.336,0.382 0.75,0.68 1.238,0.897 0.491,0.218 1.041,0.325 1.655,0.325 0.411,0 0.808,-0.061 1.193,-0.185 0.386,-0.123 0.733,-0.305 1.043,-0.543 0.31,-0.24 0.566,-0.535 0.767,-0.887 0.203,-0.35 0.327,-0.754 0.372,-1.21 l -1.682,0 c -0.106,0.448 -0.307,0.784 -0.606,1.009 -0.298,0.225 -0.662,0.336 -1.087,0.336 -0.397,0 -0.733,-0.076 -1.01,-0.23 -0.276,-0.153 -0.5,-0.359 -0.672,-0.616 -0.172,-0.259 -0.297,-0.552 -0.375,-0.881 -0.079,-0.328 -0.119,-0.668 -0.119,-1.019 0,-0.337 0.04,-0.664 0.119,-0.981 0.078,-0.318 0.203,-0.603 0.375,-0.857 0.172,-0.254 0.396,-0.459 0.672,-0.611 0.277,-0.155 0.613,-0.231 1.01,-0.231 0.583,0 1.033,0.149 1.351,0.444 0.317,0.294 0.502,0.722 0.555,1.283 l -1.772,0 0,1.312 3.364,0 0,-4.328 -1.121,0 -0.18,0.908 C 39.234,-7.5 38.888,-7.782 38.507,-7.943 M 48.563,0 l 0,-1.479 -4.227,0 0,-1.715 3.879,0 0,-1.369 -3.879,0 0,-1.96 4.316,0 0,-1.481 -6.076,0 0,8.004 5.987,0 z m 3.585,0 3.34,-5.369 0.024,0 0,5.369 1.647,0 0,-8.004 -1.761,0 -3.329,5.358 -0.022,0 0,-5.358 -1.649,0 0,8.004 1.75,0 z m 10.383,-5.627 -3.375,0 0,1.367 3.375,0 0,-1.367 z M 66.303,0 l 3.342,-5.369 0.021,0 0,5.369 1.648,0 0,-8.004 -1.759,0 -3.33,5.358 -0.023,0 0,-5.358 -1.647,0 0,8.004 1.748,0 z m 9.953,0.898 -1.514,0 0,1.311 1.514,0 0,-1.311 z m 2.31,0 -1.515,0 0,1.311 1.515,0 0,-1.311 z m 0.594,-8.291 c -0.605,-0.527 -1.442,-0.791 -2.512,-0.791 -1.084,0 -1.921,0.262 -2.516,0.786 -0.595,0.523 -0.892,1.33 -0.892,2.42 L 73.24,0 75,0 75,-4.978 c 0,-0.215 0.02,-0.428 0.057,-0.639 0.037,-0.209 0.116,-0.394 0.235,-0.553 0.12,-0.162 0.286,-0.293 0.499,-0.393 0.213,-0.101 0.499,-0.152 0.857,-0.152 0.629,0 1.063,0.141 1.301,0.421 0.239,0.28 0.36,0.72 0.36,1.316 l 0,4.978 1.759,0 0,-4.978 c 0,-1.083 -0.302,-1.888 -0.908,-2.415 m 6.404,3.772 c 0.405,0 0.707,0.09 0.909,0.269 0.202,0.18 0.302,0.471 0.302,0.875 0,0.388 -0.1,0.671 -0.302,0.846 -0.202,0.176 -0.504,0.264 -0.909,0.264 l -1.927,0 0,-2.254 1.927,0 z M 86.193,0 c 0.359,0 0.682,-0.057 0.969,-0.174 0.289,-0.115 0.535,-0.274 0.74,-0.475 0.206,-0.203 0.364,-0.437 0.471,-0.701 0.109,-0.265 0.162,-0.552 0.162,-0.859 0,-0.47 -0.098,-0.877 -0.297,-1.221 -0.197,-0.343 -0.52,-0.605 -0.968,-0.785 l 0,-0.021 c 0.216,-0.061 0.395,-0.153 0.537,-0.276 0.142,-0.124 0.257,-0.269 0.347,-0.437 0.09,-0.168 0.157,-0.354 0.197,-0.555 0.041,-0.201 0.069,-0.404 0.085,-0.605 0.007,-0.127 0.014,-0.278 0.021,-0.449 0.008,-0.172 0.021,-0.347 0.039,-0.526 0.02,-0.18 0.049,-0.35 0.091,-0.512 0.04,-0.16 0.102,-0.297 0.184,-0.408 l -1.759,0 c -0.098,0.254 -0.158,0.557 -0.18,0.908 -0.023,0.352 -0.057,0.688 -0.102,1.009 -0.059,0.419 -0.186,0.726 -0.38,0.92 -0.194,0.193 -0.512,0.291 -0.954,0.291 l -1.759,0 0,-3.128 -1.761,0 0,8.004 4.317,0 z m 5.907,0 3.341,-5.369 0.022,0 0,5.369 1.648,0 0,-8.004 -1.759,0 -3.331,5.358 -0.023,0 0,-5.358 -1.646,0 0,8.004 1.748,0 z m 10.574,-3.239 c 0.313,0 0.571,0.074 0.772,0.223 0.202,0.151 0.304,0.393 0.304,0.729 0,0.187 -0.035,0.34 -0.102,0.46 -0.067,0.12 -0.156,0.214 -0.269,0.28 -0.111,0.068 -0.24,0.115 -0.386,0.141 -0.146,0.025 -0.298,0.039 -0.454,0.039 l -1.648,0 0,-1.872 1.783,0 z M 102.897,0 c 0.381,0 0.729,-0.033 1.042,-0.1 0.315,-0.068 0.584,-0.177 0.808,-0.331 0.224,-0.153 0.398,-0.356 0.521,-0.61 0.124,-0.256 0.185,-0.568 0.185,-0.943 0,-0.404 -0.091,-0.74 -0.274,-1.009 -0.183,-0.269 -0.454,-0.489 -0.813,-0.661 0.493,-0.142 0.862,-0.391 1.105,-0.745 0.242,-0.355 0.363,-0.784 0.363,-1.285 0,-0.403 -0.078,-0.752 -0.234,-1.046 -0.158,-0.297 -0.37,-0.538 -0.634,-0.725 -0.266,-0.188 -0.569,-0.325 -0.908,-0.414 -0.341,-0.09 -0.689,-0.135 -1.048,-0.135 l -3.879,0 0,8.004 3.766,0 z m -0.124,-6.637 c 0.172,0 0.337,0.018 0.495,0.051 0.156,0.034 0.295,0.09 0.415,0.168 0.119,0.079 0.213,0.186 0.286,0.319 0.07,0.136 0.105,0.307 0.105,0.517 0,0.411 -0.115,0.704 -0.347,0.879 -0.232,0.176 -0.538,0.264 -0.918,0.264 l -1.918,0 0,-2.198 1.882,0 z M 113.289,0 l 0,-1.479 -4.226,0 0,-1.715 3.878,0 0,-1.369 -3.878,0 0,-1.96 4.316,0 0,-1.481 -6.076,0 0,8.004 5.986,0 z m 5.525,-3.621 c 0.404,0 0.706,0.09 0.908,0.269 0.202,0.18 0.303,0.471 0.303,0.875 0,0.388 -0.101,0.671 -0.303,0.846 -0.202,0.176 -0.504,0.264 -0.908,0.264 l -1.928,0 0,-2.254 1.928,0 z M 119.441,0 c 0.36,0 0.682,-0.057 0.971,-0.174 0.287,-0.115 0.533,-0.274 0.739,-0.475 0.205,-0.203 0.363,-0.437 0.471,-0.701 0.108,-0.265 0.163,-0.552 0.163,-0.859 0,-0.47 -0.099,-0.877 -0.298,-1.221 -0.198,-0.343 -0.52,-0.605 -0.969,-0.785 l 0,-0.021 c 0.216,-0.061 0.396,-0.153 0.539,-0.276 0.14,-0.124 0.257,-0.269 0.346,-0.437 0.09,-0.168 0.156,-0.354 0.197,-0.555 0.041,-0.201 0.068,-0.404 0.084,-0.605 0.007,-0.127 0.015,-0.278 0.023,-0.449 0.006,-0.172 0.02,-0.347 0.039,-0.526 0.018,-0.18 0.048,-0.35 0.089,-0.512 0.042,-0.16 0.103,-0.297 0.186,-0.408 l -1.761,0 c -0.097,0.254 -0.156,0.557 -0.18,0.908 -0.021,0.352 -0.055,0.688 -0.1,1.009 -0.06,0.419 -0.187,0.726 -0.381,0.92 -0.195,0.193 -0.513,0.291 -0.953,0.291 l -1.76,0 0,-3.128 -1.761,0 0,8.004 4.316,0 z m 8.748,-7.943 c -0.38,-0.161 -0.766,-0.241 -1.154,-0.241 -0.613,0 -1.165,0.107 -1.654,0.321 -0.49,0.213 -0.902,0.506 -1.238,0.879 -0.336,0.374 -0.594,0.814 -0.774,1.318 -0.18,0.504 -0.269,1.048 -0.269,1.631 0,0.597 0.089,1.153 0.269,1.665 0.18,0.512 0.438,0.958 0.774,1.339 0.336,0.382 0.748,0.68 1.238,0.897 0.489,0.218 1.041,0.325 1.654,0.325 0.41,0 0.809,-0.061 1.194,-0.185 0.384,-0.123 0.732,-0.305 1.042,-0.543 0.311,-0.24 0.567,-0.535 0.768,-0.887 0.201,-0.35 0.325,-0.754 0.37,-1.21 l -1.681,0 c -0.105,0.448 -0.307,0.784 -0.606,1.009 -0.299,0.225 -0.661,0.336 -1.087,0.336 -0.396,0 -0.733,-0.076 -1.01,-0.23 -0.276,-0.153 -0.5,-0.359 -0.671,-0.616 -0.173,-0.259 -0.298,-0.552 -0.375,-0.881 -0.081,-0.328 -0.119,-0.668 -0.119,-1.019 0,-0.337 0.038,-0.664 0.119,-0.981 0.077,-0.318 0.202,-0.603 0.375,-0.857 0.171,-0.254 0.395,-0.459 0.671,-0.611 0.277,-0.155 0.614,-0.231 1.01,-0.231 0.583,0 1.033,0.149 1.351,0.444 0.317,0.294 0.503,0.722 0.555,1.283 l -1.771,0 0,1.312 3.363,0 0,-4.328 -1.121,0 -0.18,0.908 c -0.314,-0.404 -0.662,-0.686 -1.043,-0.847"
             id="path26"
             style="fill:#002855;fill-opacity:1;fill-rule:nonzero;stroke:none"
             inkscape:connector-curvature="0" /></g><g
           transform="translate(423.9141,294.2861)"
           id="g28"><path
             d="m 0,0 c -0.605,-0.527 -1.442,-0.791 -2.511,-0.791 -1.084,0 -1.923,0.262 -2.517,0.786 -0.594,0.523 -0.891,1.33 -0.891,2.422 l 0,4.977 1.759,0 0,-4.977 c 0,-0.218 0.019,-0.431 0.057,-0.64 0.038,-0.209 0.115,-0.394 0.235,-0.554 0.119,-0.161 0.286,-0.291 0.499,-0.393 0.213,-0.101 0.499,-0.152 0.858,-0.152 0.628,0 1.062,0.14 1.3,0.421 0.24,0.28 0.359,0.719 0.359,1.318 l 0,4.977 1.76,0 0,-4.977 C 0.908,1.332 0.605,0.526 0,0 m 4.642,7.394 3.34,-5.371 0.023,0 0,5.371 1.647,0 0,-8.004 -1.759,0 -3.33,5.358 -0.022,0 0,-5.358 -1.648,0 0,8.004 1.749,0 z m 8.733,-8.004 -1.761,0 0,8.004 1.761,0 0,-8.004 z m 3.86,0 -2.589,8.004 1.804,0 1.783,-5.628 0.023,0 1.805,5.628 1.816,0 -2.657,-8.004 -1.985,0 z m 11.929,8.004 0,-1.48 -4.226,0 0,-1.716 3.878,0 0,-1.367 -3.878,0 0,-1.962 4.316,0 0,-1.479 -6.077,0 0,8.004 5.987,0 z m 5.412,-3.621 c 0.404,0 0.707,0.089 0.908,0.269 0.202,0.179 0.303,0.471 0.303,0.875 0,0.388 -0.101,0.67 -0.303,0.846 -0.201,0.175 -0.504,0.263 -0.908,0.263 l -1.928,0 0,-2.253 1.928,0 z m 0.628,3.621 c 0.359,0 0.682,-0.058 0.97,-0.174 0.287,-0.116 0.535,-0.275 0.74,-0.476 0.205,-0.202 0.362,-0.436 0.471,-0.701 0.107,-0.265 0.162,-0.551 0.162,-0.858 0,-0.471 -0.1,-0.878 -0.297,-1.221 C 37.052,3.619 36.729,3.358 36.281,3.178 l 0,-0.022 c 0.216,-0.059 0.396,-0.151 0.537,-0.275 0.143,-0.123 0.258,-0.268 0.348,-0.437 0.09,-0.168 0.154,-0.353 0.196,-0.555 0.041,-0.201 0.07,-0.403 0.084,-0.606 0.007,-0.126 0.015,-0.275 0.023,-0.448 0.008,-0.171 0.02,-0.348 0.039,-0.526 0.019,-0.18 0.049,-0.35 0.09,-0.51 0.041,-0.161 0.102,-0.297 0.185,-0.409 l -1.761,0 c -0.096,0.254 -0.157,0.555 -0.178,0.907 -0.024,0.351 -0.057,0.687 -0.102,1.009 -0.06,0.419 -0.186,0.725 -0.381,0.92 -0.195,0.194 -0.511,0.291 -0.953,0.291 l -1.76,0 0,-3.127 -1.76,0 0,8.004 4.316,0 z M 40.652,1.362 C 40.75,1.176 40.879,1.023 41.039,0.908 41.2,0.792 41.389,0.707 41.605,0.65 c 0.217,-0.055 0.442,-0.084 0.673,-0.084 0.158,0 0.326,0.013 0.505,0.039 0.179,0.026 0.348,0.077 0.504,0.152 0.157,0.075 0.287,0.177 0.393,0.307 0.104,0.131 0.156,0.298 0.156,0.5 0,0.217 -0.068,0.392 -0.207,0.527 -0.139,0.135 -0.318,0.246 -0.543,0.336 -0.225,0.09 -0.479,0.168 -0.763,0.236 -0.284,0.066 -0.571,0.142 -0.863,0.224 -0.3,0.075 -0.591,0.166 -0.875,0.275 -0.284,0.108 -0.538,0.248 -0.762,0.42 -0.224,0.172 -0.405,0.387 -0.544,0.645 -0.138,0.257 -0.207,0.57 -0.207,0.936 0,0.41 0.088,0.768 0.264,1.07 0.176,0.304 0.404,0.556 0.688,0.757 0.285,0.202 0.607,0.352 0.964,0.449 0.36,0.097 0.718,0.145 1.077,0.145 0.419,0 0.82,-0.047 1.206,-0.139 C 43.655,7.351 43.998,7.2 44.297,6.99 44.596,6.781 44.832,6.515 45.008,6.188 45.184,5.863 45.271,5.469 45.271,5.006 l -1.704,0 C 43.553,5.246 43.502,5.443 43.416,5.601 43.33,5.757 43.216,5.88 43.074,5.97 42.932,6.06 42.77,6.123 42.587,6.161 42.403,6.198 42.203,6.217 41.986,6.217 41.845,6.217 41.703,6.202 41.561,6.172 41.419,6.142 41.289,6.089 41.174,6.015 41.059,5.94 40.963,5.847 40.889,5.735 40.813,5.623 40.776,5.481 40.776,5.309 c 0,-0.157 0.03,-0.285 0.089,-0.382 0.061,-0.096 0.178,-0.187 0.354,-0.268 0.176,-0.083 0.419,-0.165 0.728,-0.248 0.311,-0.081 0.716,-0.186 1.217,-0.313 0.149,-0.03 0.357,-0.085 0.622,-0.162 0.265,-0.08 0.528,-0.204 0.79,-0.376 0.262,-0.172 0.488,-0.402 0.679,-0.69 0.19,-0.288 0.286,-0.655 0.286,-1.104 0,-0.367 -0.071,-0.706 -0.213,-1.021 -0.142,-0.313 -0.353,-0.585 -0.634,-0.812 -0.28,-0.228 -0.628,-0.406 -1.043,-0.533 -0.415,-0.127 -0.894,-0.191 -1.44,-0.191 -0.441,0 -0.869,0.055 -1.283,0.163 -0.415,0.108 -0.782,0.278 -1.099,0.511 -0.317,0.23 -0.57,0.527 -0.757,0.885 -0.187,0.359 -0.277,0.785 -0.269,1.278 l 1.705,0 c 0,-0.269 0.047,-0.497 0.144,-0.684 m 8.185,-1.972 -1.761,0 0,8.004 1.761,0 0,-8.004 z m 1.413,6.524 0,1.48 6.559,0 0,-1.48 -2.401,0 0,-6.524 -1.76,0 0,6.524 -2.398,0 z m 9.943,2.377 -1.514,0 0,1.313 1.514,0 0,-1.313 z m 2.31,0 -1.514,0 0,1.313 1.514,0 0,-1.313 z m -0.886,-5.808 -1.009,2.937 -0.022,0 -1.043,-2.937 2.074,0 z m -0.1,4.911 2.993,-8.004 -1.827,0 -0.606,1.782 -2.993,0 -0.629,-1.782 -1.77,0 3.027,8.004 1.805,0 z m 2.825,-1.48 0,1.48 6.558,0 0,-1.48 -2.399,0 0,-6.524 -1.761,0 0,6.524 -2.398,0 z"
             id="path30"
             style="fill:#002855;fill-opacity:1;fill-rule:nonzero;stroke:none"
             inkscape:connector-curvature="0" /></g><g
           transform="translate(423.5996,313.9375)"
           id="g32"><path
             d="m 0,0 0,-1.479 -3.868,0 0,-1.85 3.352,0 0,-1.368 -3.352,0 0,-3.307 -1.76,0 0,8.004 L 0,0 z m 5.119,-3.621 c 0.403,0 0.707,0.09 0.908,0.269 0.202,0.18 0.303,0.471 0.303,0.874 0,0.389 -0.101,0.671 -0.303,0.847 -0.201,0.176 -0.505,0.263 -0.908,0.263 l -1.929,0 0,-2.253 1.929,0 z M 5.746,0 C 6.105,0 6.429,-0.058 6.717,-0.174 7.004,-0.289 7.252,-0.448 7.457,-0.65 7.662,-0.852 7.819,-1.085 7.928,-1.351 8.036,-1.616 8.09,-1.902 8.09,-2.208 8.09,-2.68 7.99,-3.086 7.793,-3.43 7.595,-3.774 7.271,-4.036 6.823,-4.215 l 0,-0.023 C 7.04,-4.297 7.219,-4.389 7.361,-4.512 7.504,-4.636 7.619,-4.781 7.709,-4.95 7.799,-5.118 7.863,-5.303 7.904,-5.505 7.946,-5.707 7.975,-5.908 7.988,-6.109 7.996,-6.237 8.004,-6.387 8.012,-6.558 8.02,-6.73 8.031,-6.906 8.051,-7.085 c 0.018,-0.18 0.049,-0.35 0.09,-0.511 0.041,-0.16 0.103,-0.297 0.184,-0.408 l -1.76,0 c -0.096,0.254 -0.157,0.556 -0.178,0.908 -0.024,0.35 -0.057,0.687 -0.102,1.009 -0.06,0.418 -0.187,0.724 -0.381,0.919 -0.195,0.194 -0.511,0.292 -0.953,0.292 l -1.761,0 0,-3.128 -1.759,0 0,8.004 4.315,0 z m 6.047,-8.004 -1.76,0 0,8.004 1.76,0 0,-8.004 z M 19.798,0 l 0,-1.479 -4.226,0 0,-1.716 3.878,0 0,-1.368 -3.878,0 0,-1.962 4.315,0 0,-1.479 -6.076,0 0,8.004 5.987,0 z m 5.054,-6.525 c 0.253,0 0.501,0.041 0.74,0.124 0.239,0.081 0.451,0.218 0.638,0.409 0.188,0.19 0.336,0.439 0.45,0.745 0.111,0.307 0.168,0.681 0.168,1.122 0,0.403 -0.039,0.768 -0.119,1.093 -0.079,0.324 -0.208,0.603 -0.387,0.835 -0.178,0.232 -0.416,0.409 -0.711,0.532 -0.295,0.123 -0.66,0.186 -1.094,0.186 l -1.255,0 0,-5.046 1.57,0 z M 24.975,0 c 0.515,0 0.996,-0.082 1.441,-0.247 0.444,-0.164 0.83,-0.41 1.154,-0.739 0.326,-0.329 0.579,-0.74 0.762,-1.234 0.184,-0.493 0.275,-1.072 0.275,-1.737 0,-0.584 -0.074,-1.122 -0.224,-1.615 -0.15,-0.494 -0.375,-0.919 -0.678,-1.278 -0.303,-0.358 -0.681,-0.64 -1.133,-0.846 -0.451,-0.206 -0.984,-0.308 -1.597,-0.308 l -3.454,0 0,8.004 3.454,0 z m 8.75,-3.621 c 0.402,0 0.706,0.09 0.908,0.269 0.201,0.18 0.302,0.471 0.302,0.874 0,0.389 -0.101,0.671 -0.302,0.847 -0.202,0.176 -0.506,0.263 -0.908,0.263 l -1.929,0 0,-2.253 1.929,0 z M 34.352,0 c 0.359,0 0.682,-0.058 0.97,-0.174 0.287,-0.115 0.534,-0.274 0.74,-0.476 0.206,-0.202 0.362,-0.435 0.471,-0.701 0.108,-0.265 0.162,-0.551 0.162,-0.857 0,-0.472 -0.099,-0.878 -0.297,-1.222 -0.199,-0.344 -0.521,-0.606 -0.97,-0.785 l 0,-0.023 c 0.217,-0.059 0.396,-0.151 0.539,-0.274 0.141,-0.124 0.258,-0.269 0.347,-0.438 0.09,-0.168 0.155,-0.353 0.196,-0.555 0.041,-0.202 0.069,-0.403 0.084,-0.604 0.008,-0.128 0.015,-0.278 0.022,-0.449 0.008,-0.172 0.021,-0.348 0.04,-0.527 0.018,-0.18 0.049,-0.35 0.09,-0.511 0.04,-0.16 0.102,-0.297 0.184,-0.408 l -1.759,0 c -0.098,0.254 -0.157,0.556 -0.18,0.908 -0.022,0.35 -0.056,0.687 -0.1,1.009 -0.061,0.418 -0.188,0.724 -0.382,0.919 -0.195,0.194 -0.512,0.292 -0.952,0.292 l -1.761,0 0,-3.128 -1.761,0 0,8.004 4.317,0 z m 5.878,-8.004 -1.762,0 0,8.004 1.762,0 0,-8.004 z m 7.028,5.869 c -0.106,0.168 -0.237,0.315 -0.393,0.443 -0.158,0.126 -0.335,0.225 -0.533,0.296 -0.197,0.071 -0.405,0.107 -0.622,0.107 -0.396,0 -0.732,-0.076 -1.009,-0.23 -0.277,-0.153 -0.501,-0.359 -0.673,-0.616 -0.172,-0.259 -0.298,-0.552 -0.376,-0.88 -0.078,-0.33 -0.117,-0.67 -0.117,-1.021 0,-0.336 0.039,-0.663 0.117,-0.981 0.078,-0.317 0.204,-0.603 0.376,-0.858 0.172,-0.254 0.396,-0.458 0.673,-0.61 0.277,-0.154 0.613,-0.23 1.009,-0.23 0.538,0 0.958,0.164 1.261,0.493 0.303,0.328 0.488,0.762 0.555,1.3 l 1.704,0 c -0.044,-0.5 -0.161,-0.953 -0.347,-1.356 -0.188,-0.404 -0.434,-0.747 -0.74,-1.032 -0.307,-0.284 -0.665,-0.501 -1.077,-0.649 -0.411,-0.15 -0.863,-0.226 -1.356,-0.226 -0.612,0 -1.165,0.108 -1.653,0.321 -0.491,0.213 -0.903,0.506 -1.24,0.88 -0.336,0.373 -0.594,0.812 -0.773,1.317 -0.18,0.505 -0.269,1.048 -0.269,1.631 0,0.598 0.089,1.153 0.269,1.665 0.179,0.512 0.437,0.958 0.773,1.34 0.337,0.381 0.749,0.68 1.24,0.897 0.488,0.217 1.041,0.325 1.653,0.325 0.44,0 0.858,-0.064 1.25,-0.191 0.392,-0.127 0.743,-0.312 1.054,-0.555 0.31,-0.242 0.566,-0.544 0.767,-0.902 0.203,-0.359 0.33,-0.77 0.383,-1.233 l -1.705,0 c -0.029,0.201 -0.098,0.386 -0.201,0.555 M 52.604,0 l 0,-3.072 3.24,0 0,3.072 1.76,0 0,-8.004 -1.76,0 0,3.453 -3.24,0 0,-3.453 -1.76,0 0,8.004 1.76,0 z m 10.372,-5.627 -3.374,0 0,1.368 3.374,0 0,-1.368 z m 5.778,0.717 -1.01,2.937 -0.022,0 -1.042,-2.937 2.074,0 z M 68.652,0 l 2.994,-8.004 -1.828,0 -0.605,1.782 -2.993,0 -0.628,-1.782 -1.772,0 3.028,8.004 1.804,0 z m 5.968,0 0,-6.525 3.901,0 0,-1.479 -5.661,0 0,8.004 1.76,0 z m 11.296,0 0,-1.479 -4.227,0 0,-1.716 3.879,0 0,-1.368 -3.879,0 0,-1.962 4.317,0 0,-1.479 -6.076,0 0,8.004 5.986,0 z m 1.356,0 2.041,0 1.57,-2.556 1.625,2.556 1.93,0 -2.569,-3.823 2.792,-4.181 -2.097,0 -1.749,2.769 -1.782,-2.769 -1.972,0 2.791,4.192 L 87.272,0 z m 12.972,-4.91 -1.009,2.937 -0.022,0 -1.043,-2.937 2.074,0 z m -0.101,4.91 2.994,-8.004 -1.828,0 -0.606,1.782 -2.992,0 -0.628,-1.782 -1.771,0 3.026,8.004 1.805,0 z m 5.789,0 3.34,-5.37 0.023,0 0,5.37 1.648,0 0,-8.004 -1.76,0 -3.329,5.358 -0.024,0 0,-5.358 -1.646,0 0,8.004 1.748,0 z m 10.224,-6.525 c 0.254,0 0.5,0.041 0.74,0.124 0.239,0.081 0.452,0.218 0.639,0.409 0.188,0.19 0.336,0.439 0.448,0.745 0.113,0.307 0.169,0.681 0.169,1.122 0,0.403 -0.04,0.768 -0.118,1.093 -0.079,0.324 -0.208,0.603 -0.388,0.835 -0.179,0.232 -0.416,0.409 -0.71,0.532 -0.295,0.123 -0.661,0.186 -1.094,0.186 l -1.255,0 0,-5.046 1.569,0 z M 116.279,0 c 0.516,0 0.996,-0.082 1.442,-0.247 0.444,-0.164 0.83,-0.41 1.154,-0.739 0.325,-0.329 0.578,-0.74 0.762,-1.234 0.183,-0.493 0.275,-1.072 0.275,-1.737 0,-0.584 -0.074,-1.122 -0.224,-1.615 -0.15,-0.494 -0.375,-0.919 -0.678,-1.278 -0.303,-0.358 -0.681,-0.64 -1.133,-0.846 -0.452,-0.206 -0.984,-0.308 -1.598,-0.308 l -3.453,0 0,8.004 3.453,0 z m 11.066,0 0,-1.479 -4.227,0 0,-1.716 3.879,0 0,-1.368 -3.879,0 0,-1.962 4.318,0 0,-1.479 -6.078,0 0,8.004 5.987,0 z m 5.356,-3.621 c 0.404,0 0.707,0.09 0.908,0.269 0.204,0.18 0.303,0.471 0.303,0.874 0,0.389 -0.099,0.671 -0.303,0.847 -0.201,0.176 -0.504,0.263 -0.908,0.263 l -1.928,0 0,-2.253 1.928,0 z M 133.329,0 c 0.359,0 0.683,-0.058 0.97,-0.174 0.288,-0.115 0.535,-0.274 0.74,-0.476 0.205,-0.202 0.362,-0.435 0.471,-0.701 0.109,-0.265 0.162,-0.551 0.162,-0.857 0,-0.472 -0.098,-0.878 -0.297,-1.222 -0.197,-0.344 -0.521,-0.606 -0.97,-0.785 l 0,-0.023 c 0.218,-0.059 0.397,-0.151 0.538,-0.274 0.143,-0.124 0.259,-0.269 0.348,-0.438 0.09,-0.168 0.155,-0.353 0.196,-0.555 0.041,-0.202 0.07,-0.403 0.084,-0.604 0.008,-0.128 0.015,-0.278 0.023,-0.449 0.008,-0.172 0.02,-0.348 0.039,-0.527 0.019,-0.18 0.049,-0.35 0.09,-0.511 0.041,-0.16 0.103,-0.297 0.185,-0.408 l -1.76,0 c -0.097,0.254 -0.158,0.556 -0.179,0.908 -0.023,0.35 -0.057,0.687 -0.102,1.009 -0.058,0.418 -0.186,0.724 -0.381,0.919 -0.194,0.194 -0.511,0.292 -0.953,0.292 l -1.76,0 0,-3.128 -1.759,0 0,8.004 4.315,0 z"
             id="path34"
             style="fill:#002855;fill-opacity:1;fill-rule:nonzero;stroke:none"
             inkscape:connector-curvature="0" /></g><g
           transform="translate(400.4331,285.3623)"
           id="g36"><path
             d="m 0,0 -33.379,0 c 2.051,-1.674 4.424,-2.93 6.938,-3.803 l 19.484,0 C -4.435,-2.93 -2.055,-1.674 0,0"
             id="path38"
             style="fill:#002855;fill-opacity:1;fill-rule:nonzero;stroke:none"
             inkscape:connector-curvature="0" /></g><g
           transform="translate(308.541,287.2676)"
           id="g40"><path
             d="m 0,0 14.467,0 0.023,0.069 -0.04,0 1.198,3.734 -14.208,0 L 0,0 z"
             id="path42"
             style="fill:#002855;fill-opacity:1;fill-rule:nonzero;stroke:none"
             inkscape:connector-curvature="0" /></g><g
           transform="translate(307.8784,285.3623)"
           id="g44"><path
             d="m 0,0 -1.441,-3.803 14.739,0 L 14.554,0 0,0 z"
             id="path46"
             style="fill:#002855;fill-opacity:1;fill-rule:nonzero;stroke:none"
             inkscape:connector-curvature="0" /></g><path
           d="m 277,281.56 13.814,0 0,3.803 -13.814,0 0,-3.803 z"
           id="path48"
           style="fill:#002855;fill-opacity:1;fill-rule:nonzero;stroke:none"
           inkscape:connector-curvature="0" /><path
           d="m 290.814,291.07 -13.814,0 0,-3.803 13.814,0 0,3.803 z"
           id="path50"
           style="fill:#002855;fill-opacity:1;fill-rule:nonzero;stroke:none"
           inkscape:connector-curvature="0" /><path
           d="m 290.814,296.774 -13.814,0 0,-3.802 13.814,0 0,3.802 z"
           id="path52"
           style="fill:#002855;fill-opacity:1;fill-rule:nonzero;stroke:none"
           inkscape:connector-curvature="0" /><path
           d="m 290.814,302.477 -13.814,0 0,-3.802 13.814,0 0,3.802 z"
           id="path54"
           style="fill:#002855;fill-opacity:1;fill-rule:nonzero;stroke:none"
           inkscape:connector-curvature="0" /><path
           d="m 290.814,319.597 -13.814,0 0,-3.802 13.814,0 0,3.802 z"
           id="path56"
           style="fill:#002855;fill-opacity:1;fill-rule:nonzero;stroke:none"
           inkscape:connector-curvature="0" /><path
           d="m 290.814,325.311 -13.814,0 0,-3.802 13.814,0 0,3.802 z"
           id="path58"
           style="fill:#002855;fill-opacity:1;fill-rule:nonzero;stroke:none"
           inkscape:connector-curvature="0" /><path
           d="m 277,332.915 42.218,0 0,3.803 -42.218,0 0,-3.803 z"
           id="path60"
           style="fill:#002855;fill-opacity:1;fill-rule:nonzero;stroke:none"
           inkscape:connector-curvature="0" /><path
           d="m 277,327.212 42.218,0 0,3.802 -42.218,0 0,-3.802 z"
           id="path62"
           style="fill:#002855;fill-opacity:1;fill-rule:nonzero;stroke:none"
           inkscape:connector-curvature="0" /><g
           transform="translate(332.9575,319.5972)"
           id="g64"><path
             d="m 0,0 -12.458,0 -1.441,-3.802 12.729,0 L 0,0 z"
             id="path66"
             style="fill:#002855;fill-opacity:1;fill-rule:nonzero;stroke:none"
             inkscape:connector-curvature="0" /></g><g
           transform="translate(325.3691,332.915)"
           id="g68"><path
             d="m 0,0 17.196,0 -1.474,3.803 -14.28,0 L 0,0 z"
             id="path70"
             style="fill:#002855;fill-opacity:1;fill-rule:nonzero;stroke:none"
             inkscape:connector-curvature="0" /></g><g
           transform="translate(323.2661,327.2119)"
           id="g72"><path
             d="M 0,0 21.45,0 19.976,3.802 1.441,3.802 0,0 z"
             id="path74"
             style="fill:#002855;fill-opacity:1;fill-rule:nonzero;stroke:none"
             inkscape:connector-curvature="0" /></g><g
           transform="translate(334.7183,321.498)"
           id="g76"><path
             d="m 0,0 12.15,0 -1.475,3.802 -22.789,0 -1.442,-3.802 12.332,0 0.535,1.743 0.154,0 L 0,0 z"
             id="path78"
             style="fill:#002855;fill-opacity:1;fill-rule:nonzero;stroke:none"
             inkscape:connector-curvature="0" /></g><g
           transform="translate(336.4238,315.7949)"
           id="g80"><path
             d="m 0,0 12.596,0 -1.474,3.802 -12.289,0 L 0,0 z"
             id="path82"
             style="fill:#002855;fill-opacity:1;fill-rule:nonzero;stroke:none"
             inkscape:connector-curvature="0" /></g><g
           transform="translate(338.1279,310.0981)"
           id="g84"><path
             d="m 0,0 13.043,0 -1.474,3.802 -12.736,0 L 0,0 z"
             id="path86"
             style="fill:#00ace6;fill-opacity:1;fill-rule:nonzero;stroke:none"
             inkscape:connector-curvature="0" /></g><g
           transform="translate(339.833,304.3955)"
           id="g88"><path
             d="m 0,0 13.49,0 -1.474,3.802 -13.184,0 L 0,0 z"
             id="path90"
             style="fill:#00ace6;fill-opacity:1;fill-rule:nonzero;stroke:none"
             inkscape:connector-curvature="0" /></g><g
           transform="translate(312.7476,298.6748)"
           id="g92"><path
             d="m 0,0 42.728,0 -1.476,3.802 -39.81,0 L 0,0 z"
             id="path94"
             style="fill:#002855;fill-opacity:1;fill-rule:nonzero;stroke:none"
             inkscape:connector-curvature="0" /></g><g
           transform="translate(310.6445,292.9717)"
           id="g96"><path
             d="M 0,0 46.982,0 45.507,3.802 1.441,3.802 0,0 z"
             id="path98"
             style="fill:#002855;fill-opacity:1;fill-rule:nonzero;stroke:none"
             inkscape:connector-curvature="0" /></g><g
           transform="translate(345.3223,287.2676)"
           id="g100"><path
             d="m 0,0 14.457,0 -1.475,3.803 -14.255,0 L 0,0 z"
             id="path102"
             style="fill:#002855;fill-opacity:1;fill-rule:nonzero;stroke:none"
             inkscape:connector-curvature="0" /></g><g
           transform="translate(345.8574,285.3623)"
           id="g104"><path
             d="m 0,0 1.254,-3.803 14.817,0 L 14.598,0 0,0 z"
             id="path106"
             style="fill:#002855;fill-opacity:1;fill-rule:nonzero;stroke:none"
             inkscape:connector-curvature="0" /></g><path
           d="m 360.349,332.915 13.813,0 0,3.803 -13.813,0 0,-3.803 z"
           id="path108"
           style="fill:#002855;fill-opacity:1;fill-rule:nonzero;stroke:none"
           inkscape:connector-curvature="0" /><path
           d="m 360.349,327.212 13.813,0 0,3.802 -13.813,0 0,-3.802 z"
           id="path110"
           style="fill:#002855;fill-opacity:1;fill-rule:nonzero;stroke:none"
           inkscape:connector-curvature="0" /><path
           d="m 360.349,321.498 13.813,0 0,3.803 -13.813,0 0,-3.803 z"
           id="path112"
           style="fill:#002855;fill-opacity:1;fill-rule:nonzero;stroke:none"
           inkscape:connector-curvature="0" /><path
           d="m 360.349,315.795 13.813,0 0,3.802 -13.813,0 0,-3.802 z"
           id="path114"
           style="fill:#002855;fill-opacity:1;fill-rule:nonzero;stroke:none"
           inkscape:connector-curvature="0" /><path
           d="m 360.349,310.099 13.813,0 0,3.802 -13.813,0 0,-3.802 z"
           id="path116"
           style="fill:#00ace6;fill-opacity:1;fill-rule:nonzero;stroke:none"
           inkscape:connector-curvature="0" /><path
           d="m 360.349,304.396 13.813,0 0,3.802 -13.813,0 0,-3.802 z"
           id="path118"
           style="fill:#00ace6;fill-opacity:1;fill-rule:nonzero;stroke:none"
           inkscape:connector-curvature="0" /><g
           transform="translate(360.459,298.6748)"
           id="g120"><path
             d="m 0,0 13.962,0 c -0.175,0.984 -0.259,2.036 -0.259,3.143 l 0,0.659 -13.813,0 0,-1.792 C -0.11,1.312 -0.056,0.656 0,0"
             id="path122"
             style="fill:#002855;fill-opacity:1;fill-rule:nonzero;stroke:none"
             inkscape:connector-curvature="0" /></g><g
           transform="translate(361.6943,292.9717)"
           id="g124"><path
             d="m 0,0 15.754,0 c -1.226,0.957 -2.059,2.256 -2.582,3.802 l -14.18,0 C -0.782,2.446 -0.454,1.168 0,0"
             id="path126"
             style="fill:#002855;fill-opacity:1;fill-rule:nonzero;stroke:none"
             inkscape:connector-curvature="0" /></g><g
           transform="translate(405.0161,291.0703)"
           id="g128"><path
             d="m 0,0 -42.539,0 c 0.742,-1.421 1.657,-2.681 2.697,-3.803 l 37.144,0 C -1.658,-2.681 -0.74,-1.421 0,0"
             id="path130"
             style="fill:#002855;fill-opacity:1;fill-rule:nonzero;stroke:none"
             inkscape:connector-curvature="0" /></g><g
           transform="translate(406.8096,296.7734)"
           id="g132"><path
             d="m 0,0 -14.184,0 c -0.523,-1.546 -1.363,-2.846 -2.596,-3.802 l 15.769,0 C -0.555,-2.633 -0.229,-1.356 0,0"
             id="path134"
             style="fill:#002855;fill-opacity:1;fill-rule:nonzero;stroke:none"
             inkscape:connector-curvature="0" /></g><path
           d="m 393.332,332.915 13.814,0 0,3.803 -13.814,0 0,-3.803 z"
           id="path136"
           style="fill:#002855;fill-opacity:1;fill-rule:nonzero;stroke:none"
           inkscape:connector-curvature="0" /><path
           d="m 393.332,327.212 13.814,0 0,3.802 -13.814,0 0,-3.802 z"
           id="path138"
           style="fill:#002855;fill-opacity:1;fill-rule:nonzero;stroke:none"
           inkscape:connector-curvature="0" /><path
           d="m 393.332,321.498 13.814,0 0,3.803 -13.814,0 0,-3.803 z"
           id="path140"
           style="fill:#002855;fill-opacity:1;fill-rule:nonzero;stroke:none"
           inkscape:connector-curvature="0" /><path
           d="m 393.332,315.795 13.814,0 0,3.802 -13.814,0 0,-3.802 z"
           id="path142"
           style="fill:#002855;fill-opacity:1;fill-rule:nonzero;stroke:none"
           inkscape:connector-curvature="0" /><path
           d="m 393.332,310.099 13.814,0 0,3.802 -13.814,0 0,-3.802 z"
           id="path144"
           style="fill:#00ace6;fill-opacity:1;fill-rule:nonzero;stroke:none"
           inkscape:connector-curvature="0" /><path
           d="m 393.332,304.396 13.814,0 0,3.802 -13.814,0 0,-3.802 z"
           id="path146"
           style="fill:#00ace6;fill-opacity:1;fill-rule:nonzero;stroke:none"
           inkscape:connector-curvature="0" /><g
           transform="translate(407.146,300.6846)"
           id="g148"><path
             d="m 0,0 0,1.792 -13.814,0 0,-0.659 c 0,-1.107 -0.083,-2.158 -0.259,-3.143 l 13.961,0 C -0.056,-1.354 0,-0.698 0,0"
             id="path150"
             style="fill:#002855;fill-opacity:1;fill-rule:nonzero;stroke:none"
             inkscape:connector-curvature="0" /></g><g
           transform="translate(277,308.1978)"
           id="g152"><path
             d="m 0,0 0,-3.801 51.38,0 L 52.548,0 0,0 z"
             id="path154"
             style="fill:#00ace6;fill-opacity:1;fill-rule:nonzero;stroke:none"
             inkscape:connector-curvature="0" /></g><g
           transform="translate(277,313.9004)"
           id="g156"><path
             d="m 0,0 0,-3.802 53.084,0 L 54.252,0 0,0 z"
             id="path158"
             style="fill:#00ace6;fill-opacity:1;fill-rule:nonzero;stroke:none"
             inkscape:connector-curvature="0" /></g></g></g></g></svg>