<?xml version="1.0" encoding="UTF-8" standalone="no"?>
<!-- Created with Inkscape (http://www.inkscape.org/) -->

<svg
   xmlns:dc="http://purl.org/dc/elements/1.1/"
   xmlns:cc="http://creativecommons.org/ns#"
   xmlns:rdf="http://www.w3.org/1999/02/22-rdf-syntax-ns#"
   xmlns:svg="http://www.w3.org/2000/svg"
   xmlns="http://www.w3.org/2000/svg"
   version="1.1"
   width="313.32501"
   height="85.039253"
   id="svg2"
   xml:space="preserve"><metadata
     id="metadata8"><rdf:RDF><cc:Work
         rdf:about=""><dc:format>image/svg+xml</dc:format><dc:type
           rdf:resource="http://purl.org/dc/dcmitype/StillImage" /><dc:title></dc:title></cc:Work></rdf:RDF></metadata><defs
     id="defs6"><clipPath
       id="clipPath16"><path
         d="m 0,595.28 841.89,0 L 841.89,0 0,0 0,595.28 z"
         id="path18" /></clipPath></defs><g
     transform="matrix(1.25,0,0,-1.25,-370,414.61875)"
     id="g10"><g
       id="g12"><g
         clip-path="url(#clipPath16)"
         id="g14"><g
           transform="translate(408.646,264.2686)"
           id="g20"><path
             d="m 0,0 c -0.464,-0.403 -1.106,-0.605 -1.926,-0.605 -0.831,0 -1.475,0.201 -1.93,0.601 -0.456,0.401 -0.685,1.021 -0.685,1.858 l 0,3.818 1.351,0 0,-3.818 c 0,-0.166 0.014,-0.331 0.043,-0.491 0.029,-0.16 0.088,-0.302 0.181,-0.425 0.091,-0.124 0.219,-0.223 0.382,-0.301 0.164,-0.077 0.383,-0.116 0.658,-0.116 0.482,0 0.814,0.108 0.998,0.323 0.183,0.215 0.275,0.551 0.275,1.01 l 0,3.818 1.35,0 0,-3.818 C 0.697,1.022 0.465,0.404 0,0 m 3.555,5.672 2.562,-4.119 0.017,0 0,4.119 1.264,0 0,-6.14 -1.35,0 -2.553,4.111 -0.017,0 0,-4.111 -1.265,0 0,6.14 1.342,0 z m 7.989,-5.005 c 0.195,0 0.384,0.031 0.568,0.095 0.183,0.062 0.346,0.168 0.49,0.314 0.143,0.146 0.258,0.336 0.344,0.571 0.086,0.236 0.129,0.522 0.129,0.861 0,0.308 -0.03,0.589 -0.09,0.838 -0.061,0.25 -0.159,0.463 -0.297,0.64 -0.138,0.178 -0.32,0.315 -0.546,0.409 -0.226,0.094 -0.506,0.142 -0.839,0.142 l -0.963,0 0,-3.87 1.204,0 z m 0.095,5.005 c 0.395,0 0.764,-0.063 1.105,-0.19 0.341,-0.125 0.636,-0.314 0.885,-0.567 0.25,-0.252 0.445,-0.567 0.585,-0.946 0.141,-0.378 0.21,-0.823 0.21,-1.332 0,-0.448 -0.056,-0.861 -0.172,-1.239 C 14.138,1.02 13.965,0.693 13.733,0.418 13.5,0.143 13.211,-0.074 12.864,-0.231 12.517,-0.389 12.109,-0.468 11.639,-0.468 l -2.649,0 0,6.14 2.649,0 z m 10.809,0 0,-1.135 -2.967,0 0,-1.42 2.572,0 0,-1.049 -2.572,0 0,-2.536 -1.35,0 0,6.14 4.317,0 z m 3.731,-3.767 -0.773,2.253 -0.017,0 -0.801,-2.253 1.591,0 z m -0.077,3.767 2.297,-6.14 -1.402,0 -0.465,1.367 -2.296,0 -0.482,-1.367 -1.358,0 2.321,6.14 1.385,0 z m 6.973,-1.638 c -0.08,0.128 -0.181,0.241 -0.301,0.339 -0.121,0.098 -0.257,0.174 -0.408,0.229 -0.153,0.054 -0.312,0.081 -0.478,0.081 -0.304,0 -0.561,-0.059 -0.774,-0.177 C 30.902,4.389 30.73,4.231 30.598,4.034 30.465,3.836 30.37,3.611 30.31,3.358 30.25,3.105 30.219,2.846 30.219,2.576 c 0,-0.258 0.031,-0.51 0.091,-0.752 0.06,-0.244 0.155,-0.463 0.288,-0.658 0.132,-0.195 0.304,-0.352 0.516,-0.469 0.213,-0.117 0.47,-0.176 0.774,-0.176 0.413,0 0.736,0.125 0.968,0.378 0.231,0.252 0.373,0.585 0.425,0.997 l 1.307,0 C 34.553,1.512 34.465,1.166 34.322,0.856 34.178,0.547 33.989,0.283 33.754,0.064 c -0.235,-0.216 -0.51,-0.382 -0.826,-0.498 -0.315,-0.115 -0.662,-0.171 -1.04,-0.171 -0.47,0 -0.893,0.082 -1.268,0.245 -0.375,0.163 -0.693,0.387 -0.951,0.674 -0.258,0.288 -0.456,0.624 -0.593,1.01 -0.138,0.388 -0.206,0.805 -0.206,1.252 0,0.459 0.068,0.885 0.206,1.278 0.137,0.392 0.335,0.734 0.593,1.027 0.258,0.293 0.576,0.521 0.951,0.687 0.375,0.166 0.798,0.25 1.268,0.25 0.338,0 0.657,-0.048 0.958,-0.146 0.302,-0.098 0.571,-0.24 0.809,-0.426 0.238,-0.186 0.434,-0.417 0.59,-0.691 0.154,-0.276 0.252,-0.592 0.292,-0.947 l -1.308,0 c -0.022,0.156 -0.074,0.296 -0.154,0.426 m 4.057,1.638 0,-2.357 2.486,0 0,2.357 1.349,0 0,-6.14 -1.349,0 0,2.649 -2.486,0 0,-2.649 -1.349,0 0,6.14 1.349,0 z m 8.103,-2.485 c 0.24,0 0.437,0.057 0.593,0.171 0.155,0.115 0.232,0.302 0.232,0.56 0,0.143 -0.026,0.261 -0.077,0.352 -0.052,0.091 -0.121,0.164 -0.207,0.215 -0.086,0.052 -0.186,0.087 -0.297,0.108 -0.111,0.02 -0.228,0.03 -0.348,0.03 l -1.264,0 0,-1.436 1.368,0 z m 0.172,2.485 c 0.292,0 0.558,-0.026 0.799,-0.077 0.241,-0.052 0.447,-0.136 0.619,-0.253 0.172,-0.119 0.305,-0.276 0.4,-0.47 C 47.32,4.678 47.368,4.437 47.368,4.15 47.368,3.84 47.296,3.582 47.157,3.375 47.016,3.17 46.808,3 46.533,2.869 46.911,2.76 47.194,2.568 47.379,2.297 47.566,2.023 47.66,1.696 47.66,1.313 47.66,1.002 47.599,0.734 47.479,0.508 47.358,0.281 47.196,0.096 46.993,-0.047 46.79,-0.19 46.557,-0.296 46.296,-0.365 46.036,-0.434 45.768,-0.468 45.493,-0.468 l -2.976,0 0,6.14 2.89,0 z M 45.311,0.581 c 0.133,0 0.259,0.013 0.379,0.038 0.121,0.027 0.227,0.069 0.318,0.13 0.092,0.06 0.165,0.142 0.219,0.245 0.055,0.104 0.082,0.235 0.082,0.395 0,0.316 -0.089,0.541 -0.266,0.675 -0.178,0.135 -0.414,0.203 -0.706,0.203 l -1.47,0 0,-1.686 1.444,0 z m 8.195,5.091 0,-1.135 -3.242,0 0,-1.316 2.976,0 0,-1.049 -2.976,0 0,-1.505 3.311,0 0,-1.135 -4.66,0 0,6.14 4.591,0 z m 4.196,-2.777 c 0.308,0 0.541,0.068 0.695,0.206 0.155,0.137 0.232,0.361 0.232,0.67 0,0.298 -0.077,0.514 -0.232,0.65 -0.154,0.134 -0.387,0.202 -0.695,0.202 l -1.48,0 0,-1.728 1.48,0 z m 0.48,2.777 c 0.276,0 0.524,-0.045 0.744,-0.133 0.221,-0.09 0.41,-0.211 0.568,-0.365 C 59.651,5.018 59.772,4.84 59.855,4.636 59.938,4.432 59.98,4.213 59.98,3.978 59.98,3.616 59.904,3.305 59.752,3.041 59.6,2.777 59.352,2.576 59.008,2.438 l 0,-0.016 C 59.174,2.375 59.311,2.305 59.42,2.211 59.53,2.115 59.619,2.004 59.687,1.875 59.756,1.746 59.806,1.604 59.838,1.449 59.87,1.295 59.891,1.141 59.903,0.984 59.908,0.888 59.914,0.773 59.919,0.641 59.924,0.51 59.936,0.375 59.95,0.237 c 0.013,-0.137 0.037,-0.268 0.068,-0.391 0.031,-0.123 0.079,-0.229 0.143,-0.314 l -1.351,0 c -0.074,0.195 -0.12,0.427 -0.138,0.697 -0.017,0.269 -0.043,0.527 -0.077,0.773 -0.046,0.321 -0.143,0.557 -0.292,0.705 -0.15,0.149 -0.392,0.224 -0.731,0.224 l -1.35,0 0,-2.399 -1.35,0 0,6.14 3.31,0 z m 7.782,0 0,-1.135 -3.242,0 0,-1.316 2.976,0 0,-1.049 -2.976,0 0,-1.505 3.311,0 0,-1.135 -4.661,0 0,6.14 4.592,0 z m 2.724,-6.14 -1.35,0 0,6.14 1.35,0 0,-6.14 z m 5.391,4.502 C 73.999,4.162 73.898,4.275 73.778,4.373 73.657,4.471 73.52,4.547 73.37,4.602 73.217,4.656 73.057,4.683 72.891,4.683 72.588,4.683 72.33,4.624 72.118,4.506 71.906,4.389 71.733,4.231 71.602,4.034 71.469,3.836 71.374,3.611 71.314,3.358 71.253,3.105 71.223,2.846 71.223,2.576 c 0,-0.258 0.03,-0.51 0.091,-0.752 0.06,-0.244 0.155,-0.463 0.288,-0.658 0.131,-0.195 0.304,-0.352 0.516,-0.469 0.212,-0.117 0.47,-0.176 0.773,-0.176 0.414,0 0.736,0.125 0.968,0.378 0.232,0.252 0.374,0.585 0.426,0.997 l 1.307,0 C 75.557,1.512 75.469,1.166 75.325,0.856 75.182,0.547 74.993,0.283 74.758,0.064 c -0.235,-0.216 -0.51,-0.382 -0.826,-0.498 -0.315,-0.115 -0.662,-0.171 -1.041,-0.171 -0.47,0 -0.892,0.082 -1.267,0.245 -0.376,0.163 -0.694,0.387 -0.952,0.674 -0.257,0.288 -0.455,0.624 -0.592,1.01 -0.138,0.388 -0.206,0.805 -0.206,1.252 0,0.459 0.068,0.885 0.206,1.278 0.137,0.392 0.335,0.734 0.592,1.027 0.258,0.293 0.576,0.521 0.952,0.687 0.375,0.166 0.797,0.25 1.267,0.25 0.339,0 0.658,-0.048 0.959,-0.146 0.302,-0.098 0.57,-0.24 0.809,-0.426 C 74.897,5.06 75.093,4.829 75.249,4.555 75.403,4.279 75.5,3.963 75.54,3.608 l -1.307,0 c -0.024,0.156 -0.074,0.296 -0.154,0.426 m 4.101,1.638 0,-2.357 2.485,0 0,2.357 1.35,0 0,-6.14 -1.35,0 0,2.649 -2.485,0 0,-2.649 -1.35,0 0,6.14 1.35,0 z m 7.309,-1.135 0,1.135 5.031,0 0,-1.135 -1.841,0 0,-5.005 -1.35,0 0,5.005 -1.84,0 z m 7.44,1.135 0,-2.357 2.486,0 0,2.357 1.349,0 0,-6.14 -1.349,0 0,2.649 -2.486,0 0,-2.649 -1.35,0 0,6.14 1.35,0 z m 9.976,0 0,-1.135 -3.241,0 0,-1.316 2.975,0 0,-1.049 -2.975,0 0,-1.505 3.31,0 0,-1.135 -4.661,0 0,6.14 4.592,0 z m 2.506,-3.848 c 0.059,-0.244 0.156,-0.463 0.288,-0.658 0.132,-0.195 0.303,-0.352 0.515,-0.469 0.212,-0.117 0.47,-0.176 0.775,-0.176 0.303,0 0.561,0.059 0.773,0.176 0.213,0.117 0.384,0.274 0.516,0.469 0.133,0.195 0.228,0.414 0.289,0.658 0.06,0.242 0.09,0.494 0.09,0.752 0,0.27 -0.03,0.529 -0.09,0.782 -0.061,0.253 -0.156,0.478 -0.289,0.676 -0.132,0.197 -0.303,0.355 -0.516,0.472 -0.212,0.118 -0.47,0.177 -0.773,0.177 -0.305,0 -0.563,-0.059 -0.775,-0.177 -0.212,-0.117 -0.383,-0.275 -0.515,-0.472 -0.132,-0.198 -0.229,-0.423 -0.288,-0.676 -0.061,-0.253 -0.091,-0.512 -0.091,-0.782 0,-0.258 0.03,-0.51 0.091,-0.752 m -1.235,2.03 c 0.138,0.392 0.336,0.734 0.594,1.027 0.258,0.293 0.574,0.521 0.95,0.687 0.376,0.166 0.798,0.25 1.269,0.25 0.475,0 0.899,-0.084 1.272,-0.25 0.372,-0.166 0.689,-0.394 0.947,-0.687 0.257,-0.293 0.455,-0.635 0.592,-1.027 0.138,-0.393 0.206,-0.819 0.206,-1.278 0,-0.447 -0.068,-0.864 -0.206,-1.252 -0.137,-0.386 -0.335,-0.722 -0.592,-1.01 -0.258,-0.287 -0.575,-0.511 -0.947,-0.674 -0.373,-0.163 -0.797,-0.245 -1.272,-0.245 -0.471,0 -0.893,0.082 -1.269,0.245 -0.376,0.163 -0.692,0.387 -0.95,0.674 -0.258,0.288 -0.456,0.624 -0.594,1.01 -0.137,0.388 -0.206,0.805 -0.206,1.252 0,0.459 0.069,0.885 0.206,1.278 m 8.393,1.818 0,-5.005 2.992,0 0,-1.135 -4.343,0 0,6.14 1.351,0 z m 5.078,-3.848 c 0.06,-0.244 0.156,-0.463 0.287,-0.658 0.133,-0.195 0.305,-0.352 0.516,-0.469 0.213,-0.117 0.47,-0.176 0.775,-0.176 0.303,0 0.561,0.059 0.774,0.176 0.211,0.117 0.383,0.274 0.515,0.469 0.132,0.195 0.229,0.414 0.288,0.658 0.061,0.242 0.091,0.494 0.091,0.752 0,0.27 -0.03,0.529 -0.091,0.782 -0.059,0.253 -0.156,0.478 -0.288,0.676 -0.132,0.197 -0.304,0.355 -0.515,0.472 -0.213,0.118 -0.471,0.177 -0.774,0.177 -0.305,0 -0.562,-0.059 -0.775,-0.177 -0.211,-0.117 -0.383,-0.275 -0.516,-0.472 -0.131,-0.198 -0.227,-0.423 -0.287,-0.676 -0.061,-0.253 -0.091,-0.512 -0.091,-0.782 0,-0.258 0.03,-0.51 0.091,-0.752 m -1.234,2.03 c 0.137,0.392 0.336,0.734 0.593,1.027 0.258,0.293 0.575,0.521 0.95,0.687 0.376,0.166 0.798,0.25 1.269,0.25 0.475,0 0.9,-0.084 1.272,-0.25 0.373,-0.166 0.688,-0.394 0.946,-0.687 0.259,-0.293 0.456,-0.635 0.594,-1.027 0.137,-0.393 0.206,-0.819 0.206,-1.278 0,-0.447 -0.069,-0.864 -0.206,-1.252 -0.138,-0.386 -0.335,-0.722 -0.594,-1.01 -0.258,-0.287 -0.573,-0.511 -0.946,-0.674 -0.372,-0.163 -0.797,-0.245 -1.272,-0.245 -0.471,0 -0.893,0.082 -1.269,0.245 -0.375,0.163 -0.692,0.387 -0.95,0.674 -0.257,0.288 -0.456,0.624 -0.593,1.01 -0.138,0.388 -0.206,0.805 -0.206,1.252 0,0.459 0.068,0.885 0.206,1.278 m 10.806,-4.274 c -0.292,-0.124 -0.588,-0.185 -0.885,-0.185 -0.47,0 -0.893,0.082 -1.269,0.245 -0.375,0.163 -0.691,0.387 -0.95,0.674 -0.258,0.288 -0.455,0.624 -0.593,1.01 -0.138,0.388 -0.207,0.805 -0.207,1.252 0,0.459 0.069,0.885 0.207,1.278 0.138,0.392 0.335,0.734 0.593,1.027 0.259,0.293 0.575,0.521 0.95,0.687 0.376,0.166 0.799,0.25 1.269,0.25 0.315,0 0.62,-0.047 0.916,-0.142 0.295,-0.094 0.561,-0.233 0.799,-0.417 0.239,-0.183 0.435,-0.409 0.589,-0.679 0.155,-0.269 0.25,-0.58 0.284,-0.93 l -1.29,0 c -0.081,0.344 -0.235,0.603 -0.464,0.775 -0.23,0.172 -0.507,0.258 -0.834,0.258 -0.304,0 -0.562,-0.059 -0.775,-0.177 -0.211,-0.117 -0.383,-0.275 -0.516,-0.472 -0.131,-0.198 -0.227,-0.423 -0.288,-0.676 -0.059,-0.253 -0.089,-0.512 -0.089,-0.782 0,-0.258 0.03,-0.51 0.089,-0.752 0.061,-0.244 0.157,-0.463 0.288,-0.658 0.133,-0.195 0.305,-0.352 0.516,-0.469 0.213,-0.117 0.471,-0.176 0.775,-0.176 0.448,0 0.792,0.113 1.036,0.339 0.244,0.226 0.385,0.555 0.425,0.986 l -1.358,0 0,1.006 2.579,0 0,-3.32 -0.859,0 -0.138,0.697 c -0.241,-0.311 -0.507,-0.526 -0.8,-0.649 m 4.586,-0.048 -1.35,0 0,6.14 1.35,0 0,-6.14 z m 6.141,6.14 0,-1.135 -3.242,0 0,-1.316 2.975,0 0,-1.049 -2.975,0 0,-1.505 3.31,0 0,-1.135 -4.661,0 0,6.14 4.593,0 z"
             id="path22"
             style="fill:#ad841f;fill-opacity:1;fill-rule:nonzero;stroke:none" /></g><g
           transform="translate(406.5313,276.376)"
           id="g24"><path
             d="m 0,0 c 0.154,0 0.304,0.012 0.447,0.035 0.143,0.024 0.269,0.068 0.378,0.133 0.109,0.066 0.196,0.16 0.262,0.279 0.066,0.121 0.1,0.279 0.1,0.474 0,0.194 -0.034,0.352 -0.1,0.474 C 1.021,1.514 0.934,1.607 0.825,1.673 0.716,1.74 0.59,1.783 0.447,1.807 0.304,1.83 0.154,1.841 0,1.841 l -1.049,0 L -1.049,0 0,0 z M 0.37,2.891 C 0.753,2.891 1.08,2.834 1.35,2.723 1.619,2.611 1.838,2.463 2.008,2.279 2.177,2.096 2.3,1.887 2.377,1.652 2.455,1.416 2.493,1.173 2.493,0.921 2.493,0.674 2.455,0.432 2.377,0.194 2.3,-0.043 2.177,-0.255 2.008,-0.438 1.838,-0.621 1.619,-0.77 1.35,-0.881 1.08,-0.992 0.753,-1.049 0.37,-1.049 l -1.419,0 0,-2.201 -1.35,0 0,6.141 2.769,0 z m 4.553,0 0,-2.357 2.485,0 0,2.357 1.35,0 0,-6.141 -1.35,0 0,2.648 -2.485,0 0,-2.648 -1.35,0 0,6.141 1.35,0 z m 6.776,-6.141 -1.351,0 0,6.141 1.351,0 0,-6.141 z m 2.941,6.141 0,-5.006 2.993,0 0,-1.135 -4.343,0 0,6.141 1.35,0 z m 4.992,-3.85 c 0.059,-0.242 0.156,-0.462 0.288,-0.656 0.133,-0.196 0.305,-0.352 0.516,-0.469 0.212,-0.118 0.47,-0.177 0.775,-0.177 0.303,0 0.56,0.059 0.773,0.177 0.211,0.117 0.383,0.273 0.516,0.469 0.132,0.194 0.229,0.414 0.288,0.656 0.06,0.244 0.091,0.495 0.091,0.753 0,0.269 -0.031,0.53 -0.091,0.782 -0.059,0.252 -0.156,0.479 -0.288,0.676 -0.133,0.197 -0.305,0.355 -0.516,0.473 -0.213,0.118 -0.47,0.176 -0.773,0.176 -0.305,0 -0.563,-0.058 -0.775,-0.176 C 20.225,1.607 20.053,1.449 19.92,1.252 19.788,1.055 19.691,0.828 19.632,0.576 c -0.06,-0.252 -0.09,-0.513 -0.09,-0.782 0,-0.258 0.03,-0.509 0.09,-0.753 m -1.234,2.03 c 0.137,0.393 0.335,0.736 0.593,1.029 0.259,0.291 0.575,0.521 0.95,0.687 0.375,0.166 0.799,0.25 1.27,0.25 0.475,0 0.898,-0.084 1.271,-0.25 0.373,-0.166 0.689,-0.396 0.947,-0.687 0.259,-0.293 0.456,-0.636 0.592,-1.029 0.139,-0.392 0.208,-0.818 0.208,-1.277 0,-0.446 -0.069,-0.864 -0.208,-1.251 -0.136,-0.387 -0.333,-0.725 -0.592,-1.011 -0.258,-0.286 -0.574,-0.511 -0.947,-0.675 -0.373,-0.163 -0.796,-0.244 -1.271,-0.244 -0.471,0 -0.895,0.081 -1.27,0.244 -0.375,0.164 -0.691,0.389 -0.95,0.675 -0.258,0.286 -0.456,0.624 -0.593,1.011 -0.138,0.387 -0.207,0.805 -0.207,1.251 0,0.459 0.069,0.885 0.207,1.277 m 8.175,-2.807 c 0.075,-0.144 0.173,-0.26 0.297,-0.348 0.124,-0.09 0.269,-0.155 0.435,-0.199 0.166,-0.043 0.338,-0.065 0.515,-0.065 0.12,0 0.25,0.012 0.387,0.032 0.139,0.019 0.268,0.058 0.387,0.115 0.121,0.057 0.22,0.137 0.302,0.236 0.08,0.101 0.12,0.229 0.12,0.383 0,0.166 -0.053,0.301 -0.159,0.404 -0.107,0.104 -0.246,0.19 -0.418,0.258 -0.171,0.069 -0.367,0.129 -0.584,0.182 -0.218,0.05 -0.439,0.108 -0.662,0.172 -0.23,0.056 -0.453,0.127 -0.672,0.21 -0.216,0.083 -0.412,0.19 -0.583,0.323 -0.172,0.131 -0.312,0.297 -0.418,0.494 -0.106,0.197 -0.159,0.437 -0.159,0.718 0,0.315 0.067,0.589 0.202,0.821 0.134,0.232 0.311,0.426 0.529,0.58 0.219,0.155 0.465,0.27 0.74,0.345 0.275,0.074 0.55,0.112 0.825,0.112 0.322,0 0.629,-0.037 0.925,-0.108 0.295,-0.072 0.557,-0.189 0.786,-0.349 0.23,-0.16 0.411,-0.365 0.546,-0.614 0.135,-0.249 0.203,-0.552 0.203,-0.907 l -1.307,0 c -0.012,0.183 -0.05,0.336 -0.117,0.455 -0.066,0.121 -0.153,0.215 -0.261,0.284 -0.11,0.069 -0.235,0.118 -0.375,0.145 -0.141,0.03 -0.293,0.043 -0.46,0.043 -0.109,0 -0.218,-0.01 -0.327,-0.033 C 27.161,1.93 27.063,1.89 26.973,1.832 26.885,1.775 26.811,1.703 26.754,1.617 26.697,1.531 26.668,1.423 26.668,1.291 c 0,-0.121 0.023,-0.219 0.068,-0.293 0.046,-0.074 0.137,-0.143 0.272,-0.206 0.135,-0.063 0.321,-0.126 0.558,-0.189 0.239,-0.064 0.549,-0.144 0.934,-0.242 0.114,-0.021 0.273,-0.064 0.477,-0.124 0.204,-0.06 0.406,-0.156 0.607,-0.288 0.2,-0.132 0.373,-0.308 0.52,-0.529 0.146,-0.221 0.219,-0.503 0.219,-0.847 0,-0.28 -0.055,-0.542 -0.164,-0.782 -0.108,-0.242 -0.27,-0.449 -0.485,-0.624 -0.215,-0.175 -0.482,-0.312 -0.8,-0.408 -0.318,-0.097 -0.686,-0.146 -1.105,-0.146 -0.338,0 -0.666,0.041 -0.985,0.123 -0.317,0.084 -0.598,0.215 -0.843,0.393 -0.244,0.178 -0.437,0.403 -0.58,0.679 -0.144,0.275 -0.213,0.602 -0.207,0.98 l 1.307,0 c 0,-0.206 0.038,-0.382 0.112,-0.524 m 6.12,0.777 c 0.061,-0.242 0.157,-0.462 0.289,-0.656 0.131,-0.196 0.303,-0.352 0.516,-0.469 0.211,-0.118 0.47,-0.177 0.773,-0.177 0.305,0 0.563,0.059 0.775,0.177 0.212,0.117 0.384,0.273 0.517,0.469 0.13,0.194 0.226,0.414 0.287,0.656 0.06,0.244 0.089,0.495 0.089,0.753 0,0.269 -0.029,0.53 -0.089,0.782 -0.061,0.252 -0.157,0.479 -0.287,0.676 -0.133,0.197 -0.305,0.355 -0.517,0.473 -0.212,0.118 -0.47,0.176 -0.775,0.176 -0.303,0 -0.562,-0.058 -0.773,-0.176 C 33.285,1.607 33.113,1.449 32.982,1.252 32.85,1.055 32.754,0.828 32.693,0.576 32.633,0.324 32.604,0.063 32.604,-0.206 c 0,-0.258 0.029,-0.509 0.089,-0.753 m -1.234,2.03 c 0.139,0.393 0.336,0.736 0.594,1.029 0.259,0.291 0.574,0.521 0.951,0.687 0.375,0.166 0.798,0.25 1.267,0.25 0.477,0 0.901,-0.084 1.274,-0.25 0.372,-0.166 0.687,-0.396 0.945,-0.687 0.258,-0.293 0.456,-0.636 0.594,-1.029 0.137,-0.392 0.206,-0.818 0.206,-1.277 0,-0.446 -0.069,-0.864 -0.206,-1.251 -0.138,-0.387 -0.336,-0.725 -0.594,-1.011 -0.258,-0.286 -0.573,-0.511 -0.945,-0.675 -0.373,-0.163 -0.797,-0.244 -1.274,-0.244 -0.469,0 -0.892,0.081 -1.267,0.244 -0.377,0.164 -0.692,0.389 -0.951,0.675 -0.258,0.286 -0.455,0.624 -0.594,1.011 -0.137,0.387 -0.206,0.805 -0.206,1.251 0,0.459 0.069,0.885 0.206,1.277 M 40.815,0 c 0.155,0 0.304,0.012 0.447,0.035 0.144,0.024 0.269,0.068 0.379,0.133 0.109,0.066 0.196,0.16 0.261,0.279 0.067,0.121 0.1,0.279 0.1,0.474 0,0.194 -0.033,0.352 -0.1,0.474 -0.065,0.119 -0.152,0.212 -0.261,0.278 -0.11,0.067 -0.235,0.11 -0.379,0.134 -0.143,0.023 -0.292,0.034 -0.447,0.034 l -1.049,0 0,-1.841 1.049,0 z m 0.37,2.891 c 0.383,0 0.711,-0.057 0.98,-0.168 0.27,-0.112 0.489,-0.26 0.658,-0.444 0.169,-0.183 0.292,-0.392 0.37,-0.627 0.078,-0.236 0.116,-0.479 0.116,-0.731 0,-0.247 -0.038,-0.489 -0.116,-0.727 -0.078,-0.237 -0.201,-0.449 -0.37,-0.632 -0.169,-0.183 -0.388,-0.332 -0.658,-0.443 -0.269,-0.111 -0.597,-0.168 -0.98,-0.168 l -1.419,0 0,-2.201 -1.35,0 0,6.141 2.769,0 z m 4.553,0 0,-2.357 2.485,0 0,2.357 1.351,0 0,-6.141 -1.351,0 0,2.648 -2.485,0 0,-2.648 -1.35,0 0,6.141 1.35,0 z m 6.734,-6.141 -1.351,0 0,6.141 1.351,0 0,-6.141 z m 2.662,1.514 c 0.074,-0.144 0.174,-0.26 0.297,-0.348 0.123,-0.09 0.268,-0.155 0.434,-0.199 0.166,-0.043 0.338,-0.065 0.516,-0.065 0.121,0 0.25,0.012 0.387,0.032 0.137,0.019 0.267,0.058 0.387,0.115 0.12,0.057 0.22,0.137 0.301,0.236 0.08,0.101 0.12,0.229 0.12,0.383 0,0.166 -0.053,0.301 -0.159,0.404 -0.106,0.104 -0.245,0.19 -0.417,0.258 -0.172,0.069 -0.367,0.129 -0.585,0.182 -0.218,0.05 -0.438,0.108 -0.662,0.172 -0.23,0.056 -0.453,0.127 -0.671,0.21 -0.218,0.083 -0.412,0.19 -0.584,0.323 -0.172,0.131 -0.312,0.297 -0.418,0.494 -0.105,0.197 -0.158,0.437 -0.158,0.718 0,0.315 0.066,0.589 0.201,0.821 0.135,0.232 0.312,0.426 0.529,0.58 0.218,0.155 0.465,0.27 0.74,0.345 0.275,0.074 0.549,0.112 0.825,0.112 0.322,0 0.629,-0.037 0.926,-0.108 C 57.438,2.857 57.699,2.74 57.929,2.58 58.158,2.42 58.34,2.215 58.475,1.966 58.609,1.717 58.677,1.414 58.677,1.059 l -1.308,0 C 57.357,1.242 57.32,1.395 57.254,1.514 57.188,1.635 57.1,1.729 56.991,1.798 c -0.108,0.069 -0.233,0.118 -0.374,0.145 -0.14,0.03 -0.294,0.043 -0.46,0.043 -0.108,0 -0.218,-0.01 -0.327,-0.033 C 55.722,1.93 55.623,1.89 55.534,1.832 55.445,1.775 55.372,1.703 55.314,1.617 55.258,1.531 55.229,1.423 55.229,1.291 c 0,-0.121 0.023,-0.219 0.068,-0.293 0.047,-0.074 0.137,-0.143 0.271,-0.206 0.135,-0.063 0.321,-0.126 0.559,-0.189 0.238,-0.064 0.549,-0.144 0.934,-0.242 0.114,-0.021 0.273,-0.064 0.476,-0.124 0.203,-0.06 0.406,-0.156 0.607,-0.288 0.2,-0.132 0.374,-0.308 0.52,-0.529 0.147,-0.221 0.219,-0.503 0.219,-0.847 0,-0.28 -0.054,-0.542 -0.162,-0.782 -0.11,-0.242 -0.272,-0.449 -0.487,-0.624 -0.214,-0.175 -0.482,-0.312 -0.8,-0.408 -0.318,-0.097 -0.686,-0.146 -1.104,-0.146 -0.339,0 -0.668,0.041 -0.985,0.123 -0.319,0.084 -0.6,0.215 -0.843,0.393 -0.244,0.178 -0.438,0.403 -0.58,0.679 -0.144,0.275 -0.213,0.602 -0.207,0.98 l 1.307,0 c 0,-0.206 0.037,-0.382 0.112,-0.524 M 64.02,1.252 C 63.938,1.381 63.838,1.494 63.719,1.592 63.598,1.689 63.461,1.766 63.31,1.82 63.157,1.874 62.998,1.901 62.832,1.901 62.528,1.901 62.271,1.843 62.059,1.725 61.846,1.607 61.674,1.449 61.542,1.252 61.41,1.055 61.314,0.828 61.254,0.576 c -0.061,-0.252 -0.09,-0.513 -0.09,-0.782 0,-0.258 0.029,-0.509 0.09,-0.753 0.06,-0.242 0.156,-0.462 0.288,-0.656 0.132,-0.196 0.304,-0.352 0.517,-0.469 0.212,-0.118 0.469,-0.177 0.773,-0.177 0.412,0 0.735,0.126 0.967,0.378 0.232,0.252 0.375,0.585 0.427,0.998 l 1.306,0 c -0.034,-0.385 -0.124,-0.73 -0.266,-1.041 -0.144,-0.309 -0.332,-0.573 -0.568,-0.791 -0.235,-0.218 -0.51,-0.384 -0.825,-0.499 -0.316,-0.114 -0.662,-0.171 -1.041,-0.171 -0.47,0 -0.893,0.081 -1.268,0.244 -0.376,0.164 -0.693,0.389 -0.951,0.675 -0.258,0.286 -0.455,0.624 -0.592,1.011 -0.138,0.387 -0.207,0.805 -0.207,1.251 0,0.459 0.069,0.885 0.207,1.277 0.137,0.393 0.334,0.736 0.592,1.029 0.258,0.291 0.575,0.521 0.951,0.687 0.375,0.166 0.798,0.25 1.268,0.25 0.338,0 0.658,-0.049 0.959,-0.146 C 64.092,2.793 64.361,2.65 64.6,2.465 64.837,2.278 65.033,2.047 65.188,1.772 65.344,1.497 65.44,1.182 65.48,0.826 l -1.306,0 C 64.15,0.98 64.1,1.123 64.02,1.252 m 4.056,1.639 0,-2.357 2.487,0 0,2.357 1.349,0 0,-6.141 -1.349,0 0,2.648 -2.487,0 0,-2.648 -1.349,0 0,6.141 1.349,0 z m 9.977,0 0,-1.135 -3.242,0 0,-1.317 2.975,0 0,-1.048 -2.975,0 0,-1.506 3.311,0 0,-1.135 -4.661,0 0,6.141 4.592,0 z m 8.066,0 0,-1.135 -2.967,0 0,-1.42 2.573,0 0,-1.049 -2.573,0 0,-2.537 -1.349,0 0,6.141 4.316,0 z m 3.775,-3.768 -0.775,2.254 -0.016,0 -0.8,-2.254 1.591,0 z m -0.078,3.768 2.296,-6.141 -1.401,0 -0.465,1.367 -2.296,0 -0.481,-1.367 -1.36,0 2.323,6.141 1.384,0 z m 4.578,0 0,-2.546 2.399,2.546 1.686,0 -2.4,-2.426 2.632,-3.715 -1.694,0 -1.849,2.761 -0.774,-0.782 0,-1.979 -1.351,0 0,6.141 1.351,0 z m 9.663,-5.672 c -0.465,-0.405 -1.108,-0.606 -1.927,-0.606 -0.831,0 -1.476,0.199 -1.931,0.602 -0.456,0.4 -0.683,1.019 -0.683,1.857 l 0,3.819 1.349,0 0,-3.819 c 0,-0.166 0.014,-0.33 0.043,-0.49 0.03,-0.161 0.09,-0.303 0.181,-0.426 0.092,-0.123 0.22,-0.223 0.383,-0.301 0.163,-0.078 0.383,-0.116 0.658,-0.116 0.481,0 0.813,0.108 0.997,0.323 0.184,0.214 0.275,0.551 0.275,1.01 l 0,3.819 1.35,0 0,-3.819 c 0,-0.832 -0.231,-1.449 -0.695,-1.853 m 3.519,5.672 0,-5.006 2.992,0 0,-1.135 -4.342,0 0,6.141 1.35,0 z m 2.771,-1.135 0,1.135 5.03,0 0,-1.135 -1.84,0 0,-5.006 -1.35,0 0,5.006 -1.84,0 z m 7.566,1.822 -1.161,0 0,1.006 1.161,0 0,-1.006 z m 1.772,0 -1.161,0 0,1.006 1.161,0 0,-1.006 z m -0.68,-4.455 -0.775,2.254 -0.016,0 -0.8,-2.254 1.591,0 z m -0.077,3.768 2.296,-6.141 -1.402,0 -0.465,1.367 -2.295,0 -0.482,-1.367 -1.359,0 2.322,6.141 1.385,0 z m 2.097,-1.135 0,1.135 5.031,0 0,-1.135 -1.84,0 0,-5.006 -1.351,0 0,5.006 -1.84,0 z"
             id="path26"
             style="fill:#ad841f;fill-opacity:1;fill-rule:nonzero;stroke:none" /></g><g
           transform="translate(408.7236,295.5322)"
           id="g28"><path
             d="m 0,0 0,-1.136 -3.242,0 0,-1.316 2.975,0 0,-1.049 -2.975,0 0,-1.505 3.311,0 0,-1.135 -4.661,0 0,6.141 L 0,0 z m 4.152,-2.778 c 0.309,0 0.542,0.069 0.696,0.206 0.155,0.137 0.233,0.361 0.233,0.671 0,0.297 -0.078,0.514 -0.233,0.649 -0.154,0.135 -0.387,0.201 -0.696,0.201 l -1.479,0 0,-1.727 1.479,0 z M 4.634,0 c 0.275,0 0.523,-0.045 0.743,-0.135 0.221,-0.088 0.41,-0.21 0.568,-0.364 0.158,-0.155 0.278,-0.335 0.361,-0.538 0.083,-0.203 0.125,-0.423 0.125,-0.658 0,-0.362 -0.077,-0.673 -0.228,-0.937 -0.152,-0.264 -0.4,-0.465 -0.744,-0.602 l 0,-0.018 C 5.625,-3.297 5.763,-3.367 5.872,-3.462 5.98,-3.557 6.069,-3.668 6.138,-3.797 6.207,-3.926 6.258,-4.068 6.289,-4.223 6.32,-4.378 6.342,-4.532 6.354,-4.688 6.359,-4.785 6.365,-4.9 6.371,-5.031 6.376,-5.163 6.386,-5.298 6.401,-5.436 6.415,-5.573 6.438,-5.703 6.47,-5.826 6.501,-5.95 6.548,-6.055 6.611,-6.141 l -1.35,0 C 5.187,-5.945 5.141,-5.714 5.124,-5.445 5.106,-5.176 5.081,-4.917 5.046,-4.67 5,-4.35 4.903,-4.114 4.754,-3.965 4.605,-3.816 4.361,-3.742 4.022,-3.742 l -1.349,0 0,-2.399 -1.35,0 0,6.141 3.311,0 z m 4.367,0 0,-5.006 2.993,0 0,-1.135 -4.343,0 0,6.141 1.35,0 z m 7.336,-3.768 -0.775,2.254 -0.017,0 -0.8,-2.254 1.592,0 z M 16.259,0 l 2.296,-6.141 -1.402,0 -0.465,1.368 -2.294,0 -0.483,-1.368 -1.359,0 2.322,6.141 1.385,0 z m 4.402,0 2.564,-4.12 0.016,0 0,4.12 1.265,0 0,-6.141 -1.351,0 -2.554,4.111 -0.017,0 0,-4.111 -1.264,0 0,6.141 1.341,0 z m 8.875,-6.094 c -0.292,-0.123 -0.588,-0.184 -0.886,-0.184 -0.469,0 -0.892,0.082 -1.268,0.245 -0.375,0.164 -0.692,0.388 -0.949,0.675 -0.259,0.286 -0.456,0.624 -0.594,1.01 -0.138,0.387 -0.207,0.804 -0.207,1.251 0,0.459 0.069,0.884 0.207,1.277 0.138,0.393 0.335,0.736 0.594,1.028 0.257,0.293 0.574,0.522 0.949,0.688 0.376,0.167 0.799,0.249 1.268,0.249 0.316,0 0.621,-0.047 0.916,-0.141 0.296,-0.095 0.562,-0.234 0.8,-0.417 0.238,-0.185 0.434,-0.411 0.59,-0.68 0.154,-0.269 0.248,-0.579 0.283,-0.928 l -1.29,0 c -0.081,0.343 -0.235,0.601 -0.464,0.774 -0.229,0.171 -0.507,0.257 -0.835,0.257 -0.303,0 -0.561,-0.059 -0.774,-0.176 -0.211,-0.117 -0.384,-0.275 -0.516,-0.473 -0.131,-0.198 -0.227,-0.424 -0.287,-0.675 -0.06,-0.252 -0.091,-0.513 -0.091,-0.783 0,-0.257 0.031,-0.508 0.091,-0.753 0.06,-0.243 0.156,-0.463 0.287,-0.657 0.132,-0.194 0.305,-0.35 0.516,-0.469 0.213,-0.118 0.471,-0.176 0.774,-0.176 0.448,0 0.793,0.113 1.037,0.339 0.244,0.227 0.385,0.555 0.425,0.985 l -1.359,0 0,1.007 2.58,0 0,-3.32 -0.859,0 -0.138,0.696 c -0.241,-0.309 -0.507,-0.526 -0.8,-0.649 M 37.25,0 l 0,-1.136 -3.241,0 0,-1.316 2.974,0 0,-1.049 -2.974,0 0,-1.505 3.31,0 0,-1.135 -4.661,0 0,6.141 4.592,0 z m 2.75,0 2.563,-4.12 0.017,0 0,4.12 1.265,0 0,-6.141 -1.352,0 -2.553,4.111 -0.017,0 0,-4.111 -1.265,0 0,6.141 L 40,0 z m 7.964,-4.317 -2.588,0 0,1.049 2.588,0 0,-1.049 z M 50.858,0 l 2.563,-4.12 0.017,0 0,4.12 1.264,0 0,-6.141 -1.35,0 -2.554,4.111 -0.018,0 0,-4.111 -1.263,0 0,6.141 1.341,0 z m 7.634,0.688 -1.161,0 0,1.006 1.161,0 0,-1.006 z m 1.772,0 -1.161,0 0,1.006 1.161,0 0,-1.006 z m 0.456,-6.36 c -0.465,-0.404 -1.107,-0.606 -1.926,-0.606 -0.832,0 -1.476,0.2 -1.932,0.602 -0.455,0.401 -0.683,1.02 -0.683,1.858 l 0,3.818 1.35,0 0,-3.818 c 0,-0.167 0.015,-0.33 0.043,-0.491 0.029,-0.161 0.089,-0.302 0.181,-0.425 0.092,-0.123 0.219,-0.224 0.383,-0.301 0.163,-0.078 0.383,-0.117 0.658,-0.117 0.48,0 0.813,0.108 0.997,0.322 0.184,0.216 0.275,0.553 0.275,1.012 l 0,3.818 1.35,0 0,-3.818 c 0,-0.832 -0.231,-1.45 -0.696,-1.854 m 4.912,2.894 c 0.31,0 0.542,0.069 0.697,0.206 0.154,0.137 0.233,0.361 0.233,0.671 0,0.297 -0.079,0.514 -0.233,0.649 -0.155,0.135 -0.387,0.201 -0.697,0.201 l -1.479,0 0,-1.727 1.479,0 z M 66.114,0 c 0.276,0 0.524,-0.045 0.744,-0.135 0.221,-0.088 0.41,-0.21 0.568,-0.364 0.157,-0.155 0.278,-0.335 0.36,-0.538 0.084,-0.203 0.125,-0.423 0.125,-0.658 0,-0.362 -0.076,-0.673 -0.227,-0.937 -0.152,-0.264 -0.4,-0.465 -0.745,-0.602 l 0,-0.018 c 0.167,-0.045 0.304,-0.115 0.414,-0.21 0.109,-0.095 0.197,-0.206 0.266,-0.335 0.069,-0.129 0.118,-0.271 0.151,-0.426 0.031,-0.155 0.053,-0.309 0.064,-0.465 0.006,-0.097 0.012,-0.212 0.017,-0.343 0.005,-0.132 0.015,-0.267 0.031,-0.405 0.014,-0.137 0.037,-0.267 0.068,-0.39 0.031,-0.124 0.079,-0.229 0.143,-0.315 l -1.352,0 c -0.074,0.196 -0.12,0.427 -0.137,0.696 -0.017,0.269 -0.042,0.528 -0.078,0.775 -0.045,0.32 -0.142,0.556 -0.292,0.705 -0.149,0.149 -0.393,0.223 -0.731,0.223 l -1.35,0 0,-2.399 -1.35,0 0,6.141 3.311,0 z m 4.532,0 2.562,-4.12 0.018,0 0,4.12 1.263,0 0,-6.141 -1.349,0 -2.555,4.111 -0.018,0 0,-4.111 -1.263,0 0,6.141 1.342,0 z m 8.109,-2.486 c 0.241,0 0.439,0.057 0.594,0.172 0.154,0.115 0.232,0.3 0.232,0.559 0,0.144 -0.026,0.261 -0.078,0.353 -0.051,0.091 -0.119,0.164 -0.206,0.214 -0.086,0.052 -0.185,0.088 -0.296,0.108 -0.112,0.02 -0.229,0.029 -0.349,0.029 l -1.264,0 0,-1.435 1.367,0 z M 78.927,0 c 0.293,0 0.559,-0.027 0.801,-0.078 0.24,-0.052 0.446,-0.137 0.619,-0.254 0.172,-0.117 0.304,-0.273 0.398,-0.468 0.096,-0.196 0.143,-0.436 0.143,-0.722 0,-0.31 -0.071,-0.568 -0.211,-0.775 -0.141,-0.207 -0.348,-0.375 -0.623,-0.508 0.378,-0.108 0.66,-0.299 0.847,-0.571 0.186,-0.272 0.28,-0.601 0.28,-0.985 0,-0.309 -0.061,-0.577 -0.182,-0.803 -0.119,-0.227 -0.282,-0.412 -0.484,-0.555 -0.205,-0.144 -0.437,-0.25 -0.698,-0.318 -0.261,-0.069 -0.529,-0.104 -0.804,-0.104 l -2.975,0 0,6.141 2.889,0 z m -0.094,-5.092 c 0.131,0 0.258,0.013 0.378,0.039 0.12,0.026 0.226,0.069 0.318,0.129 0.092,0.061 0.165,0.143 0.22,0.245 0.054,0.103 0.081,0.236 0.081,0.396 0,0.314 -0.089,0.541 -0.267,0.675 -0.177,0.135 -0.412,0.202 -0.705,0.202 l -1.47,0 0,-1.686 1.445,0 z M 86.897,0 l 0,-1.136 -3.242,0 0,-1.316 2.977,0 0,-1.049 -2.977,0 0,-1.505 3.312,0 0,-1.135 -4.661,0 0,6.141 4.591,0 z m 4.239,-2.778 c 0.309,0 0.542,0.069 0.696,0.206 0.155,0.137 0.233,0.361 0.233,0.671 0,0.297 -0.078,0.514 -0.233,0.649 -0.154,0.135 -0.387,0.201 -0.696,0.201 l -1.479,0 0,-1.727 1.479,0 z M 91.618,0 c 0.275,0 0.523,-0.045 0.743,-0.135 0.22,-0.088 0.41,-0.21 0.568,-0.364 0.158,-0.155 0.278,-0.335 0.361,-0.538 0.083,-0.203 0.125,-0.423 0.125,-0.658 0,-0.362 -0.076,-0.673 -0.228,-0.937 -0.153,-0.264 -0.4,-0.465 -0.744,-0.602 l 0,-0.018 c 0.165,-0.045 0.304,-0.115 0.413,-0.21 0.108,-0.095 0.198,-0.206 0.266,-0.335 0.069,-0.129 0.119,-0.271 0.15,-0.426 0.032,-0.155 0.053,-0.309 0.065,-0.465 0.006,-0.097 0.012,-0.212 0.017,-0.343 0.006,-0.132 0.016,-0.267 0.03,-0.405 0.015,-0.137 0.038,-0.267 0.069,-0.39 0.032,-0.124 0.079,-0.229 0.142,-0.315 l -1.35,0 c -0.074,0.196 -0.12,0.427 -0.138,0.696 -0.016,0.269 -0.042,0.528 -0.077,0.775 -0.047,0.32 -0.143,0.556 -0.293,0.705 -0.148,0.149 -0.392,0.223 -0.73,0.223 l -1.35,0 0,-2.399 -1.35,0 0,6.141 3.311,0 z m 6.709,-6.094 c -0.292,-0.123 -0.588,-0.184 -0.886,-0.184 -0.469,0 -0.893,0.082 -1.268,0.245 -0.375,0.164 -0.693,0.388 -0.949,0.675 -0.258,0.286 -0.456,0.624 -0.594,1.01 -0.139,0.387 -0.207,0.804 -0.207,1.251 0,0.459 0.068,0.884 0.207,1.277 0.138,0.393 0.336,0.736 0.594,1.028 0.256,0.293 0.574,0.522 0.949,0.688 0.375,0.167 0.799,0.249 1.268,0.249 0.316,0 0.622,-0.047 0.916,-0.141 0.296,-0.095 0.562,-0.234 0.8,-0.417 0.239,-0.185 0.434,-0.411 0.59,-0.68 0.154,-0.269 0.248,-0.579 0.283,-0.928 l -1.29,0 c -0.081,0.343 -0.235,0.601 -0.464,0.774 -0.229,0.171 -0.507,0.257 -0.835,0.257 -0.303,0 -0.561,-0.059 -0.774,-0.176 -0.211,-0.117 -0.383,-0.275 -0.516,-0.473 -0.131,-0.198 -0.227,-0.424 -0.287,-0.675 -0.06,-0.252 -0.091,-0.513 -0.091,-0.783 0,-0.257 0.031,-0.508 0.091,-0.753 0.06,-0.243 0.156,-0.463 0.287,-0.657 0.133,-0.194 0.305,-0.35 0.516,-0.469 0.213,-0.118 0.471,-0.176 0.774,-0.176 0.449,0 0.792,0.113 1.037,0.339 0.244,0.227 0.385,0.555 0.425,0.985 l -1.358,0 0,1.007 2.58,0 0,-3.32 -0.86,0 -0.138,0.696 c -0.241,-0.309 -0.507,-0.526 -0.8,-0.649"
             id="path30"
             style="fill:#002855;fill-opacity:1;fill-rule:nonzero;stroke:none" /></g><g
           transform="translate(408.6899,299.1475)"
           id="g32"><path
             d="m 0,0 c -0.465,-0.404 -1.107,-0.606 -1.926,-0.606 -0.832,0 -1.475,0.201 -1.931,0.602 -0.456,0.401 -0.684,1.021 -0.684,1.858 l 0,3.817 1.35,0 0,-3.817 c 0,-0.166 0.015,-0.33 0.044,-0.491 0.028,-0.16 0.088,-0.302 0.18,-0.425 0.092,-0.124 0.219,-0.224 0.383,-0.301 0.163,-0.078 0.382,-0.116 0.658,-0.116 0.481,0 0.814,0.107 0.997,0.322 0.183,0.215 0.275,0.552 0.275,1.011 l 0,3.817 1.35,0 0,-3.817 C 0.696,1.022 0.464,0.404 0,0 m 3.56,5.671 2.563,-4.119 0.017,0 0,4.119 1.263,0 0,-6.14 -1.349,0 -2.554,4.111 -0.018,0 0,-4.111 -1.264,0 0,6.14 1.342,0 z m 6.699,-6.14 -1.35,0 0,6.14 1.35,0 0,-6.14 z m 2.961,0 -1.987,6.14 1.385,0 1.368,-4.317 0.016,0 1.384,4.317 1.394,0 -2.038,-6.14 -1.522,0 z m 9.15,6.14 0,-1.134 -3.243,0 0,-1.316 2.976,0 0,-1.049 -2.976,0 0,-1.505 3.312,0 0,-1.136 -4.662,0 0,6.14 4.593,0 z m 4.151,-2.777 c 0.31,0 0.542,0.068 0.697,0.207 0.155,0.137 0.232,0.36 0.232,0.67 0,0.298 -0.077,0.514 -0.232,0.649 -0.155,0.135 -0.387,0.203 -0.697,0.203 l -1.479,0 0,-1.729 1.479,0 z m 0.482,2.777 c 0.275,0 0.523,-0.044 0.744,-0.132 0.22,-0.09 0.41,-0.211 0.567,-0.366 C 28.472,5.018 28.592,4.839 28.675,4.635 28.758,4.432 28.8,4.212 28.8,3.978 28.8,3.616 28.724,3.304 28.572,3.04 28.419,2.776 28.172,2.576 27.829,2.438 l 0,-0.017 c 0.166,-0.046 0.303,-0.116 0.413,-0.211 0.108,-0.094 0.197,-0.206 0.265,-0.335 0.07,-0.129 0.119,-0.271 0.151,-0.426 0.031,-0.155 0.052,-0.31 0.064,-0.464 0.006,-0.098 0.012,-0.212 0.018,-0.344 0.006,-0.132 0.015,-0.267 0.03,-0.404 0.015,-0.138 0.038,-0.269 0.069,-0.392 0.032,-0.123 0.078,-0.227 0.141,-0.314 l -1.35,0 c -0.074,0.196 -0.12,0.427 -0.137,0.697 -0.017,0.27 -0.043,0.528 -0.077,0.774 -0.047,0.321 -0.143,0.556 -0.292,0.705 -0.15,0.149 -0.394,0.224 -0.732,0.224 l -1.35,0 0,-2.4 -1.35,0 0,6.14 3.311,0 z m 4.179,-4.626 c 0.074,-0.143 0.173,-0.259 0.297,-0.348 0.123,-0.089 0.268,-0.155 0.435,-0.198 0.166,-0.042 0.337,-0.065 0.515,-0.065 0.12,0 0.249,0.01 0.387,0.03 0.138,0.021 0.267,0.059 0.387,0.117 0.121,0.057 0.22,0.136 0.3,0.236 0.08,0.1 0.122,0.228 0.122,0.383 0,0.166 -0.053,0.3 -0.16,0.404 -0.106,0.103 -0.245,0.189 -0.417,0.258 -0.172,0.069 -0.367,0.129 -0.585,0.18 -0.217,0.052 -0.438,0.109 -0.662,0.173 -0.229,0.057 -0.453,0.127 -0.671,0.21 -0.217,0.083 -0.412,0.191 -0.585,0.323 -0.171,0.132 -0.31,0.296 -0.417,0.494 -0.105,0.198 -0.158,0.437 -0.158,0.718 0,0.315 0.067,0.589 0.201,0.821 0.135,0.233 0.311,0.427 0.53,0.581 0.216,0.155 0.465,0.27 0.739,0.344 0.274,0.075 0.55,0.111 0.825,0.111 0.321,0 0.629,-0.035 0.925,-0.107 0.296,-0.072 0.558,-0.188 0.787,-0.348 0.23,-0.16 0.411,-0.365 0.546,-0.615 0.135,-0.249 0.201,-0.552 0.201,-0.907 l -1.307,0 C 33.406,4.023 33.368,4.175 33.302,4.295 33.236,4.416 33.148,4.51 33.039,4.579 32.93,4.648 32.806,4.697 32.666,4.726 32.525,4.754 32.372,4.769 32.206,4.769 32.096,4.769 31.988,4.757 31.878,4.734 31.77,4.711 31.67,4.671 31.582,4.613 31.493,4.556 31.419,4.485 31.363,4.399 31.305,4.313 31.277,4.204 31.277,4.072 c 0,-0.12 0.023,-0.218 0.068,-0.292 0.047,-0.075 0.137,-0.144 0.272,-0.206 0.134,-0.064 0.32,-0.127 0.558,-0.19 0.239,-0.063 0.549,-0.143 0.934,-0.24 0.114,-0.023 0.273,-0.065 0.476,-0.125 0.204,-0.061 0.407,-0.157 0.607,-0.288 0.2,-0.132 0.374,-0.309 0.52,-0.529 0.147,-0.222 0.219,-0.504 0.219,-0.848 0,-0.28 -0.055,-0.541 -0.163,-0.782 C 34.66,0.331 34.498,0.124 34.283,-0.051 34.068,-0.227 33.8,-0.363 33.482,-0.46 c -0.317,-0.098 -0.686,-0.146 -1.105,-0.146 -0.338,0 -0.667,0.042 -0.984,0.125 -0.318,0.083 -0.6,0.213 -0.843,0.391 -0.244,0.177 -0.437,0.404 -0.58,0.679 -0.143,0.275 -0.213,0.602 -0.207,0.98 l 1.307,0 c 0,-0.206 0.037,-0.381 0.112,-0.524 m 6.277,-1.514 -1.351,0 0,6.14 1.351,0 0,-6.14 z m 1.083,5.006 0,1.134 5.032,0 0,-1.134 -1.84,0 0,-5.006 -1.351,0 0,5.006 -1.841,0 z m 7.628,1.822 -1.161,0 0,1.006 1.161,0 0,-1.006 z m 1.772,0 -1.161,0 0,1.006 1.161,0 0,-1.006 z m -0.679,-4.454 -0.774,2.253 -0.017,0 -0.801,-2.253 1.592,0 z m -0.078,3.766 2.297,-6.14 -1.402,0 -0.464,1.368 -2.296,0 -0.483,-1.368 -1.358,0 2.322,6.14 1.384,0 z m 2.168,-1.134 0,1.134 5.03,0 0,-1.134 -1.841,0 0,-5.006 -1.349,0 0,5.006 -1.84,0 z"
             id="path34"
             style="fill:#002855;fill-opacity:1;fill-rule:nonzero;stroke:none" /></g><g
           transform="translate(408.4487,314.2212)"
           id="g36"><path
             d="m 0,0 0,-1.135 -2.967,0 0,-1.419 2.571,0 0,-1.049 -2.571,0 0,-2.537 -1.35,0 0,6.14 L 0,0 z m 3.926,-2.778 c 0.309,0 0.542,0.069 0.697,0.207 0.155,0.137 0.232,0.361 0.232,0.67 0,0.298 -0.077,0.515 -0.232,0.65 -0.155,0.134 -0.388,0.202 -0.697,0.202 l -1.479,0 0,-1.729 1.479,0 z M 4.408,0 C 4.683,0 4.931,-0.044 5.151,-0.133 5.373,-0.222 5.562,-0.344 5.719,-0.499 5.877,-0.654 5.997,-0.833 6.08,-1.036 6.164,-1.24 6.205,-1.459 6.205,-1.694 6.205,-2.056 6.129,-2.368 5.977,-2.631 5.825,-2.895 5.577,-3.096 5.233,-3.233 l 0,-0.017 C 5.4,-3.296 5.537,-3.367 5.646,-3.461 5.755,-3.556 5.844,-3.667 5.913,-3.797 5.981,-3.926 6.032,-4.068 6.063,-4.223 6.095,-4.377 6.116,-4.532 6.127,-4.687 6.133,-4.784 6.139,-4.899 6.145,-5.031 6.151,-5.163 6.16,-5.297 6.175,-5.435 6.189,-5.573 6.212,-5.703 6.244,-5.827 6.275,-5.95 6.323,-6.054 6.385,-6.14 l -1.349,0 c -0.075,0.195 -0.121,0.427 -0.138,0.697 -0.017,0.269 -0.043,0.526 -0.078,0.774 -0.046,0.32 -0.143,0.555 -0.292,0.705 -0.149,0.149 -0.392,0.223 -0.731,0.223 l -1.35,0 0,-2.399 -1.35,0 0,6.14 3.311,0 z m 4.637,-6.14 -1.35,0 0,6.14 1.35,0 0,-6.14 z m 6.141,6.14 0,-1.135 -3.242,0 0,-1.316 2.974,0 0,-1.049 -2.974,0 0,-1.505 3.31,0 0,-1.135 -4.661,0 0,6.14 4.593,0 z m 3.876,-5.005 c 0.194,0 0.384,0.031 0.567,0.094 0.184,0.063 0.347,0.168 0.491,0.315 0.143,0.145 0.257,0.336 0.343,0.572 0.086,0.234 0.129,0.521 0.129,0.859 0,0.31 -0.029,0.589 -0.09,0.839 -0.06,0.249 -0.159,0.463 -0.296,0.64 -0.138,0.178 -0.321,0.314 -0.546,0.409 -0.227,0.094 -0.506,0.142 -0.839,0.142 l -0.963,0 0,-3.87 1.204,0 z M 19.157,0 c 0.394,0 0.763,-0.063 1.105,-0.189 0.34,-0.126 0.636,-0.315 0.885,-0.568 0.25,-0.252 0.444,-0.567 0.585,-0.946 0.141,-0.378 0.21,-0.823 0.21,-1.333 0,-0.447 -0.057,-0.86 -0.171,-1.238 -0.115,-0.379 -0.288,-0.705 -0.521,-0.98 -0.232,-0.275 -0.521,-0.492 -0.869,-0.649 -0.345,-0.159 -0.755,-0.237 -1.224,-0.237 l -2.649,0 0,6.14 2.649,0 z m 6.711,-2.778 c 0.308,0 0.542,0.069 0.697,0.207 0.154,0.137 0.231,0.361 0.231,0.67 0,0.298 -0.077,0.515 -0.231,0.65 -0.155,0.134 -0.389,0.202 -0.697,0.202 l -1.48,0 0,-1.729 1.48,0 z M 26.349,0 c 0.275,0 0.523,-0.044 0.744,-0.133 0.221,-0.089 0.409,-0.211 0.568,-0.366 0.157,-0.155 0.277,-0.334 0.361,-0.537 0.083,-0.204 0.125,-0.423 0.125,-0.658 0,-0.362 -0.076,-0.674 -0.229,-0.937 -0.152,-0.264 -0.4,-0.465 -0.744,-0.602 l 0,-0.017 c 0.166,-0.046 0.305,-0.117 0.413,-0.211 0.109,-0.095 0.199,-0.206 0.267,-0.336 0.068,-0.129 0.119,-0.271 0.15,-0.426 0.032,-0.154 0.053,-0.309 0.065,-0.464 0.006,-0.097 0.012,-0.212 0.017,-0.344 0.006,-0.132 0.016,-0.266 0.03,-0.404 0.014,-0.138 0.038,-0.268 0.069,-0.392 0.031,-0.123 0.079,-0.227 0.142,-0.313 l -1.35,0 c -0.074,0.195 -0.121,0.427 -0.138,0.697 -0.016,0.269 -0.043,0.526 -0.077,0.774 -0.047,0.32 -0.143,0.555 -0.293,0.705 -0.148,0.149 -0.392,0.223 -0.73,0.223 l -1.351,0 0,-2.399 -1.349,0 0,6.14 3.31,0 z m 4.509,-6.14 -1.351,0 0,6.14 1.351,0 0,-6.14 z m 5.391,4.502 c -0.082,0.129 -0.182,0.242 -0.302,0.339 -0.12,0.097 -0.257,0.174 -0.409,0.228 -0.151,0.055 -0.311,0.082 -0.477,0.082 -0.304,0 -0.561,-0.059 -0.773,-0.177 -0.213,-0.117 -0.385,-0.275 -0.516,-0.472 -0.133,-0.198 -0.229,-0.424 -0.289,-0.675 -0.061,-0.253 -0.09,-0.514 -0.09,-0.783 0,-0.258 0.029,-0.508 0.09,-0.753 0.06,-0.243 0.156,-0.463 0.289,-0.657 0.131,-0.195 0.303,-0.351 0.516,-0.469 0.212,-0.118 0.469,-0.176 0.773,-0.176 0.413,0 0.735,0.126 0.968,0.378 0.232,0.252 0.374,0.585 0.426,0.998 l 1.307,0 c -0.035,-0.385 -0.124,-0.731 -0.267,-1.041 -0.143,-0.309 -0.332,-0.573 -0.568,-0.791 -0.235,-0.218 -0.51,-0.384 -0.825,-0.498 -0.315,-0.116 -0.662,-0.173 -1.041,-0.173 -0.47,0 -0.893,0.082 -1.268,0.245 -0.376,0.164 -0.693,0.388 -0.951,0.675 -0.258,0.287 -0.455,0.624 -0.593,1.011 -0.137,0.387 -0.206,0.804 -0.206,1.251 0,0.459 0.069,0.885 0.206,1.277 0.138,0.393 0.335,0.736 0.593,1.028 0.258,0.292 0.575,0.521 0.951,0.687 0.375,0.167 0.798,0.25 1.268,0.25 0.338,0 0.658,-0.048 0.959,-0.146 0.301,-0.098 0.57,-0.239 0.809,-0.426 0.238,-0.186 0.433,-0.417 0.588,-0.692 0.156,-0.275 0.253,-0.59 0.292,-0.946 l -1.306,0 c -0.024,0.155 -0.074,0.296 -0.154,0.426 m 4.1,1.638 0,-2.356 2.485,0 0,2.356 1.35,0 0,-6.14 -1.35,0 0,2.648 -2.485,0 0,-2.648 -1.35,0 0,6.14 1.35,0 z m 7.956,-4.317 -2.589,0 0,1.049 2.589,0 0,-1.049 z m 4.432,0.55 -0.774,2.253 -0.017,0 -0.801,-2.253 1.592,0 z M 52.659,0 l 2.297,-6.14 -1.403,0 -0.464,1.367 -2.296,0 -0.482,-1.367 -1.358,0 2.321,6.14 1.385,0 z m 4.578,0 0,-5.005 2.992,0 0,-1.135 -4.342,0 0,6.14 1.35,0 z m 8.664,0 0,-1.135 -3.242,0 0,-1.316 2.976,0 0,-1.049 -2.976,0 0,-1.505 3.311,0 0,-1.135 -4.661,0 0,6.14 4.592,0 z m 1.041,0 1.564,0 1.205,-1.961 1.247,1.961 1.479,0 -1.97,-2.933 2.142,-3.207 -1.609,0 -1.341,2.124 -1.367,-2.124 -1.514,0 2.141,3.216 L 66.942,0 z m 9.949,-3.767 -0.773,2.253 -0.018,0 -0.8,-2.253 1.591,0 z M 76.814,0 l 2.296,-6.14 -1.402,0 -0.464,1.367 -2.296,0 -0.482,-1.367 -1.358,0 2.322,6.14 1.384,0 z m 4.44,0 2.563,-4.119 0.017,0 0,4.119 1.264,0 0,-6.14 -1.35,0 -2.554,4.11 -0.018,0 0,-4.11 -1.263,0 0,6.14 1.341,0 z m 7.842,-5.005 c 0.196,0 0.385,0.031 0.569,0.094 0.183,0.063 0.346,0.168 0.49,0.315 0.142,0.145 0.258,0.336 0.344,0.572 0.085,0.234 0.128,0.521 0.128,0.859 0,0.31 -0.03,0.589 -0.089,0.839 -0.061,0.249 -0.161,0.463 -0.297,0.64 -0.139,0.178 -0.321,0.314 -0.547,0.409 -0.227,0.094 -0.506,0.142 -0.838,0.142 l -0.963,0 0,-3.87 1.203,0 z M 89.191,0 c 0.395,0 0.765,-0.063 1.105,-0.189 0.341,-0.126 0.637,-0.315 0.886,-0.568 0.25,-0.252 0.443,-0.567 0.584,-0.946 0.141,-0.378 0.211,-0.823 0.211,-1.333 0,-0.447 -0.057,-0.86 -0.172,-1.238 C 91.69,-4.653 91.518,-4.979 91.286,-5.254 91.053,-5.529 90.763,-5.746 90.417,-5.903 90.07,-6.062 89.661,-6.14 89.191,-6.14 l -2.649,0 0,6.14 2.649,0 z m 8.487,0 0,-1.135 -3.241,0 0,-1.316 2.976,0 0,-1.049 -2.976,0 0,-1.505 3.312,0 0,-1.135 -4.663,0 0,6.14 4.592,0 z m 4.11,-2.778 c 0.309,0 0.542,0.069 0.697,0.207 0.154,0.137 0.231,0.361 0.231,0.67 0,0.298 -0.077,0.515 -0.231,0.65 -0.155,0.134 -0.388,0.202 -0.697,0.202 l -1.48,0 0,-1.729 1.48,0 z M 102.269,0 c 0.275,0 0.523,-0.044 0.743,-0.133 0.222,-0.089 0.41,-0.211 0.569,-0.366 0.158,-0.155 0.277,-0.334 0.361,-0.537 0.083,-0.204 0.125,-0.423 0.125,-0.658 0,-0.362 -0.076,-0.674 -0.229,-0.937 -0.152,-0.264 -0.399,-0.465 -0.744,-0.602 l 0,-0.017 c 0.167,-0.046 0.305,-0.117 0.413,-0.211 0.109,-0.095 0.199,-0.206 0.267,-0.336 0.068,-0.129 0.119,-0.271 0.15,-0.426 0.032,-0.154 0.053,-0.309 0.065,-0.464 0.006,-0.097 0.011,-0.212 0.017,-0.344 0.006,-0.132 0.016,-0.266 0.03,-0.404 0.014,-0.138 0.038,-0.268 0.07,-0.392 0.031,-0.123 0.078,-0.227 0.141,-0.313 l -1.35,0 c -0.074,0.195 -0.121,0.427 -0.138,0.697 -0.016,0.269 -0.043,0.526 -0.077,0.774 -0.046,0.32 -0.143,0.555 -0.293,0.705 -0.148,0.149 -0.392,0.223 -0.73,0.223 l -1.351,0 0,-2.399 -1.35,0 0,6.14 3.311,0 z"
             id="path38"
             style="fill:#002855;fill-opacity:1;fill-rule:nonzero;stroke:none" /></g><g
           transform="translate(390.6787,292.3018)"
           id="g40"><path
             d="m 0,0 -25.604,0 c 1.574,-1.283 3.394,-2.247 5.322,-2.916 l 14.946,0 C -3.402,-2.247 -1.577,-1.283 0,0"
             id="path42"
             style="fill:#002855;fill-opacity:1;fill-rule:nonzero;stroke:none" /></g><g
           transform="translate(320.1934,293.7646)"
           id="g44"><path
             d="m 0,0 11.097,0 0.018,0.053 -0.031,0 0.919,2.863 -10.899,0 L 0,0 z"
             id="path46"
             style="fill:#002855;fill-opacity:1;fill-rule:nonzero;stroke:none" /></g><g
           transform="translate(319.6851,292.3018)"
           id="g48"><path
             d="m 0,0 -1.105,-2.916 11.305,0 L 11.164,0 0,0 z"
             id="path50"
             style="fill:#002855;fill-opacity:1;fill-rule:nonzero;stroke:none" /></g><path
           d="m 296,289.386 10.596,0 0,2.916 -10.596,0 0,-2.916 z"
           id="path52"
           style="fill:#002855;fill-opacity:1;fill-rule:nonzero;stroke:none" /><path
           d="m 306.596,296.681 -10.596,0 0,-2.916 10.596,0 0,2.916 z"
           id="path54"
           style="fill:#002855;fill-opacity:1;fill-rule:nonzero;stroke:none" /><path
           d="m 306.596,301.056 -10.596,0 0,-2.917 10.596,0 0,2.917 z"
           id="path56"
           style="fill:#002855;fill-opacity:1;fill-rule:nonzero;stroke:none" /><path
           d="m 306.596,305.43 -10.596,0 0,-2.916 10.596,0 0,2.916 z"
           id="path58"
           style="fill:#002855;fill-opacity:1;fill-rule:nonzero;stroke:none" /><path
           d="m 306.596,318.562 -10.596,0 0,-2.916 10.596,0 0,2.916 z"
           id="path60"
           style="fill:#002855;fill-opacity:1;fill-rule:nonzero;stroke:none" /><path
           d="m 306.596,322.945 -10.596,0 0,-2.917 10.596,0 0,2.917 z"
           id="path62"
           style="fill:#002855;fill-opacity:1;fill-rule:nonzero;stroke:none" /><path
           d="m 296,328.778 32.383,0 0,2.917 -32.383,0 0,-2.917 z"
           id="path64"
           style="fill:#002855;fill-opacity:1;fill-rule:nonzero;stroke:none" /><path
           d="m 296,324.403 32.383,0 0,2.917 -32.383,0 0,-2.917 z"
           id="path66"
           style="fill:#002855;fill-opacity:1;fill-rule:nonzero;stroke:none" /><g
           transform="translate(338.9219,318.562)"
           id="g68"><path
             d="m 0,0 -9.556,0 -1.105,-2.916 9.764,0 L 0,0 z"
             id="path70"
             style="fill:#002855;fill-opacity:1;fill-rule:nonzero;stroke:none" /></g><g
           transform="translate(333.1016,328.7778)"
           id="g72"><path
             d="M 0,0 13.19,0 12.059,2.917 1.105,2.917 0,0 z"
             id="path74"
             style="fill:#002855;fill-opacity:1;fill-rule:nonzero;stroke:none" /></g><g
           transform="translate(331.4883,324.4028)"
           id="g76"><path
             d="M 0,0 16.453,0 15.322,2.917 1.105,2.917 0,0 z"
             id="path78"
             style="fill:#002855;fill-opacity:1;fill-rule:nonzero;stroke:none" /></g><g
           transform="translate(340.2725,320.0205)"
           id="g80"><path
             d="m 0,0 9.32,0 -1.132,2.917 -17.48,0 -1.106,-2.917 9.459,0 0.41,1.337 0.118,0 L 0,0 z"
             id="path82"
             style="fill:#002855;fill-opacity:1;fill-rule:nonzero;stroke:none" /></g><g
           transform="translate(341.5806,315.6455)"
           id="g84"><path
             d="m 0,0 9.662,0 -1.131,2.917 -9.427,0 L 0,0 z"
             id="path86"
             style="fill:#002855;fill-opacity:1;fill-rule:nonzero;stroke:none" /></g><g
           transform="translate(342.8877,311.2759)"
           id="g88"><path
             d="m 0,0 10.005,0 -1.131,2.916 -9.77,0 L 0,0 z"
             id="path90"
             style="fill:#ad841f;fill-opacity:1;fill-rule:nonzero;stroke:none" /></g><g
           transform="translate(344.1953,306.9019)"
           id="g92"><path
             d="M 0,0 10.348,0 9.217,2.916 -0.896,2.916 0,0 z"
             id="path94"
             style="fill:#ad841f;fill-opacity:1;fill-rule:nonzero;stroke:none" /></g><g
           transform="translate(323.4199,302.5137)"
           id="g96"><path
             d="M 0,0 32.774,0 31.643,2.916 1.106,2.916 0,0 z"
             id="path98"
             style="fill:#002855;fill-opacity:1;fill-rule:nonzero;stroke:none" /></g><g
           transform="translate(321.8066,298.1387)"
           id="g100"><path
             d="M 0,0 36.037,0 34.906,2.917 1.105,2.917 0,0 z"
             id="path102"
             style="fill:#002855;fill-opacity:1;fill-rule:nonzero;stroke:none" /></g><g
           transform="translate(348.4063,293.7646)"
           id="g104"><path
             d="M 0,0 11.089,0 9.958,2.916 -0.977,2.916 0,0 z"
             id="path106"
             style="fill:#002855;fill-opacity:1;fill-rule:nonzero;stroke:none" /></g><g
           transform="translate(348.8169,292.3018)"
           id="g108"><path
             d="m 0,0 0.962,-2.916 11.365,0 L 11.197,0 0,0 z"
             id="path110"
             style="fill:#002855;fill-opacity:1;fill-rule:nonzero;stroke:none" /></g><path
           d="m 359.933,328.778 10.595,0 0,2.917 -10.595,0 0,-2.917 z"
           id="path112"
           style="fill:#002855;fill-opacity:1;fill-rule:nonzero;stroke:none" /><path
           d="m 359.933,324.403 10.595,0 0,2.917 -10.595,0 0,-2.917 z"
           id="path114"
           style="fill:#002855;fill-opacity:1;fill-rule:nonzero;stroke:none" /><path
           d="m 359.933,320.021 10.595,0 0,2.917 -10.595,0 0,-2.917 z"
           id="path116"
           style="fill:#002855;fill-opacity:1;fill-rule:nonzero;stroke:none" /><path
           d="m 359.933,315.646 10.595,0 0,2.917 -10.595,0 0,-2.917 z"
           id="path118"
           style="fill:#002855;fill-opacity:1;fill-rule:nonzero;stroke:none" /><path
           d="m 359.933,311.276 10.595,0 0,2.916 -10.595,0 0,-2.916 z"
           id="path120"
           style="fill:#ad841f;fill-opacity:1;fill-rule:nonzero;stroke:none" /><path
           d="m 359.933,306.902 10.595,0 0,2.916 -10.595,0 0,-2.916 z"
           id="path122"
           style="fill:#ad841f;fill-opacity:1;fill-rule:nonzero;stroke:none" /><g
           transform="translate(360.0171,302.5137)"
           id="g124"><path
             d="M 0,0 10.709,0 C 10.575,0.755 10.51,1.562 10.51,2.411 l 0,0.505 -10.594,0 0,-1.374 C -0.084,1.006 -0.043,0.503 0,0"
             id="path126"
             style="fill:#002855;fill-opacity:1;fill-rule:nonzero;stroke:none" /></g><g
           transform="translate(360.9644,298.1387)"
           id="g128"><path
             d="m 0,0 12.084,0 c -0.94,0.734 -1.58,1.731 -1.98,2.917 l -10.877,0 C -0.6,1.877 -0.348,0.896 0,0"
             id="path130"
             style="fill:#002855;fill-opacity:1;fill-rule:nonzero;stroke:none" /></g><g
           transform="translate(394.1938,296.6807)"
           id="g132"><path
             d="m 0,0 -32.629,0 c 0.569,-1.09 1.271,-2.057 2.068,-2.916 l 28.491,0 C -1.271,-2.057 -0.568,-1.09 0,0"
             id="path134"
             style="fill:#002855;fill-opacity:1;fill-rule:nonzero;stroke:none" /></g><g
           transform="translate(395.5698,301.0552)"
           id="g136"><path
             d="m 0,0 -10.88,0 c -0.401,-1.186 -1.046,-2.183 -1.992,-2.917 l 12.097,0 C -0.426,-2.02 -0.176,-1.04 0,0"
             id="path138"
             style="fill:#002855;fill-opacity:1;fill-rule:nonzero;stroke:none" /></g><path
           d="m 385.231,328.778 10.596,0 0,2.917 -10.596,0 0,-2.917 z"
           id="path140"
           style="fill:#002855;fill-opacity:1;fill-rule:nonzero;stroke:none" /><path
           d="m 385.231,324.403 10.596,0 0,2.917 -10.596,0 0,-2.917 z"
           id="path142"
           style="fill:#002855;fill-opacity:1;fill-rule:nonzero;stroke:none" /><path
           d="m 385.231,320.021 10.596,0 0,2.917 -10.596,0 0,-2.917 z"
           id="path144"
           style="fill:#002855;fill-opacity:1;fill-rule:nonzero;stroke:none" /><path
           d="m 385.231,315.646 10.596,0 0,2.917 -10.596,0 0,-2.917 z"
           id="path146"
           style="fill:#002855;fill-opacity:1;fill-rule:nonzero;stroke:none" /><path
           d="m 385.231,311.276 10.596,0 0,2.916 -10.596,0 0,-2.916 z"
           id="path148"
           style="fill:#ad841f;fill-opacity:1;fill-rule:nonzero;stroke:none" /><path
           d="m 385.231,306.902 10.596,0 0,2.916 -10.596,0 0,-2.916 z"
           id="path150"
           style="fill:#ad841f;fill-opacity:1;fill-rule:nonzero;stroke:none" /><g
           transform="translate(395.8276,304.0557)"
           id="g152"><path
             d="m 0,0 0,1.374 -10.596,0 0,-0.505 c 0,-0.849 -0.064,-1.656 -0.198,-2.411 l 10.709,0 C -0.043,-1.039 0,-0.536 0,0"
             id="path154"
             style="fill:#002855;fill-opacity:1;fill-rule:nonzero;stroke:none" /></g><g
           transform="translate(296,309.8184)"
           id="g156"><path
             d="m 0,0 0,-2.916 39.411,0 L 40.306,0 0,0 z"
             id="path158"
             style="fill:#ad841f;fill-opacity:1;fill-rule:nonzero;stroke:none" /></g><g
           transform="translate(296,314.1924)"
           id="g160"><path
             d="m 0,0 0,-2.916 40.718,0 L 41.613,0 0,0 z"
             id="path162"
             style="fill:#ad841f;fill-opacity:1;fill-rule:nonzero;stroke:none" /></g></g></g></g></svg>