<?xml version="1.0" encoding="UTF-8" standalone="no"?>
<!-- Created with Inkscape (http://www.inkscape.org/) -->

<svg
   xmlns:dc="http://purl.org/dc/elements/1.1/"
   xmlns:cc="http://creativecommons.org/ns#"
   xmlns:rdf="http://www.w3.org/1999/02/22-rdf-syntax-ns#"
   xmlns:svg="http://www.w3.org/2000/svg"
   xmlns="http://www.w3.org/2000/svg"
   version="1.1"
   width="313.89813"
   height="85.039749"
   id="svg2"
   xml:space="preserve"><metadata
     id="metadata8"><rdf:RDF><cc:Work
         rdf:about=""><dc:format>image/svg+xml</dc:format><dc:type
           rdf:resource="http://purl.org/dc/dcmitype/StillImage" /><dc:title></dc:title></cc:Work></rdf:RDF></metadata><defs
     id="defs6"><clipPath
       id="clipPath16"><path
         d="m 0,595.28 841.89,0 L 841.89,0 0,0 0,595.28 z"
         id="path18" /></clipPath></defs><g
     transform="matrix(1.25,0,0,-1.25,-370,414.6625)"
     id="g10"><g
       id="g12"><g
         clip-path="url(#clipPath16)"
         id="g14"><g
           transform="translate(420.75,269.6572)"
           id="g20"><path
             d="m 0,0 0,1.316 5.83,0 0,-1.316 -2.133,0 0,-5.799 -1.564,0 L 2.133,0 0,0 z m 12.379,1.316 0,-1.316 -3.757,0 0,-1.525 3.448,0 0,-1.215 -3.448,0 0,-1.744 3.837,0 0,-1.315 -5.401,0 0,7.115 5.321,0 z m 5.958,-1.899 c -0.093,0.149 -0.21,0.281 -0.349,0.394 -0.14,0.113 -0.298,0.201 -0.474,0.264 -0.176,0.063 -0.36,0.095 -0.553,0.095 -0.352,0 -0.65,-0.068 -0.897,-0.205 -0.246,-0.135 -0.445,-0.319 -0.597,-0.548 -0.154,-0.23 -0.265,-0.489 -0.334,-0.782 -0.07,-0.292 -0.105,-0.594 -0.105,-0.906 0,-0.299 0.035,-0.59 0.105,-0.873 0.069,-0.282 0.18,-0.537 0.334,-0.762 0.152,-0.227 0.351,-0.407 0.597,-0.543 0.247,-0.137 0.545,-0.205 0.897,-0.205 0.478,0 0.852,0.146 1.121,0.439 0.27,0.292 0.435,0.677 0.494,1.155 l 1.515,0 c -0.04,-0.444 -0.144,-0.846 -0.31,-1.205 -0.166,-0.358 -0.385,-0.664 -0.658,-0.917 -0.271,-0.252 -0.591,-0.445 -0.955,-0.578 -0.366,-0.133 -0.768,-0.199 -1.207,-0.199 -0.544,0 -1.035,0.095 -1.469,0.283 -0.435,0.191 -0.803,0.451 -1.101,0.783 -0.299,0.332 -0.53,0.723 -0.688,1.17 -0.16,0.45 -0.24,0.934 -0.24,1.452 0,0.531 0.08,1.024 0.24,1.479 0.158,0.456 0.389,0.853 0.688,1.19 0.298,0.34 0.666,0.606 1.101,0.799 0.434,0.192 0.925,0.287 1.469,0.287 0.393,0 0.764,-0.056 1.111,-0.168 0.35,-0.113 0.661,-0.278 0.937,-0.494 0.276,-0.216 0.504,-0.482 0.682,-0.802 0.18,-0.319 0.293,-0.684 0.34,-1.096 l -1.514,0 c -0.027,0.18 -0.087,0.344 -0.18,0.493 m 4.702,1.899 0,-2.731 2.881,0 0,2.731 1.563,0 0,-7.115 -1.563,0 0,3.069 -2.881,0 0,-3.069 -1.564,0 0,7.115 1.564,0 z m 7.795,0 2.969,-4.773 0.02,0 0,4.773 1.464,0 0,-7.115 -1.563,0 -2.96,4.763 -0.02,0 0,-4.763 -1.465,0 0,7.115 1.555,0 z m 7.862,-7.115 -1.564,0 0,7.115 1.564,0 0,-7.115 z m 2.936,1.753 c 0.087,-0.166 0.201,-0.301 0.345,-0.403 0.141,-0.104 0.31,-0.18 0.502,-0.23 0.193,-0.05 0.392,-0.075 0.597,-0.075 0.141,0 0.289,0.013 0.449,0.035 0.16,0.024 0.309,0.069 0.449,0.135 0.139,0.066 0.255,0.158 0.348,0.274 0.094,0.117 0.14,0.264 0.14,0.443 0,0.193 -0.062,0.349 -0.185,0.469 -0.123,0.12 -0.283,0.219 -0.482,0.299 -0.2,0.079 -0.426,0.15 -0.678,0.208 -0.253,0.061 -0.509,0.127 -0.767,0.202 -0.266,0.066 -0.526,0.146 -0.778,0.243 -0.253,0.096 -0.478,0.22 -0.677,0.374 -0.2,0.152 -0.361,0.343 -0.484,0.573 -0.123,0.228 -0.184,0.506 -0.184,0.831 0,0.366 0.078,0.684 0.234,0.951 0.156,0.271 0.36,0.494 0.613,0.674 0.252,0.18 0.537,0.313 0.857,0.398 0.319,0.087 0.637,0.129 0.956,0.129 0.373,0 0.73,-0.041 1.072,-0.123 0.342,-0.084 0.646,-0.218 0.912,-0.404 0.266,-0.186 0.477,-0.424 0.633,-0.713 0.155,-0.289 0.234,-0.639 0.234,-1.051 l -1.515,0 c -0.014,0.213 -0.059,0.389 -0.135,0.529 C 44.012,-0.139 43.91,-0.03 43.784,0.051 43.658,0.13 43.514,0.186 43.352,0.22 43.188,0.253 43.011,0.27 42.818,0.27 42.691,0.27 42.565,0.256 42.439,0.229 42.313,0.203 42.198,0.156 42.096,0.09 41.992,0.023 41.908,-0.06 41.841,-0.159 c -0.066,-0.099 -0.099,-0.226 -0.099,-0.379 0,-0.14 0.026,-0.253 0.079,-0.339 0.054,-0.086 0.158,-0.166 0.314,-0.238 0.156,-0.074 0.373,-0.147 0.648,-0.219 0.276,-0.074 0.636,-0.166 1.081,-0.28 0.132,-0.027 0.318,-0.075 0.553,-0.144 0.235,-0.07 0.47,-0.181 0.702,-0.334 0.234,-0.154 0.435,-0.357 0.604,-0.613 0.17,-0.256 0.254,-0.583 0.254,-0.982 0,-0.326 -0.063,-0.627 -0.19,-0.907 -0.126,-0.279 -0.313,-0.519 -0.562,-0.722 -0.25,-0.204 -0.558,-0.362 -0.927,-0.473 -0.368,-0.113 -0.796,-0.17 -1.28,-0.17 -0.393,0 -0.774,0.049 -1.142,0.145 -0.368,0.096 -0.694,0.247 -0.977,0.453 -0.282,0.207 -0.506,0.468 -0.672,0.788 -0.166,0.318 -0.247,0.697 -0.239,1.135 l 1.514,0 c 0,-0.24 0.043,-0.441 0.13,-0.608 m 10.247,3.463 c -0.094,0.149 -0.21,0.281 -0.35,0.394 -0.138,0.113 -0.297,0.201 -0.472,0.264 C 50.88,0.138 50.695,0.17 50.504,0.17 50.15,0.17 49.852,0.102 49.606,-0.035 49.36,-0.17 49.161,-0.354 49.008,-0.583 48.855,-0.813 48.744,-1.072 48.675,-1.365 48.604,-1.657 48.57,-1.959 48.57,-2.271 c 0,-0.299 0.034,-0.59 0.105,-0.873 0.069,-0.282 0.18,-0.537 0.333,-0.762 0.153,-0.227 0.352,-0.407 0.598,-0.543 0.246,-0.137 0.544,-0.205 0.898,-0.205 0.478,0 0.851,0.146 1.121,0.439 0.268,0.292 0.433,0.677 0.492,1.155 l 1.516,0 c -0.041,-0.444 -0.143,-0.846 -0.31,-1.205 -0.166,-0.358 -0.385,-0.664 -0.657,-0.917 -0.273,-0.252 -0.592,-0.445 -0.957,-0.578 -0.365,-0.133 -0.768,-0.199 -1.205,-0.199 -0.545,0 -1.035,0.095 -1.471,0.283 -0.435,0.191 -0.802,0.451 -1.101,0.783 -0.299,0.332 -0.528,0.723 -0.688,1.17 -0.159,0.45 -0.239,0.934 -0.239,1.452 0,0.531 0.08,1.024 0.239,1.479 0.16,0.456 0.389,0.853 0.688,1.19 0.299,0.34 0.666,0.606 1.101,0.799 0.436,0.192 0.926,0.287 1.471,0.287 0.391,0 0.762,-0.056 1.11,-0.168 0.349,-0.113 0.661,-0.278 0.937,-0.494 0.276,-0.216 0.504,-0.482 0.683,-0.802 0.179,-0.319 0.292,-0.684 0.338,-1.096 l -1.514,0 c -0.027,0.18 -0.087,0.344 -0.179,0.493 m 4.752,1.899 0,-2.731 2.88,0 0,2.731 1.565,0 0,-7.115 -1.565,0 0,3.069 -2.88,0 0,-3.069 -1.565,0 0,7.115 1.565,0 z m 11.512,0 0,-1.316 -3.758,0 0,-1.525 3.448,0 0,-1.215 -3.448,0 0,-1.744 3.838,0 0,-1.315 -5.403,0 0,7.115 5.323,0 z m 9.346,0 0,-1.316 -3.437,0 0,-1.645 2.979,0 0,-1.214 -2.979,0 0,-2.94 -1.566,0 0,7.115 5.003,0 z m 4.374,-4.365 -0.897,2.611 -0.02,0 -0.926,-2.611 1.843,0 z m -0.09,4.365 2.661,-7.115 -1.623,0 -0.54,1.584 -2.66,0 -0.558,-1.584 -1.574,0 2.69,7.115 1.604,0 z m 5.305,0 0,-2.95 2.78,2.95 1.954,0 -2.781,-2.81 3.05,-4.305 -1.964,0 -2.142,3.199 -0.897,-0.908 0,-2.291 -1.564,0 0,7.115 1.564,0 z m 11.197,-6.573 c -0.539,-0.468 -1.282,-0.702 -2.232,-0.702 -0.963,0 -1.709,0.232 -2.237,0.697 -0.529,0.465 -0.792,1.184 -0.792,2.153 l 0,4.425 1.564,0 0,-4.425 c 0,-0.193 0.017,-0.382 0.05,-0.569 0.033,-0.185 0.102,-0.349 0.21,-0.492 0.105,-0.143 0.254,-0.259 0.443,-0.35 0.189,-0.089 0.444,-0.134 0.762,-0.134 0.559,0 0.943,0.125 1.156,0.374 0.213,0.249 0.319,0.639 0.319,1.171 l 0,4.425 1.564,0 0,-4.425 c 0,-0.963 -0.269,-1.679 -0.807,-2.148 m 4.079,6.573 0,-5.8 3.468,0 0,-1.315 -5.032,0 0,7.115 1.564,0 z m 3.21,-1.316 0,1.316 5.831,0 0,-1.316 -2.133,0 0,-5.799 -1.565,0 0,5.799 -2.133,0 z m 8.77,2.113 -1.346,0 0,1.166 1.346,0 0,-1.166 z m 2.053,0 -1.346,0 0,1.166 1.346,0 0,-1.166 z m -0.787,-5.162 -0.897,2.611 -0.02,0 -0.927,-2.611 1.844,0 z m -0.09,4.365 2.661,-7.115 -1.625,0 -0.538,1.584 -2.66,0 -0.559,-1.584 -1.574,0 2.69,7.115 1.605,0 z M 117.939,0 l 0,1.316 5.831,0 0,-1.316 -2.133,0 0,-5.799 -1.565,0 0,5.799 -2.133,0 z"
             id="path22"
             style="fill:#8a8d8f;fill-opacity:1;fill-rule:nonzero;stroke:none" /></g><g
           transform="translate(426.6299,289.8213)"
           id="g24"><path
             d="m 0,0 0,-1.314 -3.757,0 0,-1.526 3.447,0 0,-1.216 -3.447,0 0,-1.743 3.836,0 0,-1.315 -5.401,0 0,7.114 L 0,0 z m 4.812,-3.219 c 0.358,0 0.626,0.08 0.806,0.24 0.18,0.16 0.27,0.418 0.27,0.778 0,0.345 -0.09,0.596 -0.27,0.752 -0.18,0.156 -0.448,0.234 -0.806,0.234 l -1.714,0 0,-2.004 1.714,0 z M 5.37,0 C 5.688,0 5.976,-0.051 6.231,-0.154 6.487,-0.256 6.706,-0.398 6.89,-0.577 7.071,-0.756 7.212,-0.965 7.308,-1.2 7.403,-1.436 7.452,-1.69 7.452,-1.963 7.452,-2.381 7.364,-2.743 7.188,-3.049 7.013,-3.354 6.725,-3.587 6.326,-3.746 l 0,-0.02 c 0.193,-0.053 0.353,-0.134 0.478,-0.245 0.127,-0.11 0.23,-0.239 0.309,-0.387 0.079,-0.151 0.138,-0.315 0.175,-0.495 0.036,-0.178 0.061,-0.358 0.074,-0.537 0.007,-0.113 0.014,-0.247 0.02,-0.399 0.008,-0.153 0.019,-0.309 0.035,-0.468 0.018,-0.16 0.043,-0.31 0.08,-0.454 0.037,-0.144 0.092,-0.265 0.164,-0.363 l -1.564,0 c -0.086,0.225 -0.139,0.495 -0.159,0.807 -0.021,0.312 -0.05,0.61 -0.09,0.897 -0.053,0.372 -0.166,0.644 -0.339,0.817 -0.172,0.173 -0.455,0.259 -0.848,0.259 l -1.563,0 0,-2.78 -1.566,0 0,7.114 3.838,0 z m 5.061,0 0,-5.799 3.467,0 0,-1.315 -5.032,0 0,7.114 1.565,0 z m 8.5,-4.364 -0.897,2.611 -0.019,0 -0.927,-2.611 1.843,0 z M 18.842,0 l 2.66,-7.114 -1.624,0 -0.538,1.584 -2.661,0 -0.559,-1.584 -1.574,0 2.691,7.114 1.605,0 z m 5.102,0 2.969,-4.772 0.021,0 0,4.772 1.464,0 0,-7.114 -1.564,0 -2.96,4.762 -0.02,0 0,-4.762 -1.464,0 0,7.114 1.554,0 z m 10.285,-7.061 c -0.339,-0.142 -0.681,-0.212 -1.027,-0.212 -0.545,0 -1.035,0.093 -1.471,0.283 -0.434,0.189 -0.801,0.45 -1.1,0.782 -0.3,0.333 -0.528,0.724 -0.689,1.171 -0.158,0.449 -0.238,0.932 -0.238,1.45 0,0.531 0.08,1.025 0.238,1.481 0.161,0.455 0.389,0.852 0.689,1.19 0.299,0.339 0.666,0.604 1.1,0.797 0.436,0.193 0.926,0.289 1.471,0.289 0.365,0 0.719,-0.055 1.061,-0.164 0.341,-0.11 0.652,-0.271 0.927,-0.484 0.276,-0.212 0.502,-0.475 0.682,-0.787 0.18,-0.312 0.289,-0.671 0.329,-1.076 l -1.495,0 c -0.093,0.399 -0.271,0.697 -0.537,0.898 -0.266,0.198 -0.589,0.297 -0.967,0.297 -0.352,0 -0.651,-0.067 -0.897,-0.204 -0.245,-0.135 -0.446,-0.319 -0.598,-0.547 -0.153,-0.23 -0.265,-0.491 -0.334,-0.783 -0.069,-0.293 -0.104,-0.594 -0.104,-0.907 0,-0.3 0.035,-0.59 0.104,-0.872 0.069,-0.281 0.181,-0.536 0.334,-0.762 0.152,-0.226 0.353,-0.408 0.598,-0.543 0.246,-0.136 0.545,-0.205 0.897,-0.205 0.518,0 0.918,0.132 1.201,0.395 0.282,0.261 0.446,0.642 0.493,1.14 l -1.575,0 0,1.166 2.99,0 0,-3.846 -0.998,0 -0.158,0.807 c -0.279,-0.359 -0.588,-0.61 -0.926,-0.754 M 43.167,0 l 0,-1.314 -3.757,0 0,-1.526 3.448,0 0,-1.216 -3.448,0 0,-1.743 3.837,0 0,-1.315 -5.401,0 0,7.114 5.321,0 z m 3.187,0 2.969,-4.772 0.021,0 0,4.772 1.465,0 0,-7.114 -1.566,0 -2.959,4.762 -0.019,0 0,-4.762 -1.466,0 0,7.114 1.555,0 z m 9.229,-5.002 -2.999,0 0,1.217 2.999,0 0,-1.217 z M 58.937,0 l 2.969,-4.772 0.02,0 0,4.772 1.466,0 0,-7.114 -1.565,0 -2.961,4.762 -0.019,0 0,-4.762 -1.465,0 0,7.114 1.555,0 z m 8.847,0.799 -1.346,0 0,1.166 1.346,0 0,-1.166 z m 2.053,0 -1.346,0 0,1.166 1.346,0 0,-1.166 z m 0.528,-7.37 c -0.538,-0.469 -1.282,-0.702 -2.232,-0.702 -0.964,0 -1.71,0.231 -2.237,0.697 -0.529,0.465 -0.792,1.181 -0.792,2.152 l 0,4.424 1.563,0 0,-4.424 c 0,-0.192 0.018,-0.382 0.051,-0.568 0.033,-0.186 0.102,-0.351 0.209,-0.492 0.105,-0.145 0.254,-0.26 0.443,-0.35 0.19,-0.09 0.443,-0.135 0.763,-0.135 0.557,0 0.943,0.125 1.155,0.374 0.213,0.249 0.32,0.64 0.32,1.171 l 0,4.424 1.564,0 0,-4.424 c 0,-0.963 -0.269,-1.68 -0.807,-2.147 m 5.693,3.352 c 0.359,0 0.628,0.08 0.807,0.24 0.18,0.16 0.269,0.418 0.269,0.778 0,0.345 -0.089,0.596 -0.269,0.752 -0.179,0.156 -0.448,0.234 -0.807,0.234 l -1.714,0 0,-2.004 1.714,0 z M 76.616,0 c 0.319,0 0.607,-0.051 0.862,-0.154 0.256,-0.102 0.475,-0.244 0.658,-0.423 0.183,-0.179 0.322,-0.388 0.418,-0.623 0.097,-0.236 0.144,-0.49 0.144,-0.763 0,-0.418 -0.088,-0.78 -0.263,-1.086 -0.176,-0.305 -0.463,-0.538 -0.862,-0.697 l 0,-0.02 c 0.193,-0.053 0.352,-0.134 0.479,-0.245 0.126,-0.11 0.228,-0.239 0.308,-0.387 0.079,-0.151 0.138,-0.315 0.174,-0.495 0.037,-0.178 0.063,-0.358 0.075,-0.537 0.007,-0.113 0.013,-0.247 0.02,-0.399 0.007,-0.153 0.018,-0.309 0.035,-0.468 0.017,-0.16 0.044,-0.31 0.08,-0.454 0.036,-0.144 0.091,-0.265 0.164,-0.363 l -1.564,0 c -0.087,0.225 -0.14,0.495 -0.159,0.807 -0.021,0.312 -0.051,0.61 -0.09,0.897 -0.054,0.372 -0.166,0.644 -0.339,0.817 -0.173,0.173 -0.456,0.259 -0.848,0.259 l -1.564,0 0,-2.78 -1.565,0 0,7.114 3.837,0 z m 5.251,0 2.97,-4.772 0.019,0 0,4.772 1.465,0 0,-7.114 -1.564,0 -2.96,4.762 -0.021,0 0,-4.762 -1.463,0 0,7.114 1.554,0 z m 9.399,-2.879 c 0.278,0 0.507,0.066 0.686,0.199 0.18,0.133 0.27,0.348 0.27,0.648 0,0.166 -0.03,0.302 -0.09,0.408 -0.059,0.106 -0.139,0.189 -0.238,0.249 -0.1,0.061 -0.215,0.103 -0.344,0.125 -0.13,0.023 -0.265,0.035 -0.404,0.035 l -1.465,0 0,-1.664 1.585,0 z M 91.465,0 c 0.339,0 0.647,-0.029 0.927,-0.088 0.279,-0.06 0.517,-0.158 0.716,-0.295 0.2,-0.137 0.355,-0.317 0.464,-0.543 0.111,-0.226 0.165,-0.506 0.165,-0.838 0,-0.358 -0.082,-0.656 -0.244,-0.896 -0.163,-0.238 -0.404,-0.436 -0.722,-0.588 0.437,-0.126 0.765,-0.348 0.98,-0.662 0.217,-0.317 0.324,-0.696 0.324,-1.143 0,-0.357 -0.069,-0.668 -0.209,-0.929 -0.138,-0.264 -0.327,-0.479 -0.562,-0.645 -0.237,-0.166 -0.506,-0.289 -0.808,-0.368 -0.302,-0.079 -0.612,-0.119 -0.932,-0.119 l -3.448,0 0,7.114 3.349,0 z m -0.111,-5.898 c 0.154,0 0.299,0.015 0.44,0.044 0.139,0.03 0.262,0.08 0.369,0.149 0.106,0.07 0.191,0.165 0.254,0.285 0.062,0.119 0.094,0.272 0.094,0.458 0,0.366 -0.104,0.626 -0.309,0.782 -0.206,0.157 -0.478,0.235 -0.816,0.235 l -1.705,0 0,-1.953 1.673,0 z m 9.348,5.898 0,-1.314 -3.758,0 0,-1.526 3.449,0 0,-1.216 -3.449,0 0,-1.743 3.838,0 0,-1.315 -5.402,0 0,7.114 5.322,0 z m 4.91,-3.219 c 0.36,0 0.629,0.08 0.807,0.24 0.18,0.16 0.269,0.418 0.269,0.778 0,0.345 -0.089,0.596 -0.269,0.752 -0.178,0.156 -0.447,0.234 -0.807,0.234 l -1.713,0 0,-2.004 1.713,0 z M 106.171,0 c 0.318,0 0.605,-0.051 0.861,-0.154 0.256,-0.102 0.475,-0.244 0.658,-0.423 0.183,-0.179 0.323,-0.388 0.418,-0.623 0.097,-0.236 0.145,-0.49 0.145,-0.763 0,-0.418 -0.088,-0.78 -0.264,-1.086 -0.176,-0.305 -0.463,-0.538 -0.861,-0.697 l 0,-0.02 c 0.191,-0.053 0.351,-0.134 0.478,-0.245 0.125,-0.11 0.229,-0.239 0.309,-0.387 0.08,-0.151 0.137,-0.315 0.174,-0.495 0.037,-0.178 0.061,-0.358 0.075,-0.537 0.006,-0.113 0.013,-0.247 0.021,-0.399 0.005,-0.153 0.017,-0.309 0.034,-0.468 0.016,-0.16 0.043,-0.31 0.079,-0.454 0.037,-0.144 0.092,-0.265 0.165,-0.363 l -1.566,0 c -0.085,0.225 -0.138,0.495 -0.158,0.807 -0.02,0.312 -0.051,0.61 -0.09,0.897 -0.053,0.372 -0.166,0.644 -0.339,0.817 -0.172,0.173 -0.456,0.259 -0.847,0.259 l -1.564,0 0,-2.78 -1.565,0 0,7.114 3.837,0 z m 7.775,-7.061 c -0.338,-0.142 -0.681,-0.212 -1.026,-0.212 -0.545,0 -1.034,0.093 -1.47,0.283 -0.435,0.189 -0.803,0.45 -1.101,0.782 -0.299,0.333 -0.528,0.724 -0.688,1.171 -0.159,0.449 -0.238,0.932 -0.238,1.45 0,0.531 0.079,1.025 0.238,1.481 0.16,0.455 0.389,0.852 0.688,1.19 0.298,0.339 0.666,0.604 1.101,0.797 0.436,0.193 0.925,0.289 1.47,0.289 0.365,0 0.72,-0.055 1.061,-0.164 0.342,-0.11 0.651,-0.271 0.927,-0.484 0.277,-0.212 0.503,-0.475 0.683,-0.787 0.18,-0.312 0.289,-0.671 0.329,-1.076 l -1.495,0 c -0.093,0.399 -0.273,0.697 -0.538,0.898 -0.266,0.198 -0.588,0.297 -0.967,0.297 -0.353,0 -0.651,-0.067 -0.898,-0.204 -0.245,-0.135 -0.444,-0.319 -0.597,-0.547 -0.153,-0.23 -0.264,-0.491 -0.333,-0.783 -0.071,-0.293 -0.105,-0.594 -0.105,-0.907 0,-0.3 0.034,-0.59 0.105,-0.872 0.069,-0.281 0.18,-0.536 0.333,-0.762 0.153,-0.226 0.352,-0.408 0.597,-0.543 0.247,-0.136 0.545,-0.205 0.898,-0.205 0.518,0 0.919,0.132 1.201,0.395 0.282,0.261 0.446,0.642 0.493,1.14 l -1.574,0 0,1.166 2.989,0 0,-3.846 -0.996,0 -0.159,0.807 c -0.279,-0.359 -0.588,-0.61 -0.928,-0.754"
             id="path26"
             style="fill:#002855;fill-opacity:1;fill-rule:nonzero;stroke:none" /></g><g
           transform="translate(426.5908,294.0127)"
           id="g28"><path
             d="m 0,0 c -0.538,-0.469 -1.282,-0.703 -2.232,-0.703 -0.964,0 -1.71,0.232 -2.238,0.698 -0.528,0.465 -0.792,1.183 -0.792,2.152 l 0,4.425 1.564,0 0,-4.425 c 0,-0.192 0.017,-0.381 0.051,-0.568 0.033,-0.186 0.101,-0.35 0.209,-0.493 0.105,-0.143 0.253,-0.258 0.443,-0.348 0.189,-0.091 0.443,-0.135 0.763,-0.135 0.557,0 0.943,0.124 1.155,0.374 0.213,0.249 0.319,0.639 0.319,1.17 l 0,4.425 1.565,0 0,-4.425 C 0.807,1.184 0.538,0.468 0,0 m 4.126,6.572 2.969,-4.773 0.019,0 0,4.773 1.465,0 0,-7.115 -1.563,0 -2.96,4.763 -0.021,0 0,-4.763 -1.464,0 0,7.115 1.555,0 z m 7.762,-7.115 -1.564,0 0,7.115 1.564,0 0,-7.115 z m 3.431,0 -2.301,7.115 1.604,0 1.584,-5.002 0.021,0 1.604,5.002 1.614,0 -2.362,-7.115 -1.764,0 z m 10.604,7.115 0,-1.315 -3.758,0 0,-1.525 3.449,0 0,-1.216 -3.449,0 0,-1.745 3.838,0 0,-1.314 -5.402,0 0,7.115 5.322,0 z m 4.811,-3.218 c 0.359,0 0.628,0.079 0.807,0.238 0.179,0.16 0.27,0.419 0.27,0.778 0,0.345 -0.091,0.596 -0.27,0.753 -0.179,0.155 -0.448,0.233 -0.807,0.233 l -1.713,0 0,-2.002 1.713,0 z m 0.558,3.218 c 0.318,0 0.605,-0.051 0.862,-0.155 0.255,-0.103 0.475,-0.243 0.658,-0.422 0.182,-0.18 0.322,-0.388 0.418,-0.623 0.096,-0.236 0.145,-0.491 0.145,-0.763 0,-0.419 -0.089,-0.78 -0.265,-1.086 C 32.935,3.217 32.647,2.985 32.249,2.825 l 0,-0.02 C 32.441,2.752 32.601,2.671 32.728,2.561 32.853,2.451 32.956,2.322 33.036,2.173 33.116,2.023 33.174,1.859 33.21,1.679 33.247,1.5 33.272,1.32 33.285,1.141 33.292,1.028 33.299,0.895 33.306,0.742 33.312,0.59 33.323,0.434 33.34,0.273 c 0.016,-0.158 0.044,-0.31 0.08,-0.453 0.036,-0.142 0.091,-0.263 0.164,-0.363 l -1.564,0 c -0.087,0.227 -0.14,0.494 -0.16,0.807 -0.019,0.312 -0.049,0.611 -0.089,0.896 -0.054,0.373 -0.167,0.645 -0.339,0.819 -0.173,0.171 -0.455,0.257 -0.847,0.257 l -1.564,0 0,-2.779 -1.566,0 0,7.115 3.837,0 z m 4.844,-5.361 c 0.086,-0.166 0.201,-0.301 0.343,-0.403 0.143,-0.105 0.311,-0.18 0.503,-0.23 0.193,-0.05 0.392,-0.075 0.598,-0.075 0.14,0 0.289,0.011 0.448,0.034 0.16,0.024 0.309,0.068 0.45,0.136 0.138,0.066 0.254,0.157 0.347,0.272 0.094,0.118 0.141,0.266 0.141,0.445 0,0.192 -0.063,0.348 -0.186,0.469 -0.123,0.12 -0.283,0.219 -0.482,0.298 -0.199,0.079 -0.426,0.15 -0.678,0.21 -0.252,0.059 -0.508,0.126 -0.767,0.199 -0.266,0.067 -0.526,0.147 -0.778,0.244 -0.252,0.096 -0.478,0.221 -0.678,0.374 -0.199,0.153 -0.359,0.344 -0.482,0.573 -0.123,0.229 -0.185,0.507 -0.185,0.832 0,0.365 0.078,0.682 0.234,0.952 0.156,0.269 0.361,0.493 0.613,0.672 0.252,0.18 0.538,0.313 0.858,0.399 0.318,0.087 0.636,0.13 0.956,0.13 0.372,0 0.729,-0.042 1.071,-0.125 0.342,-0.083 0.646,-0.218 0.912,-0.404 0.266,-0.186 0.477,-0.422 0.633,-0.712 0.156,-0.289 0.234,-0.64 0.234,-1.051 l -1.515,0 c -0.013,0.212 -0.058,0.388 -0.134,0.528 -0.076,0.139 -0.179,0.249 -0.304,0.329 -0.127,0.079 -0.271,0.135 -0.434,0.17 -0.163,0.032 -0.34,0.049 -0.533,0.049 -0.127,0 -0.253,-0.013 -0.379,-0.04 C 36.816,5.459 36.701,5.413 36.599,5.347 36.495,5.28 36.411,5.197 36.345,5.098 c -0.067,-0.1 -0.1,-0.226 -0.1,-0.379 0,-0.14 0.026,-0.253 0.08,-0.339 0.053,-0.086 0.156,-0.166 0.314,-0.239 0.155,-0.074 0.372,-0.146 0.647,-0.22 0.276,-0.073 0.637,-0.166 1.082,-0.278 0.132,-0.027 0.317,-0.076 0.553,-0.145 0.234,-0.07 0.47,-0.181 0.702,-0.334 0.232,-0.153 0.434,-0.357 0.603,-0.613 0.17,-0.257 0.253,-0.582 0.253,-0.981 0,-0.326 -0.062,-0.629 -0.188,-0.908 -0.126,-0.278 -0.313,-0.519 -0.563,-0.723 -0.249,-0.202 -0.558,-0.36 -0.927,-0.472 -0.368,-0.113 -0.796,-0.17 -1.28,-0.17 -0.393,0 -0.773,0.049 -1.141,0.144 -0.369,0.096 -0.695,0.248 -0.977,0.454 -0.283,0.207 -0.507,0.468 -0.673,0.787 -0.166,0.32 -0.246,0.699 -0.239,1.136 l 1.515,0 c 0,-0.239 0.043,-0.441 0.13,-0.607 m 7.274,-1.754 -1.565,0 0,7.115 1.565,0 0,-7.115 z m 1.255,5.8 0,1.315 5.83,0 0,-1.315 -2.133,0 0,-5.8 -1.564,0 0,5.8 -2.133,0 z m 8.84,2.113 -1.346,0 0,1.167 1.346,0 0,-1.167 z m 2.053,0 -1.346,0 0,1.167 1.346,0 0,-1.167 z m -0.787,-5.163 -0.897,2.611 -0.02,0 -0.927,-2.611 1.844,0 z m -0.09,4.365 2.661,-7.115 -1.624,0 -0.539,1.584 -2.66,0 -0.559,-1.584 -1.574,0 2.691,7.115 1.604,0 z m 2.511,-1.315 0,1.315 5.83,0 0,-1.315 -2.132,0 0,-5.8 -1.566,0 0,5.8 -2.132,0 z"
             id="path30"
             style="fill:#002855;fill-opacity:1;fill-rule:nonzero;stroke:none" /></g><g
           transform="translate(426.3105,311.4805)"
           id="g32"><path
             d="m 0,0 0,-1.315 -3.438,0 0,-1.644 2.98,0 0,-1.216 -2.98,0 0,-2.94 -1.564,0 0,7.115 L 0,0 z m 4.551,-3.219 c 0.358,0 0.628,0.08 0.806,0.24 0.18,0.159 0.27,0.418 0.27,0.776 0,0.346 -0.09,0.597 -0.27,0.753 -0.178,0.157 -0.448,0.234 -0.806,0.234 l -1.715,0 0,-2.003 1.715,0 z M 5.108,0 c 0.32,0 0.607,-0.051 0.863,-0.155 0.256,-0.102 0.474,-0.243 0.658,-0.423 0.183,-0.179 0.322,-0.387 0.418,-0.623 0.097,-0.236 0.144,-0.49 0.144,-0.762 0,-0.419 -0.087,-0.781 -0.263,-1.086 C 6.751,-3.355 6.464,-3.587 6.065,-3.747 l 0,-0.02 C 6.258,-3.82 6.418,-3.901 6.543,-4.011 6.67,-4.121 6.773,-4.25 6.854,-4.4 6.933,-4.549 6.99,-4.714 7.027,-4.893 7.063,-5.072 7.088,-5.252 7.102,-5.431 7.108,-5.544 7.115,-5.677 7.121,-5.83 7.129,-5.983 7.14,-6.138 7.156,-6.298 7.173,-6.458 7.199,-6.608 7.236,-6.752 7.273,-6.895 7.328,-7.016 7.4,-7.115 l -1.564,0 C 5.75,-6.889 5.697,-6.62 5.677,-6.308 5.656,-5.996 5.627,-5.697 5.587,-5.411 5.533,-5.04 5.421,-4.767 5.248,-4.594 5.075,-4.421 4.793,-4.335 4.401,-4.335 l -1.565,0 0,-2.78 -1.565,0 0,7.115 3.837,0 z m 5.374,-7.115 -1.564,0 0,7.115 1.564,0 0,-7.115 z M 17.598,0 l 0,-1.315 -3.756,0 0,-1.525 3.447,0 0,-1.216 -3.447,0 0,-1.744 3.836,0 0,-1.315 -5.401,0 0,7.115 5.321,0 z m 4.493,-5.8 c 0.225,0 0.445,0.037 0.657,0.11 0.213,0.072 0.402,0.194 0.568,0.364 0.166,0.169 0.299,0.39 0.399,0.662 0.099,0.272 0.15,0.605 0.15,0.997 0,0.358 -0.035,0.683 -0.105,0.972 -0.071,0.288 -0.185,0.536 -0.344,0.742 -0.16,0.206 -0.371,0.364 -0.633,0.474 -0.262,0.109 -0.586,0.164 -0.971,0.164 l -1.117,0 0,-4.485 1.396,0 z M 22.199,0 c 0.459,0 0.887,-0.073 1.281,-0.219 0.396,-0.146 0.739,-0.365 1.027,-0.658 0.29,-0.292 0.514,-0.658 0.678,-1.096 0.163,-0.439 0.244,-0.954 0.244,-1.545 0,-0.518 -0.067,-0.997 -0.199,-1.435 -0.133,-0.439 -0.334,-0.817 -0.603,-1.136 -0.27,-0.318 -0.606,-0.569 -1.007,-0.752 -0.401,-0.183 -0.875,-0.274 -1.421,-0.274 l -3.068,0 0,7.115 3.068,0 z m 7.778,-3.219 c 0.359,0 0.628,0.08 0.808,0.24 0.179,0.159 0.268,0.418 0.268,0.776 0,0.346 -0.089,0.597 -0.268,0.753 -0.18,0.157 -0.449,0.234 -0.808,0.234 l -1.713,0 0,-2.003 1.713,0 z M 30.535,0 c 0.319,0 0.607,-0.051 0.862,-0.155 0.256,-0.102 0.476,-0.243 0.658,-0.423 0.183,-0.179 0.322,-0.387 0.419,-0.623 0.096,-0.236 0.144,-0.49 0.144,-0.762 0,-0.419 -0.088,-0.781 -0.264,-1.086 -0.176,-0.306 -0.463,-0.538 -0.862,-0.698 l 0,-0.02 c 0.193,-0.053 0.352,-0.134 0.479,-0.244 0.126,-0.11 0.228,-0.239 0.308,-0.389 0.08,-0.149 0.138,-0.314 0.175,-0.493 0.036,-0.179 0.061,-0.359 0.074,-0.538 0.007,-0.113 0.013,-0.246 0.021,-0.399 0.006,-0.153 0.017,-0.308 0.034,-0.468 0.017,-0.16 0.044,-0.31 0.079,-0.454 0.037,-0.143 0.092,-0.264 0.165,-0.363 l -1.563,0 c -0.087,0.226 -0.141,0.495 -0.16,0.807 -0.02,0.312 -0.051,0.611 -0.09,0.897 -0.053,0.371 -0.166,0.644 -0.339,0.817 -0.173,0.173 -0.455,0.259 -0.847,0.259 l -1.564,0 0,-2.78 -1.565,0 0,7.115 3.836,0 z m 5.225,-7.115 -1.564,0 0,7.115 1.564,0 0,-7.115 z m 6.247,5.217 c -0.094,0.149 -0.21,0.28 -0.349,0.394 -0.14,0.112 -0.298,0.2 -0.474,0.264 -0.176,0.063 -0.36,0.094 -0.553,0.094 -0.352,0 -0.651,-0.068 -0.897,-0.204 -0.246,-0.136 -0.445,-0.319 -0.597,-0.548 -0.153,-0.229 -0.265,-0.491 -0.334,-0.782 -0.071,-0.293 -0.106,-0.595 -0.106,-0.907 0,-0.299 0.035,-0.59 0.106,-0.872 0.069,-0.283 0.181,-0.537 0.334,-0.763 0.152,-0.226 0.351,-0.407 0.597,-0.543 0.246,-0.136 0.545,-0.204 0.897,-0.204 0.478,0 0.851,0.145 1.121,0.438 0.269,0.292 0.434,0.677 0.494,1.156 l 1.515,0 c -0.04,-0.445 -0.144,-0.847 -0.31,-1.206 -0.166,-0.358 -0.385,-0.664 -0.658,-0.917 -0.272,-0.252 -0.591,-0.444 -0.956,-0.577 -0.365,-0.133 -0.767,-0.199 -1.206,-0.199 -0.544,0 -1.035,0.094 -1.469,0.284 -0.435,0.189 -0.803,0.449 -1.101,0.782 -0.299,0.332 -0.53,0.722 -0.688,1.17 -0.16,0.449 -0.24,0.932 -0.24,1.451 0,0.531 0.08,1.024 0.24,1.48 0.158,0.455 0.389,0.852 0.688,1.19 0.298,0.339 0.666,0.605 1.101,0.797 0.434,0.193 0.925,0.29 1.469,0.29 0.392,0 0.764,-0.057 1.111,-0.17 0.35,-0.113 0.661,-0.277 0.937,-0.493 0.276,-0.216 0.504,-0.484 0.682,-0.802 0.18,-0.319 0.293,-0.684 0.34,-1.097 l -1.515,0 c -0.026,0.18 -0.086,0.344 -0.179,0.494 M 46.759,0 l 0,-2.73 2.88,0 0,2.73 1.564,0 0,-7.115 -1.564,0 0,3.069 -2.88,0 0,-3.069 -1.565,0 0,7.115 1.565,0 z m 9.22,-5.002 -3,0 0,1.216 3,0 0,-1.216 z m 5.135,0.637 -0.896,2.611 -0.021,0 -0.926,-2.611 1.843,0 z M 61.025,0 l 2.661,-7.115 -1.625,0 -0.538,1.584 -2.661,0 -0.557,-1.584 -1.576,0 L 59.42,0 61.025,0 z m 5.304,0 0,-5.8 3.468,0 0,-1.315 -5.032,0 0,7.115 1.564,0 z m 10.042,0 0,-1.315 -3.758,0 0,-1.525 3.448,0 0,-1.216 -3.448,0 0,-1.744 3.837,0 0,-1.315 -5.401,0 0,7.115 5.322,0 z m 1.205,0 1.814,0 1.395,-2.272 1.445,2.272 1.714,0 -2.282,-3.398 2.482,-3.717 -1.865,0 -1.554,2.462 -1.584,-2.462 -1.754,0 2.481,3.727 L 77.576,0 z m 11.53,-4.365 -0.897,2.611 -0.02,0 -0.926,-2.611 1.843,0 z M 89.017,0 l 2.661,-7.115 -1.625,0 -0.538,1.584 -2.661,0 -0.557,-1.584 -1.576,0 2.691,7.115 1.605,0 z m 5.145,0 2.969,-4.773 0.02,0 0,4.773 1.465,0 0,-7.115 -1.564,0 -2.96,4.763 -0.02,0 0,-4.763 -1.465,0 0,7.115 1.555,0 z m 9.088,-5.8 c 0.227,0 0.445,0.037 0.658,0.11 0.212,0.072 0.402,0.194 0.569,0.364 0.166,0.169 0.298,0.39 0.397,0.662 0.101,0.272 0.149,0.605 0.149,0.997 0,0.358 -0.035,0.683 -0.103,0.972 -0.07,0.288 -0.186,0.536 -0.345,0.742 -0.159,0.206 -0.37,0.364 -0.632,0.474 -0.262,0.109 -0.587,0.164 -0.972,0.164 l -1.116,0 0,-4.485 1.395,0 z m 0.109,5.8 c 0.459,0 0.886,-0.073 1.282,-0.219 0.394,-0.146 0.737,-0.365 1.025,-0.658 0.29,-0.292 0.516,-0.658 0.679,-1.096 0.162,-0.439 0.243,-0.954 0.243,-1.545 0,-0.518 -0.066,-0.997 -0.199,-1.435 -0.133,-0.439 -0.333,-0.817 -0.602,-1.136 -0.269,-0.318 -0.605,-0.569 -1.007,-0.752 -0.402,-0.183 -0.876,-0.274 -1.421,-0.274 l -3.068,0 0,7.115 3.068,0 z m 9.836,0 0,-1.315 -3.756,0 0,-1.525 3.448,0 0,-1.216 -3.448,0 0,-1.744 3.836,0 0,-1.315 -5.4,0 0,7.115 5.32,0 z m 4.762,-3.219 c 0.359,0 0.628,0.08 0.808,0.24 0.179,0.159 0.268,0.418 0.268,0.776 0,0.346 -0.089,0.597 -0.268,0.753 -0.18,0.157 -0.449,0.234 -0.808,0.234 l -1.714,0 0,-2.003 1.714,0 z M 118.516,0 c 0.318,0 0.605,-0.051 0.861,-0.155 0.256,-0.102 0.476,-0.243 0.658,-0.423 0.183,-0.179 0.322,-0.387 0.418,-0.623 0.098,-0.236 0.145,-0.49 0.145,-0.762 0,-0.419 -0.088,-0.781 -0.264,-1.086 -0.176,-0.306 -0.463,-0.538 -0.862,-0.698 l 0,-0.02 c 0.192,-0.053 0.352,-0.134 0.478,-0.244 0.126,-0.11 0.23,-0.239 0.31,-0.389 0.079,-0.149 0.136,-0.314 0.174,-0.493 0.037,-0.179 0.061,-0.359 0.074,-0.538 0.008,-0.113 0.013,-0.246 0.02,-0.399 0.007,-0.153 0.019,-0.308 0.035,-0.468 0.017,-0.16 0.043,-0.31 0.08,-0.454 0.037,-0.143 0.091,-0.264 0.165,-0.363 l -1.565,0 c -0.087,0.226 -0.139,0.495 -0.159,0.807 -0.021,0.312 -0.051,0.611 -0.091,0.897 -0.053,0.371 -0.166,0.644 -0.339,0.817 -0.172,0.173 -0.455,0.259 -0.846,0.259 l -1.565,0 0,-2.78 -1.564,0 0,7.115 3.837,0 z"
             id="path34"
             style="fill:#002855;fill-opacity:1;fill-rule:nonzero;stroke:none" /></g><g
           transform="translate(405.7183,286.0791)"
           id="g36"><path
             d="m 0,0 -29.67,0 c 1.823,-1.487 3.932,-2.604 6.167,-3.379 l 17.32,0 C -3.942,-2.604 -1.827,-1.487 0,0"
             id="path38"
             style="fill:#002855;fill-opacity:1;fill-rule:nonzero;stroke:none" /></g><g
           transform="translate(324.0366,287.7744)"
           id="g40"><path
             d="m 0,0 12.86,0 0.02,0.062 -0.036,0 1.065,3.317 -12.629,0 L 0,0 z"
             id="path42"
             style="fill:#002855;fill-opacity:1;fill-rule:nonzero;stroke:none" /></g><g
           transform="translate(323.4478,286.0791)"
           id="g44"><path
             d="m 0,0 -1.281,-3.379 13.101,0 L 12.937,0 0,0 z"
             id="path46"
             style="fill:#002855;fill-opacity:1;fill-rule:nonzero;stroke:none" /></g><path
           d="m 296,282.7 12.279,0 0,3.379 -12.279,0 0,-3.379 z"
           id="path48"
           style="fill:#002855;fill-opacity:1;fill-rule:nonzero;stroke:none" /><path
           d="m 308.279,291.153 -12.279,0 0,-3.379 12.279,0 0,3.379 z"
           id="path50"
           style="fill:#002855;fill-opacity:1;fill-rule:nonzero;stroke:none" /><path
           d="m 308.279,296.224 -12.279,0 0,-3.379 12.279,0 0,3.379 z"
           id="path52"
           style="fill:#002855;fill-opacity:1;fill-rule:nonzero;stroke:none" /><path
           d="m 308.279,301.292 -12.279,0 0,-3.379 12.279,0 0,3.379 z"
           id="path54"
           style="fill:#002855;fill-opacity:1;fill-rule:nonzero;stroke:none" /><path
           d="m 308.279,316.511 -12.279,0 0,-3.379 12.279,0 0,3.379 z"
           id="path56"
           style="fill:#002855;fill-opacity:1;fill-rule:nonzero;stroke:none" /><path
           d="m 308.279,321.59 -12.279,0 0,-3.38 12.279,0 0,3.38 z"
           id="path58"
           style="fill:#002855;fill-opacity:1;fill-rule:nonzero;stroke:none" /><path
           d="m 296,328.35 37.527,0 0,3.38 -37.527,0 0,-3.38 z"
           id="path60"
           style="fill:#002855;fill-opacity:1;fill-rule:nonzero;stroke:none" /><path
           d="m 296,323.28 37.527,0 0,3.38 -37.527,0 0,-3.38 z"
           id="path62"
           style="fill:#002855;fill-opacity:1;fill-rule:nonzero;stroke:none" /><g
           transform="translate(345.7402,316.5112)"
           id="g64"><path
             d="m 0,0 -11.074,0 -1.281,-3.379 11.315,0 L 0,0 z"
             id="path66"
             style="fill:#002855;fill-opacity:1;fill-rule:nonzero;stroke:none" /></g><g
           transform="translate(338.9951,328.3496)"
           id="g68"><path
             d="M 0,0 15.285,0 13.975,3.38 1.281,3.38 0,0 z"
             id="path70"
             style="fill:#002855;fill-opacity:1;fill-rule:nonzero;stroke:none" /></g><g
           transform="translate(337.1255,323.2798)"
           id="g72"><path
             d="M 0,0 19.067,0 17.756,3.38 1.281,3.38 0,0 z"
             id="path74"
             style="fill:#002855;fill-opacity:1;fill-rule:nonzero;stroke:none" /></g><g
           transform="translate(347.3052,318.2012)"
           id="g76"><path
             d="m 0,0 10.8,0 -1.311,3.379 -20.258,0 L -12.05,0 l 10.962,0 0.475,1.549 0.137,0 L 0,0 z"
             id="path78"
             style="fill:#002855;fill-opacity:1;fill-rule:nonzero;stroke:none" /></g><g
           transform="translate(348.8213,313.1313)"
           id="g80"><path
             d="m 0,0 11.196,0 -1.31,3.379 -10.924,0 L 0,0 z"
             id="path82"
             style="fill:#002855;fill-opacity:1;fill-rule:nonzero;stroke:none" /></g><g
           transform="translate(350.3359,308.0679)"
           id="g84"><path
             d="m 0,0 11.594,0 -1.31,3.379 -11.322,0 L 0,0 z"
             id="path86"
             style="fill:#8a8d8f;fill-opacity:1;fill-rule:nonzero;stroke:none" /></g><g
           transform="translate(351.8516,302.9985)"
           id="g88"><path
             d="M 0,0 11.991,0 10.68,3.379 -1.039,3.379 0,0 z"
             id="path90"
             style="fill:#8a8d8f;fill-opacity:1;fill-rule:nonzero;stroke:none" /></g><g
           transform="translate(327.7754,297.9136)"
           id="g92"><path
             d="M 0,0 37.98,0 36.669,3.379 1.282,3.379 0,0 z"
             id="path94"
             style="fill:#002855;fill-opacity:1;fill-rule:nonzero;stroke:none" /></g><g
           transform="translate(325.9063,292.8438)"
           id="g96"><path
             d="M 0,0 41.762,0 40.451,3.38 1.281,3.38 0,0 z"
             id="path98"
             style="fill:#002855;fill-opacity:1;fill-rule:nonzero;stroke:none" /></g><g
           transform="translate(356.731,287.7744)"
           id="g100"><path
             d="M 0,0 12.851,0 11.54,3.379 -1.132,3.379 0,0 z"
             id="path102"
             style="fill:#002855;fill-opacity:1;fill-rule:nonzero;stroke:none" /></g><g
           transform="translate(357.2065,286.0791)"
           id="g104"><path
             d="m 0,0 1.115,-3.379 13.171,0 L 12.976,0 0,0 z"
             id="path106"
             style="fill:#002855;fill-opacity:1;fill-rule:nonzero;stroke:none" /></g><path
           d="m 370.088,328.35 12.278,0 0,3.38 -12.278,0 0,-3.38 z"
           id="path108"
           style="fill:#002855;fill-opacity:1;fill-rule:nonzero;stroke:none" /><path
           d="m 370.088,323.28 12.278,0 0,3.38 -12.278,0 0,-3.38 z"
           id="path110"
           style="fill:#002855;fill-opacity:1;fill-rule:nonzero;stroke:none" /><path
           d="m 370.088,318.201 12.278,0 0,3.38 -12.278,0 0,-3.38 z"
           id="path112"
           style="fill:#002855;fill-opacity:1;fill-rule:nonzero;stroke:none" /><path
           d="m 370.088,313.131 12.278,0 0,3.379 -12.278,0 0,-3.379 z"
           id="path114"
           style="fill:#002855;fill-opacity:1;fill-rule:nonzero;stroke:none" /><path
           d="m 370.088,308.068 12.278,0 0,3.379 -12.278,0 0,-3.379 z"
           id="path116"
           style="fill:#8a8d8f;fill-opacity:1;fill-rule:nonzero;stroke:none" /><path
           d="m 370.088,302.999 12.278,0 0,3.379 -12.278,0 0,-3.379 z"
           id="path118"
           style="fill:#8a8d8f;fill-opacity:1;fill-rule:nonzero;stroke:none" /><g
           transform="translate(370.186,297.9136)"
           id="g120"><path
             d="M 0,0 12.411,0 C 12.255,0.875 12.18,1.81 12.18,2.793 l 0,0.586 -12.278,0 0,-1.592 C -0.098,1.166 -0.05,0.583 0,0"
             id="path122"
             style="fill:#002855;fill-opacity:1;fill-rule:nonzero;stroke:none" /></g><g
           transform="translate(371.2837,292.8438)"
           id="g124"><path
             d="m 0,0 14.004,0 c -1.09,0.851 -1.831,2.005 -2.295,3.38 l -12.605,0 C -0.695,2.175 -0.403,1.039 0,0"
             id="path126"
             style="fill:#002855;fill-opacity:1;fill-rule:nonzero;stroke:none" /></g><g
           transform="translate(409.792,291.1533)"
           id="g128"><path
             d="m 0,0 -37.813,0 c 0.66,-1.263 1.474,-2.383 2.398,-3.379 l 33.017,0 C -1.474,-2.383 -0.658,-1.263 0,0"
             id="path130"
             style="fill:#002855;fill-opacity:1;fill-rule:nonzero;stroke:none" /></g><g
           transform="translate(411.3862,296.2236)"
           id="g132"><path
             d="m 0,0 -12.608,0 c -0.465,-1.375 -1.212,-2.529 -2.308,-3.38 l 14.018,0 C -0.494,-2.341 -0.204,-1.205 0,0"
             id="path134"
             style="fill:#002855;fill-opacity:1;fill-rule:nonzero;stroke:none" /></g><path
           d="m 399.406,328.35 12.279,0 0,3.38 -12.279,0 0,-3.38 z"
           id="path136"
           style="fill:#002855;fill-opacity:1;fill-rule:nonzero;stroke:none" /><path
           d="m 399.406,323.28 12.279,0 0,3.38 -12.279,0 0,-3.38 z"
           id="path138"
           style="fill:#002855;fill-opacity:1;fill-rule:nonzero;stroke:none" /><path
           d="m 399.406,318.201 12.279,0 0,3.38 -12.279,0 0,-3.38 z"
           id="path140"
           style="fill:#002855;fill-opacity:1;fill-rule:nonzero;stroke:none" /><path
           d="m 399.406,313.131 12.279,0 0,3.379 -12.279,0 0,-3.379 z"
           id="path142"
           style="fill:#002855;fill-opacity:1;fill-rule:nonzero;stroke:none" /><path
           d="m 399.406,308.068 12.279,0 0,3.379 -12.279,0 0,-3.379 z"
           id="path144"
           style="fill:#8a8d8f;fill-opacity:1;fill-rule:nonzero;stroke:none" /><path
           d="m 399.406,302.999 12.279,0 0,3.379 -12.279,0 0,-3.379 z"
           id="path146"
           style="fill:#8a8d8f;fill-opacity:1;fill-rule:nonzero;stroke:none" /><g
           transform="translate(411.6851,299.7002)"
           id="g148"><path
             d="m 0,0 0,1.592 -12.279,0 0,-0.585 c 0,-0.984 -0.074,-1.919 -0.23,-2.794 l 12.41,0 C -0.05,-1.204 0,-0.621 0,0"
             id="path150"
             style="fill:#002855;fill-opacity:1;fill-rule:nonzero;stroke:none" /></g><g
           transform="translate(296,306.3784)"
           id="g152"><path
             d="m 0,0 0,-3.379 45.671,0 L 46.709,0 0,0 z"
             id="path154"
             style="fill:#8a8d8f;fill-opacity:1;fill-rule:nonzero;stroke:none" /></g><g
           transform="translate(296,311.4473)"
           id="g156"><path
             d="m 0,0 0,-3.379 47.186,0 L 48.224,0 0,0 z"
             id="path158"
             style="fill:#8a8d8f;fill-opacity:1;fill-rule:nonzero;stroke:none" /></g></g></g></g></svg>