<?xml version="1.0" encoding="UTF-8" standalone="no"?>
<!-- Created with Inkscape (http://www.inkscape.org/) -->

<svg
   xmlns:dc="http://purl.org/dc/elements/1.1/"
   xmlns:cc="http://creativecommons.org/ns#"
   xmlns:rdf="http://www.w3.org/1999/02/22-rdf-syntax-ns#"
   xmlns:svg="http://www.w3.org/2000/svg"
   xmlns="http://www.w3.org/2000/svg"
   version="1.1"
   width="297.62012"
   height="85.039253"
   id="svg2"
   xml:space="preserve"><metadata
     id="metadata8"><rdf:RDF><cc:Work
         rdf:about=""><dc:format>image/svg+xml</dc:format><dc:type
           rdf:resource="http://purl.org/dc/dcmitype/StillImage" /><dc:title></dc:title></cc:Work></rdf:RDF></metadata><defs
     id="defs6"><clipPath
       id="clipPath16"><path
         d="m 0,595.28 841.89,0 L 841.89,0 0,0 0,595.28 z"
         id="path18" /></clipPath></defs><g
     transform="matrix(1.25,0,0,-1.25,-377.5,414.90912)"
     id="g10"><g
       id="g12"><g
         clip-path="url(#clipPath16)"
         id="g14"><g
           transform="translate(414.4487,270.1729)"
           id="g20"><path
             d="m 0,0 0,-1.135 -2.967,0 0,-1.42 2.571,0 0,-1.049 -2.571,0 0,-2.536 -1.35,0 0,6.14 L 0,0 z M 3.774,-3.767 3,-1.514 l -0.017,0 -0.8,-2.253 1.591,0 z M 3.697,0 l 2.296,-6.14 -1.402,0 -0.465,1.367 -2.295,0 -0.482,-1.367 -1.359,0 L 2.312,0 3.697,0 z m 4.577,0 0,-2.545 L 10.673,0 12.36,0 9.959,-2.425 12.59,-6.14 l -1.693,0 -1.849,2.761 -0.774,-0.783 0,-1.978 -1.35,0 0,6.14 1.35,0 z m 9.662,-5.672 c -0.464,-0.403 -1.106,-0.605 -1.926,-0.605 -0.831,0 -1.474,0.201 -1.93,0.601 -0.456,0.402 -0.684,1.021 -0.684,1.858 l 0,3.818 1.351,0 0,-3.818 c 0,-0.166 0.013,-0.33 0.043,-0.491 0.028,-0.16 0.087,-0.302 0.179,-0.425 0.092,-0.123 0.22,-0.223 0.383,-0.301 0.164,-0.077 0.383,-0.116 0.658,-0.116 0.482,0 0.815,0.108 0.998,0.323 0.183,0.215 0.275,0.551 0.275,1.01 l 0,3.818 1.35,0 0,-3.818 c 0,-0.831 -0.232,-1.45 -0.697,-1.854 m 3.52,5.672 0,-5.005 2.993,0 0,-1.135 -4.343,0 0,6.14 1.35,0 z m 2.771,-1.135 0,1.135 5.031,0 0,-1.135 -1.841,0 0,-5.005 -1.35,0 0,5.005 -1.84,0 z m 7.566,1.823 -1.161,0 0,1.007 1.161,0 0,-1.007 z m 1.772,0 -1.161,0 0,1.007 1.161,0 0,-1.007 z m -0.68,-4.455 -0.773,2.253 -0.018,0 -0.799,-2.253 1.59,0 z M 32.808,0 l 2.296,-6.14 -1.401,0 -0.464,1.367 -2.297,0 -0.482,-1.367 -1.358,0 2.321,6.14 1.385,0 z m 2.097,-1.135 0,1.135 5.031,0 0,-1.135 -1.84,0 0,-5.005 -1.35,0 0,5.005 -1.841,0 z"
             id="path22"
             style="fill:#009775;fill-opacity:1;fill-rule:nonzero;stroke:none" /></g><g
           transform="translate(411.4731,279.499)"
           id="g24"><path
             d="m 0,0 2.563,-4.119 0.017,0 0,4.119 1.264,0 0,-6.141 -1.35,0 -2.555,4.111 -0.017,0 0,-4.111 -1.264,0 0,6.141 L 0,0 z m 8.606,-3.768 -0.773,2.254 -0.018,0 -0.8,-2.254 1.591,0 z M 8.529,0 l 2.296,-6.141 -1.402,0 -0.465,1.368 -2.295,0 -0.482,-1.368 -1.358,0 L 7.145,0 8.529,0 z m 2.012,-1.135 0,1.135 5.03,0 0,-1.135 -1.84,0 0,-5.006 -1.351,0 0,5.006 -1.839,0 z m 10.617,-4.537 c -0.464,-0.404 -1.106,-0.605 -1.926,-0.605 -0.832,0 -1.475,0.199 -1.932,0.601 -0.455,0.401 -0.682,1.02 -0.682,1.858 l 0,3.818 1.35,0 0,-3.818 c 0,-0.166 0.014,-0.33 0.043,-0.491 0.028,-0.161 0.088,-0.302 0.18,-0.425 0.092,-0.123 0.22,-0.224 0.383,-0.301 0.164,-0.078 0.383,-0.116 0.658,-0.116 0.481,0 0.813,0.107 0.998,0.322 0.184,0.215 0.274,0.552 0.274,1.011 l 0,3.818 1.351,0 0,-3.818 c 0,-0.832 -0.232,-1.45 -0.697,-1.854 m 4.87,2.894 c 0.309,0 0.542,0.069 0.696,0.206 0.155,0.138 0.233,0.361 0.233,0.671 0,0.297 -0.078,0.514 -0.233,0.649 -0.154,0.135 -0.387,0.202 -0.696,0.202 l -1.48,0 0,-1.728 1.48,0 z M 26.509,0 c 0.276,0 0.524,-0.045 0.744,-0.134 0.221,-0.089 0.411,-0.211 0.569,-0.366 0.156,-0.154 0.277,-0.333 0.36,-0.537 0.083,-0.203 0.124,-0.423 0.124,-0.657 0,-0.362 -0.076,-0.674 -0.226,-0.938 -0.153,-0.264 -0.401,-0.465 -0.745,-0.602 l 0,-0.017 c 0.166,-0.046 0.303,-0.116 0.413,-0.211 0.109,-0.095 0.198,-0.206 0.267,-0.335 0.068,-0.129 0.118,-0.271 0.151,-0.426 0.031,-0.154 0.052,-0.309 0.063,-0.465 0.006,-0.097 0.012,-0.211 0.017,-0.343 0.006,-0.132 0.016,-0.267 0.031,-0.405 0.014,-0.136 0.037,-0.267 0.068,-0.39 0.031,-0.123 0.079,-0.229 0.143,-0.315 l -1.351,0 c -0.074,0.196 -0.12,0.428 -0.137,0.698 -0.018,0.268 -0.043,0.527 -0.079,0.773 -0.045,0.32 -0.142,0.556 -0.291,0.705 -0.149,0.149 -0.392,0.224 -0.731,0.224 l -1.351,0 0,-2.4 -1.349,0 0,6.141 3.31,0 z m 7.633,-6.141 -1.041,4.18 -0.018,0 -1.023,-4.18 -1.367,0 -1.625,6.141 1.349,0 0.973,-4.18 0.017,0 1.066,4.18 1.264,0 1.05,-4.231 0.016,0 1.007,4.231 1.324,0 -1.651,-6.141 -1.341,0 z m 5.358,0 -1.351,0 0,6.141 1.351,0 0,-6.141 z m 2.577,1.514 c 0.075,-0.144 0.173,-0.26 0.298,-0.349 0.122,-0.088 0.267,-0.154 0.433,-0.198 0.166,-0.043 0.338,-0.063 0.516,-0.063 0.121,0 0.25,0.01 0.386,0.03 0.138,0.019 0.267,0.059 0.387,0.115 0.121,0.058 0.221,0.137 0.302,0.237 0.08,0.1 0.12,0.228 0.12,0.382 0,0.166 -0.053,0.301 -0.159,0.405 -0.107,0.103 -0.245,0.189 -0.417,0.258 -0.172,0.069 -0.367,0.128 -0.585,0.181 -0.218,0.051 -0.439,0.108 -0.662,0.172 -0.23,0.057 -0.453,0.127 -0.671,0.21 -0.218,0.083 -0.412,0.19 -0.584,0.323 -0.173,0.131 -0.312,0.297 -0.418,0.494 -0.106,0.198 -0.158,0.438 -0.158,0.718 0,0.316 0.066,0.589 0.201,0.821 0.135,0.233 0.311,0.426 0.529,0.58 0.218,0.156 0.465,0.27 0.739,0.345 0.276,0.074 0.551,0.112 0.826,0.112 0.322,0 0.629,-0.037 0.925,-0.108 0.295,-0.071 0.557,-0.188 0.787,-0.349 0.229,-0.16 0.411,-0.365 0.545,-0.614 0.135,-0.249 0.203,-0.552 0.203,-0.907 l -1.308,0 c -0.011,0.184 -0.05,0.336 -0.115,0.455 -0.067,0.121 -0.155,0.215 -0.262,0.285 -0.109,0.069 -0.234,0.117 -0.375,0.145 -0.141,0.029 -0.293,0.043 -0.46,0.043 -0.108,0 -0.218,-0.011 -0.327,-0.034 -0.108,-0.023 -0.207,-0.063 -0.296,-0.121 -0.089,-0.056 -0.162,-0.129 -0.22,-0.214 -0.056,-0.086 -0.086,-0.195 -0.086,-0.327 0,-0.121 0.024,-0.218 0.069,-0.293 0.047,-0.074 0.136,-0.142 0.271,-0.206 0.135,-0.063 0.321,-0.126 0.559,-0.189 0.238,-0.064 0.549,-0.144 0.933,-0.241 0.115,-0.022 0.274,-0.065 0.477,-0.124 0.204,-0.061 0.406,-0.157 0.606,-0.288 0.201,-0.132 0.374,-0.309 0.521,-0.53 0.146,-0.22 0.219,-0.503 0.219,-0.846 0,-0.281 -0.054,-0.542 -0.162,-0.783 -0.11,-0.242 -0.272,-0.449 -0.487,-0.624 -0.215,-0.174 -0.482,-0.311 -0.801,-0.408 -0.317,-0.097 -0.685,-0.145 -1.103,-0.145 -0.339,0 -0.668,0.041 -0.985,0.123 -0.319,0.084 -0.6,0.215 -0.843,0.392 -0.244,0.178 -0.438,0.404 -0.58,0.679 -0.144,0.275 -0.213,0.603 -0.207,0.98 l 1.307,0 c 0,-0.206 0.036,-0.381 0.112,-0.524 m 5.954,0 c 0.074,-0.144 0.174,-0.26 0.297,-0.349 0.123,-0.088 0.267,-0.154 0.434,-0.198 0.166,-0.043 0.338,-0.063 0.516,-0.063 0.12,0 0.249,0.01 0.387,0.03 0.137,0.019 0.266,0.059 0.387,0.115 0.12,0.058 0.221,0.137 0.301,0.237 0.08,0.1 0.12,0.228 0.12,0.382 0,0.166 -0.053,0.301 -0.159,0.405 -0.106,0.103 -0.244,0.189 -0.416,0.258 -0.173,0.069 -0.368,0.128 -0.586,0.181 -0.218,0.051 -0.437,0.108 -0.662,0.172 -0.229,0.057 -0.453,0.127 -0.67,0.21 -0.219,0.083 -0.413,0.19 -0.586,0.323 -0.172,0.131 -0.311,0.297 -0.416,0.494 -0.106,0.198 -0.159,0.438 -0.159,0.718 0,0.316 0.067,0.589 0.202,0.821 0.135,0.233 0.311,0.426 0.529,0.58 0.217,0.156 0.464,0.27 0.739,0.345 0.275,0.074 0.55,0.112 0.826,0.112 0.32,0 0.629,-0.037 0.924,-0.108 0.294,-0.071 0.558,-0.188 0.787,-0.349 0.229,-0.16 0.412,-0.365 0.547,-0.614 0.134,-0.249 0.201,-0.552 0.201,-0.907 l -1.307,0 c -0.012,0.184 -0.051,0.336 -0.116,0.455 -0.066,0.121 -0.153,0.215 -0.263,0.285 -0.108,0.069 -0.232,0.117 -0.374,0.145 -0.139,0.029 -0.293,0.043 -0.46,0.043 -0.109,0 -0.218,-0.011 -0.326,-0.034 -0.109,-0.023 -0.209,-0.063 -0.297,-0.121 -0.09,-0.056 -0.162,-0.129 -0.219,-0.214 -0.057,-0.086 -0.086,-0.195 -0.086,-0.327 0,-0.121 0.022,-0.218 0.069,-0.293 0.045,-0.074 0.136,-0.142 0.27,-0.206 0.135,-0.063 0.322,-0.126 0.56,-0.189 0.237,-0.064 0.549,-0.144 0.933,-0.241 0.114,-0.022 0.273,-0.065 0.477,-0.124 0.203,-0.061 0.405,-0.157 0.606,-0.288 0.201,-0.132 0.375,-0.309 0.52,-0.53 0.147,-0.22 0.22,-0.503 0.22,-0.846 0,-0.281 -0.055,-0.542 -0.164,-0.783 -0.11,-0.242 -0.271,-0.449 -0.487,-0.624 -0.213,-0.174 -0.48,-0.311 -0.798,-0.408 -0.319,-0.097 -0.688,-0.145 -1.106,-0.145 -0.338,0 -0.666,0.041 -0.984,0.123 -0.319,0.084 -0.6,0.215 -0.843,0.392 -0.243,0.178 -0.437,0.404 -0.58,0.679 -0.144,0.275 -0.212,0.603 -0.206,0.98 l 1.306,0 c 0,-0.206 0.038,-0.381 0.112,-0.524 M 57.584,0 l 0,-1.135 -3.242,0 0,-1.316 2.976,0 0,-1.049 -2.976,0 0,-1.506 3.311,0 0,-1.135 -4.661,0 0,6.141 4.592,0 z m 2.708,0 2.562,-4.119 0.017,0 0,4.119 1.263,0 0,-6.141 -1.349,0 -2.554,4.111 -0.017,0 0,-4.111 -1.264,0 0,6.141 1.342,0 z m 6.493,-4.627 c 0.074,-0.144 0.173,-0.26 0.297,-0.349 0.123,-0.088 0.267,-0.154 0.433,-0.198 0.167,-0.043 0.339,-0.063 0.517,-0.063 0.12,0 0.249,0.01 0.386,0.03 0.138,0.019 0.267,0.059 0.387,0.115 0.12,0.058 0.221,0.137 0.302,0.237 0.08,0.1 0.12,0.228 0.12,0.382 0,0.166 -0.054,0.301 -0.159,0.405 -0.106,0.103 -0.245,0.189 -0.417,0.258 -0.172,0.069 -0.367,0.128 -0.585,0.181 -0.218,0.051 -0.439,0.108 -0.662,0.172 -0.229,0.057 -0.453,0.127 -0.671,0.21 -0.218,0.083 -0.413,0.19 -0.585,0.323 -0.172,0.131 -0.311,0.297 -0.417,0.494 -0.106,0.198 -0.159,0.438 -0.159,0.718 0,0.316 0.067,0.589 0.203,0.821 0.134,0.233 0.31,0.426 0.528,0.58 0.218,0.156 0.464,0.27 0.739,0.345 0.276,0.074 0.551,0.112 0.827,0.112 0.32,0 0.629,-0.037 0.923,-0.108 0.295,-0.071 0.558,-0.188 0.788,-0.349 0.228,-0.16 0.411,-0.365 0.545,-0.614 0.135,-0.249 0.203,-0.552 0.203,-0.907 l -1.307,0 c -0.012,0.184 -0.051,0.336 -0.116,0.455 -0.067,0.121 -0.154,0.215 -0.263,0.285 -0.109,0.069 -0.234,0.117 -0.374,0.145 -0.141,0.029 -0.294,0.043 -0.46,0.043 -0.109,0 -0.218,-0.011 -0.327,-0.034 -0.108,-0.023 -0.208,-0.063 -0.296,-0.121 -0.09,-0.056 -0.162,-0.129 -0.22,-0.214 -0.057,-0.086 -0.087,-0.195 -0.087,-0.327 0,-0.121 0.024,-0.218 0.071,-0.293 0.045,-0.074 0.134,-0.142 0.27,-0.206 0.134,-0.063 0.322,-0.126 0.559,-0.189 0.238,-0.064 0.549,-0.144 0.932,-0.241 0.116,-0.022 0.275,-0.065 0.478,-0.124 0.204,-0.061 0.405,-0.157 0.606,-0.288 0.202,-0.132 0.374,-0.309 0.521,-0.53 0.145,-0.22 0.22,-0.503 0.22,-0.846 0,-0.281 -0.055,-0.542 -0.164,-0.783 -0.11,-0.242 -0.272,-0.449 -0.487,-0.624 -0.215,-0.174 -0.48,-0.311 -0.799,-0.408 -0.318,-0.097 -0.687,-0.145 -1.105,-0.145 -0.338,0 -0.666,0.041 -0.984,0.123 -0.319,0.084 -0.6,0.215 -0.843,0.392 -0.244,0.178 -0.438,0.404 -0.581,0.679 -0.143,0.275 -0.212,0.603 -0.206,0.98 l 1.307,0 c 0,-0.206 0.037,-0.381 0.112,-0.524 m 8.841,2.988 c -0.08,0.129 -0.18,0.243 -0.3,0.34 -0.121,0.098 -0.257,0.174 -0.409,0.229 -0.152,0.053 -0.31,0.081 -0.477,0.081 -0.304,0 -0.562,-0.059 -0.774,-0.177 -0.212,-0.117 -0.384,-0.275 -0.516,-0.473 -0.132,-0.197 -0.228,-0.424 -0.288,-0.675 -0.06,-0.252 -0.091,-0.513 -0.091,-0.783 0,-0.257 0.031,-0.508 0.091,-0.753 0.06,-0.242 0.156,-0.462 0.288,-0.656 0.132,-0.195 0.304,-0.351 0.516,-0.47 0.212,-0.117 0.47,-0.175 0.774,-0.175 0.413,0 0.735,0.126 0.968,0.378 0.231,0.252 0.373,0.585 0.425,0.998 l 1.307,0 C 77.106,-4.16 77.017,-4.506 76.874,-4.816 76.73,-5.126 76.541,-5.39 76.306,-5.607 76.071,-5.825 75.795,-5.991 75.48,-6.106 c -0.314,-0.115 -0.662,-0.171 -1.04,-0.171 -0.47,0 -0.894,0.081 -1.269,0.244 -0.376,0.164 -0.692,0.388 -0.95,0.675 -0.258,0.286 -0.456,0.624 -0.593,1.01 -0.138,0.387 -0.207,0.805 -0.207,1.251 0,0.459 0.069,0.885 0.207,1.278 0.137,0.392 0.335,0.735 0.593,1.028 0.258,0.291 0.574,0.521 0.95,0.687 0.375,0.167 0.799,0.25 1.269,0.25 0.338,0 0.657,-0.048 0.958,-0.146 0.302,-0.098 0.571,-0.24 0.809,-0.426 0.238,-0.186 0.434,-0.418 0.589,-0.692 0.155,-0.276 0.252,-0.591 0.292,-0.946 l -1.307,0 c -0.023,0.154 -0.074,0.296 -0.155,0.425 M 79.728,0 l 0,-2.356 2.484,0 0,2.356 1.351,0 0,-6.141 -1.351,0 0,2.649 -2.484,0 0,-2.649 -1.351,0 0,6.141 1.351,0 z m 8.598,-3.768 -0.775,2.254 -0.017,0 -0.8,-2.254 1.592,0 z M 88.248,0 l 2.295,-6.141 -1.401,0 -0.465,1.368 -2.295,0 -0.482,-1.368 -1.359,0 2.322,6.141 1.385,0 z m 7.544,0 0,-1.135 -2.966,0 0,-1.42 2.57,0 0,-1.049 -2.57,0 0,-2.537 -1.351,0 0,6.141 4.317,0 z m 0.818,-1.135 0,1.135 5.03,0 0,-1.135 -1.84,0 0,-5.006 -1.349,0 0,5.006 -1.841,0 z m 7.311,1.135 0,-5.006 2.993,0 0,-1.135 -4.343,0 0,6.141 1.35,0 z m 5.422,-6.141 -1.35,0 0,6.141 1.35,0 0,-6.141 z m 5.305,4.502 c -0.08,0.129 -0.18,0.243 -0.301,0.34 -0.12,0.098 -0.257,0.174 -0.408,0.229 -0.152,0.053 -0.312,0.081 -0.479,0.081 -0.302,0 -0.56,-0.059 -0.773,-0.177 -0.212,-0.117 -0.384,-0.275 -0.516,-0.473 -0.131,-0.197 -0.228,-0.424 -0.289,-0.675 -0.058,-0.252 -0.09,-0.513 -0.09,-0.783 0,-0.257 0.032,-0.508 0.09,-0.753 0.061,-0.242 0.158,-0.462 0.289,-0.656 0.132,-0.195 0.304,-0.351 0.516,-0.47 0.213,-0.117 0.471,-0.175 0.773,-0.175 0.415,0 0.737,0.126 0.969,0.378 0.233,0.252 0.373,0.585 0.426,0.998 l 1.307,0 c -0.036,-0.385 -0.123,-0.731 -0.267,-1.041 -0.144,-0.31 -0.333,-0.574 -0.567,-0.791 -0.236,-0.218 -0.511,-0.384 -0.827,-0.499 -0.314,-0.115 -0.662,-0.171 -1.041,-0.171 -0.468,0 -0.892,0.081 -1.267,0.244 -0.375,0.164 -0.693,0.388 -0.95,0.675 -0.258,0.286 -0.456,0.624 -0.593,1.01 -0.139,0.387 -0.207,0.805 -0.207,1.251 0,0.459 0.068,0.885 0.207,1.278 0.137,0.392 0.335,0.735 0.593,1.028 0.257,0.291 0.575,0.521 0.95,0.687 0.375,0.167 0.799,0.25 1.267,0.25 0.34,0 0.659,-0.048 0.96,-0.146 0.301,-0.098 0.57,-0.24 0.808,-0.426 0.238,-0.186 0.435,-0.418 0.59,-0.692 0.154,-0.276 0.252,-0.591 0.292,-0.946 l -1.308,0 c -0.022,0.154 -0.074,0.296 -0.154,0.425 m 4.016,1.639 0,-2.356 2.484,0 0,2.356 1.351,0 0,-6.141 -1.351,0 0,2.649 -2.484,0 0,-2.649 -1.351,0 0,6.141 1.351,0 z m 9.889,0 0,-1.135 -3.241,0 0,-1.316 2.975,0 0,-1.049 -2.975,0 0,-1.506 3.311,0 0,-1.135 -4.663,0 0,6.141 4.593,0 z"
             id="path26"
             style="fill:#009775;fill-opacity:1;fill-rule:nonzero;stroke:none" /></g><g
           transform="translate(414.7236,295.7646)"
           id="g28"><path
             d="m 0,0 0,-1.136 -3.242,0 0,-1.316 2.975,0 0,-1.049 -2.975,0 0,-1.505 3.311,0 0,-1.135 -4.661,0 0,6.141 L 0,0 z m 4.152,-2.778 c 0.309,0 0.542,0.069 0.696,0.206 0.155,0.137 0.233,0.361 0.233,0.671 0,0.297 -0.078,0.514 -0.233,0.649 -0.154,0.135 -0.387,0.201 -0.696,0.201 l -1.479,0 0,-1.727 1.479,0 z M 4.634,0 c 0.275,0 0.523,-0.045 0.743,-0.135 0.221,-0.088 0.41,-0.21 0.568,-0.364 0.158,-0.155 0.278,-0.335 0.361,-0.538 0.083,-0.203 0.125,-0.423 0.125,-0.658 0,-0.362 -0.077,-0.673 -0.228,-0.937 -0.152,-0.264 -0.4,-0.465 -0.744,-0.602 l 0,-0.018 C 5.625,-3.297 5.763,-3.367 5.872,-3.462 5.98,-3.557 6.069,-3.668 6.138,-3.797 6.207,-3.926 6.258,-4.068 6.289,-4.223 6.32,-4.378 6.342,-4.532 6.354,-4.688 6.359,-4.785 6.365,-4.9 6.371,-5.031 6.376,-5.163 6.386,-5.298 6.401,-5.436 6.415,-5.573 6.438,-5.703 6.47,-5.826 6.501,-5.95 6.548,-6.055 6.611,-6.141 l -1.35,0 C 5.187,-5.945 5.141,-5.714 5.124,-5.445 5.106,-5.176 5.081,-4.917 5.046,-4.67 5,-4.35 4.903,-4.114 4.754,-3.965 4.605,-3.816 4.361,-3.742 4.022,-3.742 l -1.349,0 0,-2.399 -1.35,0 0,6.141 3.311,0 z m 4.367,0 0,-5.006 2.992,0 0,-1.135 -4.342,0 0,6.141 1.35,0 z m 7.336,-3.768 -0.775,2.254 -0.017,0 -0.8,-2.254 1.592,0 z M 16.259,0 l 2.296,-6.141 -1.402,0 -0.465,1.368 -2.294,0 -0.483,-1.368 -1.359,0 2.322,6.141 1.385,0 z m 4.402,0 2.564,-4.12 0.016,0 0,4.12 1.265,0 0,-6.141 -1.351,0 -2.554,4.111 -0.017,0 0,-4.111 -1.264,0 0,6.141 1.341,0 z m 8.875,-6.094 c -0.292,-0.123 -0.588,-0.184 -0.886,-0.184 -0.469,0 -0.892,0.082 -1.268,0.245 -0.375,0.164 -0.692,0.388 -0.949,0.675 -0.259,0.286 -0.456,0.624 -0.594,1.01 -0.138,0.387 -0.207,0.804 -0.207,1.251 0,0.459 0.069,0.884 0.207,1.277 0.138,0.393 0.335,0.736 0.594,1.028 0.257,0.293 0.574,0.522 0.949,0.688 0.376,0.167 0.799,0.249 1.268,0.249 0.316,0 0.621,-0.047 0.916,-0.141 0.296,-0.095 0.562,-0.234 0.8,-0.417 0.238,-0.185 0.434,-0.411 0.59,-0.68 0.154,-0.269 0.248,-0.579 0.283,-0.928 l -1.29,0 c -0.081,0.343 -0.235,0.601 -0.464,0.774 -0.229,0.171 -0.507,0.257 -0.835,0.257 -0.303,0 -0.561,-0.059 -0.774,-0.176 -0.211,-0.117 -0.384,-0.275 -0.516,-0.473 -0.131,-0.198 -0.227,-0.424 -0.287,-0.675 -0.06,-0.252 -0.091,-0.513 -0.091,-0.783 0,-0.257 0.031,-0.508 0.091,-0.753 0.06,-0.243 0.156,-0.463 0.287,-0.657 0.132,-0.194 0.305,-0.35 0.516,-0.469 0.213,-0.118 0.471,-0.176 0.774,-0.176 0.448,0 0.793,0.113 1.037,0.339 0.244,0.227 0.385,0.555 0.425,0.985 l -1.359,0 0,1.007 2.58,0 0,-3.32 -0.859,0 -0.138,0.696 c -0.241,-0.309 -0.507,-0.526 -0.8,-0.649 M 37.25,0 l 0,-1.136 -3.241,0 0,-1.316 2.974,0 0,-1.049 -2.974,0 0,-1.505 3.31,0 0,-1.135 -4.661,0 0,6.141 4.592,0 z m 2.75,0 2.563,-4.12 0.017,0 0,4.12 1.265,0 0,-6.141 -1.352,0 -2.553,4.111 -0.017,0 0,-4.111 -1.265,0 0,6.141 L 40,0 z m 7.964,-4.317 -2.588,0 0,1.049 2.588,0 0,-1.049 z M 50.858,0 l 2.563,-4.12 0.017,0 0,4.12 1.264,0 0,-6.141 -1.35,0 -2.554,4.111 -0.018,0 0,-4.111 -1.263,0 0,6.141 1.341,0 z m 7.634,0.688 -1.161,0 0,1.006 1.161,0 0,-1.006 z m 1.772,0 -1.161,0 0,1.006 1.161,0 0,-1.006 z m 0.456,-6.36 c -0.465,-0.404 -1.107,-0.606 -1.926,-0.606 -0.832,0 -1.476,0.2 -1.932,0.602 -0.455,0.401 -0.683,1.02 -0.683,1.858 l 0,3.818 1.35,0 0,-3.818 c 0,-0.167 0.015,-0.33 0.043,-0.491 0.029,-0.161 0.089,-0.302 0.181,-0.425 0.092,-0.123 0.219,-0.224 0.383,-0.301 0.163,-0.078 0.383,-0.117 0.658,-0.117 0.48,0 0.813,0.108 0.997,0.322 0.184,0.216 0.275,0.553 0.275,1.012 l 0,3.818 1.35,0 0,-3.818 c 0,-0.832 -0.231,-1.45 -0.696,-1.854 m 4.912,2.894 c 0.31,0 0.542,0.069 0.697,0.206 0.154,0.137 0.233,0.361 0.233,0.671 0,0.297 -0.079,0.514 -0.233,0.649 -0.155,0.135 -0.387,0.201 -0.697,0.201 l -1.479,0 0,-1.727 1.479,0 z M 66.114,0 c 0.276,0 0.524,-0.045 0.744,-0.135 0.221,-0.088 0.41,-0.21 0.568,-0.364 0.157,-0.155 0.278,-0.335 0.36,-0.538 0.084,-0.203 0.125,-0.423 0.125,-0.658 0,-0.362 -0.076,-0.673 -0.227,-0.937 -0.152,-0.264 -0.4,-0.465 -0.745,-0.602 l 0,-0.018 c 0.167,-0.045 0.304,-0.115 0.414,-0.21 0.109,-0.095 0.197,-0.206 0.266,-0.335 0.069,-0.129 0.118,-0.271 0.151,-0.426 0.031,-0.155 0.053,-0.309 0.064,-0.465 0.006,-0.097 0.012,-0.212 0.017,-0.343 0.005,-0.132 0.015,-0.267 0.031,-0.405 0.014,-0.137 0.037,-0.267 0.068,-0.39 0.031,-0.124 0.079,-0.229 0.143,-0.315 l -1.352,0 c -0.074,0.196 -0.12,0.427 -0.137,0.696 -0.017,0.269 -0.042,0.528 -0.078,0.775 -0.045,0.32 -0.142,0.556 -0.292,0.705 -0.149,0.149 -0.393,0.223 -0.731,0.223 l -1.35,0 0,-2.399 -1.35,0 0,6.141 3.311,0 z m 4.532,0 2.562,-4.12 0.018,0 0,4.12 1.263,0 0,-6.141 -1.349,0 -2.555,4.111 -0.018,0 0,-4.111 -1.263,0 0,6.141 1.342,0 z m 8.109,-2.486 c 0.241,0 0.439,0.057 0.594,0.172 0.154,0.115 0.232,0.3 0.232,0.559 0,0.144 -0.026,0.261 -0.078,0.353 -0.051,0.091 -0.119,0.164 -0.206,0.214 -0.086,0.052 -0.185,0.088 -0.296,0.108 -0.112,0.02 -0.229,0.029 -0.349,0.029 l -1.264,0 0,-1.435 1.367,0 z M 78.927,0 c 0.293,0 0.559,-0.027 0.801,-0.078 0.24,-0.052 0.446,-0.137 0.619,-0.254 0.172,-0.117 0.304,-0.273 0.398,-0.468 0.096,-0.196 0.143,-0.436 0.143,-0.722 0,-0.31 -0.071,-0.568 -0.211,-0.775 -0.141,-0.207 -0.348,-0.375 -0.623,-0.508 0.378,-0.108 0.66,-0.299 0.847,-0.571 0.186,-0.272 0.28,-0.601 0.28,-0.985 0,-0.309 -0.061,-0.577 -0.182,-0.803 -0.119,-0.227 -0.282,-0.412 -0.484,-0.555 -0.205,-0.144 -0.437,-0.25 -0.698,-0.318 -0.261,-0.069 -0.529,-0.104 -0.804,-0.104 l -2.975,0 0,6.141 2.889,0 z m -0.094,-5.092 c 0.131,0 0.258,0.013 0.378,0.039 0.12,0.026 0.226,0.069 0.318,0.129 0.092,0.061 0.165,0.143 0.22,0.245 0.054,0.103 0.081,0.236 0.081,0.396 0,0.314 -0.089,0.541 -0.267,0.675 -0.177,0.135 -0.412,0.202 -0.705,0.202 l -1.47,0 0,-1.686 1.445,0 z M 86.897,0 l 0,-1.136 -3.242,0 0,-1.316 2.977,0 0,-1.049 -2.977,0 0,-1.505 3.312,0 0,-1.135 -4.661,0 0,6.141 4.591,0 z m 4.239,-2.778 c 0.309,0 0.542,0.069 0.696,0.206 0.155,0.137 0.233,0.361 0.233,0.671 0,0.297 -0.078,0.514 -0.233,0.649 -0.154,0.135 -0.387,0.201 -0.696,0.201 l -1.479,0 0,-1.727 1.479,0 z M 91.618,0 c 0.275,0 0.523,-0.045 0.743,-0.135 0.22,-0.088 0.41,-0.21 0.568,-0.364 0.158,-0.155 0.278,-0.335 0.361,-0.538 0.083,-0.203 0.125,-0.423 0.125,-0.658 0,-0.362 -0.076,-0.673 -0.228,-0.937 -0.153,-0.264 -0.4,-0.465 -0.744,-0.602 l 0,-0.018 c 0.165,-0.045 0.304,-0.115 0.413,-0.21 0.108,-0.095 0.198,-0.206 0.266,-0.335 0.069,-0.129 0.119,-0.271 0.15,-0.426 0.032,-0.155 0.053,-0.309 0.065,-0.465 0.006,-0.097 0.012,-0.212 0.017,-0.343 0.006,-0.132 0.016,-0.267 0.03,-0.405 0.015,-0.137 0.038,-0.267 0.069,-0.39 0.032,-0.124 0.079,-0.229 0.142,-0.315 l -1.35,0 c -0.074,0.196 -0.12,0.427 -0.138,0.696 -0.016,0.269 -0.042,0.528 -0.077,0.775 -0.047,0.32 -0.143,0.556 -0.293,0.705 -0.148,0.149 -0.392,0.223 -0.73,0.223 l -1.35,0 0,-2.399 -1.35,0 0,6.141 3.311,0 z m 6.709,-6.094 c -0.292,-0.123 -0.588,-0.184 -0.886,-0.184 -0.469,0 -0.893,0.082 -1.268,0.245 -0.375,0.164 -0.693,0.388 -0.949,0.675 -0.258,0.286 -0.456,0.624 -0.594,1.01 -0.139,0.387 -0.207,0.804 -0.207,1.251 0,0.459 0.068,0.884 0.207,1.277 0.138,0.393 0.336,0.736 0.594,1.028 0.256,0.293 0.574,0.522 0.949,0.688 0.375,0.167 0.799,0.249 1.268,0.249 0.316,0 0.622,-0.047 0.916,-0.141 0.296,-0.095 0.562,-0.234 0.8,-0.417 0.239,-0.185 0.434,-0.411 0.59,-0.68 0.154,-0.269 0.248,-0.579 0.283,-0.928 l -1.29,0 c -0.081,0.343 -0.235,0.601 -0.464,0.774 -0.229,0.171 -0.507,0.257 -0.835,0.257 -0.303,0 -0.561,-0.059 -0.774,-0.176 -0.211,-0.117 -0.383,-0.275 -0.516,-0.473 -0.131,-0.198 -0.227,-0.424 -0.287,-0.675 -0.06,-0.252 -0.091,-0.513 -0.091,-0.783 0,-0.257 0.031,-0.508 0.091,-0.753 0.06,-0.243 0.156,-0.463 0.287,-0.657 0.133,-0.194 0.305,-0.35 0.516,-0.469 0.213,-0.118 0.471,-0.176 0.774,-0.176 0.449,0 0.792,0.113 1.037,0.339 0.244,0.227 0.385,0.555 0.425,0.985 l -1.358,0 0,1.007 2.58,0 0,-3.32 -0.86,0 -0.138,0.696 c -0.241,-0.309 -0.507,-0.526 -0.8,-0.649"
             id="path30"
             style="fill:#002855;fill-opacity:1;fill-rule:nonzero;stroke:none" /></g><g
           transform="translate(414.6899,299.3799)"
           id="g32"><path
             d="m 0,0 c -0.465,-0.404 -1.107,-0.606 -1.926,-0.606 -0.832,0 -1.475,0.201 -1.931,0.602 -0.456,0.401 -0.684,1.021 -0.684,1.858 l 0,3.817 1.35,0 0,-3.817 c 0,-0.166 0.015,-0.33 0.044,-0.491 0.028,-0.16 0.088,-0.302 0.18,-0.425 0.092,-0.124 0.219,-0.224 0.383,-0.301 0.163,-0.078 0.382,-0.116 0.658,-0.116 0.481,0 0.814,0.107 0.997,0.322 0.183,0.215 0.275,0.552 0.275,1.011 l 0,3.817 1.35,0 0,-3.817 C 0.696,1.022 0.464,0.404 0,0 m 3.56,5.671 2.563,-4.119 0.017,0 0,4.119 1.264,0 0,-6.14 -1.35,0 -2.554,4.111 -0.018,0 0,-4.111 -1.264,0 0,6.14 1.342,0 z m 6.699,-6.14 -1.351,0 0,6.14 1.351,0 0,-6.14 z m 2.961,0 -1.986,6.14 1.384,0 1.368,-4.317 0.016,0 1.384,4.317 1.394,0 -2.038,-6.14 -1.522,0 z m 9.15,6.14 0,-1.134 -3.243,0 0,-1.316 2.976,0 0,-1.049 -2.976,0 0,-1.505 3.312,0 0,-1.136 -4.662,0 0,6.14 4.593,0 z m 4.151,-2.777 c 0.31,0 0.542,0.068 0.697,0.207 0.155,0.137 0.232,0.36 0.232,0.67 0,0.298 -0.077,0.514 -0.232,0.649 -0.155,0.135 -0.387,0.203 -0.697,0.203 l -1.479,0 0,-1.729 1.479,0 z m 0.482,2.777 c 0.275,0 0.523,-0.044 0.744,-0.132 0.22,-0.09 0.41,-0.211 0.567,-0.366 C 28.472,5.018 28.592,4.839 28.675,4.635 28.758,4.432 28.8,4.212 28.8,3.978 28.8,3.616 28.724,3.304 28.572,3.04 28.419,2.776 28.172,2.576 27.829,2.438 l 0,-0.017 c 0.166,-0.046 0.303,-0.116 0.413,-0.211 0.108,-0.094 0.197,-0.206 0.265,-0.335 0.07,-0.129 0.119,-0.271 0.151,-0.426 0.031,-0.155 0.052,-0.31 0.064,-0.464 0.006,-0.098 0.012,-0.212 0.018,-0.344 0.006,-0.132 0.015,-0.267 0.03,-0.404 0.015,-0.138 0.038,-0.269 0.069,-0.392 0.032,-0.123 0.078,-0.227 0.141,-0.314 l -1.35,0 c -0.074,0.196 -0.12,0.427 -0.137,0.697 -0.017,0.27 -0.043,0.528 -0.077,0.774 -0.047,0.321 -0.143,0.556 -0.292,0.705 -0.15,0.149 -0.394,0.224 -0.732,0.224 l -1.35,0 0,-2.4 -1.35,0 0,6.14 3.311,0 z m 4.179,-4.626 c 0.074,-0.143 0.173,-0.259 0.297,-0.348 0.123,-0.089 0.268,-0.155 0.435,-0.198 0.166,-0.042 0.337,-0.065 0.515,-0.065 0.12,0 0.249,0.01 0.387,0.03 0.138,0.021 0.267,0.059 0.387,0.117 0.121,0.057 0.22,0.136 0.3,0.236 0.08,0.1 0.122,0.228 0.122,0.383 0,0.166 -0.053,0.3 -0.16,0.404 -0.106,0.103 -0.245,0.189 -0.417,0.258 -0.172,0.069 -0.367,0.129 -0.585,0.18 -0.217,0.052 -0.438,0.109 -0.662,0.173 -0.229,0.057 -0.453,0.127 -0.671,0.21 -0.217,0.083 -0.412,0.191 -0.585,0.323 -0.171,0.132 -0.31,0.296 -0.417,0.494 -0.105,0.198 -0.158,0.437 -0.158,0.718 0,0.315 0.067,0.589 0.201,0.821 0.135,0.233 0.311,0.427 0.53,0.581 0.216,0.155 0.465,0.27 0.739,0.344 0.274,0.075 0.55,0.111 0.825,0.111 0.321,0 0.629,-0.035 0.925,-0.107 0.296,-0.072 0.558,-0.188 0.787,-0.348 0.23,-0.16 0.411,-0.365 0.546,-0.615 0.135,-0.249 0.201,-0.552 0.201,-0.907 l -1.307,0 C 33.406,4.023 33.368,4.175 33.302,4.295 33.236,4.416 33.148,4.51 33.039,4.579 32.93,4.648 32.806,4.697 32.666,4.726 32.525,4.754 32.372,4.769 32.206,4.769 32.096,4.769 31.988,4.757 31.878,4.734 31.77,4.711 31.67,4.671 31.582,4.613 31.493,4.556 31.419,4.485 31.363,4.399 31.305,4.313 31.277,4.204 31.277,4.072 c 0,-0.12 0.023,-0.218 0.068,-0.292 0.047,-0.075 0.137,-0.144 0.272,-0.206 0.134,-0.064 0.32,-0.127 0.558,-0.19 0.239,-0.063 0.549,-0.143 0.934,-0.24 0.114,-0.023 0.273,-0.065 0.476,-0.125 0.204,-0.061 0.407,-0.157 0.607,-0.288 0.2,-0.132 0.374,-0.309 0.52,-0.529 0.147,-0.222 0.219,-0.504 0.219,-0.848 0,-0.28 -0.055,-0.541 -0.163,-0.782 C 34.66,0.331 34.498,0.124 34.283,-0.051 34.068,-0.227 33.8,-0.363 33.482,-0.46 c -0.317,-0.098 -0.686,-0.146 -1.105,-0.146 -0.338,0 -0.667,0.042 -0.984,0.125 -0.318,0.083 -0.6,0.213 -0.843,0.391 -0.244,0.177 -0.437,0.404 -0.58,0.679 -0.143,0.275 -0.213,0.602 -0.207,0.98 l 1.307,0 c 0,-0.206 0.037,-0.381 0.112,-0.524 m 6.277,-1.514 -1.351,0 0,6.14 1.351,0 0,-6.14 z m 1.083,5.006 0,1.134 5.032,0 0,-1.134 -1.84,0 0,-5.006 -1.351,0 0,5.006 -1.841,0 z m 7.628,1.822 -1.161,0 0,1.006 1.161,0 0,-1.006 z m 1.772,0 -1.161,0 0,1.006 1.161,0 0,-1.006 z m -0.679,-4.454 -0.774,2.253 -0.017,0 -0.801,-2.253 1.592,0 z m -0.078,3.766 2.297,-6.14 -1.402,0 -0.464,1.368 -2.296,0 -0.483,-1.368 -1.358,0 2.322,6.14 1.384,0 z m 2.168,-1.134 0,1.134 5.03,0 0,-1.134 -1.841,0 0,-5.006 -1.349,0 0,5.006 -1.84,0 z"
             id="path34"
             style="fill:#002855;fill-opacity:1;fill-rule:nonzero;stroke:none" /></g><g
           transform="translate(414.4487,314.4536)"
           id="g36"><path
             d="m 0,0 0,-1.135 -2.967,0 0,-1.419 2.571,0 0,-1.049 -2.571,0 0,-2.537 -1.35,0 0,6.14 L 0,0 z m 3.926,-2.778 c 0.309,0 0.542,0.069 0.697,0.207 0.155,0.137 0.232,0.361 0.232,0.67 0,0.298 -0.077,0.515 -0.232,0.65 -0.155,0.134 -0.388,0.202 -0.697,0.202 l -1.479,0 0,-1.729 1.479,0 z M 4.408,0 C 4.683,0 4.931,-0.044 5.151,-0.133 5.373,-0.222 5.562,-0.344 5.719,-0.499 5.877,-0.654 5.997,-0.833 6.08,-1.036 6.164,-1.24 6.205,-1.459 6.205,-1.694 6.205,-2.056 6.129,-2.368 5.977,-2.631 5.825,-2.895 5.577,-3.096 5.233,-3.233 l 0,-0.017 C 5.4,-3.296 5.537,-3.367 5.646,-3.461 5.755,-3.556 5.844,-3.667 5.913,-3.797 5.981,-3.926 6.032,-4.068 6.063,-4.223 6.095,-4.377 6.116,-4.532 6.127,-4.687 6.133,-4.785 6.139,-4.899 6.145,-5.03 6.151,-5.163 6.16,-5.297 6.175,-5.435 6.189,-5.573 6.212,-5.703 6.244,-5.826 6.275,-5.949 6.323,-6.054 6.385,-6.14 l -1.349,0 c -0.075,0.195 -0.121,0.427 -0.138,0.697 -0.017,0.269 -0.043,0.527 -0.078,0.774 -0.046,0.32 -0.143,0.555 -0.292,0.705 -0.149,0.149 -0.392,0.223 -0.731,0.223 l -1.35,0 0,-2.399 -1.35,0 0,6.14 3.311,0 z m 4.637,-6.14 -1.35,0 0,6.14 1.35,0 0,-6.14 z m 6.141,6.14 0,-1.135 -3.242,0 0,-1.316 2.974,0 0,-1.049 -2.974,0 0,-1.505 3.31,0 0,-1.135 -4.661,0 0,6.14 4.593,0 z m 3.876,-5.005 c 0.194,0 0.384,0.031 0.567,0.094 0.184,0.063 0.347,0.168 0.491,0.314 0.143,0.147 0.257,0.337 0.343,0.572 0.086,0.235 0.129,0.522 0.129,0.86 0,0.31 -0.029,0.589 -0.09,0.839 -0.06,0.249 -0.159,0.463 -0.296,0.64 -0.138,0.178 -0.321,0.314 -0.546,0.409 -0.227,0.094 -0.506,0.142 -0.839,0.142 l -0.963,0 0,-3.87 1.204,0 z M 19.157,0 c 0.394,0 0.763,-0.063 1.105,-0.189 0.34,-0.126 0.636,-0.315 0.885,-0.568 0.25,-0.252 0.444,-0.567 0.585,-0.946 0.141,-0.378 0.21,-0.823 0.21,-1.333 0,-0.447 -0.057,-0.86 -0.171,-1.238 -0.115,-0.379 -0.288,-0.705 -0.521,-0.98 -0.232,-0.275 -0.521,-0.492 -0.869,-0.65 -0.345,-0.157 -0.755,-0.236 -1.224,-0.236 l -2.649,0 0,6.14 2.649,0 z m 6.711,-2.778 c 0.308,0 0.542,0.069 0.697,0.207 0.154,0.137 0.231,0.361 0.231,0.67 0,0.298 -0.077,0.515 -0.231,0.65 -0.155,0.134 -0.389,0.202 -0.697,0.202 l -1.48,0 0,-1.729 1.48,0 z M 26.349,0 c 0.275,0 0.523,-0.044 0.744,-0.133 0.221,-0.089 0.409,-0.211 0.568,-0.366 0.157,-0.155 0.277,-0.334 0.361,-0.537 0.083,-0.204 0.125,-0.423 0.125,-0.658 0,-0.362 -0.076,-0.674 -0.229,-0.937 -0.152,-0.264 -0.4,-0.465 -0.744,-0.602 l 0,-0.017 c 0.166,-0.046 0.305,-0.117 0.413,-0.211 0.109,-0.095 0.199,-0.206 0.267,-0.336 0.068,-0.129 0.119,-0.271 0.15,-0.426 0.032,-0.154 0.053,-0.309 0.065,-0.464 0.006,-0.098 0.012,-0.212 0.017,-0.343 0.006,-0.133 0.016,-0.267 0.03,-0.405 0.014,-0.138 0.038,-0.268 0.069,-0.391 0.031,-0.123 0.079,-0.228 0.142,-0.314 l -1.35,0 c -0.074,0.195 -0.121,0.427 -0.138,0.697 -0.016,0.269 -0.043,0.527 -0.077,0.774 -0.047,0.32 -0.143,0.555 -0.293,0.705 -0.148,0.149 -0.392,0.223 -0.73,0.223 l -1.351,0 0,-2.399 -1.349,0 0,6.14 3.31,0 z m 4.509,-6.14 -1.351,0 0,6.14 1.351,0 0,-6.14 z m 5.391,4.502 c -0.082,0.129 -0.182,0.242 -0.302,0.339 -0.12,0.097 -0.257,0.174 -0.409,0.228 -0.151,0.055 -0.311,0.082 -0.477,0.082 -0.304,0 -0.561,-0.059 -0.773,-0.177 -0.213,-0.117 -0.385,-0.275 -0.516,-0.472 -0.133,-0.198 -0.229,-0.424 -0.289,-0.675 -0.061,-0.253 -0.09,-0.514 -0.09,-0.783 0,-0.258 0.029,-0.508 0.09,-0.753 0.06,-0.243 0.156,-0.463 0.289,-0.657 0.131,-0.195 0.303,-0.351 0.516,-0.469 0.212,-0.117 0.469,-0.176 0.773,-0.176 0.413,0 0.735,0.126 0.968,0.378 0.232,0.252 0.374,0.585 0.426,0.998 l 1.307,0 c -0.035,-0.385 -0.124,-0.731 -0.267,-1.041 -0.143,-0.309 -0.332,-0.573 -0.568,-0.791 -0.235,-0.218 -0.51,-0.384 -0.825,-0.498 -0.315,-0.115 -0.662,-0.173 -1.041,-0.173 -0.47,0 -0.893,0.082 -1.268,0.245 -0.376,0.163 -0.693,0.388 -0.951,0.675 -0.258,0.287 -0.455,0.624 -0.593,1.011 -0.137,0.387 -0.206,0.804 -0.206,1.251 0,0.459 0.069,0.885 0.206,1.277 0.138,0.393 0.335,0.736 0.593,1.028 0.258,0.292 0.575,0.521 0.951,0.687 0.375,0.167 0.798,0.25 1.268,0.25 0.338,0 0.658,-0.048 0.959,-0.146 0.301,-0.098 0.57,-0.239 0.809,-0.426 0.238,-0.186 0.433,-0.417 0.588,-0.692 0.156,-0.275 0.253,-0.59 0.292,-0.946 l -1.306,0 c -0.024,0.155 -0.074,0.296 -0.154,0.426 m 4.1,1.638 0,-2.356 2.485,0 0,2.356 1.35,0 0,-6.14 -1.35,0 0,2.648 -2.485,0 0,-2.648 -1.35,0 0,6.14 1.35,0 z m 7.956,-4.317 -2.589,0 0,1.049 2.589,0 0,-1.049 z m 4.432,0.55 -0.774,2.253 -0.017,0 -0.801,-2.253 1.592,0 z M 52.659,0 l 2.297,-6.14 -1.403,0 -0.464,1.367 -2.296,0 -0.482,-1.367 -1.358,0 2.321,6.14 1.385,0 z m 4.578,0 0,-5.005 2.992,0 0,-1.135 -4.342,0 0,6.14 1.35,0 z m 8.664,0 0,-1.135 -3.242,0 0,-1.316 2.976,0 0,-1.049 -2.976,0 0,-1.505 3.311,0 0,-1.135 -4.661,0 0,6.14 4.592,0 z m 1.041,0 1.564,0 1.205,-1.961 1.247,1.961 1.479,0 -1.97,-2.933 2.142,-3.207 -1.609,0 -1.341,2.124 -1.367,-2.124 -1.514,0 2.141,3.216 L 66.942,0 z m 9.949,-3.767 -0.773,2.253 -0.018,0 -0.8,-2.253 1.591,0 z M 76.814,0 l 2.296,-6.14 -1.402,0 -0.464,1.367 -2.296,0 -0.482,-1.367 -1.358,0 2.322,6.14 1.384,0 z m 4.44,0 2.563,-4.119 0.017,0 0,4.119 1.264,0 0,-6.14 -1.35,0 -2.554,4.11 -0.018,0 0,-4.11 -1.263,0 0,6.14 1.341,0 z m 7.842,-5.005 c 0.196,0 0.385,0.031 0.569,0.094 0.183,0.063 0.346,0.168 0.49,0.314 0.142,0.147 0.258,0.337 0.344,0.572 0.085,0.235 0.128,0.522 0.128,0.86 0,0.31 -0.03,0.589 -0.089,0.839 -0.061,0.249 -0.161,0.463 -0.297,0.64 -0.139,0.178 -0.321,0.314 -0.547,0.409 -0.227,0.094 -0.506,0.142 -0.838,0.142 l -0.963,0 0,-3.87 1.203,0 z M 89.191,0 c 0.395,0 0.765,-0.063 1.105,-0.189 0.341,-0.126 0.637,-0.315 0.886,-0.568 0.25,-0.252 0.443,-0.567 0.584,-0.946 0.141,-0.378 0.211,-0.823 0.211,-1.333 0,-0.447 -0.057,-0.86 -0.172,-1.238 -0.115,-0.379 -0.287,-0.705 -0.519,-0.98 -0.233,-0.275 -0.523,-0.492 -0.869,-0.65 C 90.07,-6.061 89.661,-6.14 89.191,-6.14 l -2.649,0 0,6.14 2.649,0 z m 8.487,0 0,-1.135 -3.241,0 0,-1.316 2.976,0 0,-1.049 -2.976,0 0,-1.505 3.312,0 0,-1.135 -4.663,0 0,6.14 4.592,0 z m 4.11,-2.778 c 0.309,0 0.542,0.069 0.697,0.207 0.154,0.137 0.231,0.361 0.231,0.67 0,0.298 -0.077,0.515 -0.231,0.65 -0.155,0.134 -0.388,0.202 -0.697,0.202 l -1.48,0 0,-1.729 1.48,0 z M 102.269,0 c 0.275,0 0.523,-0.044 0.743,-0.133 0.222,-0.089 0.41,-0.211 0.569,-0.366 0.158,-0.155 0.277,-0.334 0.361,-0.537 0.083,-0.204 0.125,-0.423 0.125,-0.658 0,-0.362 -0.076,-0.674 -0.229,-0.937 -0.152,-0.264 -0.399,-0.465 -0.744,-0.602 l 0,-0.017 c 0.167,-0.046 0.305,-0.117 0.413,-0.211 0.109,-0.095 0.199,-0.206 0.267,-0.336 0.068,-0.129 0.119,-0.271 0.15,-0.426 0.032,-0.154 0.053,-0.309 0.065,-0.464 0.006,-0.098 0.011,-0.212 0.017,-0.343 0.006,-0.133 0.016,-0.267 0.03,-0.405 0.014,-0.138 0.038,-0.268 0.07,-0.391 0.031,-0.123 0.078,-0.228 0.141,-0.314 l -1.35,0 c -0.074,0.195 -0.121,0.427 -0.138,0.697 -0.016,0.269 -0.043,0.527 -0.077,0.774 -0.046,0.32 -0.143,0.555 -0.293,0.705 -0.148,0.149 -0.392,0.223 -0.73,0.223 l -1.351,0 0,-2.399 -1.35,0 0,6.14 3.311,0 z"
             id="path38"
             style="fill:#002855;fill-opacity:1;fill-rule:nonzero;stroke:none" /></g><g
           transform="translate(396.6787,292.5342)"
           id="g40"><path
             d="m 0,0 -25.604,0 c 1.574,-1.283 3.394,-2.247 5.322,-2.916 l 14.946,0 C -3.402,-2.247 -1.577,-1.283 0,0"
             id="path42"
             style="fill:#002855;fill-opacity:1;fill-rule:nonzero;stroke:none" /></g><g
           transform="translate(326.1934,293.9971)"
           id="g44"><path
             d="m 0,0 11.097,0 0.018,0.053 -0.031,0 0.919,2.863 -10.899,0 L 0,0 z"
             id="path46"
             style="fill:#002855;fill-opacity:1;fill-rule:nonzero;stroke:none" /></g><g
           transform="translate(325.6851,292.5342)"
           id="g48"><path
             d="m 0,0 -1.105,-2.916 11.305,0 L 11.164,0 0,0 z"
             id="path50"
             style="fill:#002855;fill-opacity:1;fill-rule:nonzero;stroke:none" /></g><path
           d="m 302,289.618 10.596,0 0,2.916 -10.596,0 0,-2.916 z"
           id="path52"
           style="fill:#002855;fill-opacity:1;fill-rule:nonzero;stroke:none" /><path
           d="m 312.596,296.913 -10.596,0 0,-2.916 10.596,0 0,2.916 z"
           id="path54"
           style="fill:#002855;fill-opacity:1;fill-rule:nonzero;stroke:none" /><path
           d="m 312.596,301.288 -10.596,0 0,-2.917 10.596,0 0,2.917 z"
           id="path56"
           style="fill:#002855;fill-opacity:1;fill-rule:nonzero;stroke:none" /><path
           d="m 312.596,305.662 -10.596,0 0,-2.916 10.596,0 0,2.916 z"
           id="path58"
           style="fill:#002855;fill-opacity:1;fill-rule:nonzero;stroke:none" /><path
           d="m 312.596,318.794 -10.596,0 0,-2.916 10.596,0 0,2.916 z"
           id="path60"
           style="fill:#002855;fill-opacity:1;fill-rule:nonzero;stroke:none" /><path
           d="m 312.596,323.177 -10.596,0 0,-2.917 10.596,0 0,2.917 z"
           id="path62"
           style="fill:#002855;fill-opacity:1;fill-rule:nonzero;stroke:none" /><path
           d="m 302,329.01 32.383,0 0,2.917 -32.383,0 0,-2.917 z"
           id="path64"
           style="fill:#002855;fill-opacity:1;fill-rule:nonzero;stroke:none" /><path
           d="m 302,324.635 32.383,0 0,2.917 -32.383,0 0,-2.917 z"
           id="path66"
           style="fill:#002855;fill-opacity:1;fill-rule:nonzero;stroke:none" /><g
           transform="translate(344.9219,318.7944)"
           id="g68"><path
             d="m 0,0 -9.556,0 -1.105,-2.916 9.764,0 L 0,0 z"
             id="path70"
             style="fill:#002855;fill-opacity:1;fill-rule:nonzero;stroke:none" /></g><g
           transform="translate(339.1016,329.0103)"
           id="g72"><path
             d="M 0,0 13.19,0 12.059,2.917 1.105,2.917 0,0 z"
             id="path74"
             style="fill:#002855;fill-opacity:1;fill-rule:nonzero;stroke:none" /></g><g
           transform="translate(337.4883,324.6353)"
           id="g76"><path
             d="M 0,0 16.453,0 15.322,2.917 1.105,2.917 0,0 z"
             id="path78"
             style="fill:#002855;fill-opacity:1;fill-rule:nonzero;stroke:none" /></g><g
           transform="translate(346.2725,320.2529)"
           id="g80"><path
             d="m 0,0 9.32,0 -1.132,2.917 -17.48,0 -1.106,-2.917 9.459,0 0.41,1.337 0.118,0 L 0,0 z"
             id="path82"
             style="fill:#002855;fill-opacity:1;fill-rule:nonzero;stroke:none" /></g><g
           transform="translate(347.5806,315.8779)"
           id="g84"><path
             d="m 0,0 9.662,0 -1.131,2.917 -9.427,0 L 0,0 z"
             id="path86"
             style="fill:#002855;fill-opacity:1;fill-rule:nonzero;stroke:none" /></g><g
           transform="translate(348.8877,311.5083)"
           id="g88"><path
             d="m 0,0 10.005,0 -1.131,2.916 -9.77,0 L 0,0 z"
             id="path90"
             style="fill:#009775;fill-opacity:1;fill-rule:nonzero;stroke:none" /></g><g
           transform="translate(350.1953,307.1343)"
           id="g92"><path
             d="M 0,0 10.348,0 9.217,2.916 -0.896,2.916 0,0 z"
             id="path94"
             style="fill:#009775;fill-opacity:1;fill-rule:nonzero;stroke:none" /></g><g
           transform="translate(329.4199,302.7461)"
           id="g96"><path
             d="M 0,0 32.774,0 31.643,2.916 1.106,2.916 0,0 z"
             id="path98"
             style="fill:#002855;fill-opacity:1;fill-rule:nonzero;stroke:none" /></g><g
           transform="translate(327.8066,298.3711)"
           id="g100"><path
             d="M 0,0 36.037,0 34.906,2.917 1.105,2.917 0,0 z"
             id="path102"
             style="fill:#002855;fill-opacity:1;fill-rule:nonzero;stroke:none" /></g><g
           transform="translate(354.4063,293.9971)"
           id="g104"><path
             d="M 0,0 11.089,0 9.958,2.916 -0.977,2.916 0,0 z"
             id="path106"
             style="fill:#002855;fill-opacity:1;fill-rule:nonzero;stroke:none" /></g><g
           transform="translate(354.8169,292.5342)"
           id="g108"><path
             d="m 0,0 0.962,-2.916 11.365,0 L 11.197,0 0,0 z"
             id="path110"
             style="fill:#002855;fill-opacity:1;fill-rule:nonzero;stroke:none" /></g><path
           d="m 365.933,329.01 10.595,0 0,2.917 -10.595,0 0,-2.917 z"
           id="path112"
           style="fill:#002855;fill-opacity:1;fill-rule:nonzero;stroke:none" /><path
           d="m 365.933,324.635 10.595,0 0,2.917 -10.595,0 0,-2.917 z"
           id="path114"
           style="fill:#002855;fill-opacity:1;fill-rule:nonzero;stroke:none" /><path
           d="m 365.933,320.253 10.595,0 0,2.917 -10.595,0 0,-2.917 z"
           id="path116"
           style="fill:#002855;fill-opacity:1;fill-rule:nonzero;stroke:none" /><path
           d="m 365.933,315.878 10.595,0 0,2.917 -10.595,0 0,-2.917 z"
           id="path118"
           style="fill:#002855;fill-opacity:1;fill-rule:nonzero;stroke:none" /><path
           d="m 365.933,311.509 10.595,0 0,2.916 -10.595,0 0,-2.916 z"
           id="path120"
           style="fill:#009775;fill-opacity:1;fill-rule:nonzero;stroke:none" /><path
           d="m 365.933,307.134 10.595,0 0,2.916 -10.595,0 0,-2.916 z"
           id="path122"
           style="fill:#009775;fill-opacity:1;fill-rule:nonzero;stroke:none" /><g
           transform="translate(366.0171,302.7461)"
           id="g124"><path
             d="M 0,0 10.709,0 C 10.575,0.755 10.51,1.562 10.51,2.411 l 0,0.505 -10.594,0 0,-1.374 C -0.084,1.006 -0.043,0.503 0,0"
             id="path126"
             style="fill:#002855;fill-opacity:1;fill-rule:nonzero;stroke:none" /></g><g
           transform="translate(366.9644,298.3711)"
           id="g128"><path
             d="m 0,0 12.084,0 c -0.94,0.734 -1.58,1.731 -1.98,2.917 l -10.877,0 C -0.6,1.877 -0.348,0.896 0,0"
             id="path130"
             style="fill:#002855;fill-opacity:1;fill-rule:nonzero;stroke:none" /></g><g
           transform="translate(400.1938,296.9131)"
           id="g132"><path
             d="m 0,0 -32.629,0 c 0.569,-1.09 1.271,-2.057 2.068,-2.916 l 28.491,0 C -1.271,-2.057 -0.568,-1.09 0,0"
             id="path134"
             style="fill:#002855;fill-opacity:1;fill-rule:nonzero;stroke:none" /></g><g
           transform="translate(401.5698,301.2876)"
           id="g136"><path
             d="m 0,0 -10.88,0 c -0.401,-1.186 -1.046,-2.183 -1.992,-2.917 l 12.097,0 C -0.426,-2.02 -0.176,-1.04 0,0"
             id="path138"
             style="fill:#002855;fill-opacity:1;fill-rule:nonzero;stroke:none" /></g><path
           d="m 391.231,329.01 10.596,0 0,2.917 -10.596,0 0,-2.917 z"
           id="path140"
           style="fill:#002855;fill-opacity:1;fill-rule:nonzero;stroke:none" /><path
           d="m 391.231,324.635 10.596,0 0,2.917 -10.596,0 0,-2.917 z"
           id="path142"
           style="fill:#002855;fill-opacity:1;fill-rule:nonzero;stroke:none" /><path
           d="m 391.231,320.253 10.596,0 0,2.917 -10.596,0 0,-2.917 z"
           id="path144"
           style="fill:#002855;fill-opacity:1;fill-rule:nonzero;stroke:none" /><path
           d="m 391.231,315.878 10.596,0 0,2.917 -10.596,0 0,-2.917 z"
           id="path146"
           style="fill:#002855;fill-opacity:1;fill-rule:nonzero;stroke:none" /><path
           d="m 391.231,311.509 10.596,0 0,2.916 -10.596,0 0,-2.916 z"
           id="path148"
           style="fill:#009775;fill-opacity:1;fill-rule:nonzero;stroke:none" /><path
           d="m 391.231,307.134 10.596,0 0,2.916 -10.596,0 0,-2.916 z"
           id="path150"
           style="fill:#009775;fill-opacity:1;fill-rule:nonzero;stroke:none" /><g
           transform="translate(401.8276,304.2881)"
           id="g152"><path
             d="m 0,0 0,1.374 -10.596,0 0,-0.505 c 0,-0.849 -0.064,-1.656 -0.198,-2.411 l 10.709,0 C -0.043,-1.039 0,-0.536 0,0"
             id="path154"
             style="fill:#002855;fill-opacity:1;fill-rule:nonzero;stroke:none" /></g><g
           transform="translate(302,310.0508)"
           id="g156"><path
             d="m 0,0 0,-2.916 39.411,0 L 40.306,0 0,0 z"
             id="path158"
             style="fill:#009775;fill-opacity:1;fill-rule:nonzero;stroke:none" /></g><g
           transform="translate(302,314.4248)"
           id="g160"><path
             d="m 0,0 0,-2.916 40.718,0 L 41.613,0 0,0 z"
             id="path162"
             style="fill:#009775;fill-opacity:1;fill-rule:nonzero;stroke:none" /></g></g></g></g></svg>