<?xml version="1.0" encoding="UTF-8" standalone="no"?>
<!-- Created with Inkscape (http://www.inkscape.org/) -->

<svg
   xmlns:dc="http://purl.org/dc/elements/1.1/"
   xmlns:cc="http://creativecommons.org/ns#"
   xmlns:rdf="http://www.w3.org/1999/02/22-rdf-syntax-ns#"
   xmlns:svg="http://www.w3.org/2000/svg"
   xmlns="http://www.w3.org/2000/svg"
   version="1.1"
   width="271.81363"
   height="85.040123"
   id="svg2"
   xml:space="preserve"><metadata
     id="metadata8"><rdf:RDF><cc:Work
         rdf:about=""><dc:format>image/svg+xml</dc:format><dc:type
           rdf:resource="http://purl.org/dc/dcmitype/StillImage" /><dc:title></dc:title></cc:Work></rdf:RDF></metadata><defs
     id="defs6"><clipPath
       id="clipPath16"><path
         d="m 0,595.28 841.89,0 L 841.89,0 0,0 0,595.28 z"
         id="path18" /></clipPath></defs><g
     transform="matrix(1.25,0,0,-1.25,-391.25,414.93875)"
     id="g10"><g
       id="g12"><g
         clip-path="url(#clipPath16)"
         id="g14"><g
           transform="translate(423.9609,267.4189)"
           id="g20"><path
             d="M 0,0 C 0.309,0 0.541,0.068 0.695,0.206 0.851,0.344 0.928,0.567 0.928,0.877 0.928,1.175 0.851,1.392 0.695,1.526 0.541,1.661 0.309,1.729 0,1.729 l -1.479,0 L -1.479,0 0,0 z M 0.48,2.777 C 0.756,2.777 1.004,2.732 1.225,2.645 1.445,2.555 1.635,2.434 1.792,2.278 1.95,2.123 2.07,1.944 2.153,1.742 2.236,1.537 2.278,1.318 2.278,1.083 2.278,0.723 2.202,0.41 2.05,0.146 1.898,-0.118 1.65,-0.318 1.307,-0.456 l 0,-0.017 C 1.473,-0.52 1.61,-0.589 1.719,-0.684 1.828,-0.779 1.917,-0.891 1.986,-1.02 2.055,-1.148 2.105,-1.29 2.137,-1.444 2.168,-1.6 2.189,-1.754 2.201,-1.91 2.207,-2.006 2.213,-2.121 2.218,-2.253 2.224,-2.385 2.234,-2.52 2.248,-2.657 2.262,-2.795 2.285,-2.926 2.316,-3.049 2.348,-3.172 2.396,-3.276 2.459,-3.363 l -1.35,0 c -0.075,0.195 -0.121,0.427 -0.138,0.697 -0.017,0.27 -0.043,0.527 -0.077,0.773 -0.046,0.323 -0.144,0.557 -0.292,0.705 -0.15,0.151 -0.393,0.225 -0.731,0.225 l -1.35,0 0,-2.4 -1.351,0 0,6.14 3.31,0 z m 7.825,0 0,-1.134 -3.242,0 0,-1.316 2.976,0 0,-1.05 -2.976,0 0,-1.505 3.311,0 0,-1.135 -4.661,0 0,6.14 4.592,0 z m 5.227,-1.638 c -0.081,0.129 -0.18,0.243 -0.302,0.34 -0.119,0.097 -0.255,0.173 -0.408,0.228 -0.152,0.055 -0.31,0.082 -0.476,0.082 -0.305,0 -0.563,-0.06 -0.775,-0.177 C 11.359,1.494 11.188,1.337 11.056,1.139 10.924,0.941 10.828,0.717 10.768,0.465 c -0.061,-0.253 -0.09,-0.514 -0.09,-0.783 0,-0.258 0.029,-0.509 0.09,-0.752 0.06,-0.244 0.156,-0.464 0.288,-0.659 0.132,-0.195 0.303,-0.351 0.515,-0.468 0.212,-0.117 0.47,-0.177 0.775,-0.177 0.412,0 0.734,0.126 0.967,0.379 0.232,0.252 0.375,0.585 0.425,0.998 l 1.307,0 c -0.033,-0.385 -0.123,-0.732 -0.266,-1.042 -0.143,-0.309 -0.333,-0.572 -0.568,-0.79 -0.234,-0.218 -0.51,-0.384 -0.825,-0.499 -0.316,-0.115 -0.661,-0.172 -1.04,-0.172 -0.471,0 -0.894,0.082 -1.27,0.245 -0.375,0.163 -0.691,0.388 -0.949,0.675 -0.258,0.287 -0.456,0.623 -0.594,1.011 -0.137,0.386 -0.207,0.803 -0.207,1.251 0,0.459 0.07,0.884 0.207,1.277 0.138,0.393 0.336,0.734 0.594,1.027 0.258,0.292 0.574,0.522 0.949,0.688 0.376,0.166 0.799,0.25 1.27,0.25 0.338,0 0.657,-0.049 0.959,-0.147 0.3,-0.097 0.57,-0.239 0.808,-0.425 0.238,-0.186 0.434,-0.416 0.588,-0.693 0.155,-0.275 0.253,-0.591 0.293,-0.945 l -1.306,0 c -0.024,0.154 -0.076,0.297 -0.156,0.425 m 4.015,1.638 0,-2.356 2.485,0 0,2.356 1.351,0 0,-6.14 -1.351,0 0,2.648 -2.485,0 0,-2.648 -1.35,0 0,6.14 1.35,0 z m 5.067,-1.134 0,1.134 5.031,0 0,-1.134 -1.84,0 0,-5.006 -1.351,0 0,5.006 -1.84,0 z m 7.101,-3.493 c 0.074,-0.142 0.174,-0.257 0.297,-0.347 0.123,-0.088 0.268,-0.155 0.434,-0.198 0.167,-0.043 0.339,-0.064 0.517,-0.064 0.12,0 0.248,0.009 0.387,0.029 0.136,0.02 0.265,0.059 0.386,0.117 0.12,0.057 0.221,0.136 0.301,0.237 0.08,0.099 0.12,0.226 0.12,0.382 0,0.167 -0.053,0.301 -0.159,0.404 -0.105,0.102 -0.244,0.188 -0.416,0.258 -0.173,0.069 -0.367,0.129 -0.586,0.18 -0.217,0.053 -0.437,0.11 -0.662,0.172 -0.229,0.057 -0.453,0.128 -0.67,0.211 -0.219,0.083 -0.414,0.191 -0.585,0.323 -0.173,0.13 -0.311,0.296 -0.417,0.494 -0.106,0.199 -0.159,0.437 -0.159,0.718 0,0.316 0.067,0.588 0.202,0.822 0.135,0.231 0.311,0.425 0.528,0.58 0.218,0.155 0.465,0.269 0.74,0.345 0.275,0.074 0.55,0.111 0.826,0.111 0.32,0 0.629,-0.035 0.924,-0.108 0.295,-0.072 0.558,-0.187 0.787,-0.348 0.23,-0.161 0.412,-0.366 0.547,-0.614 0.134,-0.25 0.201,-0.553 0.201,-0.909 l -1.307,0 C 31.939,1.129 31.9,1.281 31.836,1.401 31.77,1.521 31.682,1.617 31.572,1.686 31.463,1.754 31.34,1.803 31.199,1.831 31.059,1.86 30.904,1.875 30.738,1.875 30.63,1.875 30.521,1.863 30.412,1.84 30.303,1.816 30.204,1.777 30.115,1.72 30.026,1.662 29.953,1.591 29.896,1.505 29.838,1.418 29.811,1.311 29.811,1.178 c 0,-0.12 0.022,-0.218 0.068,-0.293 0.046,-0.074 0.136,-0.143 0.271,-0.205 0.134,-0.065 0.321,-0.127 0.559,-0.19 0.237,-0.063 0.549,-0.144 0.933,-0.24 0.114,-0.023 0.273,-0.064 0.477,-0.125 0.203,-0.061 0.405,-0.157 0.606,-0.289 0.201,-0.131 0.375,-0.308 0.521,-0.527 0.146,-0.222 0.219,-0.504 0.219,-0.848 0,-0.281 -0.055,-0.542 -0.164,-0.783 C 33.192,-2.563 33.03,-2.771 32.815,-2.945 32.601,-3.12 32.334,-3.256 32.016,-3.354 31.697,-3.451 31.329,-3.5 30.91,-3.5 c -0.338,0 -0.666,0.041 -0.984,0.125 -0.319,0.083 -0.6,0.213 -0.843,0.391 -0.243,0.177 -0.437,0.404 -0.58,0.679 -0.144,0.276 -0.212,0.602 -0.206,0.981 l 1.307,0 c 0,-0.207 0.037,-0.381 0.111,-0.526 m 9.533,-1.513 -1.04,4.179 -0.017,0 -1.023,-4.179 -1.367,0 -1.626,6.14 1.35,0 0.971,-4.179 0.018,0 1.066,4.179 1.264,0 1.05,-4.23 0.016,0 1.006,4.23 1.324,0 -1.65,-6.14 -1.342,0 z m 5.316,0 -1.35,0 0,6.141 1.35,0 0,-6.141 z m 2.534,1.513 c 0.074,-0.142 0.173,-0.257 0.297,-0.347 0.123,-0.088 0.267,-0.155 0.434,-0.198 0.166,-0.043 0.338,-0.064 0.516,-0.064 0.12,0 0.249,0.009 0.387,0.029 0.137,0.02 0.266,0.059 0.387,0.117 0.12,0.057 0.221,0.136 0.301,0.237 0.08,0.099 0.12,0.226 0.12,0.382 0,0.167 -0.054,0.301 -0.159,0.404 -0.106,0.102 -0.244,0.188 -0.417,0.258 -0.171,0.069 -0.367,0.129 -0.585,0.18 -0.218,0.053 -0.439,0.11 -0.662,0.172 -0.229,0.057 -0.453,0.128 -0.67,0.211 -0.219,0.083 -0.414,0.191 -0.586,0.323 -0.172,0.13 -0.311,0.296 -0.416,0.494 -0.107,0.199 -0.159,0.437 -0.159,0.718 0,0.316 0.067,0.588 0.202,0.822 0.135,0.231 0.31,0.425 0.528,0.58 0.218,0.155 0.464,0.269 0.739,0.345 0.276,0.074 0.551,0.111 0.827,0.111 0.32,0 0.629,-0.035 0.923,-0.108 0.295,-0.072 0.558,-0.187 0.788,-0.348 0.229,-0.161 0.411,-0.366 0.545,-0.614 0.135,-0.25 0.203,-0.553 0.203,-0.909 l -1.307,0 c -0.012,0.184 -0.051,0.336 -0.117,0.456 -0.065,0.12 -0.153,0.216 -0.262,0.285 -0.108,0.068 -0.233,0.117 -0.374,0.145 -0.14,0.029 -0.294,0.044 -0.46,0.044 -0.109,0 -0.218,-0.012 -0.326,-0.035 C 47.686,1.816 47.587,1.777 47.498,1.72 47.409,1.662 47.336,1.591 47.278,1.505 47.221,1.418 47.192,1.311 47.192,1.178 c 0,-0.12 0.023,-0.218 0.07,-0.293 0.045,-0.074 0.135,-0.143 0.269,-0.205 0.136,-0.065 0.323,-0.127 0.561,-0.19 0.236,-0.063 0.549,-0.144 0.931,-0.24 0.116,-0.023 0.275,-0.064 0.479,-0.125 0.203,-0.061 0.405,-0.157 0.605,-0.289 0.202,-0.131 0.375,-0.308 0.521,-0.527 0.146,-0.222 0.22,-0.504 0.22,-0.848 0,-0.281 -0.055,-0.542 -0.164,-0.783 -0.11,-0.241 -0.271,-0.449 -0.487,-0.623 C 49.982,-3.12 49.717,-3.256 49.398,-3.354 49.08,-3.451 48.712,-3.5 48.293,-3.5 c -0.338,0 -0.666,0.041 -0.984,0.125 -0.319,0.083 -0.6,0.213 -0.844,0.391 -0.242,0.177 -0.437,0.404 -0.579,0.679 -0.144,0.276 -0.212,0.602 -0.206,0.981 l 1.306,0 c 0,-0.207 0.037,-0.381 0.112,-0.526 m 6.04,0 c 0.075,-0.142 0.173,-0.257 0.297,-0.347 0.123,-0.088 0.268,-0.155 0.434,-0.198 0.166,-0.043 0.338,-0.064 0.516,-0.064 0.12,0 0.25,0.009 0.386,0.029 0.139,0.02 0.268,0.059 0.387,0.117 0.121,0.057 0.222,0.136 0.302,0.237 0.08,0.099 0.12,0.226 0.12,0.382 0,0.167 -0.053,0.301 -0.158,0.404 -0.108,0.102 -0.246,0.188 -0.418,0.258 -0.172,0.069 -0.367,0.129 -0.584,0.18 -0.219,0.053 -0.44,0.11 -0.662,0.172 -0.231,0.057 -0.453,0.128 -0.672,0.211 -0.217,0.083 -0.412,0.191 -0.584,0.323 -0.172,0.13 -0.312,0.296 -0.418,0.494 -0.105,0.199 -0.158,0.437 -0.158,0.718 0,0.316 0.066,0.588 0.201,0.822 0.135,0.231 0.312,0.425 0.529,0.58 0.219,0.155 0.465,0.269 0.74,0.345 0.276,0.074 0.55,0.111 0.826,0.111 0.321,0 0.629,-0.035 0.924,-0.108 0.295,-0.072 0.557,-0.187 0.787,-0.348 0.229,-0.161 0.411,-0.366 0.546,-0.614 0.134,-0.25 0.203,-0.553 0.203,-0.909 l -1.308,0 C 55.362,1.129 55.324,1.281 55.258,1.401 55.191,1.521 55.104,1.617 54.996,1.686 54.887,1.754 54.762,1.803 54.621,1.831 54.48,1.86 54.328,1.875 54.161,1.875 54.053,1.875 53.943,1.863 53.834,1.84 53.726,1.816 53.627,1.777 53.538,1.72 53.449,1.662 53.376,1.591 53.318,1.505 53.262,1.418 53.232,1.311 53.232,1.178 c 0,-0.12 0.024,-0.218 0.069,-0.293 0.047,-0.074 0.137,-0.143 0.271,-0.205 0.135,-0.065 0.322,-0.127 0.559,-0.19 0.238,-0.063 0.549,-0.144 0.933,-0.24 0.116,-0.023 0.274,-0.064 0.477,-0.125 0.204,-0.061 0.406,-0.157 0.607,-0.289 0.201,-0.131 0.373,-0.308 0.52,-0.527 0.146,-0.222 0.22,-0.504 0.22,-0.848 0,-0.281 -0.056,-0.542 -0.163,-0.783 -0.11,-0.241 -0.272,-0.449 -0.487,-0.623 -0.215,-0.175 -0.481,-0.311 -0.8,-0.409 C 55.12,-3.451 54.752,-3.5 54.334,-3.5 c -0.339,0 -0.667,0.041 -0.985,0.125 -0.318,0.083 -0.599,0.213 -0.843,0.391 -0.244,0.177 -0.438,0.404 -0.58,0.679 -0.144,0.276 -0.213,0.602 -0.207,0.981 l 1.306,0 c 0,-0.207 0.038,-0.381 0.113,-0.526 m 9.425,4.627 0,-1.134 -3.243,0 0,-1.316 2.975,0 0,-1.05 -2.975,0 0,-1.505 3.311,0 0,-1.135 -4.661,0 0,6.14 4.593,0 z m 2.75,0 2.562,-4.119 0.018,0 0,4.119 1.263,0 0,-6.14 -1.349,0 -2.555,4.111 -0.018,0 0,-4.111 -1.263,0 0,6.14 1.342,0 z m 6.32,-4.627 c 0.075,-0.142 0.174,-0.257 0.297,-0.347 0.123,-0.088 0.268,-0.155 0.435,-0.198 0.166,-0.043 0.338,-0.064 0.516,-0.064 0.12,0 0.249,0.009 0.387,0.029 0.136,0.02 0.266,0.059 0.386,0.117 0.121,0.057 0.221,0.136 0.301,0.237 0.08,0.099 0.121,0.226 0.121,0.382 0,0.167 -0.054,0.301 -0.16,0.404 -0.105,0.102 -0.244,0.188 -0.416,0.258 -0.172,0.069 -0.367,0.129 -0.585,0.18 -0.218,0.053 -0.438,0.11 -0.662,0.172 -0.23,0.057 -0.453,0.128 -0.671,0.211 -0.218,0.083 -0.413,0.191 -0.585,0.323 -0.172,0.13 -0.311,0.296 -0.417,0.494 -0.106,0.199 -0.158,0.437 -0.158,0.718 0,0.316 0.066,0.588 0.201,0.822 0.135,0.231 0.311,0.425 0.529,0.58 0.217,0.155 0.464,0.269 0.74,0.345 0.274,0.074 0.549,0.111 0.825,0.111 0.321,0 0.629,-0.035 0.925,-0.108 0.295,-0.072 0.557,-0.187 0.786,-0.348 0.23,-0.161 0.412,-0.366 0.547,-0.614 0.134,-0.25 0.201,-0.553 0.201,-0.909 l -1.307,0 C 73.857,1.129 73.819,1.281 73.754,1.401 73.688,1.521 73.6,1.617 73.491,1.686 73.382,1.754 73.258,1.803 73.117,1.831 72.977,1.86 72.823,1.875 72.656,1.875 72.548,1.875 72.439,1.863 72.33,1.84 72.221,1.816 72.123,1.777 72.033,1.72 71.944,1.662 71.871,1.591 71.814,1.505 71.757,1.418 71.729,1.311 71.729,1.178 c 0,-0.12 0.022,-0.218 0.068,-0.293 0.046,-0.074 0.137,-0.143 0.271,-0.205 0.135,-0.065 0.321,-0.127 0.559,-0.19 0.237,-0.063 0.549,-0.144 0.933,-0.24 0.114,-0.023 0.274,-0.064 0.477,-0.125 0.203,-0.061 0.405,-0.157 0.606,-0.289 0.201,-0.131 0.375,-0.308 0.521,-0.527 0.147,-0.222 0.219,-0.504 0.219,-0.848 0,-0.281 -0.055,-0.542 -0.163,-0.783 -0.11,-0.241 -0.271,-0.449 -0.486,-0.623 -0.215,-0.175 -0.482,-0.311 -0.8,-0.409 -0.319,-0.097 -0.686,-0.146 -1.105,-0.146 -0.339,0 -0.667,0.041 -0.985,0.125 -0.319,0.083 -0.599,0.213 -0.842,0.391 -0.244,0.177 -0.438,0.404 -0.58,0.679 -0.145,0.276 -0.213,0.602 -0.207,0.981 l 1.306,0 c 0,-0.207 0.038,-0.381 0.112,-0.526 m 8.886,2.989 c -0.081,0.129 -0.181,0.243 -0.301,0.34 -0.12,0.097 -0.257,0.173 -0.409,0.228 -0.152,0.055 -0.311,0.082 -0.477,0.082 -0.305,0 -0.562,-0.06 -0.774,-0.177 C 78.346,1.494 78.174,1.337 78.041,1.139 77.91,0.941 77.814,0.717 77.754,0.465 77.693,0.212 77.663,-0.049 77.663,-0.318 c 0,-0.258 0.03,-0.509 0.091,-0.752 0.06,-0.244 0.156,-0.464 0.287,-0.659 0.133,-0.195 0.305,-0.351 0.517,-0.468 0.212,-0.117 0.469,-0.177 0.774,-0.177 0.412,0 0.734,0.126 0.967,0.379 0.232,0.252 0.374,0.585 0.426,0.998 l 1.306,0 C 81.998,-1.382 81.908,-1.729 81.766,-2.039 81.621,-2.348 81.433,-2.611 81.197,-2.829 80.963,-3.047 80.688,-3.213 80.373,-3.328 80.057,-3.443 79.71,-3.5 79.332,-3.5 c -0.471,0 -0.893,0.082 -1.269,0.245 -0.375,0.163 -0.692,0.388 -0.95,0.675 -0.258,0.287 -0.456,0.623 -0.593,1.011 -0.137,0.386 -0.207,0.803 -0.207,1.251 0,0.459 0.07,0.884 0.207,1.277 0.137,0.393 0.335,0.734 0.593,1.027 0.258,0.292 0.575,0.522 0.95,0.688 0.376,0.166 0.798,0.25 1.269,0.25 0.338,0 0.658,-0.049 0.959,-0.147 0.301,-0.097 0.57,-0.239 0.808,-0.425 0.237,-0.186 0.434,-0.416 0.589,-0.693 0.155,-0.275 0.251,-0.591 0.292,-0.945 l -1.307,0 C 80.65,0.868 80.599,1.011 80.519,1.139 m 4.143,1.638 0,-2.356 2.485,0 0,2.356 1.351,0 0,-6.14 -1.351,0 0,2.648 -2.485,0 0,-2.648 -1.349,0 0,6.14 1.349,0 z m 8.426,-3.766 -0.774,2.253 -0.017,0 -0.8,-2.253 1.591,0 z m -0.077,3.766 2.296,-6.14 -1.402,0 -0.464,1.368 -2.296,0 -0.482,-1.368 -1.358,0 2.321,6.14 1.385,0 z m 7.63,0 0,-1.134 -2.967,0 0,-1.42 2.572,0 0,-1.049 -2.572,0 0,-2.537 -1.35,0 0,6.14 4.317,0 z m 0.818,-1.134 0,1.134 5.031,0 0,-1.134 -1.842,0 0,-5.006 -1.349,0 0,5.006 -1.84,0 z"
             id="path22"
             style="fill:#76232f;fill-opacity:1;fill-rule:nonzero;stroke:none" /></g><g
           transform="translate(425.4482,279.5225)"
           id="g24"><path
             d="m 0,0 0,-1.136 -2.968,0 0,-1.419 2.572,0 0,-1.049 -2.572,0 0,-2.537 -1.349,0 0,6.141 L 0,0 z m 3.688,-3.767 -0.774,2.253 -0.018,0 -0.799,-2.253 1.591,0 z M 3.61,0 l 2.296,-6.141 -1.401,0 -0.465,1.368 -2.295,0 -0.482,-1.368 -1.359,0 L 2.226,0 3.61,0 z m 6.715,-1.639 c -0.08,0.129 -0.18,0.243 -0.301,0.34 -0.121,0.097 -0.257,0.173 -0.409,0.229 -0.151,0.053 -0.311,0.081 -0.477,0.081 -0.304,0 -0.562,-0.06 -0.774,-0.177 C 8.151,-1.283 7.979,-1.441 7.849,-1.639 7.716,-1.836 7.62,-2.063 7.56,-2.313 7.5,-2.566 7.47,-2.827 7.47,-3.097 c 0,-0.257 0.03,-0.508 0.09,-0.753 0.06,-0.242 0.156,-0.463 0.289,-0.657 0.13,-0.194 0.302,-0.35 0.515,-0.469 0.212,-0.117 0.47,-0.175 0.774,-0.175 0.413,0 0.736,0.126 0.967,0.378 0.233,0.252 0.374,0.585 0.426,0.998 l 1.308,0 C 11.804,-4.16 11.716,-4.507 11.571,-4.816 11.429,-5.125 11.239,-5.39 11.005,-5.607 10.77,-5.824 10.494,-5.991 10.179,-6.106 9.863,-6.221 9.517,-6.277 9.138,-6.277 c -0.47,0 -0.893,0.082 -1.268,0.244 -0.376,0.164 -0.693,0.388 -0.951,0.675 -0.258,0.286 -0.455,0.624 -0.593,1.01 -0.138,0.388 -0.206,0.805 -0.206,1.251 0,0.46 0.068,0.885 0.206,1.278 0.138,0.392 0.335,0.735 0.593,1.028 0.258,0.291 0.575,0.521 0.951,0.687 0.375,0.167 0.798,0.25 1.268,0.25 0.339,0 0.658,-0.048 0.959,-0.146 0.301,-0.098 0.57,-0.24 0.808,-0.426 0.239,-0.186 0.435,-0.417 0.589,-0.692 0.155,-0.276 0.253,-0.591 0.292,-0.946 l -1.307,0 c -0.023,0.154 -0.074,0.296 -0.154,0.425 m 3.93,1.639 0,-2.357 2.484,0 0,2.357 1.35,0 0,-6.141 -1.35,0 0,2.65 -2.484,0 0,-2.65 -1.352,0 0,6.141 1.352,0 z m 7.929,-2.486 c 0.241,0 0.438,0.058 0.592,0.173 0.156,0.114 0.233,0.3 0.233,0.559 0,0.143 -0.026,0.26 -0.077,0.352 -0.052,0.091 -0.12,0.164 -0.206,0.214 -0.086,0.052 -0.186,0.088 -0.297,0.108 -0.112,0.02 -0.228,0.03 -0.348,0.03 l -1.265,0 0,-1.436 1.368,0 z M 22.355,0 c 0.292,0 0.559,-0.026 0.8,-0.078 0.241,-0.051 0.448,-0.137 0.619,-0.254 0.172,-0.117 0.306,-0.273 0.401,-0.468 0.094,-0.195 0.14,-0.436 0.14,-0.721 0,-0.311 -0.069,-0.569 -0.21,-0.776 -0.14,-0.206 -0.348,-0.375 -0.624,-0.507 0.379,-0.109 0.663,-0.3 0.848,-0.571 0.187,-0.273 0.279,-0.602 0.279,-0.985 0,-0.31 -0.06,-0.578 -0.18,-0.804 -0.12,-0.227 -0.282,-0.412 -0.486,-0.555 -0.204,-0.143 -0.435,-0.25 -0.697,-0.318 -0.26,-0.069 -0.528,-0.104 -0.804,-0.104 l -2.975,0 0,6.141 2.889,0 z m -0.094,-5.092 c 0.132,0 0.258,0.014 0.379,0.039 0.12,0.026 0.226,0.07 0.318,0.129 0.092,0.061 0.164,0.143 0.219,0.246 0.054,0.103 0.082,0.235 0.082,0.395 0,0.315 -0.09,0.541 -0.268,0.676 -0.178,0.134 -0.412,0.201 -0.705,0.201 l -1.47,0 0,-1.686 1.445,0 z M 30.283,0 l 0,-1.136 -3.241,0 0,-1.315 2.975,0 0,-1.049 -2.975,0 0,-1.506 3.31,0 0,-1.135 -4.662,0 0,6.141 4.593,0 z m 4.023,-2.778 c 0.31,0 0.542,0.069 0.697,0.206 0.154,0.138 0.232,0.361 0.232,0.671 0,0.297 -0.078,0.514 -0.232,0.649 -0.155,0.135 -0.387,0.202 -0.697,0.202 l -1.479,0 0,-1.728 1.479,0 z M 34.788,0 c 0.275,0 0.523,-0.045 0.744,-0.134 0.22,-0.089 0.408,-0.21 0.567,-0.366 0.158,-0.154 0.278,-0.333 0.361,-0.536 0.083,-0.204 0.125,-0.423 0.125,-0.659 0,-0.362 -0.076,-0.673 -0.228,-0.936 -0.152,-0.265 -0.4,-0.466 -0.744,-0.603 l 0,-0.017 c 0.166,-0.046 0.304,-0.116 0.413,-0.21 0.11,-0.096 0.198,-0.207 0.266,-0.336 0.069,-0.129 0.119,-0.271 0.15,-0.426 0.033,-0.154 0.054,-0.309 0.066,-0.464 0.005,-0.098 0.011,-0.212 0.016,-0.344 0.006,-0.131 0.016,-0.267 0.032,-0.405 0.013,-0.136 0.036,-0.267 0.068,-0.39 0.031,-0.123 0.078,-0.229 0.142,-0.315 l -1.351,0 c -0.074,0.196 -0.12,0.427 -0.137,0.698 -0.017,0.268 -0.043,0.527 -0.078,0.773 -0.045,0.32 -0.142,0.557 -0.292,0.705 -0.149,0.149 -0.393,0.223 -0.731,0.223 l -1.35,0 0,-2.399 -1.35,0 0,6.141 3.311,0 z m 7.652,0 0,-1.136 -3.242,0 0,-1.315 2.976,0 0,-1.049 -2.976,0 0,-1.506 3.311,0 0,-1.135 -4.661,0 0,6.141 4.592,0 z m 2.552,-6.141 -1.351,0 0,6.141 1.351,0 0,-6.141 z m 5.304,4.502 c -0.08,0.129 -0.18,0.243 -0.301,0.34 -0.12,0.097 -0.256,0.173 -0.408,0.229 -0.152,0.053 -0.311,0.081 -0.478,0.081 -0.303,0 -0.561,-0.06 -0.773,-0.177 -0.212,-0.117 -0.384,-0.275 -0.517,-0.473 -0.131,-0.197 -0.227,-0.424 -0.287,-0.674 -0.06,-0.253 -0.091,-0.514 -0.091,-0.784 0,-0.257 0.031,-0.508 0.091,-0.753 0.06,-0.242 0.156,-0.463 0.287,-0.657 0.133,-0.194 0.305,-0.35 0.517,-0.469 0.212,-0.117 0.47,-0.175 0.773,-0.175 0.413,0 0.736,0.126 0.968,0.378 0.233,0.252 0.374,0.585 0.426,0.998 l 1.307,0 C 51.776,-4.16 51.687,-4.507 51.544,-4.816 51.399,-5.125 51.21,-5.39 50.976,-5.607 c -0.235,-0.217 -0.51,-0.384 -0.826,-0.499 -0.315,-0.115 -0.662,-0.171 -1.041,-0.171 -0.469,0 -0.892,0.082 -1.268,0.244 -0.375,0.164 -0.692,0.388 -0.949,0.675 -0.258,0.286 -0.456,0.624 -0.594,1.01 -0.138,0.388 -0.206,0.805 -0.206,1.251 0,0.46 0.068,0.885 0.206,1.278 0.138,0.392 0.336,0.735 0.594,1.028 0.257,0.291 0.574,0.521 0.949,0.687 0.376,0.167 0.799,0.25 1.268,0.25 0.339,0 0.659,-0.048 0.96,-0.146 0.3,-0.098 0.57,-0.24 0.808,-0.426 0.237,-0.186 0.435,-0.417 0.589,-0.692 0.154,-0.276 0.252,-0.591 0.293,-0.946 l -1.308,0 c -0.022,0.154 -0.074,0.296 -0.155,0.425 m 3.93,1.639 0,-2.357 2.485,0 0,2.357 1.35,0 0,-6.141 -1.35,0 0,2.65 -2.485,0 0,-2.65 -1.35,0 0,6.141 1.35,0 z"
             id="path26"
             style="fill:#76232f;fill-opacity:1;fill-rule:nonzero;stroke:none" /></g><g
           transform="translate(425.7227,295.7881)"
           id="g28"><path
             d="m 0,0 0,-1.137 -3.242,0 0,-1.315 2.976,0 0,-1.049 -2.976,0 0,-1.505 3.311,0 0,-1.135 -4.661,0 0,6.141 L 0,0 z m 4.152,-2.778 c 0.31,0 0.541,0.069 0.697,0.206 0.155,0.136 0.232,0.361 0.232,0.671 0,0.297 -0.077,0.514 -0.232,0.649 -0.156,0.135 -0.387,0.201 -0.697,0.201 l -1.478,0 0,-1.727 1.478,0 z M 4.634,0 C 4.909,0 5.157,-0.045 5.377,-0.135 5.598,-0.223 5.787,-0.345 5.945,-0.5 6.104,-0.654 6.224,-0.834 6.307,-1.037 6.389,-1.24 6.432,-1.46 6.432,-1.695 6.432,-2.057 6.355,-2.369 6.203,-2.632 6.052,-2.896 5.803,-3.096 5.459,-3.234 l 0,-0.018 C 5.625,-3.297 5.764,-3.367 5.872,-3.462 5.98,-3.557 6.07,-3.668 6.139,-3.797 6.207,-3.926 6.258,-4.068 6.289,-4.224 6.32,-4.378 6.342,-4.533 6.354,-4.688 6.359,-4.785 6.365,-4.9 6.371,-5.031 6.377,-5.164 6.387,-5.298 6.401,-5.436 6.416,-5.573 6.438,-5.703 6.47,-5.827 6.502,-5.95 6.549,-6.055 6.611,-6.141 l -1.349,0 C 5.187,-5.945 5.141,-5.713 5.124,-5.445 5.106,-5.176 5.081,-4.917 5.047,-4.67 5.001,-4.35 4.903,-4.115 4.754,-3.965 4.605,-3.816 4.361,-3.742 4.023,-3.742 l -1.349,0 0,-2.399 -1.352,0 0,6.141 3.312,0 z m 4.367,0 0,-5.006 2.993,0 0,-1.135 -4.343,0 0,6.141 1.35,0 z m 7.335,-3.768 -0.773,2.253 -0.018,0 -0.799,-2.253 1.59,0 z M 16.26,0 l 2.295,-6.141 -1.402,0 -0.464,1.368 -2.295,0 -0.483,-1.368 -1.358,0 L 14.875,0 16.26,0 z m 4.402,0 2.563,-4.119 0.017,0 0,4.119 1.264,0 0,-6.141 -1.35,0 -2.554,4.111 -0.018,0 0,-4.111 -1.264,0 0,6.141 1.342,0 z m 8.875,-6.094 c -0.293,-0.123 -0.588,-0.185 -0.887,-0.185 -0.469,0 -0.892,0.083 -1.267,0.246 -0.376,0.164 -0.693,0.388 -0.951,0.675 -0.258,0.287 -0.455,0.624 -0.593,1.01 -0.138,0.387 -0.206,0.805 -0.206,1.252 0,0.457 0.068,0.883 0.206,1.276 0.138,0.394 0.335,0.736 0.593,1.028 0.258,0.292 0.575,0.522 0.951,0.688 0.375,0.167 0.798,0.249 1.267,0.249 0.317,0 0.621,-0.046 0.916,-0.141 0.295,-0.095 0.563,-0.234 0.801,-0.418 0.237,-0.184 0.434,-0.409 0.588,-0.679 0.154,-0.269 0.25,-0.579 0.284,-0.928 l -1.29,0 c -0.08,0.343 -0.234,0.601 -0.465,0.773 -0.228,0.172 -0.506,0.258 -0.834,0.258 -0.302,0 -0.561,-0.058 -0.773,-0.176 -0.213,-0.117 -0.385,-0.275 -0.516,-0.473 -0.132,-0.198 -0.228,-0.423 -0.288,-0.675 -0.06,-0.252 -0.091,-0.512 -0.091,-0.782 0,-0.258 0.031,-0.509 0.091,-0.753 0.06,-0.244 0.156,-0.463 0.288,-0.659 0.131,-0.194 0.303,-0.349 0.516,-0.467 0.212,-0.119 0.471,-0.177 0.773,-0.177 0.448,0 0.793,0.113 1.038,0.339 0.243,0.227 0.384,0.555 0.425,0.985 l -1.359,0 0,1.006 2.58,0 0,-3.319 -0.86,0 -0.138,0.696 c -0.24,-0.309 -0.507,-0.526 -0.799,-0.649 M 37.25,0 l 0,-1.137 -3.242,0 0,-1.315 2.976,0 0,-1.049 -2.976,0 0,-1.505 3.31,0 0,-1.135 -4.66,0 0,6.141 4.592,0 z m 2.75,0 2.563,-4.119 0.017,0 0,4.119 1.264,0 0,-6.141 -1.35,0 -2.554,4.111 -0.017,0 0,-4.111 -1.265,0 0,6.141 L 40,0 z m 7.965,-4.317 -2.589,0 0,1.049 2.589,0 0,-1.049 z M 50.857,0 l 2.563,-4.119 0.018,0 0,4.119 1.263,0 0,-6.141 -1.349,0 -2.554,4.111 -0.017,0 0,-4.111 -1.264,0 0,6.141 1.34,0 z m 7.635,0.688 -1.161,0 0,1.006 1.161,0 0,-1.006 z m 1.772,0 -1.161,0 0,1.006 1.161,0 0,-1.006 z m 0.456,-6.36 c -0.464,-0.404 -1.107,-0.607 -1.927,-0.607 -0.831,0 -1.475,0.201 -1.93,0.603 -0.456,0.401 -0.683,1.02 -0.683,1.858 l 0,3.818 1.349,0 0,-3.818 c 0,-0.167 0.014,-0.33 0.043,-0.492 0.03,-0.16 0.089,-0.301 0.181,-0.424 0.092,-0.123 0.22,-0.224 0.383,-0.301 0.163,-0.078 0.382,-0.117 0.657,-0.117 0.482,0 0.814,0.108 0.998,0.322 0.184,0.217 0.275,0.553 0.275,1.012 l 0,3.818 1.35,0 0,-3.818 c 0,-0.832 -0.232,-1.45 -0.696,-1.854 m 4.913,2.894 c 0.309,0 0.541,0.069 0.696,0.206 0.155,0.136 0.232,0.361 0.232,0.671 0,0.297 -0.077,0.514 -0.232,0.649 -0.155,0.135 -0.387,0.201 -0.696,0.201 l -1.48,0 0,-1.727 1.48,0 z M 66.113,0 c 0.277,0 0.524,-0.045 0.744,-0.135 0.221,-0.088 0.411,-0.21 0.569,-0.365 0.158,-0.154 0.277,-0.334 0.361,-0.537 0.083,-0.203 0.124,-0.423 0.124,-0.658 0,-0.362 -0.076,-0.674 -0.227,-0.937 -0.153,-0.264 -0.401,-0.464 -0.745,-0.602 l 0,-0.018 c 0.166,-0.045 0.304,-0.115 0.414,-0.21 0.108,-0.095 0.198,-0.206 0.266,-0.335 0.069,-0.129 0.119,-0.271 0.151,-0.427 0.031,-0.154 0.052,-0.309 0.064,-0.464 0.006,-0.097 0.012,-0.212 0.018,-0.343 0.005,-0.133 0.015,-0.267 0.029,-0.405 0.015,-0.137 0.037,-0.267 0.069,-0.391 0.031,-0.123 0.079,-0.228 0.142,-0.314 l -1.35,0 c -0.075,0.196 -0.121,0.428 -0.138,0.696 -0.017,0.269 -0.043,0.528 -0.077,0.775 -0.047,0.32 -0.144,0.555 -0.293,0.705 -0.148,0.149 -0.392,0.223 -0.73,0.223 l -1.351,0 0,-2.399 -1.35,0 0,6.141 3.31,0 z m 4.532,0 2.563,-4.119 0.017,0 0,4.119 1.263,0 0,-6.141 -1.349,0 -2.555,4.111 -0.017,0 0,-4.111 -1.263,0 0,6.141 1.341,0 z m 8.111,-2.486 c 0.24,0 0.437,0.056 0.592,0.172 0.156,0.115 0.233,0.3 0.233,0.559 0,0.144 -0.026,0.261 -0.077,0.353 -0.053,0.091 -0.121,0.163 -0.207,0.214 -0.086,0.051 -0.185,0.088 -0.297,0.108 -0.111,0.019 -0.228,0.029 -0.348,0.029 l -1.264,0 0,-1.435 1.368,0 z M 78.928,0 c 0.292,0 0.558,-0.027 0.799,-0.078 0.241,-0.052 0.447,-0.137 0.619,-0.254 0.172,-0.117 0.305,-0.273 0.4,-0.469 0.094,-0.195 0.142,-0.435 0.142,-0.722 0,-0.309 -0.07,-0.567 -0.21,-0.774 -0.141,-0.207 -0.35,-0.375 -0.624,-0.508 0.378,-0.109 0.661,-0.299 0.846,-0.572 0.188,-0.271 0.28,-0.6 0.28,-0.984 0,-0.309 -0.06,-0.577 -0.18,-0.804 -0.121,-0.226 -0.283,-0.411 -0.486,-0.555 -0.203,-0.143 -0.436,-0.249 -0.698,-0.317 -0.259,-0.068 -0.527,-0.104 -0.802,-0.104 l -2.976,0 0,6.141 2.89,0 z m -0.096,-5.092 c 0.133,0 0.258,0.013 0.379,0.039 0.12,0.026 0.227,0.069 0.318,0.129 0.092,0.06 0.164,0.143 0.219,0.245 0.055,0.103 0.082,0.236 0.082,0.396 0,0.314 -0.089,0.541 -0.267,0.675 -0.177,0.135 -0.413,0.202 -0.705,0.202 l -1.47,0 0,-1.686 1.444,0 z M 86.898,0 l 0,-1.137 -3.242,0 0,-1.315 2.975,0 0,-1.049 -2.975,0 0,-1.505 3.311,0 0,-1.135 -4.661,0 0,6.141 4.592,0 z m 4.238,-2.778 c 0.309,0 0.542,0.069 0.696,0.206 0.154,0.136 0.232,0.361 0.232,0.671 0,0.297 -0.078,0.514 -0.232,0.649 -0.154,0.135 -0.387,0.201 -0.696,0.201 l -1.48,0 0,-1.727 1.48,0 z M 91.617,0 c 0.276,0 0.524,-0.045 0.744,-0.135 0.221,-0.088 0.41,-0.21 0.568,-0.365 0.157,-0.154 0.278,-0.334 0.361,-0.537 0.083,-0.203 0.124,-0.423 0.124,-0.658 0,-0.362 -0.076,-0.674 -0.227,-0.937 -0.152,-0.264 -0.4,-0.464 -0.744,-0.602 l 0,-0.018 c 0.166,-0.045 0.303,-0.115 0.412,-0.21 0.109,-0.095 0.198,-0.206 0.267,-0.335 0.069,-0.129 0.119,-0.271 0.151,-0.427 0.032,-0.154 0.052,-0.309 0.065,-0.464 0.005,-0.097 0.011,-0.212 0.016,-0.343 0.005,-0.133 0.016,-0.267 0.031,-0.405 0.013,-0.137 0.037,-0.267 0.068,-0.391 0.031,-0.123 0.078,-0.228 0.143,-0.314 l -1.351,0 c -0.075,0.196 -0.12,0.428 -0.138,0.696 -0.017,0.269 -0.043,0.528 -0.077,0.775 -0.046,0.32 -0.143,0.555 -0.292,0.705 -0.15,0.149 -0.393,0.223 -0.732,0.223 l -1.35,0 0,-2.399 -1.349,0 0,6.141 3.31,0 z m 6.71,-6.094 c -0.292,-0.123 -0.588,-0.185 -0.886,-0.185 -0.47,0 -0.892,0.083 -1.267,0.246 -0.377,0.164 -0.694,0.388 -0.951,0.675 -0.258,0.287 -0.455,0.624 -0.594,1.01 -0.137,0.387 -0.206,0.805 -0.206,1.252 0,0.457 0.069,0.883 0.206,1.276 0.139,0.394 0.336,0.736 0.594,1.028 0.257,0.292 0.574,0.522 0.951,0.688 0.375,0.167 0.797,0.249 1.267,0.249 0.315,0 0.622,-0.046 0.916,-0.141 0.295,-0.095 0.562,-0.234 0.799,-0.418 0.239,-0.184 0.436,-0.409 0.59,-0.679 0.154,-0.269 0.25,-0.579 0.283,-0.928 l -1.289,0 c -0.08,0.343 -0.235,0.601 -0.465,0.773 -0.228,0.172 -0.507,0.258 -0.834,0.258 -0.304,0 -0.562,-0.058 -0.773,-0.176 -0.213,-0.117 -0.385,-0.275 -0.517,-0.473 -0.131,-0.198 -0.227,-0.423 -0.288,-0.675 -0.06,-0.252 -0.09,-0.512 -0.09,-0.782 0,-0.258 0.03,-0.509 0.09,-0.753 0.061,-0.244 0.157,-0.463 0.288,-0.659 0.132,-0.194 0.304,-0.349 0.517,-0.467 0.211,-0.119 0.469,-0.177 0.773,-0.177 0.448,0 0.793,0.113 1.038,0.339 0.242,0.227 0.384,0.555 0.424,0.985 l -1.358,0 0,1.006 2.58,0 0,-3.319 -0.86,0 -0.138,0.696 c -0.24,-0.309 -0.508,-0.526 -0.8,-0.649"
             id="path30"
             style="fill:#002855;fill-opacity:1;fill-rule:nonzero;stroke:none" /></g><g
           transform="translate(425.6895,299.4033)"
           id="g32"><path
             d="m 0,0 c -0.465,-0.404 -1.107,-0.606 -1.926,-0.606 -0.832,0 -1.475,0.201 -1.931,0.602 -0.456,0.401 -0.684,1.021 -0.684,1.858 l 0,3.818 1.35,0 0,-3.818 c 0,-0.167 0.015,-0.331 0.043,-0.491 0.029,-0.16 0.089,-0.302 0.181,-0.425 0.092,-0.124 0.219,-0.224 0.383,-0.301 0.163,-0.078 0.382,-0.116 0.658,-0.116 0.481,0 0.814,0.107 0.996,0.322 0.184,0.216 0.276,0.552 0.276,1.011 l 0,3.818 1.349,0 0,-3.818 C 0.695,1.022 0.464,0.405 0,0 m 3.56,5.672 2.563,-4.119 0.017,0 0,4.119 1.263,0 0,-6.14 -1.349,0 -2.554,4.11 -0.018,0 0,-4.11 -1.263,0 0,6.14 1.341,0 z m 6.699,-6.14 -1.351,0 0,6.14 1.351,0 0,-6.14 z m 2.961,0 -1.987,6.14 1.384,0 1.367,-4.317 0.018,0 1.385,4.317 1.392,0 -2.037,-6.14 -1.522,0 z m 9.149,6.14 0,-1.136 -3.242,0 0,-1.316 2.976,0 0,-1.049 -2.976,0 0,-1.504 3.311,0 0,-1.135 -4.661,0 0,6.14 4.592,0 z m 4.152,-2.778 c 0.309,0 0.542,0.069 0.697,0.206 0.154,0.137 0.231,0.361 0.231,0.671 0,0.298 -0.077,0.515 -0.231,0.65 -0.155,0.134 -0.388,0.201 -0.697,0.201 l -1.479,0 0,-1.728 1.479,0 z m 0.481,2.778 c 0.275,0 0.523,-0.045 0.744,-0.134 0.221,-0.089 0.41,-0.21 0.568,-0.365 C 28.471,5.018 28.592,4.839 28.675,4.636 28.758,4.432 28.8,4.212 28.8,3.977 28.8,3.616 28.724,3.304 28.572,3.041 28.42,2.777 28.172,2.576 27.828,2.438 l 0,-0.017 C 27.994,2.375 28.132,2.305 28.241,2.21 28.35,2.116 28.438,2.004 28.508,1.875 28.576,1.746 28.626,1.604 28.658,1.449 28.689,1.294 28.711,1.14 28.723,0.984 28.729,0.888 28.734,0.772 28.74,0.641 c 0.005,-0.132 0.016,-0.266 0.03,-0.404 0.014,-0.138 0.037,-0.268 0.068,-0.391 0.032,-0.124 0.079,-0.228 0.142,-0.314 l -1.349,0 C 27.556,-0.273 27.51,-0.041 27.492,0.228 27.476,0.497 27.449,0.755 27.416,1.002 27.369,1.323 27.271,1.558 27.123,1.707 26.974,1.856 26.73,1.93 26.393,1.93 l -1.351,0 0,-2.398 -1.351,0 0,6.14 3.311,0 z m 4.18,-4.627 c 0.074,-0.143 0.173,-0.259 0.297,-0.348 0.123,-0.09 0.267,-0.155 0.434,-0.197 0.166,-0.044 0.338,-0.065 0.516,-0.065 0.12,0 0.249,0.009 0.386,0.029 0.138,0.02 0.267,0.059 0.388,0.117 0.12,0.057 0.22,0.136 0.301,0.236 0.08,0.1 0.12,0.228 0.12,0.383 0,0.166 -0.054,0.3 -0.159,0.404 -0.107,0.103 -0.245,0.189 -0.417,0.258 -0.172,0.068 -0.366,0.129 -0.585,0.18 -0.218,0.053 -0.439,0.109 -0.662,0.173 -0.23,0.057 -0.453,0.127 -0.671,0.21 -0.218,0.083 -0.413,0.191 -0.585,0.323 -0.172,0.132 -0.311,0.296 -0.416,0.494 -0.108,0.198 -0.16,0.437 -0.16,0.718 0,0.316 0.068,0.589 0.203,0.821 0.135,0.233 0.31,0.427 0.527,0.581 0.219,0.155 0.465,0.269 0.74,0.344 0.276,0.075 0.551,0.111 0.827,0.111 0.32,0 0.629,-0.036 0.923,-0.107 0.295,-0.072 0.559,-0.188 0.788,-0.348 0.229,-0.16 0.411,-0.365 0.545,-0.615 0.135,-0.249 0.203,-0.552 0.203,-0.907 l -1.307,0 C 33.406,4.023 33.367,4.175 33.302,4.296 33.236,4.416 33.148,4.51 33.039,4.58 32.93,4.648 32.806,4.697 32.666,4.726 32.524,4.754 32.371,4.769 32.205,4.769 32.096,4.769 31.987,4.757 31.878,4.734 31.77,4.711 31.67,4.671 31.582,4.614 31.492,4.557 31.42,4.485 31.362,4.399 31.305,4.313 31.276,4.204 31.276,4.072 c 0,-0.12 0.023,-0.218 0.07,-0.292 0.045,-0.074 0.134,-0.143 0.27,-0.207 0.134,-0.062 0.322,-0.126 0.559,-0.188 0.237,-0.064 0.55,-0.144 0.932,-0.241 0.116,-0.024 0.275,-0.065 0.479,-0.125 0.203,-0.061 0.404,-0.156 0.605,-0.289 0.202,-0.131 0.374,-0.308 0.521,-0.529 0.145,-0.22 0.219,-0.502 0.219,-0.846 0,-0.281 -0.054,-0.542 -0.163,-0.783 -0.11,-0.24 -0.271,-0.449 -0.487,-0.623 -0.215,-0.175 -0.48,-0.312 -0.799,-0.409 -0.318,-0.098 -0.687,-0.146 -1.105,-0.146 -0.338,0 -0.666,0.042 -0.984,0.125 -0.319,0.083 -0.6,0.213 -0.843,0.392 -0.243,0.177 -0.437,0.403 -0.581,0.678 -0.143,0.275 -0.212,0.602 -0.205,0.981 l 1.306,0 c 0,-0.207 0.037,-0.382 0.112,-0.525 m 6.277,-1.513 -1.35,0 0,6.14 1.35,0 0,-6.14 z m 1.084,5.004 0,1.136 5.031,0 0,-1.136 -1.841,0 0,-5.004 -1.35,0 0,5.004 -1.84,0 z m 7.627,1.824 -1.16,0 0,1.006 1.16,0 0,-1.006 z m 1.771,0 -1.161,0 0,1.006 1.161,0 0,-1.006 z m -0.679,-4.455 -0.774,2.253 -0.016,0 -0.8,-2.253 1.59,0 z m -0.076,3.767 2.295,-6.14 -1.401,0 -0.465,1.367 -2.297,0 -0.48,-1.367 -1.359,0 2.322,6.14 1.385,0 z m 2.166,-1.136 0,1.136 5.031,0 0,-1.136 -1.84,0 0,-5.004 -1.351,0 0,5.004 -1.84,0 z"
             id="path34"
             style="fill:#002855;fill-opacity:1;fill-rule:nonzero;stroke:none" /></g><g
           transform="translate(425.4482,314.4771)"
           id="g36"><path
             d="m 0,0 0,-1.135 -2.968,0 0,-1.419 2.572,0 0,-1.049 -2.572,0 0,-2.537 -1.349,0 0,6.14 L 0,0 z m 3.926,-2.778 c 0.309,0 0.542,0.07 0.697,0.207 0.155,0.137 0.231,0.361 0.231,0.671 0,0.297 -0.076,0.514 -0.231,0.649 -0.155,0.135 -0.388,0.202 -0.697,0.202 l -1.48,0 0,-1.729 1.48,0 z M 4.407,0 C 4.683,0 4.931,-0.044 5.151,-0.133 5.372,-0.222 5.562,-0.344 5.72,-0.499 5.877,-0.654 5.997,-0.833 6.08,-1.036 6.163,-1.24 6.205,-1.459 6.205,-1.694 6.205,-2.056 6.129,-2.368 5.978,-2.631 5.825,-2.895 5.577,-3.096 5.233,-3.233 l 0,-0.017 C 5.399,-3.296 5.537,-3.367 5.646,-3.461 5.755,-3.556 5.845,-3.667 5.913,-3.797 5.981,-3.926 6.031,-4.068 6.063,-4.223 6.095,-4.376 6.116,-4.532 6.128,-4.687 6.134,-4.784 6.14,-4.899 6.145,-5.031 6.15,-5.163 6.16,-5.297 6.175,-5.435 6.188,-5.573 6.212,-5.703 6.243,-5.826 6.275,-5.95 6.323,-6.054 6.386,-6.14 l -1.35,0 c -0.075,0.195 -0.121,0.427 -0.139,0.697 -0.016,0.269 -0.043,0.526 -0.077,0.774 -0.046,0.32 -0.143,0.555 -0.292,0.705 -0.149,0.149 -0.392,0.223 -0.73,0.223 l -1.352,0 0,-2.399 -1.349,0 0,6.14 3.31,0 z m 4.639,-6.14 -1.352,0 0,6.14 1.352,0 0,-6.14 z m 6.139,6.14 0,-1.135 -3.242,0 0,-1.316 2.976,0 0,-1.049 -2.976,0 0,-1.505 3.311,0 0,-1.135 -4.661,0 0,6.14 4.592,0 z m 3.877,-5.005 c 0.195,0 0.384,0.031 0.568,0.094 0.183,0.063 0.346,0.168 0.489,0.315 0.144,0.145 0.259,0.336 0.345,0.572 0.086,0.234 0.129,0.521 0.129,0.859 0,0.31 -0.03,0.589 -0.09,0.839 -0.061,0.249 -0.16,0.463 -0.298,0.64 -0.138,0.178 -0.319,0.314 -0.546,0.409 -0.226,0.094 -0.506,0.142 -0.838,0.142 l -0.963,0 0,-3.87 1.204,0 z M 19.156,0 c 0.396,0 0.764,-0.063 1.106,-0.189 0.341,-0.126 0.635,-0.315 0.885,-0.568 0.249,-0.252 0.444,-0.567 0.584,-0.946 0.141,-0.378 0.211,-0.822 0.211,-1.333 0,-0.447 -0.056,-0.86 -0.171,-1.237 -0.116,-0.38 -0.288,-0.706 -0.52,-0.981 -0.232,-0.275 -0.522,-0.492 -0.869,-0.649 -0.347,-0.159 -0.756,-0.237 -1.226,-0.237 l -2.649,0 0,6.14 2.649,0 z m 6.711,-2.778 c 0.31,0 0.542,0.07 0.696,0.207 0.156,0.137 0.233,0.361 0.233,0.671 0,0.297 -0.077,0.514 -0.233,0.649 -0.154,0.135 -0.386,0.202 -0.696,0.202 l -1.479,0 0,-1.729 1.479,0 z M 26.349,0 c 0.275,0 0.523,-0.044 0.744,-0.133 0.22,-0.089 0.41,-0.211 0.567,-0.366 0.157,-0.155 0.278,-0.334 0.361,-0.537 0.083,-0.204 0.125,-0.423 0.125,-0.658 0,-0.362 -0.076,-0.674 -0.227,-0.937 -0.152,-0.264 -0.4,-0.465 -0.744,-0.602 l 0,-0.017 c 0.166,-0.046 0.303,-0.117 0.412,-0.211 0.109,-0.095 0.198,-0.206 0.267,-0.336 0.069,-0.129 0.119,-0.271 0.151,-0.426 0.031,-0.153 0.053,-0.309 0.064,-0.464 0.005,-0.097 0.011,-0.212 0.017,-0.344 0.006,-0.132 0.017,-0.266 0.03,-0.404 0.014,-0.138 0.037,-0.268 0.069,-0.391 0.031,-0.124 0.079,-0.228 0.142,-0.314 l -1.349,0 c -0.076,0.195 -0.122,0.427 -0.139,0.697 -0.017,0.269 -0.043,0.526 -0.077,0.774 -0.046,0.32 -0.144,0.555 -0.292,0.705 -0.151,0.149 -0.393,0.223 -0.732,0.223 l -1.35,0 0,-2.399 -1.35,0 0,6.14 3.311,0 z m 4.508,-6.14 -1.351,0 0,6.14 1.351,0 0,-6.14 z m 5.391,4.502 c -0.081,0.129 -0.181,0.242 -0.302,0.339 -0.12,0.098 -0.256,0.174 -0.408,0.229 -0.152,0.054 -0.31,0.081 -0.476,0.081 -0.305,0 -0.563,-0.058 -0.775,-0.177 -0.212,-0.117 -0.384,-0.274 -0.516,-0.472 -0.131,-0.198 -0.228,-0.424 -0.288,-0.675 -0.06,-0.253 -0.09,-0.514 -0.09,-0.783 0,-0.258 0.03,-0.508 0.09,-0.752 0.06,-0.244 0.157,-0.463 0.288,-0.658 0.132,-0.195 0.304,-0.351 0.516,-0.469 0.212,-0.118 0.47,-0.176 0.775,-0.176 0.412,0 0.734,0.126 0.966,0.378 0.233,0.252 0.374,0.585 0.426,0.998 l 1.307,0 c -0.033,-0.385 -0.123,-0.731 -0.266,-1.04 -0.144,-0.31 -0.333,-0.574 -0.568,-0.792 -0.235,-0.218 -0.51,-0.384 -0.826,-0.498 -0.315,-0.116 -0.662,-0.173 -1.039,-0.173 -0.471,0 -0.894,0.082 -1.27,0.246 -0.375,0.163 -0.691,0.388 -0.949,0.675 -0.258,0.286 -0.457,0.623 -0.594,1.009 -0.138,0.388 -0.207,0.805 -0.207,1.252 0,0.459 0.069,0.885 0.207,1.277 0.137,0.393 0.336,0.736 0.594,1.028 0.258,0.292 0.574,0.521 0.949,0.688 0.376,0.166 0.799,0.249 1.27,0.249 0.337,0 0.657,-0.048 0.958,-0.146 0.301,-0.098 0.57,-0.239 0.807,-0.426 0.238,-0.186 0.436,-0.417 0.59,-0.692 0.155,-0.275 0.252,-0.59 0.293,-0.946 l -1.308,0 c -0.022,0.155 -0.074,0.296 -0.154,0.426 M 40.349,0 l 0,-2.356 2.484,0 0,2.356 1.352,0 0,-6.14 -1.352,0 0,2.649 -2.484,0 0,-2.649 -1.351,0 0,6.14 1.351,0 z m 7.955,-4.317 -2.588,0 0,1.049 2.588,0 0,-1.049 z m 4.431,0.55 -0.773,2.253 -0.018,0 -0.798,-2.253 1.589,0 z M 52.659,0 l 2.295,-6.14 -1.4,0 -0.465,1.367 -2.297,0 -0.48,-1.367 -1.36,0 2.322,6.14 1.385,0 z m 4.577,0 0,-5.005 2.993,0 0,-1.135 -4.343,0 0,6.14 1.35,0 z m 8.665,0 0,-1.135 -3.242,0 0,-1.316 2.975,0 0,-1.049 -2.975,0 0,-1.505 3.311,0 0,-1.135 -4.661,0 0,6.14 4.592,0 z m 1.04,0 1.566,0 1.203,-1.96 1.247,1.96 1.48,0 -1.97,-2.933 2.141,-3.207 -1.608,0 -1.341,2.124 -1.367,-2.124 -1.514,0 2.141,3.216 L 66.941,0 z m 9.951,-3.767 -0.776,2.253 -0.016,0 -0.8,-2.253 1.592,0 z M 76.813,0 l 2.296,-6.14 -1.401,0 -0.465,1.367 -2.296,0 -0.481,-1.367 -1.36,0 2.323,6.14 1.384,0 z m 4.44,0 2.562,-4.119 0.018,0 0,4.119 1.264,0 0,-6.14 -1.35,0 -2.555,4.11 -0.016,0 0,-4.11 -1.264,0 0,6.14 1.341,0 z m 7.843,-5.005 c 0.195,0 0.383,0.031 0.567,0.094 0.184,0.063 0.348,0.168 0.49,0.315 0.144,0.145 0.258,0.336 0.344,0.572 0.086,0.234 0.129,0.521 0.129,0.859 0,0.31 -0.029,0.589 -0.09,0.839 -0.06,0.249 -0.158,0.463 -0.297,0.64 -0.137,0.178 -0.319,0.314 -0.545,0.409 -0.226,0.094 -0.506,0.142 -0.84,0.142 l -0.962,0 0,-3.87 1.204,0 z M 89.19,0 c 0.396,0 0.764,-0.063 1.106,-0.189 0.341,-0.126 0.637,-0.315 0.885,-0.568 0.25,-0.252 0.445,-0.567 0.586,-0.946 0.139,-0.378 0.21,-0.822 0.21,-1.333 0,-0.447 -0.058,-0.86 -0.172,-1.237 C 91.69,-4.653 91.517,-4.979 91.284,-5.254 91.052,-5.529 90.763,-5.746 90.416,-5.903 90.069,-6.062 89.661,-6.14 89.19,-6.14 l -2.648,0 0,6.14 2.648,0 z m 8.489,0 0,-1.135 -3.242,0 0,-1.316 2.974,0 0,-1.049 -2.974,0 0,-1.505 3.31,0 0,-1.135 -4.66,0 0,6.14 4.592,0 z m 4.107,-2.778 c 0.311,0 0.543,0.07 0.697,0.207 0.156,0.137 0.233,0.361 0.233,0.671 0,0.297 -0.077,0.514 -0.233,0.649 -0.154,0.135 -0.386,0.202 -0.697,0.202 l -1.478,0 0,-1.729 1.478,0 z M 102.269,0 c 0.275,0 0.523,-0.044 0.744,-0.133 0.22,-0.089 0.41,-0.211 0.567,-0.366 0.157,-0.155 0.278,-0.334 0.361,-0.537 0.083,-0.204 0.124,-0.423 0.124,-0.658 0,-0.362 -0.075,-0.674 -0.227,-0.937 -0.151,-0.264 -0.4,-0.465 -0.744,-0.602 l 0,-0.017 c 0.167,-0.046 0.303,-0.117 0.413,-0.211 0.109,-0.095 0.198,-0.206 0.266,-0.336 0.07,-0.129 0.119,-0.271 0.151,-0.426 0.031,-0.153 0.054,-0.309 0.064,-0.464 0.006,-0.097 0.012,-0.212 0.018,-0.344 0.005,-0.132 0.015,-0.266 0.03,-0.404 0.014,-0.138 0.037,-0.268 0.068,-0.391 0.032,-0.124 0.08,-0.228 0.143,-0.314 l -1.351,0 c -0.075,0.195 -0.12,0.427 -0.137,0.697 -0.018,0.269 -0.043,0.526 -0.078,0.774 -0.045,0.32 -0.143,0.555 -0.292,0.705 -0.15,0.149 -0.393,0.223 -0.731,0.223 l -1.35,0 0,-2.399 -1.35,0 0,6.14 3.311,0 z"
             id="path38"
             style="fill:#002855;fill-opacity:1;fill-rule:nonzero;stroke:none" /></g><g
           transform="translate(407.6782,292.5576)"
           id="g40"><path
             d="m 0,0 -25.604,0 c 1.574,-1.283 3.395,-2.246 5.322,-2.916 l 14.946,0 C -3.402,-2.246 -1.577,-1.283 0,0"
             id="path42"
             style="fill:#002855;fill-opacity:1;fill-rule:nonzero;stroke:none" /></g><g
           transform="translate(337.1934,294.0205)"
           id="g44"><path
             d="m 0,0 11.097,0 0.017,0.053 -0.03,0 0.918,2.863 -10.898,0 L 0,0 z"
             id="path46"
             style="fill:#002855;fill-opacity:1;fill-rule:nonzero;stroke:none" /></g><g
           transform="translate(336.6851,292.5576)"
           id="g48"><path
             d="m 0,0 -1.105,-2.916 11.305,0 L 11.164,0 0,0 z"
             id="path50"
             style="fill:#002855;fill-opacity:1;fill-rule:nonzero;stroke:none" /></g><path
           d="m 313,289.642 10.596,0 0,2.916 -10.596,0 0,-2.916 z"
           id="path52"
           style="fill:#002855;fill-opacity:1;fill-rule:nonzero;stroke:none" /><path
           d="m 323.596,296.937 -10.596,0 0,-2.916 10.596,0 0,2.916 z"
           id="path54"
           style="fill:#002855;fill-opacity:1;fill-rule:nonzero;stroke:none" /><path
           d="m 323.596,301.312 -10.596,0 0,-2.917 10.596,0 0,2.917 z"
           id="path56"
           style="fill:#002855;fill-opacity:1;fill-rule:nonzero;stroke:none" /><path
           d="m 323.596,305.686 -10.596,0 0,-2.916 10.596,0 0,2.916 z"
           id="path58"
           style="fill:#002855;fill-opacity:1;fill-rule:nonzero;stroke:none" /><path
           d="m 323.596,318.818 -10.596,0 0,-2.917 10.596,0 0,2.917 z"
           id="path60"
           style="fill:#002855;fill-opacity:1;fill-rule:nonzero;stroke:none" /><path
           d="m 323.596,323.201 -10.596,0 0,-2.917 10.596,0 0,2.917 z"
           id="path62"
           style="fill:#002855;fill-opacity:1;fill-rule:nonzero;stroke:none" /><path
           d="m 313,329.034 32.383,0 0,2.917 -32.383,0 0,-2.917 z"
           id="path64"
           style="fill:#002855;fill-opacity:1;fill-rule:nonzero;stroke:none" /><path
           d="m 313,324.659 32.383,0 0,2.917 -32.383,0 0,-2.917 z"
           id="path66"
           style="fill:#002855;fill-opacity:1;fill-rule:nonzero;stroke:none" /><g
           transform="translate(355.9219,318.8179)"
           id="g68"><path
             d="m 0,0 -9.556,0 -1.105,-2.916 9.764,0 L 0,0 z"
             id="path70"
             style="fill:#002855;fill-opacity:1;fill-rule:nonzero;stroke:none" /></g><g
           transform="translate(350.1011,329.0337)"
           id="g72"><path
             d="M 0,0 13.19,0 12.059,2.917 1.106,2.917 0,0 z"
             id="path74"
             style="fill:#002855;fill-opacity:1;fill-rule:nonzero;stroke:none" /></g><g
           transform="translate(348.4878,324.6592)"
           id="g76"><path
             d="M 0,0 16.453,0 15.322,2.917 1.105,2.917 0,0 z"
             id="path78"
             style="fill:#002855;fill-opacity:1;fill-rule:nonzero;stroke:none" /></g><g
           transform="translate(357.272,320.2764)"
           id="g80"><path
             d="m 0,0 9.32,0 -1.131,2.917 -17.481,0 -1.106,-2.917 9.459,0 0.41,1.337 0.119,0 L 0,0 z"
             id="path82"
             style="fill:#002855;fill-opacity:1;fill-rule:nonzero;stroke:none" /></g><g
           transform="translate(358.5806,315.9019)"
           id="g84"><path
             d="m 0,0 9.662,0 -1.131,2.916 -9.427,0 L 0,0 z"
             id="path86"
             style="fill:#002855;fill-opacity:1;fill-rule:nonzero;stroke:none" /></g><g
           transform="translate(359.8877,311.5317)"
           id="g88"><path
             d="m 0,0 10.004,0 -1.13,2.917 -9.77,0 L 0,0 z"
             id="path90"
             style="fill:#76232f;fill-opacity:1;fill-rule:nonzero;stroke:none" /></g><g
           transform="translate(361.1953,307.1577)"
           id="g92"><path
             d="M 0,0 10.348,0 9.216,2.916 -0.896,2.916 0,0 z"
             id="path94"
             style="fill:#76232f;fill-opacity:1;fill-rule:nonzero;stroke:none" /></g><g
           transform="translate(340.4199,302.7695)"
           id="g96"><path
             d="M 0,0 32.773,0 31.642,2.916 1.106,2.916 0,0 z"
             id="path98"
             style="fill:#002855;fill-opacity:1;fill-rule:nonzero;stroke:none" /></g><g
           transform="translate(338.8066,298.395)"
           id="g100"><path
             d="M 0,0 36.037,0 34.906,2.917 1.105,2.917 0,0 z"
             id="path102"
             style="fill:#002855;fill-opacity:1;fill-rule:nonzero;stroke:none" /></g><g
           transform="translate(365.4058,294.0205)"
           id="g104"><path
             d="M 0,0 11.089,0 9.958,2.916 -0.977,2.916 0,0 z"
             id="path106"
             style="fill:#002855;fill-opacity:1;fill-rule:nonzero;stroke:none" /></g><g
           transform="translate(365.8164,292.5576)"
           id="g108"><path
             d="m 0,0 0.962,-2.916 11.365,0 L 11.197,0 0,0 z"
             id="path110"
             style="fill:#002855;fill-opacity:1;fill-rule:nonzero;stroke:none" /></g><path
           d="m 376.932,329.034 10.595,0 0,2.917 -10.595,0 0,-2.917 z"
           id="path112"
           style="fill:#002855;fill-opacity:1;fill-rule:nonzero;stroke:none" /><path
           d="m 376.932,324.659 10.595,0 0,2.917 -10.595,0 0,-2.917 z"
           id="path114"
           style="fill:#002855;fill-opacity:1;fill-rule:nonzero;stroke:none" /><path
           d="m 376.932,320.276 10.595,0 0,2.917 -10.595,0 0,-2.917 z"
           id="path116"
           style="fill:#002855;fill-opacity:1;fill-rule:nonzero;stroke:none" /><path
           d="m 376.932,315.902 10.595,0 0,2.916 -10.595,0 0,-2.916 z"
           id="path118"
           style="fill:#002855;fill-opacity:1;fill-rule:nonzero;stroke:none" /><path
           d="m 376.932,311.532 10.595,0 0,2.916 -10.595,0 0,-2.916 z"
           id="path120"
           style="fill:#76232f;fill-opacity:1;fill-rule:nonzero;stroke:none" /><path
           d="m 376.932,307.158 10.595,0 0,2.916 -10.595,0 0,-2.916 z"
           id="path122"
           style="fill:#76232f;fill-opacity:1;fill-rule:nonzero;stroke:none" /><g
           transform="translate(377.0166,302.7695)"
           id="g124"><path
             d="M 0,0 10.709,0 C 10.575,0.755 10.51,1.562 10.51,2.411 l 0,0.505 -10.594,0 0,-1.374 C -0.084,1.006 -0.043,0.503 0,0"
             id="path126"
             style="fill:#002855;fill-opacity:1;fill-rule:nonzero;stroke:none" /></g><g
           transform="translate(377.9639,298.395)"
           id="g128"><path
             d="m 0,0 12.084,0 c -0.94,0.734 -1.58,1.73 -1.98,2.917 l -10.877,0 C -0.6,1.876 -0.348,0.896 0,0"
             id="path130"
             style="fill:#002855;fill-opacity:1;fill-rule:nonzero;stroke:none" /></g><g
           transform="translate(411.1934,296.9365)"
           id="g132"><path
             d="m 0,0 -32.629,0 c 0.569,-1.09 1.271,-2.057 2.068,-2.916 l 28.491,0 C -1.271,-2.057 -0.568,-1.09 0,0"
             id="path134"
             style="fill:#002855;fill-opacity:1;fill-rule:nonzero;stroke:none" /></g><g
           transform="translate(412.5693,301.3115)"
           id="g136"><path
             d="m 0,0 -10.88,0 c -0.401,-1.186 -1.046,-2.183 -1.992,-2.917 l 12.097,0 C -0.426,-2.02 -0.176,-1.041 0,0"
             id="path138"
             style="fill:#002855;fill-opacity:1;fill-rule:nonzero;stroke:none" /></g><path
           d="m 402.231,329.034 10.596,0 0,2.917 -10.596,0 0,-2.917 z"
           id="path140"
           style="fill:#002855;fill-opacity:1;fill-rule:nonzero;stroke:none" /><path
           d="m 402.231,324.659 10.596,0 0,2.917 -10.596,0 0,-2.917 z"
           id="path142"
           style="fill:#002855;fill-opacity:1;fill-rule:nonzero;stroke:none" /><path
           d="m 402.231,320.276 10.596,0 0,2.917 -10.596,0 0,-2.917 z"
           id="path144"
           style="fill:#002855;fill-opacity:1;fill-rule:nonzero;stroke:none" /><path
           d="m 402.231,315.902 10.596,0 0,2.916 -10.596,0 0,-2.916 z"
           id="path146"
           style="fill:#002855;fill-opacity:1;fill-rule:nonzero;stroke:none" /><path
           d="m 402.231,311.532 10.596,0 0,2.916 -10.596,0 0,-2.916 z"
           id="path148"
           style="fill:#76232f;fill-opacity:1;fill-rule:nonzero;stroke:none" /><path
           d="m 402.231,307.158 10.596,0 0,2.916 -10.596,0 0,-2.916 z"
           id="path150"
           style="fill:#76232f;fill-opacity:1;fill-rule:nonzero;stroke:none" /><g
           transform="translate(412.8271,304.3115)"
           id="g152"><path
             d="m 0,0 0,1.374 -10.596,0 0,-0.505 c 0,-0.849 -0.064,-1.656 -0.198,-2.411 l 10.709,0 C -0.043,-1.039 0,-0.536 0,0"
             id="path154"
             style="fill:#002855;fill-opacity:1;fill-rule:nonzero;stroke:none" /></g><g
           transform="translate(313,310.0742)"
           id="g156"><path
             d="m 0,0 0,-2.916 39.41,0 L 40.306,0 0,0 z"
             id="path158"
             style="fill:#76232f;fill-opacity:1;fill-rule:nonzero;stroke:none" /></g><g
           transform="translate(313,314.4482)"
           id="g160"><path
             d="m 0,0 0,-2.916 40.718,0 L 41.613,0 0,0 z"
             id="path162"
             style="fill:#76232f;fill-opacity:1;fill-rule:nonzero;stroke:none" /></g></g></g></g></svg>